<?xml version="1.0" encoding="iso-8859-1"?>
<!-- Generator: Adobe Illustrator 19.0.0, SVG Export Plug-In . SVG Version: 6.00 Build 0)  -->
<svg version="1.1" id="Capa_1" xmlns="http://www.w3.org/2000/svg" xmlns:xlink="http://www.w3.org/1999/xlink" x="0px" y="0px"
	 viewBox="0 0 462.233 462.233" style="enable-background:new 0 0 462.233 462.233;" xml:space="preserve">
<g>
	<g id="XMLID_62_">
		<g>
			<path style="fill:#FFF8EA;" d="M31.347,284.942c4.08,4.08,8.22,7.53,12.38,10.42c-11-4.03-19.75-9.21-24.22-13.6
				c-3.31-3.26-4.42-6.6-4.52-8.33C16.977,273.832,22.167,275.772,31.347,284.942z"/>
			<path style="fill:#FFF8EA;" d="M445.147,196.861c-3.81,3.67-9.16,7.75-13.44,8.11c-9.66,0.81-23.02,3.78-32.52,6.13
				c-6.18,1.53-11.13,6.37-12.93,12.65c-11.07,38.78-37.33,54.6-52.29,55.77c-5.58,0.44-10.36,3.69-12.79,8.69
				c-2.02,4.16-2.06,8.84-0.21,12.95c-14.88-3.23-36.49-15.51-43.46-30.17c-3.88-8.15-2.61-15.99,3.86-23.95
				c2.62-3.21,2.13-7.94-1.08-10.55c-3.22-2.61-7.94-2.13-10.55,1.09c-10.39,12.77-10.7,24.71-8.08,33.8
				c-9.78-0.76-18.79-2.35-26.99-3.8c-7.81-1.39-14.8-2.63-21.15-2.91c0.56-9.07-1.47-17.86-6.09-26.05
				c-2.04-3.6-6.61-4.88-10.22-2.84c-3.61,2.03-4.88,6.61-2.84,10.22c13.52,23.96-8.9,48.34-18.39,56h-27.34
				c-9.56,0-37.3-9.18-37.3-37.29c0-13.45,6.67-36.33,25.47-56.55c14-15.06,39.07-33.01,79.02-33.01c27.49,0,46.03,10.5,60.93,18.94
				c10.34,5.86,19.28,10.92,28.66,10.92c10.84,0,19.73-8.78,30.03-18.95c3.88-3.83,7.92-7.82,12.21-11.48c0,0.04,0,0.08,0,0.13
				c0,8.57,5.38,16.38,13.39,19.42c0.88,0.34,1.78,0.49,2.66,0.49c3.03,0,5.88-1.84,7.02-4.83c1.47-3.87-0.48-8.21-4.35-9.68
				c-2.23-0.84-3.72-3.02-3.72-5.4c0-3.19,2.59-5.78,5.77-5.78c2.55,0,4.77,1.63,5.52,4.06c1.23,3.95,5.44,6.16,9.39,4.93
				c3.96-1.23,6.17-5.43,4.94-9.39c-0.99-3.17-2.67-5.95-4.85-8.22C415.607,161.931,437.367,186.511,445.147,196.861z
				 M418.787,181.111c0-5.33-4.34-9.67-9.67-9.67c-5.33,0-9.67,4.34-9.67,9.67c0,5.33,4.34,9.67,9.67,9.67
				C414.447,190.781,418.787,186.442,418.787,181.111z"/>
			<path style="fill:#3D484A;" d="M461.147,193.641c1.63,2.69,1.41,6.1-0.56,8.56c-1.35,1.69-13.62,16.55-27.63,17.72
				c-9.13,0.76-22.82,3.92-30.17,5.74c-0.99,0.24-1.78,1.07-2.1,2.21c-14.21,49.73-49.09,65.31-65.54,66.6
				c-0.12,0.01-0.35,0.03-0.48,0.3c-0.08,0.15-0.05,0.22,0.04,0.35l4.59,6.88h11.85c4.14,0,7.5,3.36,7.5,7.5
				c0,4.14-3.36,7.5-7.5,7.5h-23.33c-15.46,0-43.32-11.74-57.95-30.23c-14.27-0.27-26.75-2.46-37.83-4.43
				c-8.5-1.51-15.91-2.81-21.71-2.72c-0.86,2.39-1.88,4.78-3.08,7.18c-2.83,5.63-6.38,10.77-10.07,15.2h3.72
				c4.14,0,7.5,3.36,7.5,7.5c0,4.14-3.36,7.5-7.5,7.5h-52.26c-7.92,0-18.81-2.89-28.61-9.19c-13.31,6.92-27.31,9.2-39.96,9.2
				c-8.36,0-16.12-0.99-22.7-2.29c-19.55-3.85-38.54-12.59-48.38-22.27c-7.08-6.96-10.39-16.28-8.43-23.73
				c1.3-4.98,4.8-8.57,9.59-9.87c8.51-2.31,19.22,2.9,31.8,15.48c22.46,22.46,46.76,21.31,60.98,15.88
				c-4.05-6.99-6.59-15.44-6.59-25.5c0-21.62,11.3-47.2,29.48-66.76c16.03-17.24,44.66-37.8,90.01-37.8
				c31.44,0,52.76,12.07,68.32,20.89c8.5,4.81,15.85,8.97,21.27,8.97c4.68,0,12.21-7.43,19.49-14.62
				c13.61-13.44,30.55-30.17,55.17-30.17C431.307,145.221,459.957,191.661,461.147,193.641z M431.707,204.971
				c4.28-0.36,9.63-4.44,13.44-8.11c-7.78-10.35-29.54-34.93-61.72-36.55c2.18,2.27,3.86,5.05,4.85,8.22
				c1.23,3.96-0.98,8.16-4.94,9.39c-3.95,1.23-8.16-0.98-9.39-4.93c-0.75-2.43-2.97-4.06-5.52-4.06c-3.18,0-5.77,2.59-5.77,5.78
				c0,2.38,1.49,4.56,3.72,5.4c3.87,1.47,5.82,5.81,4.35,9.68c-1.14,2.99-3.99,4.83-7.02,4.83c-0.88,0-1.78-0.15-2.66-0.49
				c-8.01-3.04-13.39-10.85-13.39-19.42c0-0.05,0-0.09,0-0.13c-4.29,3.66-8.33,7.65-12.21,11.48
				c-10.3,10.17-19.19,18.95-30.03,18.95c-9.38,0-18.32-5.06-28.66-10.92c-14.9-8.44-33.44-18.94-60.93-18.94
				c-39.95,0-65.02,17.95-79.02,33.01c-18.8,20.22-25.47,43.1-25.47,56.55c0,28.11,27.74,37.29,37.3,37.29h27.34
				c9.49-7.66,31.91-32.04,18.39-56c-2.04-3.61-0.77-8.19,2.84-10.22c3.61-2.04,8.18-0.76,10.22,2.84
				c4.62,8.19,6.65,16.98,6.09,26.05c6.35,0.28,13.34,1.52,21.15,2.91c8.2,1.45,17.21,3.04,26.99,3.8
				c-2.62-9.09-2.31-21.03,8.08-33.8c2.61-3.22,7.33-3.7,10.55-1.09c3.21,2.61,3.7,7.34,1.08,10.55c-6.47,7.96-7.74,15.8-3.86,23.95
				c6.97,14.66,28.58,26.94,43.46,30.17c-1.85-4.11-1.81-8.79,0.21-12.95c2.43-5,7.21-8.25,12.79-8.69
				c14.96-1.17,41.22-16.99,52.29-55.77c1.8-6.28,6.75-11.12,12.93-12.65C408.687,208.752,422.047,205.781,431.707,204.971z
				 M43.727,295.361c-4.16-2.89-8.3-6.34-12.38-10.42c-9.18-9.17-14.37-11.11-16.36-11.51c0.1,1.73,1.21,5.07,4.52,8.33
				C23.977,286.151,32.727,291.332,43.727,295.361z"/>
			<path style="fill:#3D484A;" d="M409.117,171.442c5.33,0,9.67,4.34,9.67,9.67c0,5.33-4.34,9.67-9.67,9.67
				c-5.33,0-9.67-4.34-9.67-9.67C399.447,175.781,403.787,171.442,409.117,171.442z"/>
		</g>
	</g>
</g>
<g>
</g>
<g>
</g>
<g>
</g>
<g>
</g>
<g>
</g>
<g>
</g>
<g>
</g>
<g>
</g>
<g>
</g>
<g>
</g>
<g>
</g>
<g>
</g>
<g>
</g>
<g>
</g>
<g>
</g>
</svg>
