<?xml version="1.0" encoding="iso-8859-1"?>
<!-- Generator: Adobe Illustrator 19.0.0, SVG Export Plug-In . SVG Version: 6.00 Build 0)  -->
<svg version="1.1" id="Capa_1" xmlns="http://www.w3.org/2000/svg" xmlns:xlink="http://www.w3.org/1999/xlink" x="0px" y="0px"
	 viewBox="0 0 463 463" style="enable-background:new 0 0 463 463;" xml:space="preserve">
<g id="XMLID_60_">
	<g>
		<path style="fill:#3D484A;" d="M463,152.409v2.02c0,10.16-11.06,21.48-26.93,21.48H423.5c-3.15,0-6.31-0.331-9.41-0.93
			c-0.13,0.07-0.26,0.15-0.39,0.21c-23.21,10.93-40.4,29.32-51.101,54.66c-5.38,12.74-7.699,24.16-8.659,30.49
			c3.989,2.42,7.09,6.1,8.79,10.52l3.77,9.86c0.89,2.31,0.58,4.9-0.82,6.94c-1.399,2.03-3.71,3.25-6.18,3.25h-25.67
			c-2.84,0-5.43-1.61-6.71-4.15l-10.73-21.47c-1.979-3.96-3.239-10.19-3.88-19.39c-26.069,8.28-68.79,20.42-86.95,22.27l4.921,12.49
			c0.909,2.31,0.619,4.919-0.78,6.97c-1.4,2.05-3.72,3.28-6.2,3.28h-60.23c-5.159,0-9.859-2.62-12.569-7.01
			c-2.54-4.1-2.91-9.07-1.061-13.47c-4.3-2.94-9.77-7.69-14.14-14.79c-6.47,5.84-16.25,11.771-28.95,19.46
			c-8.939,5.42-19.08,11.561-30.41,19.06c-16.63,11.01-18.42,15.37-18.609,16.17c0.43,1.02,2.89,3.26,4.54,4.77
			c2.89,2.63,6.479,5.91,9.26,10.28c7.81,12.27,6.01,21.41,4.25,25.77c-2.271,5.61-6.88,9.75-12.33,11.05
			c-2.54,0.61-5.23,0.9-8.02,0.9c-10.74,0-22.851-4.39-32.711-12.16C8,339.478,0,322.598,0,303.408
			c0-39.71,24.72-69.539,71.47-86.26c28.561-10.21,56.71-12.51,65.83-13.01c3.851-5.38,8.8-10.86,14.7-16.13
			c14.81-13.26,32.22-22.25,46.57-24.04c31.73-3.97,131.71-20.24,173.439-42.2c8.49-4.47,16.811-7.27,22.4-8.31
			c2.49-4.27,5.56-8.3,8.92-11.49c2.22-2.11,5.5-2.66,8.28-1.39c0.409,0.19,7.189,3.36,12.85,10.74
			c17.42,5.18,18.25,10.97,18.5,13.6c0.83,3.21,9.11,13.52,17.82,22.17C462.2,148.488,463,150.409,463,152.409z M436.07,160.909
			c6.66,0,10.569-3.711,11.64-5.711c-6.64-6.81-15.36-16.69-18.51-24.42c-0.94,1.1-2.21,1.95-3.71,2.36c-4,1.1-8.12-1.25-9.221-5.24
			c-1.35-4.91-4.109-8.35-6.51-10.55c-3.609,4.96-6.12,10.811-6.46,14.44c-0.37,3.88-3.64,6.78-7.46,6.78
			c-0.24,0-0.479-0.01-0.72-0.03c-3.96-0.379-6.9-3.78-6.77-7.7c-2.8,1.05-5.98,2.43-9.359,4.2
			c-52.08,27.42-177.311,43.65-178.561,43.81c-25.84,3.23-57.43,34.88-57.43,48.561c0,25.109,19.07,32.95,19.26,33.02
			c1.95,0.78,3.49,2.34,4.25,4.3c0.75,1.96,0.641,4.15-0.3,6.03l-2.58,5.15h48.86l-0.98-2.5c-0.68-1.72-2.31-2.84-4.17-2.84
			c0,0-22.899,0-23.84,0c-4.14,0-7.5-3.35-7.5-7.5c0-4.14,3.36-7.5,7.5-7.5c0.97,0,9.31,0,9.31,0c19.36-0.28,37.02-3.23,39.25-21.09
			c2.87-22.99-18.39-31.73-19.29-32.09c-3.84-1.52-5.739-5.87-4.23-9.71c1.5-3.84,5.8-5.75,9.66-4.27
			c11.46,4.419,32.22,20.12,28.74,47.93c-0.62,5-2.07,9.5-4.261,13.48c20.21-4.64,48.98-12.91,69.33-19.51
			c-0.01-0.56-0.01-13.899-0.01-13.899c0-1.99,0.79-3.9,2.2-5.311l8-8c2.93-2.92,7.67-2.92,10.6,0c2.931,2.93,2.931,7.68,0,10.61
			l-5.8,5.8v9.12c0,21.97,1.96,28.27,2.81,29.96l8.66,17.32h10.12c-0.649-1.45-1.84-2.59-3.31-3.19l-1.521-0.44
			c-3.38-0.97-5.63-4.16-5.41-7.66c0.04-0.75,1.221-18.561,10.21-40.081c1.391-3.33,2.9-6.56,4.521-9.7c0-0.01,0-0.01,0-0.02
			c7.4-50.5,33.21-67.96,34.3-68.68c1.8-1.18,4-1.53,6.07-0.97c2.069,0.55,3.8,1.97,4.76,3.88c3.21,6.43,14.79,11.86,25.29,11.86
			H436.07z M396.08,167.718c-2.03-1.33-3.9-2.79-5.55-4.37c-1.82,1.96-4,4.59-6.28,7.96c-1.73,2.561-3.63,5.73-5.52,9.55
			C384.08,175.928,389.87,171.538,396.08,167.718z M128,227.409c0-2.38,0.42-4.92,1.2-7.561c-12.29,1.24-32.76,4.26-52.98,11.53
			C35.6,245.988,15,270.228,15,303.408c0,19.57,10.53,30.8,16.81,35.75c10.171,8.02,21.36,10.03,27.94,8.45
			c0.33-0.08,1.33-0.61,1.93-2.09c1.15-2.86,0.061-7.27-3.01-12.09c-1.71-2.69-4.25-5.01-6.71-7.26c-4.46-4.06-10.01-9.13-9.4-16.91
			c0.641-8.23,7.73-15.97,25.301-27.61c11.58-7.66,21.85-13.89,30.92-19.38c14.45-8.75,28.13-17.04,30.51-22.27
			C128.47,236.188,128,231.998,128,227.409z"/>
		<path style="fill:#BE9E7E;" d="M447.71,155.198c-1.07,2-4.979,5.711-11.64,5.711H423.5c-10.5,0-22.08-5.43-25.29-11.86
			c-0.96-1.91-2.69-3.33-4.76-3.88c-2.07-0.56-4.271-0.21-6.07,0.97c-1.09,0.72-26.899,18.18-34.3,68.68c0,0.01,0,0.01,0,0.02
			c-1.62,3.14-3.13,6.37-4.521,9.7c-8.989,21.52-10.17,39.331-10.21,40.081c-0.22,3.5,2.03,6.689,5.41,7.66l1.521,0.44
			c1.47,0.6,2.66,1.74,3.31,3.19h-10.12l-8.66-17.32c-0.85-1.69-2.81-7.99-2.81-29.96v-9.12l5.8-5.8c2.931-2.93,2.931-7.68,0-10.61
			c-2.93-2.92-7.67-2.92-10.6,0l-8,8c-1.41,1.41-2.2,3.32-2.2,5.311c0,0,0,13.34,0.01,13.899c-20.35,6.601-49.12,14.87-69.33,19.51
			c2.19-3.98,3.641-8.48,4.261-13.48c3.48-27.81-17.28-43.51-28.74-47.93c-3.86-1.48-8.16,0.43-9.66,4.27
			c-1.51,3.84,0.39,8.19,4.23,9.71c0.9,0.36,22.16,9.1,19.29,32.09c-2.23,17.86-19.89,20.81-39.25,21.09c0,0-8.34,0-9.31,0
			c-4.14,0-7.5,3.36-7.5,7.5c0,4.15,3.36,7.5,7.5,7.5c0.94,0,23.84,0,23.84,0c1.86,0,3.49,1.12,4.17,2.84l0.98,2.5h-48.86l2.58-5.15
			c0.94-1.88,1.05-4.07,0.3-6.03c-0.76-1.96-2.3-3.52-4.25-4.3c-0.189-0.07-19.26-7.91-19.26-33.02
			c0-13.68,31.59-45.331,57.43-48.561c1.25-0.16,126.48-16.39,178.561-43.81c3.38-1.77,6.56-3.15,9.359-4.2
			c-0.13,3.92,2.811,7.32,6.77,7.7c0.24,0.02,0.48,0.03,0.72,0.03c3.82,0,7.09-2.9,7.46-6.78c0.34-3.629,2.851-9.48,6.46-14.44
			c2.4,2.2,5.16,5.64,6.51,10.55c1.101,3.99,5.221,6.34,9.221,5.24c1.5-0.41,2.77-1.26,3.71-2.36
			C432.35,138.508,441.07,148.388,447.71,155.198z"/>
		<path style="fill:#E5CF9F;" d="M390.53,163.348c1.649,1.58,3.52,3.04,5.55,4.37c-6.21,3.82-12,8.21-17.35,13.14
			c1.89-3.82,3.789-6.99,5.52-9.55C386.53,167.938,388.71,165.308,390.53,163.348z"/>
		<path style="fill:#BE9E7E;" d="M129.2,219.848c-0.78,2.64-1.2,5.18-1.2,7.561c0,4.59,0.47,8.78,1.29,12.59
			c-2.38,5.23-16.059,13.52-30.51,22.27c-9.07,5.49-19.34,11.72-30.92,19.38c-17.57,11.64-24.66,19.38-25.301,27.61
			c-0.609,7.78,4.94,12.85,9.4,16.91c2.46,2.25,5,4.57,6.71,7.26c3.07,4.82,4.16,9.23,3.01,12.09c-0.6,1.48-1.6,2.01-1.93,2.09
			c-6.58,1.58-17.77-0.43-27.94-8.45c-6.279-4.95-16.81-16.18-16.81-35.75c0-33.18,20.6-57.42,61.22-72.03
			C96.44,224.108,116.91,221.088,129.2,219.848z"/>
	</g>
</g>
<g>
</g>
<g>
</g>
<g>
</g>
<g>
</g>
<g>
</g>
<g>
</g>
<g>
</g>
<g>
</g>
<g>
</g>
<g>
</g>
<g>
</g>
<g>
</g>
<g>
</g>
<g>
</g>
<g>
</g>
</svg>
