<?xml version="1.0" encoding="iso-8859-1"?>
<!-- Generator: Adobe Illustrator 19.0.0, SVG Export Plug-In . SVG Version: 6.00 Build 0)  -->
<svg version="1.1" id="Capa_1" xmlns="http://www.w3.org/2000/svg" xmlns:xlink="http://www.w3.org/1999/xlink" x="0px" y="0px"
	 viewBox="0 0 463 463" style="enable-background:new 0 0 463 463;" xml:space="preserve">
<g id="XMLID_51_">
	<g>
		<path style="fill:#7C8789;" d="M321.171,267.53l22.83,35.871l-39.97-34.831c1.97-4.61,4.13-10.94,4.1-16.32
			c4.93-3.95,9.97-8.47,15-13.69c0.96-0.14,2.18-0.33,3.57-0.57c-1.52,6.11-4.06,15.34-6.4,23.42
			C319.702,263.481,320.021,265.711,321.171,267.53z"/>
		<path style="fill:#7C8789;" d="M84.852,240.82c2.96,4.61,6.4,9.121,10.34,13.5c-4.56,5.86-18.6,20.94-50.58,34.26
			c-2.02,0.84-2.02,0.84-7.85,8.74c-2.55,3.44-5.85,7.93-9.2,12.5l3.99-23.1C48.521,278.941,71.171,264.76,84.852,240.82z"/>
		<path style="fill:#9EA8AA;" d="M400.702,130.641c0.3,0.66,0.7,1.27,1.2,1.83c0.05,0.06,0.1,0.12,0.15,0.18
			c0.05,0.05,0.1,0.1,0.15,0.149l21.8,21.811v12.89c0,1.99,0.79,3.9,2.2,5.3l17.53,17.53l-11.64,7.76
			c-0.64,0.43-1.44,0.47-2.12,0.12c-10.99-5.76-25.45-13.02-31.85-14.91c-3.98-1.16-8.15,1.11-9.32,5.08
			c-1.16,3.98,1.11,8.15,5.08,9.32c0.5,0.14,1.1,0.35,1.8,0.61c-33.03,20.05-76.63,25.69-77.1,25.75c-1.75,0.21-3.36,1.03-4.56,2.32
			c-24,25.68-48.62,33.88-57.88,36.97c-1.37,0.45-2.44,0.81-3.33,1.15c-2.24,0.86-3.93,2.74-4.55,5.06
			c-3.24,12.07-12.13,22.89-20.47,31.7l10.58-42.3c3.92-4.97,15.69-21.58,16.62-43.13c0.18-4.14-3.03-7.64-7.16-7.82
			c-4.14-0.16-7.64,3.03-7.82,7.16c-0.68,15.69-8.97,28.49-12.52,33.31c-16.98,2.19-38.24,2.35-53.16,0.48
			c0.43-2.97,0.67-6.11,0.67-9.46c0-20.21-16.72-43.43-17.43-44.41c-2.44-3.35-7.13-4.09-10.48-1.66
			c-3.35,2.44-4.09,7.13-1.66,10.48c4.06,5.57,14.57,22.82,14.57,35.59c0,17.01-7.56,26.74-16.31,38
			c-7.41,9.54-15.6,20.09-18.55,35.6l-4.65-3.87l13.97-34.94c1.39-3.48,0-7.44-3.24-9.3c-0.44-0.26-44.22-25.81-44.22-65.49
			c0-4.14-3.36-7.5-7.5-7.5c-4.14,0-7.5,3.36-7.5,7.5c0,8.19,1.5,16.35,4.4,24.34c-11.99,30.271-41.95,45.82-58.75,52.4
			c2.62-6.53,6.86-12.57,11.51-19.19c6.04-8.59,12.88-18.33,17.41-31.03c19.6-55.1,77.22-67.02,90.43-67.02
			c12.66,0,26.71,0.96,42.99,2.07c20.06,1.38,42.79,2.93,68.01,2.93c19.12,0,41.44-6.53,65.06-13.44
			c20.88-6.1,42.33-12.36,62.96-14.65c0.1,1.78,0.82,3.53,2.18,4.89c1.46,1.47,3.38,2.2,5.3,2.2s3.84-0.73,5.3-2.2l8-8l3.44-3.43
			c0,0.03,0.02,0.06,0.03,0.09c0.09,0.34,0.21,0.68,0.35,1.01C400.642,130.53,400.671,130.59,400.702,130.641z"/>
		<path style="fill:#3D484A;" d="M460.801,186.201c1.59,1.59,2.39,3.8,2.16,6.04c-0.22,2.24-1.43,4.25-3.3,5.5l-19.25,12.83
			c-2.86,1.91-6.16,2.871-9.48,2.871c-2.71,0-5.43-0.641-7.91-1.94c-4.08-2.14-7.87-4.08-11.31-5.79
			c-22.04,15.77-49.81,24.5-68.91,29c-0.21,1.23-0.5,2.52-0.82,3.9c-0.64,2.78-1.61,6.56-2.86,11.22
			c-1.28,4.74-2.62,9.47-3.48,12.49l51.98,81.68h11.88c4.14,0,7.5,3.36,7.5,7.5c0,4.14-3.36,7.5-7.5,7.5h-16
			c-2.56,0-4.95-1.31-6.33-3.47l-4.74-7.46l-82.52-71.919c-2.62-2.271-3.33-6.05-1.72-9.121c0.3-0.589,0.6-1.2,0.89-1.82
			c-11.95,6.84-21.92,10.27-27.53,12.14c-5.96,17.29-19.49,30.93-29.56,41.09c-3.53,3.56-7.87,7.939-8.99,9.89v15.67h8.5
			c4.14,0,7.5,3.36,7.5,7.5c0,4.14-3.36,7.5-7.5,7.5h-16c-4.14,0-7.5-3.36-7.5-7.5v-32c0-0.61,0.08-1.22,0.22-1.82l13.37-53.47
			c-7.65,0.69-15.71,1.05-23.57,1.05c-10.06,0-19.76-0.569-27.75-1.72c-3.86,9.16-9.49,16.42-14.73,23.17
			c-8.73,11.23-16.27,20.97-16.52,37.96l23.2,19.33h13.28c4.14,0,7.5,3.36,7.5,7.5c0,4.14-3.36,7.5-7.5,7.5h-16
			c-1.75,0-3.45-0.62-4.8-1.74l-48-40c-2.5-2.08-3.37-5.53-2.16-8.55l13.7-34.24c-3.22-2.21-7.57-5.43-12.31-9.57
			c-6.65,8.1-22.28,23.32-53.7,36.75c-3.93,5.229-17.61,23.89-26.94,36.649l2.85,5.7h11.36c4.14,0,7.5,3.36,7.5,7.5
			c0,4.14-3.36,7.5-7.5,7.5h-16c-2.84,0-5.44-1.61-6.71-4.15l-8-16c-0.71-1.43-0.95-3.05-0.68-4.63l7.12-41.15
			c-3.38,1.081-5.54,1.621-5.98,1.72c-0.58,0.14-1.17,0.21-1.75,0.21c-1.74,0-3.44-0.6-4.8-1.74c-1.82-1.52-2.82-3.81-2.69-6.17
			c0.87-15.89,9.01-27.47,16.88-38.67c5.76-8.19,11.71-16.66,15.54-27.44c9.51-26.72,28.37-48.23,54.53-62.22
			c21.84-11.68,42.28-14.76,50.04-14.76c13.17,0,28.15,1.02,44.01,2.11c19.82,1.35,42.28,2.89,66.99,2.89
			c16.97,0,38.29-6.23,60.85-12.84c26.13-7.64,53.11-15.51,79.49-16.1l13.86-13.86c2.14-2.15,5.37-2.79,8.17-1.63
			c2.8,1.16,4.63,3.9,4.63,6.93v12.89l21.8,21.81c1.41,1.4,2.2,3.31,2.2,5.3v12.89L460.801,186.201z M432.091,198.09l11.64-7.76
			l-17.53-17.53c-1.41-1.399-2.2-3.31-2.2-5.3v-12.89l-21.8-21.811c-0.05-0.05-0.1-0.1-0.15-0.149c-0.05-0.061-0.1-0.121-0.15-0.18
			c-0.5-0.56-0.9-1.17-1.2-1.83c-0.03-0.05-0.06-0.11-0.08-0.17c-0.14-0.33-0.26-0.67-0.35-1.01c-0.01-0.03-0.03-0.06-0.03-0.09
			l-3.44,3.43l-8,8c-1.46,1.47-3.38,2.2-5.3,2.2s-3.84-0.73-5.3-2.2c-1.36-1.359-2.08-3.109-2.18-4.89
			c-20.63,2.29-42.08,8.55-62.96,14.65c-23.62,6.91-45.94,13.44-65.06,13.44c-25.22,0-47.95-1.55-68.01-2.93
			c-16.28-1.11-30.33-2.07-42.99-2.07c-13.21,0-70.83,11.92-90.43,67.02c-4.53,12.7-11.37,22.44-17.41,31.03
			c-4.65,6.62-8.89,12.66-11.51,19.19c16.8-6.58,46.76-22.13,58.75-52.4c-2.9-7.99-4.4-16.149-4.4-24.34c0-4.14,3.36-7.5,7.5-7.5
			c4.14,0,7.5,3.36,7.5,7.5c0,39.68,43.78,65.23,44.22,65.49c3.24,1.86,4.63,5.82,3.24,9.3l-13.97,34.94l4.65,3.87
			c2.95-15.51,11.14-26.06,18.55-35.6c8.75-11.26,16.31-20.99,16.31-38c0-12.77-10.51-30.02-14.57-35.59
			c-2.43-3.35-1.69-8.04,1.66-10.48c3.35-2.43,8.04-1.69,10.48,1.66c0.71,0.98,17.43,24.2,17.43,44.41c0,3.35-0.24,6.49-0.67,9.46
			c14.92,1.87,36.18,1.71,53.16-0.48c3.55-4.82,11.84-17.62,12.52-33.31c0.18-4.13,3.68-7.32,7.82-7.16
			c4.13,0.181,7.34,3.681,7.16,7.82c-0.93,21.55-12.7,38.16-16.62,43.13l-10.58,42.3c8.34-8.81,17.23-19.63,20.47-31.7
			c0.62-2.32,2.31-4.2,4.55-5.06c0.89-0.34,1.96-0.7,3.33-1.15c9.26-3.09,33.88-11.29,57.88-36.97c1.2-1.29,2.81-2.11,4.56-2.32
			c0.47-0.06,44.07-5.7,77.1-25.75c-0.7-0.26-1.3-0.47-1.8-0.61c-3.97-1.17-6.24-5.34-5.08-9.32c1.17-3.97,5.34-6.24,9.32-5.08
			c6.4,1.891,20.86,9.15,31.85,14.91C430.651,198.561,431.452,198.521,432.091,198.09z M344.001,303.401l-22.83-35.871
			c-1.15-1.82-1.47-4.05-0.87-6.12c2.34-8.08,4.88-17.31,6.4-23.42c-1.39,0.24-2.61,0.43-3.57,0.57c-5.03,5.22-10.07,9.74-15,13.69
			c0.03,5.38-2.13,11.71-4.1,16.32L344.001,303.401z M95.191,254.32c-3.94-4.379-7.38-8.89-10.34-13.5
			c-13.68,23.94-36.33,38.121-53.3,45.9l-3.99,23.1c3.35-4.57,6.65-9.06,9.2-12.5c5.83-7.9,5.83-7.9,7.85-8.74
			C76.591,275.26,90.631,260.181,95.191,254.32z"/>
	</g>
</g>
<g>
</g>
<g>
</g>
<g>
</g>
<g>
</g>
<g>
</g>
<g>
</g>
<g>
</g>
<g>
</g>
<g>
</g>
<g>
</g>
<g>
</g>
<g>
</g>
<g>
</g>
<g>
</g>
<g>
</g>
</svg>
