<?xml version="1.0" encoding="iso-8859-1"?>
<!-- Generator: Adobe Illustrator 19.0.0, SVG Export Plug-In . SVG Version: 6.00 Build 0)  -->
<svg version="1.1" id="Capa_1" xmlns="http://www.w3.org/2000/svg" xmlns:xlink="http://www.w3.org/1999/xlink" x="0px" y="0px"
	 viewBox="0 0 463.002 463.002" style="enable-background:new 0 0 463.002 463.002;" xml:space="preserve">
<g id="XMLID_61_">
	<g>
		<path style="fill:#A7A399;" d="M131.222,247.006c-0.26,1.15-1.52,5.88-5.34,12.17c-4.06,6.69-11.93,16.58-26.38,25.71
			c-15.74,9.92-39.11,13.6-58.28,14.81c9.41-6.87,18.79-15.39,28.42-24.15c19.16-17.4,38.9-35.33,59.02-39.81
			C129.212,239.456,130.091,243.236,131.222,247.006z"/>
		<path style="fill:#BEB9AF;" d="M446.332,205.296c-1.7,2.87-4.37,6.04-7.8,6.49c-13.07,1.71-62.65,20.71-107.78,57.63
			c-1.87,1.54-2.89,3.88-2.73,6.3l1.04,16.01h-5.96l-28.27-35.35c-0.03-3.25,0.64-10.24,6.1-15.98c2.86-3,2.74-7.75-0.26-10.6
			c-3-2.86-7.74-2.74-10.6,0.26c-6.74,7.07-9.13,15.19-9.89,21.24c-7.23-0.83-13.49-2.77-19.6-4.65
			c-7.83-2.43-15.24-4.72-23.36-4.15c-5.75,0.4-10.98,1.76-15.3,3.33c-0.5-13.3-7.06-25.27-18.22-32.82
			c-3.43-2.31-8.09-1.41-10.41,2.02c-2.32,3.43-1.42,8.09,2.01,10.41c8.3,5.61,12.5,14.68,11.52,24.89
			c-1.09,11.34-8.61,21.3-19.61,25.98c-6.03,2.57-9.26,9.4-7.51,15.9l2.02,7.52h-2.74c-8.05-9.77-35.98-45.57-35.98-72.5
			c0-29.54,47.97-64.5,88.5-64.5c24.58,0,46.84,14.2,64.73,25.62c12.6,8.03,22.54,14.38,31.27,14.38c8.97,0,22.86-3.67,37.56-7.55
			c15.02-3.96,32.03-8.45,42.44-8.45C420.341,186.726,437.281,198.066,446.332,205.296z"/>
		<path style="fill:#3D484A;" d="M460.531,197.666c2.17,1.96,3,4.99,2.13,7.78c-2.2,7.09-9.35,19.54-22.19,21.21
			c-4.27,0.56-18.22,4.95-37.49,14.37c-15,7.33-37.28,19.7-59.74,37.59l0.85,13.14c3.87,0.3,6.91,3.53,6.91,7.47
			c0,4.14-3.36,7.5-7.5,7.5h-24c-2.28,0-4.43-1.04-5.86-2.82l-29.82-37.28c-11.01-0.51-19.82-3.22-27.67-5.66
			c-6.74-2.08-12.56-3.88-17.88-3.51c-9.42,0.66-17.18,4.96-19.38,6.3c-4.33,11.15-13,20.45-24.39,25.73l2.75,10.24h10.25
			c4.14,0,7.5,3.36,7.5,7.5c0,4.14-3.36,7.5-7.5,7.5h-15.98h-0.02c-0.01,0-0.02,0-0.03,0h-15.97c-2.16,0-4.21-0.93-5.63-2.55
			c-1.12-1.28-18.81-21.58-30.83-45.81c-5.47,9.2-15.01,20.77-31.54,31.2c-24.12,15.22-61.5,17.7-83.28,17.71
			c-9.84,0-16.49-0.51-17.32-0.58c-3.83-0.3-6.81-3.46-6.9-7.31c-0.08-3.84,2.75-7.13,6.57-7.6c16.34-2.05,34.14-18.22,52.98-35.34
			c21.55-19.58,43.77-39.75,68.99-43.97c2.63-16.66,14.76-33.9,34.2-48.23c20.82-15.35,46.53-24.52,68.76-24.52
			c28.96,0,54.3,16.17,72.8,27.97c9.27,5.91,18.85,12.03,23.2,12.03c7.03,0,20.6-3.59,33.73-7.05c16.68-4.4,33.92-8.95,46.27-8.95
			C431.612,171.726,459.372,196.606,460.531,197.666z M438.531,211.786c3.43-0.45,6.1-3.62,7.8-6.49
			c-9.05-7.23-25.99-18.57-38.83-18.57c-10.41,0-27.42,4.49-42.44,8.45c-14.7,3.88-28.59,7.55-37.56,7.55
			c-8.73,0-18.67-6.35-31.27-14.38c-17.89-11.42-40.15-25.62-64.73-25.62c-40.53,0-88.5,34.96-88.5,64.5
			c0,26.93,27.93,62.73,35.98,72.5h2.74l-2.02-7.52c-1.75-6.5,1.48-13.33,7.51-15.9c11-4.68,18.52-14.64,19.61-25.98
			c0.98-10.21-3.22-19.28-11.52-24.89c-3.43-2.32-4.33-6.98-2.01-10.41c2.32-3.43,6.98-4.33,10.41-2.02
			c11.16,7.55,17.72,19.52,18.22,32.82c4.32-1.57,9.55-2.93,15.3-3.33c8.12-0.57,15.53,1.72,23.36,4.15
			c6.11,1.88,12.37,3.82,19.6,4.65c0.76-6.05,3.15-14.17,9.89-21.24c2.86-3,7.6-3.12,10.6-0.26c3,2.85,3.12,7.6,0.26,10.6
			c-5.46,5.74-6.13,12.73-6.1,15.98l28.27,35.35h5.96l-1.04-16.01c-0.16-2.42,0.86-4.76,2.73-6.3
			C375.882,232.496,425.462,213.496,438.531,211.786z M125.882,259.176c3.82-6.29,5.08-11.02,5.34-12.17
			c-1.13-3.77-2.01-7.55-2.56-11.27c-20.12,4.48-39.86,22.41-59.02,39.81c-9.63,8.76-19.01,17.28-28.42,24.15
			c19.17-1.21,42.54-4.89,58.28-14.81C113.952,275.756,121.821,265.866,125.882,259.176z"/>
	</g>
</g>
<g>
</g>
<g>
</g>
<g>
</g>
<g>
</g>
<g>
</g>
<g>
</g>
<g>
</g>
<g>
</g>
<g>
</g>
<g>
</g>
<g>
</g>
<g>
</g>
<g>
</g>
<g>
</g>
<g>
</g>
</svg>
