<?xml version="1.0" encoding="iso-8859-1"?>
<!-- Generator: Adobe Illustrator 19.0.0, SVG Export Plug-In . SVG Version: 6.00 Build 0)  -->
<svg version="1.1" id="Capa_1" xmlns="http://www.w3.org/2000/svg" xmlns:xlink="http://www.w3.org/1999/xlink" x="0px" y="0px"
	 viewBox="0 0 463.003 463.003" style="enable-background:new 0 0 463.003 463.003;" xml:space="preserve">
<g id="XMLID_63_">
	<g>
		<path style="fill:#A5998C;" d="M446.6,132.652c-9.02,6.64-26.81,16.04-55.1,16.04c-4.14,0-7.5,3.36-7.5,7.5
			c0,4.14,3.36,7.5,7.5,7.5c2.93,0,5.76-0.1,8.5-0.27v72.77c0,19.57-25.82,36.41-35.76,41.25c-2.59,1.25-4.24,3.87-4.24,6.75v40
			c0,1.62,0.53,3.2,1.5,4.5l13.07,17.43l-24.28-18.21l-7.43-37.19c-0.5-2.47-2.14-4.5-4.47-5.45c-0.12-0.06-12.39-5.42-20.23-20.53
			c-1.91-3.68-6.43-5.12-10.11-3.21c-3.68,1.91-5.11,6.43-3.21,10.11c1.7,3.27,3.56,6.17,5.48,8.77
			c-9.08,4.18-28.71,11.77-52.49,12.25c-0.53-3.93-1.71-7.85-3.56-11.71c-1.79-3.74-6.27-5.32-10.01-3.53
			c-3.74,1.79-5.31,6.27-3.52,10.01c3.59,7.49,3.15,14.76-1.33,22.2c-8.57,14.21-27.98,22.91-31.91,23.06c-4.14,0-7.5,3.36-7.5,7.5
			v8.5h-14.73l-22.92-11.46c-2.07-1.04-3.35-3.11-3.35-5.42v-7.62c0-3.16-1.92-5.96-4.89-7.03c-0.78-0.3-19.11-7.59-19.11-32.97
			c0-21.81,9.07-43.7,24.89-60.04c12.57-12.98,35.2-28.46,71.61-28.46c16.8,0,32.72,1.62,46.77,3.04
			c26.15,2.66,46.8,4.76,61.19-4.17c1.94-1.21,3.23-3.24,3.49-5.51c2.49-21.54,8.72-59.26,14.86-68.81
			c0.36-0.56,0.75-1.09,1.14-1.63c1.88,5.02,5.83,9.16,10.99,11.12c0.88,0.33,1.78,0.49,2.66,0.49c3.03,0,5.88-1.84,7.01-4.84
			c1.48-3.87-0.47-8.2-4.34-9.67c-1.25-0.48-2.52-1.79-2.52-3.65c0-2.15,1.75-3.91,3.9-3.91c1.73,0,3.22,1.11,3.73,2.74
			c1.23,3.96,5.44,6.17,9.39,4.94c3.77-1.17,5.94-5.03,5.08-8.81c1.07,0.15,2.15,0.33,3.26,0.54
			C414.33,110.632,436.02,125.042,446.6,132.652z"/>
		<path style="fill:#3D484A;" d="M463,132.282c0.08,4.07-1.7,7.87-4.89,10.44c-7.34,5.91-21.45,14.84-43.11,18.87v74.6
			c0,14-7.84,28-22.67,40.49c-6.62,5.57-13.2,9.66-17.33,12v33.01l20.25,27h12.25c4.14,0,7.5,3.36,7.5,7.5c0,4.14-3.36,7.5-7.5,7.5
			h-32c-1.62,0-3.2-0.53-4.5-1.5l-32-24c-1.47-1.11-2.49-2.72-2.85-4.53l-7.3-36.46c-2.03-1.18-4.74-2.94-7.71-5.37
			c-7.29,3.81-32.4,15.58-64.55,15.84c-1.07,3.55-2.67,7.07-4.83,10.51c-9.08,14.41-25.69,24.42-36.76,28.03v2.48h8.5
			c4.14,0,7.5,3.36,7.5,7.5c0,4.14-3.36,7.5-7.5,7.5h-40c-1.16,0-2.31-0.27-3.35-0.79l-24.51-12.26
			c-7.18-3.59-11.64-10.8-11.64-18.83v-2.97c-1.86-1.07-4.09-2.55-6.44-4.49c-12.44,10.49-61.07,47.34-130.06,47.34
			c-4.14,0-7.5-3.36-7.5-7.5c0-4.14,3.36-7.5,7.5-7.5c63.24,0,108.88-34.28,120.17-43.64c-4.37-7-7.67-16.4-7.67-28.86
			c0-50.88,41.71-103.5,111.5-103.5c17.56,0,33.88,1.66,48.28,3.12c20.32,2.06,38.13,3.87,48.75-0.47
			c1.78-14.18,7.82-57.45,16.66-71.21c7.81-12.14,23.81-25.35,55.71-19.31c19.77,3.74,44.11,20.02,56.86,29.39
			C461,124.602,462.91,128.272,463,132.282z M391.5,148.692c28.29,0,46.08-9.4,55.1-16.04c-10.58-7.61-32.27-22.02-48.49-25.09
			c-1.11-0.21-2.19-0.39-3.26-0.54c0.86,3.78-1.31,7.64-5.08,8.81c-3.95,1.23-8.16-0.98-9.39-4.94c-0.51-1.63-2-2.74-3.73-2.74
			c-2.15,0-3.9,1.76-3.9,3.91c0,1.86,1.27,3.17,2.52,3.65c3.87,1.47,5.82,5.8,4.34,9.67c-1.13,3-3.98,4.84-7.01,4.84
			c-0.88,0-1.78-0.16-2.66-0.49c-5.16-1.96-9.11-6.1-10.99-11.12c-0.39,0.54-0.78,1.07-1.14,1.63
			c-6.14,9.55-12.37,47.27-14.86,68.81c-0.26,2.27-1.55,4.3-3.49,5.51c-14.39,8.93-35.04,6.83-61.19,4.17
			c-14.05-1.42-29.97-3.04-46.77-3.04c-36.41,0-59.04,15.48-71.61,28.46c-15.82,16.34-24.89,38.23-24.89,60.04
			c0,25.38,18.33,32.67,19.11,32.97c2.97,1.07,4.89,3.87,4.89,7.03v7.62c0,2.31,1.28,4.38,3.35,5.42l22.92,11.46H200v-8.5
			c0-4.14,3.36-7.5,7.5-7.5c3.93-0.15,23.34-8.85,31.91-23.06c4.48-7.44,4.92-14.71,1.33-22.2c-1.79-3.74-0.22-8.22,3.52-10.01
			c3.74-1.79,8.22-0.21,10.01,3.53c1.85,3.86,3.03,7.78,3.56,11.71c23.78-0.48,43.41-8.07,52.49-12.25c-1.92-2.6-3.78-5.5-5.48-8.77
			c-1.9-3.68-0.47-8.2,3.21-10.11c3.68-1.91,8.2-0.47,10.11,3.21c7.84,15.11,20.11,20.47,20.23,20.53c2.33,0.95,3.97,2.98,4.47,5.45
			l7.43,37.19l24.28,18.21l-13.07-17.43c-0.97-1.3-1.5-2.88-1.5-4.5v-40c0-2.88,1.65-5.5,4.24-6.75
			c9.94-4.84,35.76-21.68,35.76-41.25v-72.77c-2.74,0.17-5.57,0.27-8.5,0.27c-4.14,0-7.5-3.36-7.5-7.5
			C384,152.052,387.36,148.692,391.5,148.692z"/>
	</g>
</g>
<g>
</g>
<g>
</g>
<g>
</g>
<g>
</g>
<g>
</g>
<g>
</g>
<g>
</g>
<g>
</g>
<g>
</g>
<g>
</g>
<g>
</g>
<g>
</g>
<g>
</g>
<g>
</g>
<g>
</g>
</svg>
