<?xml version="1.0" encoding="iso-8859-1"?>
<!-- Generator: Adobe Illustrator 19.0.0, SVG Export Plug-In . SVG Version: 6.00 Build 0)  -->
<svg version="1.1" id="Capa_1" xmlns="http://www.w3.org/2000/svg" xmlns:xlink="http://www.w3.org/1999/xlink" x="0px" y="0px"
	 viewBox="0 0 462.999 462.999" style="enable-background:new 0 0 462.999 462.999;" xml:space="preserve">
<g id="XMLID_64_">
	<g>
		<path style="fill:#C2AF9D;" d="M359.57,252.497l3.13,7.53l-6.73-5.39C357.159,253.967,358.36,253.247,359.57,252.497z"/>
		<path style="fill:#3D484A;" d="M462.909,178.467c0.24,1.53-0.01,3.1-0.7,4.49l-7.47,14.93c-1.271,2.55-3.87,4.15-6.71,4.15
			h-14.931c-8.39,0-26.989,14.92-41.93,26.92c-6.47,5.18-12.82,10.27-18.97,14.85l13.64,32.83h17.391c4.149,0,7.5,3.36,7.5,7.5
			c0,4.14-3.351,7.5-7.5,7.5h-22.4c-1.7,0-3.35-0.58-4.68-1.64l-36.051-28.84c-1.369,0.28-2.72,0.48-4.029,0.56v14.92h7.43
			c4.14,0,7.5,3.36,7.5,7.5c0,4.14-3.36,7.5-7.5,7.5h-29.87c-2.63,0-5.07-1.38-6.43-3.64l-16.891-28.15
			c-1.17-1.95-2.04-4.04-2.609-6.18c-14.17,3.37-31.391,3.79-38.931,3.79c-1.539,0-2.659-0.02-3.279-0.03
			c-7.11,8.95-18.13,15.55-31.351,18.45c-0.12,0.24-0.25,0.5-0.38,0.76h17.74c4.14,0,7.5,3.36,7.5,7.5c0,4.14-3.36,7.5-7.5,7.5
			h-29.87c-1.16,0-2.31-0.27-3.35-0.79l-29.87-14.93c-2.03-1.02-3.49-2.9-3.97-5.12c-0.091-0.41-0.351-1.73-0.41-3.73
			c-65.67,41.71-152.11,46.75-156.141,46.96c-0.13,0.01-0.26,0.01-0.39,0.01c-3.76,0-6.97-2.8-7.44-6.57
			c-0.489-3.9,2.12-7.52,5.98-8.29c33.62-6.67,65.17-37.06,98.58-69.25c40.95-39.44,83.29-80.22,134.35-80.22
			c31.45,0,64.07,10.66,74.221,14.28c15.68-7.03,31.22-2.57,37.88,0.02c8.6-3.44,32.09-12.55,43.62-14.22
			c16.989-2.48,28.26,0.58,36.55,9.9c2.05,2.31,7.93,3.84,12.66,5.08C451.749,166.816,461.509,169.356,462.909,178.467z
			 M443.4,187.037l2.979-5.96c-1.87-0.65-4.37-1.3-6.26-1.8c-7.04-1.84-15.021-3.92-20.09-9.62c-3.2-3.6-7.891-7.25-23.181-5.03
			c-9.859,1.43-34.409,10.92-43.04,14.45c-2.029,0.83-4.329,0.73-6.279-0.27c-0.13-0.07-16.08-7.93-30.271-0.1
			c-1.95,1.07-4.27,1.23-6.33,0.42c-0.37-0.14-37.76-14.42-71.96-14.42c-45.01,0-85.14,38.65-123.939,76.03
			c-19.73,19-38.84,37.41-58.55,51.22c35.52-7.36,83.109-22.05,117.97-50.93c2.99-2.48,7.37-2.26,10.1,0.49
			c2.74,2.75,2.92,7.14,0.431,10.11c-4.32,5.14-5.57,9.87-5.881,12.86l19.19,9.59c0.25-0.51,2.42-4.89,3.04-6.14
			c1.54-3.08,2.76-5.52,6.58-6.14c18.28-2.94,27.6-13.28,30.24-21.99c2.01-6.65,0.449-12.98-4.28-17.37
			c-3.04-2.81-3.22-7.56-0.41-10.6c2.82-3.03,7.559-3.22,10.6-0.4c8.54,7.91,11.801,19.37,8.91,30.97
			c9.271-0.19,25.04-1.05,35.79-4.59c0.59-1.41,1.31-2.78,2.17-4.08l9-13.49c2.29-3.45,6.95-4.38,10.4-2.08
			c3.439,2.29,4.38,6.95,2.08,10.4l-9,13.49c-2.01,3.01-2.101,6.96-0.24,10.07l14.71,24.51h3.19v-29.83c0-3.15,1.96-5.96,4.91-7.04
			c1.239-0.47,30.84-12,25.069-43.9c-0.73-4.07,1.97-7.97,6.05-8.71c4.08-0.74,7.98,1.97,8.71,6.05
			c3.95,21.82-4.399,36.67-12.8,45.66c9.23-5.94,19.62-14.28,28.771-21.61c20.21-16.22,37.66-30.22,51.319-30.22H443.4z
			 M362.699,260.026l-3.13-7.53c-1.21,0.75-2.41,1.47-3.601,2.14L362.699,260.026z"/>
		<path style="fill:#C2AF9D;" d="M446.379,181.077l-2.979,5.96h-10.301c-13.659,0-31.109,14-51.319,30.22
			c-9.15,7.33-19.54,15.67-28.771,21.61c8.4-8.99,16.75-23.84,12.8-45.66c-0.73-4.08-4.63-6.79-8.71-6.05
			c-4.08,0.74-6.779,4.64-6.05,8.71c5.77,31.9-23.83,43.43-25.069,43.9c-2.95,1.08-4.91,3.89-4.91,7.04v29.83h-3.19l-14.71-24.51
			c-1.86-3.11-1.77-7.06,0.24-10.07l9-13.49c2.3-3.45,1.359-8.11-2.08-10.4c-3.45-2.3-8.11-1.37-10.4,2.08l-9,13.49
			c-0.859,1.3-1.58,2.67-2.17,4.08c-10.75,3.54-26.52,4.4-35.79,4.59c2.891-11.6-0.37-23.06-8.91-30.97
			c-3.04-2.82-7.779-2.63-10.6,0.4c-2.81,3.04-2.63,7.79,0.41,10.6c4.73,4.39,6.29,10.72,4.28,17.37
			c-2.641,8.71-11.96,19.05-30.24,21.99c-3.82,0.62-5.04,3.06-6.58,6.14c-0.62,1.25-2.79,5.63-3.04,6.14l-19.19-9.59
			c0.311-2.99,1.561-7.72,5.881-12.86c2.489-2.97,2.309-7.36-0.431-10.11c-2.729-2.75-7.109-2.97-10.1-0.49
			c-34.86,28.88-82.45,43.57-117.97,50.93c19.71-13.81,38.819-32.22,58.55-51.22c38.8-37.38,78.93-76.03,123.939-76.03
			c34.2,0,71.59,14.28,71.96,14.42c2.061,0.81,4.38,0.65,6.33-0.42c14.19-7.83,30.141,0.03,30.271,0.1c1.95,1,4.25,1.1,6.279,0.27
			c8.631-3.53,33.181-13.02,43.04-14.45c15.29-2.22,19.98,1.43,23.181,5.03c5.069,5.7,13.05,7.78,20.09,9.62
			C442.009,179.776,444.509,180.427,446.379,181.077z"/>
	</g>
</g>
<g>
</g>
<g>
</g>
<g>
</g>
<g>
</g>
<g>
</g>
<g>
</g>
<g>
</g>
<g>
</g>
<g>
</g>
<g>
</g>
<g>
</g>
<g>
</g>
<g>
</g>
<g>
</g>
<g>
</g>
</svg>
