<?xml version="1.0" encoding="iso-8859-1"?>
<!-- Generator: Adobe Illustrator 19.0.0, SVG Export Plug-In . SVG Version: 6.00 Build 0)  -->
<svg version="1.1" id="Capa_1" xmlns="http://www.w3.org/2000/svg" xmlns:xlink="http://www.w3.org/1999/xlink" x="0px" y="0px"
	 viewBox="0 0 462.62 462.62" style="enable-background:new 0 0 462.62 462.62;" xml:space="preserve">
<g>
	<g id="XMLID_65_">
		<g>
			<path style="fill:#7A5236;" d="M144.1,308.19h-0.6c-30.52,0-62.41-0.18-87.49-2.34c-36.069-3.1-40.59-9.06-41.01-9.78
				c0.021-1.27,0.38-2.95,2.78-4.85c8.27-6.55,33.52-9.76,69.41-1.32c4.699,1.11,9.689,2.71,14.52,4.25
				c12.9,4.14,26.17,8.38,37.08,4.27C140.07,301.19,141.82,304.58,144.1,308.19z"/>
			<path style="fill:#C98559;" d="M281.87,308.19h-18.45c4.07-2.55,7.65-5.27,10.72-8.03C277.07,302.48,279.69,305.37,281.87,308.19
				z"/>
			<path style="fill:#C98559;" d="M447.14,257.53c1.5,8.58-0.55,14.82-2.079,17.57h-3.41c-1.99,0-3.891,0.79-5.301,2.19l-5.96,5.96
				c-2.029,0.84-4.579,0.43-9.949-0.73c-6.79-1.47-16.101-3.48-28.13-0.4c-6.801,1.73-11.9,1.81-15.801,1.05
				c-0.069-0.02-0.14-0.03-0.22-0.04c-5.61-1.14-8.729-4.01-10.97-6.06c-3.061-2.8-7.8-2.59-10.601,0.46
				c-2.8,3.05-2.59,7.8,0.46,10.6c4.221,3.87,9.681,7.83,17.511,9.58c5.76,2.19,8.409,4.57,9.909,7.35
				c-1.489,0.65-3.329,1.38-5.26,2.08c-11.85-9.95-28.72-13.84-43.77-17.32c-7.101-1.63-13.8-3.18-19.59-5.21
				c-4.75-1.66-7.78-6.28-9.021-13.74c-1.229-7.39-0.17-15.41,1.32-19.74c1.359-3.91-0.72-8.18-4.63-9.54
				c-3.91-1.35-8.19,0.72-9.54,4.64c-0.891,2.56-1.721,6.05-2.21,10.06c-1.181-6.74-3.79-13.19-7.87-18.73
				c-6.271-8.54-21.32-22.13-51.71-17.27c-4.09,0.65-6.88,4.5-6.23,8.59c0.66,4.09,4.5,6.88,8.59,6.22
				c16.7-2.67,29.931,1.36,37.27,11.34c6.7,9.13,7.56,22.01,2.18,32.81c-4.7,9.45-26.689,28.94-64.63,28.94h-44.76
				c-6.851-7.71-10.7-16.6-11.96-19.86c4.52-7.31,6.68-18.02,6.68-32.87c0-14.13,5.7-42.3,43.91-72.09
				c24.7-19.27,49.94-28.94,57.12-28.94c20.29,0,40.84,10.48,66.859,23.75c18.75,9.57,40.011,20.42,66.23,30.05
				C410.32,215.12,442.46,230.68,447.14,257.53z M427.53,251.03c0-4.81-3.9-8.71-8.7-8.71c-4.81,0-8.71,3.9-8.71,8.71
				c0,4.8,3.9,8.7,8.71,8.7C423.63,259.73,427.53,255.83,427.53,251.03z M391.5,235.19c4.14,0,7.5-3.35,7.5-7.5
				c0-7.24-4.29-13.38-11.2-16.02c-7.26-2.77-15.29-1.08-19.989,4.18c-7.091,7.93-2.82,18.52-0.66,22.71
				c1.34,2.58,3.96,4.06,6.67,4.05c1.16,0,2.34-0.27,3.439-0.83c3.681-1.91,5.12-6.43,3.221-10.11c-2-3.87-1.641-5.66-1.49-5.82
				c0.35-0.39,1.93-0.75,3.46-0.16c1.55,0.59,1.55,1.48,1.55,2C384,231.84,387.36,235.19,391.5,235.19z"/>
			<path style="fill:#3D484A;" d="M462.19,256.66c1.58,11.38-1.12,26.02-9.341,32c-1.279,0.94-2.829,1.44-4.409,1.44h-3.681
				l-4.59,4.59c-0.45,0.45-0.97,0.85-1.52,1.17c-7.42,4.33-14.511,2.8-21.37,1.32c-6.22-1.34-12.65-2.73-21.26-0.53
				c-0.28,0.07-0.551,0.13-0.82,0.2c1.72,2.9,2.76,5.92,3.55,8.93c2.12,8.05-7.17,11.84-12.16,13.87
				c-4.31,1.75-8.63,3.13-8.819,3.19c-0.74,0.24-1.511,0.35-2.271,0.35c-2.03,0-4.01-0.82-5.45-2.34
				c-8.729-9.23-24.55-12.88-39.85-16.41c-7.18-1.66-14.61-3.37-21.18-5.67c-10.021-3.51-16.721-12.54-18.86-25.45
				c-0.07-0.41-0.12-0.82-0.18-1.23c-0.771,4.74-2.221,9.43-4.42,13.85c-0.461,0.93-1,1.88-1.61,2.86
				c11.1,9.08,17.97,22.95,18.29,23.6c1.13,2.32,0.99,5.07-0.38,7.26c-1.37,2.2-3.771,3.53-6.36,3.53h-152
				c-32.79,0-67-0.21-93.22-2.8C25.42,317.94,0,313.14,0,296.17c0-6.55,2.93-12.32,8.46-16.7c14.11-11.18,45.59-12.78,82.16-4.17
				c5.28,1.24,10.56,2.93,15.67,4.57c11.58,3.71,23.559,7.55,29.15,3.47c3.199-2.34,7.02-9.07,7.02-27.88
				c0-20.6,8.62-51.89,49.68-83.92c19.801-15.44,50.801-32.11,66.351-32.11c23.899,0,45.859,11.2,73.67,25.39
				c18.38,9.38,39.21,20.01,64.59,29.34C419.08,202.36,457.28,221.39,462.19,256.66z M445.061,275.1
				c1.529-2.75,3.579-8.99,2.079-17.57c-4.68-26.85-36.819-42.41-55.56-49.3c-26.22-9.63-47.48-20.48-66.23-30.05
				c-26.02-13.27-46.569-23.75-66.859-23.75c-7.18,0-32.42,9.67-57.12,28.94c-38.21,29.79-43.91,57.96-43.91,72.09
				c0,14.85-2.16,25.56-6.68,32.87c1.26,3.26,5.109,12.15,11.96,19.86h44.76c37.941,0,59.93-19.49,64.63-28.94
				c5.38-10.8,4.52-23.68-2.18-32.81c-7.34-9.98-20.57-14.01-37.27-11.34c-4.09,0.66-7.93-2.13-8.59-6.22
				c-0.649-4.09,2.141-7.94,6.23-8.59c30.39-4.86,45.439,8.73,51.71,17.27c4.08,5.54,6.689,11.99,7.87,18.73
				c0.489-4.01,1.319-7.5,2.21-10.06c1.35-3.92,5.63-5.99,9.54-4.64c3.91,1.36,5.989,5.63,4.63,9.54
				c-1.49,4.33-2.55,12.35-1.32,19.74c1.24,7.46,4.271,12.08,9.021,13.74c5.79,2.03,12.489,3.58,19.59,5.21
				c15.05,3.48,31.92,7.37,43.77,17.32c1.931-0.7,3.771-1.43,5.26-2.08c-1.5-2.78-4.149-5.16-9.909-7.35
				c-7.83-1.75-13.29-5.71-17.511-9.58c-3.05-2.8-3.26-7.55-0.46-10.6c2.801-3.05,7.54-3.26,10.601-0.46
				c2.24,2.05,5.359,4.92,10.97,6.06c0.08,0.01,0.15,0.02,0.22,0.04c3.9,0.76,9,0.68,15.801-1.05c12.029-3.08,21.34-1.07,28.13,0.4
				c5.37,1.16,7.92,1.57,9.949,0.73l5.96-5.96c1.41-1.4,3.311-2.19,5.301-2.19H445.061z M263.42,308.19h18.45
				c-2.18-2.82-4.8-5.71-7.73-8.03C271.07,302.92,267.49,305.64,263.42,308.19z M143.5,308.19h0.6c-2.279-3.61-4.029-7-5.309-9.77
				c-10.91,4.11-24.18-0.13-37.08-4.27c-4.83-1.54-9.82-3.14-14.52-4.25c-35.891-8.44-61.141-5.23-69.41,1.32
				c-2.4,1.9-2.76,3.58-2.78,4.85c0.42,0.72,4.941,6.68,41.01,9.78C81.09,308.01,112.98,308.19,143.5,308.19z"/>
			<path style="fill:#3D484A;" d="M418.83,242.32c4.8,0,8.7,3.9,8.7,8.71c0,4.8-3.9,8.7-8.7,8.7c-4.81,0-8.71-3.9-8.71-8.7
				C410.12,246.22,414.021,242.32,418.83,242.32z"/>
			<path style="fill:#3D484A;" d="M399,227.69c0,4.15-3.36,7.5-7.5,7.5c-4.14,0-7.5-3.35-7.5-7.5c0-0.52,0-1.41-1.55-2
				c-1.53-0.59-3.11-0.23-3.46,0.16c-0.15,0.16-0.51,1.95,1.49,5.82c1.899,3.68,0.46,8.2-3.221,10.11
				c-1.1,0.56-2.279,0.83-3.439,0.83c-2.71,0.01-5.33-1.47-6.67-4.05c-2.16-4.19-6.431-14.78,0.66-22.71
				c4.699-5.26,12.729-6.95,19.989-4.18C394.71,214.31,399,220.45,399,227.69z"/>
		</g>
	</g>
</g>
<g>
</g>
<g>
</g>
<g>
</g>
<g>
</g>
<g>
</g>
<g>
</g>
<g>
</g>
<g>
</g>
<g>
</g>
<g>
</g>
<g>
</g>
<g>
</g>
<g>
</g>
<g>
</g>
<g>
</g>
</svg>
