<?xml version="1.0" encoding="iso-8859-1"?>
<!-- Generator: Adobe Illustrator 19.0.0, SVG Export Plug-In . SVG Version: 6.00 Build 0)  -->
<svg version="1.1" id="Capa_1" xmlns="http://www.w3.org/2000/svg" xmlns:xlink="http://www.w3.org/1999/xlink" x="0px" y="0px"
	 viewBox="0 0 462.999 462.999" style="enable-background:new 0 0 462.999 462.999;" xml:space="preserve">
<g id="XMLID_66_">
	<g>
		<path style="fill:#989589;" d="M446.01,109.699l-3.77,7.55c-8.54,2.48-25.23,6.75-34.74,6.75c-8.21,0-13.8-3.75-17.11-11.45
			c-1.19-2.79-3.96-4.54-6.93-4.54c-0.35,0-0.7,0.02-1.05,0.07c-0.1,0.01-10.01,1.33-11.69-4.62c-0.9-3.17,0.61-6.22,2.57-7.59
			c1.84-1.29,3.19-0.65,4.16,0.05c3.36,2.42,8.05,1.66,10.47-1.7c2.42-3.36,1.66-8.05-1.7-10.47c-0.1-0.07-0.19-0.14-0.29-0.2
			c1.81-0.36,3.67-0.55,5.57-0.55c6.74,0,15.65,3.36,24.63,7.94c-3.84,1.22-6.63,4.81-6.63,9.06c0,5.25,4.25,9.5,9.5,9.5
			s9.5-4.25,9.5-9.5c0-0.78-0.1-1.53-0.28-2.25C435.03,101.909,441.31,106.239,446.01,109.699z"/>
		<path style="fill:#D8B497;" d="M180.94,318.689l3.85,5.31h-15.55C173.2,322.549,177.14,320.799,180.94,318.689z"/>
		<path style="fill:#D8B497;" d="M400.1,138.279c-0.31,1.7-4.14,22.59-7.92,39.59c-6.25,28.13-27.17,46.44-42.52,55.75
			c0.41-1.39,0.8-2.88,1.16-4.49c0.9-4.05-1.65-8.05-5.69-8.95c-4.05-0.9-8.05,1.65-8.95,5.69c-0.87,3.93-1.99,6.9-3.18,10.04
			c-2.22,5.9-4.52,12-4.99,23.28c-0.74,17.61,17.23,50.29,19.28,53.95c1.61,2.89,4.92,4.38,8.15,3.67l8.16-1.79
			c0.31-0.07,0.61,0.06,0.79,0.31l5.1,7.65h-23.16c-9.81-10.97-54.09-72.4-59.66-81.98c0.56-1.78,3.31-5.52,5.97-8.04
			c3.01-2.83,3.16-7.57,0.33-10.59c-2.83-3.02-7.58-3.18-10.6-0.34c-3.41,3.2-14.21,14.43-9.72,24.52c0.52,1.17,2.13,3.75,4.36,7.12
			c-21.56,7.72-53.06,11.48-66.31,12.79c-0.16-7.75-1.47-16.08-3.98-25c-1.13-3.98-5.27-6.3-9.26-5.18
			c-3.98,1.13-6.3,5.27-5.18,9.26c5.77,20.43,4.27,36.64-4.45,48.16c-2.82,3.72-18.98,22.3-60.33,22.3c-0.44,0-0.87,0.05-1.3,0.12
			c-12.02-8.11-12.52-8.12-14.7-8.12c-3.61,0-35.7,0.25-51.59,8.92c-2.2,1.19-3.65,3.41-3.88,5.9c-0.23,2.49,0.8,4.93,2.75,6.51
			c0.81,0.65,20.26,16.17,58.97,25.46c4.07,0.98,10.8,3.54,10.07,9.72c-1.2,10.11-14.89,15.49-24.32,15.49
			c-25.66,0-88.5-24.45-88.5-56.5c0-3.4,7.43-12.25,35.27-23.86c19.34-8.07,39.02-13.52,39.22-13.58c3.05-0.83,5.24-3.49,5.49-6.64
			c3.39-43.54,18.74-76.72,45.63-98.63c27.86-22.69,58.18-25.24,69.92-25.29c0.06,0,0.13,0,0.19,0c11.36,0,31.37,3.83,49.04,7.22
			c14.81,2.83,27.59,5.28,34.24,5.28c13.08,0,34.98,0,48.46-33.71c3.13-7.82,7.74-17.8,13.79-26.88c0.01,0.05,0.02,0.09,0.03,0.13
			c3.38,11.95,14.4,15.4,22.74,15.68C383.86,131.319,391.11,136.479,400.1,138.279z"/>
		<path style="fill:#3D484A;" d="M460.16,101.619c2.78,2.21,3.63,6.06,2.05,9.23l-8,16c-0.91,1.83-2.53,3.2-4.48,3.81
			c-0.93,0.29-19.77,6.12-34.8,7.86c0.1,0.75,0.09,1.53-0.05,2.32c-0.04,0.22-4.07,22.35-8.06,40.29
			c-8.55,38.49-41.92,63.98-63.25,72.34c-0.28,1.87-0.48,3.94-0.58,6.34c-0.37,8.91,8.01,28.18,14.76,41.14l2.64-0.58
			c6.38-1.4,12.85,1.2,16.48,6.64l12.87,19.31c1.53,2.3,1.68,5.26,0.37,7.7c-1.3,2.44-3.84,3.96-6.61,3.96h-40
			c-4.26,0-6.32-1.9-16.96-15.65c-7.09-9.16-15.53-20.65-21.36-28.68c-0.17-0.24-10.45-14.4-19.44-27.25
			c-25.31,10.02-64.16,14.16-76.42,15.27c-1.67,7.82-4.84,14.87-9.53,21.08c-2.02,2.66-4.25,5.06-6.63,7.24l12.41,17.1
			c1.66,2.29,1.89,5.3,0.61,7.82c-1.28,2.51-3.86,4.09-6.68,4.09h-64c-1.51,0-2.98-0.45-4.22-1.3
			c-8.63-5.87-18.16-12.29-21.84-14.68c-6.5,0.12-18.05,0.78-28.1,2.66c8.85,4.59,22.16,10.27,39.91,14.53
			c17.6,4.22,22.63,16.23,21.46,26.06c-1.67,14.12-16.79,28.73-39.21,28.73c-16.7,0-42.32-7.68-62.3-18.68
			C14.63,361.7,0,342.939,0,323.499c0-13.08,14.18-25.07,44.62-37.76c14.37-5.99,28.57-10.5,35.87-12.68
			c4.53-44.7,21.98-80.55,50.65-103.9c31.57-25.71,66-28.61,79.33-28.66c12.78-0.05,33.67,3.95,52.11,7.48
			c12.88,2.47,26.2,5.02,31.42,5.02c12.2,0,24.82,0,34.54-24.29c15.66-39.15,38.02-60.71,62.96-60.71
			C417.04,67.999,455.82,98.179,460.16,101.619z M442.24,117.249l3.77-7.55c-4.7-3.46-10.98-7.79-17.79-11.95
			c0.18,0.72,0.28,1.47,0.28,2.25c0,5.25-4.25,9.5-9.5,9.5s-9.5-4.25-9.5-9.5c0-4.25,2.79-7.84,6.63-9.06
			c-8.98-4.58-17.89-7.94-24.63-7.94c-1.9,0-3.76,0.19-5.57,0.55c0.1,0.06,0.19,0.13,0.29,0.2c3.36,2.42,4.12,7.11,1.7,10.47
			c-2.42,3.36-7.11,4.12-10.47,1.7c-0.97-0.7-2.32-1.34-4.16-0.05c-1.96,1.37-3.47,4.42-2.57,7.59c1.68,5.95,11.59,4.63,11.69,4.62
			c0.35-0.05,0.7-0.07,1.05-0.07c2.97,0,5.74,1.75,6.93,4.54c3.31,7.7,8.9,11.45,17.11,11.45
			C417.01,123.999,433.7,119.729,442.24,117.249z M392.18,177.869c3.78-17,7.61-37.89,7.92-39.59c-8.99-1.8-16.24-6.96-21.08-15.06
			c-8.34-0.28-19.36-3.73-22.74-15.68c-0.01-0.04-0.02-0.08-0.03-0.13c-6.05,9.08-10.66,19.06-13.79,26.88
			c-13.48,33.71-35.38,33.71-48.46,33.71c-6.65,0-19.43-2.45-34.24-5.28c-17.67-3.39-37.68-7.22-49.04-7.22c-0.06,0-0.13,0-0.19,0
			c-11.74,0.05-42.06,2.6-69.92,25.29c-26.89,21.91-42.24,55.09-45.63,98.63c-0.25,3.15-2.44,5.81-5.49,6.64
			c-0.2,0.06-19.88,5.51-39.22,13.58C22.43,311.249,15,320.099,15,323.499c0,32.05,62.84,56.5,88.5,56.5
			c9.43,0,23.12-5.38,24.32-15.49c0.73-6.18-6-8.74-10.07-9.72c-38.71-9.29-58.16-24.81-58.97-25.46c-1.95-1.58-2.98-4.02-2.75-6.51
			c0.23-2.49,1.68-4.71,3.88-5.9c15.89-8.67,47.98-8.92,51.59-8.92c2.18,0,2.68,0.01,14.7,8.12c0.43-0.07,0.86-0.12,1.3-0.12
			c41.35,0,57.51-18.58,60.33-22.3c8.72-11.52,10.22-27.73,4.45-48.16c-1.12-3.99,1.2-8.13,5.18-9.26c3.99-1.12,8.13,1.2,9.26,5.18
			c2.51,8.92,3.82,17.25,3.98,25c13.25-1.31,44.75-5.07,66.31-12.79c-2.23-3.37-3.84-5.95-4.36-7.12
			c-4.49-10.09,6.31-21.32,9.72-24.52c3.02-2.84,7.77-2.68,10.6,0.34c2.83,3.02,2.68,7.76-0.33,10.59
			c-2.66,2.52-5.41,6.26-5.97,8.04c5.57,9.58,49.85,71.01,59.66,81.98h23.16l-5.1-7.65c-0.18-0.25-0.48-0.38-0.79-0.31l-8.16,1.79
			c-3.23,0.71-6.54-0.78-8.15-3.67c-2.05-3.66-20.02-36.34-19.28-53.95c0.47-11.28,2.77-17.38,4.99-23.28
			c1.19-3.14,2.31-6.11,3.18-10.04c0.9-4.04,4.9-6.59,8.95-5.69c4.04,0.9,6.59,4.9,5.69,8.95c-0.36,1.61-0.75,3.1-1.16,4.49
			C365.01,224.309,385.93,205.999,392.18,177.869z M184.79,323.999l-3.85-5.31c-3.8,2.11-7.74,3.86-11.7,5.31H184.79z"/>
	</g>
</g>
<g>
</g>
<g>
</g>
<g>
</g>
<g>
</g>
<g>
</g>
<g>
</g>
<g>
</g>
<g>
</g>
<g>
</g>
<g>
</g>
<g>
</g>
<g>
</g>
<g>
</g>
<g>
</g>
<g>
</g>
</svg>
