<?xml version="1.0" encoding="iso-8859-1"?>
<!-- Generator: Adobe Illustrator 19.0.0, SVG Export Plug-In . SVG Version: 6.00 Build 0)  -->
<svg version="1.1" id="Capa_1" xmlns="http://www.w3.org/2000/svg" xmlns:xlink="http://www.w3.org/1999/xlink" x="0px" y="0px"
	 viewBox="0 0 463.004 463.004" style="enable-background:new 0 0 463.004 463.004;" xml:space="preserve">
<g>
	<g id="XMLID_67_">
		<g>
			<path style="fill:#45443E;" d="M358.86,336.652l9.35,71.35h-0.86c-2.16,0-4.16-1.16-5.23-3.04l-26.97-47.2
				C341.01,353.202,348.94,346.422,358.86,336.652z"/>
			<path style="fill:#45443E;" d="M187.05,357.312l-14.26,22.91c-0.12,0.2-0.23,0.4-0.34,0.61c-3.46,6.91-2.94,15.21,1.35,21.64
				l3.69,5.53h-5.98l-12.18-18.28l5.21-36.45C170.52,354.942,178.35,356.422,187.05,357.312z"/>
			<path style="fill:#6E6C63;" d="M440.38,257.872l6.12,18.35c-5.3,2.77-7.56,1.83-12.05-0.04c-4.25-1.76-10.07-4.18-18.95-4.18
				c-28.82,0-47.44-12.94-48.7-18.24c-0.96-4.03-5.01-6.52-9.04-5.56c-4.03,0.96-6.52,5.01-5.56,9.04
				c2.59,10.87,16.61,20.6,34.81,25.79c-22.8,27.86-40.21,44.95-51.13,54.6c-12.95,11.46-19.83,15.21-19.86,15.23
				c-2.47,1.29-4.02,3.85-4.02,6.64v48.5h-8.94c-2.65,0-5.27-1.17-6.99-3.13c-51.04-58.08-49.8-82.14-41.86-98.02
				c1.85-3.7,0.35-8.21-3.36-10.06c-3.7-1.85-8.21-0.35-10.06,3.36c-4.84,9.68-7.99,21.45-3.82,38.11
				c-21.53,8.02-53.76,4.65-68.28,0.63c1.73-2.29,3.44-4.73,5.11-7.32c2.25-3.48,1.25-8.13-2.23-10.37
				c-3.48-2.25-8.13-1.25-10.37,2.23c-24.9,38.6-56.9,36.08-70.35,29.36c-3.7-1.85-8.21-0.35-10.06,3.36l-12.34,24.68
				c-3.46,6.91-2.94,15.21,1.35,21.64l3.69,5.53h-5.98l-12.18-18.28l6.09-42.64c0.33-2.33,2.36-4.08,4.71-4.08h5.37
				c2.86,0,5.47-1.63,6.73-4.2c1.26-2.57,0.95-5.63-0.8-7.89C63,312.272,63,275.562,63,263.502c0-2.64-1.39-5.09-3.65-6.44
				c-0.45-0.26-44.35-27.02-44.35-73.56c0-31.07,15.75-55.35,46.82-72.15c29.45-15.93,71.52-24.35,121.68-24.35
				c72.4,0,129.9-16.98,160.8-26.11c9.55-2.82,17.94-5.29,21.94-5.8c3.44,2.82,13.91,15.77,15.7,34.93
				c1.92,20.65-7.22,39.38-27.18,55.67c-40.16,32.77-90.34,25.4-134.61,18.9c-16.09-2.36-31.28-4.59-44.65-4.59
				c-18.97,0-35.74,2.9-49.86,8.62c-11.7,4.74-20.91,11.27-25.94,18.38c-3.68,5.21-4.85,10.53-3.27,15
				c1.87,5.31,6.84,7.79,14.79,7.38c4.65-0.24,10.84-1.34,18.68-2.73c17.17-3.04,43.12-7.65,77.6-7.65c40,0,63.89,18.93,78.17,30.24
				c7.42,5.88,12.32,9.76,17.83,9.76c5.79,0,12.27-4.09,22.08-10.27c11.3-7.13,25.76-16.23,42.42-21.28v16.05
				c0,4.14,3.36,7.5,7.5,7.5s7.5-3.36,7.5-7.5v-19.26c0.28-0.04,0.56-0.08,0.85-0.11c5.61,3.49,12.36,8.67,17.61,15.81
				c2.45,3.34,7.15,4.06,10.48,1.6c3.34-2.45,4.06-7.15,1.6-10.48c-1.44-1.96-2.96-3.79-4.52-5.5c1.44,0.33,2.89,0.7,4.35,1.13
				c16.78,4.98,25.09,28.99,26.63,33.91v14.9C440,256.312,440.13,257.112,440.38,257.872z M426.75,244.502c0-5.51-4.49-10-10-10
				s-10,4.49-10,10c0,5.51,4.49,10,10,10S426.75,250.012,426.75,244.502z"/>
			<path style="fill:#3D484A;" d="M462.62,277.132c1.06,3.19-0.13,6.7-2.92,8.59c-14.65,9.88-22.09,8.02-31.01,4.31
				c-3.75-1.56-7.3-3.03-13.19-3.03c-4,0-7.96-0.24-11.85-0.68c-11.71,14.6-22.21,26.67-31.46,36.6l11.15,85.08h8.16
				c4.14,0,7.5,3.36,7.5,7.5c0,4.14-3.36,7.5-7.5,7.5h-24.15c-7.53,0-14.52-4.06-18.26-10.59L327,373.742v34.26h8.5
				c4.14,0,7.5,3.36,7.5,7.5c0,4.14-3.36,7.5-7.5,7.5h-32.44c-7.01,0-13.66-3-18.26-8.23c-22.7-25.83-35.9-46.05-42.94-62.32
				c-11.36,4.15-24.76,5.73-37.69,5.73l-18.42,29.61c-0.92,2.06-0.73,4.47,0.53,6.36l9.23,13.85h3.99c4.14,0,7.5,3.36,7.5,7.5
				c0,4.14-3.36,7.5-7.5,7.5h-32c-2.51,0-4.85-1.25-6.24-3.34l-16-24c-1.02-1.54-1.45-3.39-1.18-5.22l4.52-31.65
				c-21.27,15.11-43.26,14.65-57.46,10.21l-9.27,18.54c-1.06,2.11-0.9,4.64,0.41,6.61l9.23,13.85h3.99c4.14,0,7.5,3.36,7.5,7.5
				c0,4.14-3.36,7.5-7.5,7.5h-7.98H63.5c-2.51,0-4.85-1.25-6.24-3.34l-16-24c-1.02-1.54-1.45-3.39-1.18-5.22l6.49-45.48
				c1.03-7.2,5.95-13.08,12.43-15.61c-9.96-20.6-10.9-47.52-10.99-61.79C36.16,259.342,0,230.452,0,183.502
				c0-69.82,68.6-111.5,183.5-111.5c70.23,0,124.27-15.96,156.55-25.49c13.74-4.06,22.04-6.51,27.45-6.51
				c10,0,20.8,17.7,25.28,30.27c4.84,13.59,5.7,27.83,2.48,41.18c-4.09,16.97-14.52,32.4-31.02,45.86
				c-45.28,36.95-101.28,28.73-146.27,22.12c-15.53-2.28-30.2-4.43-42.47-4.43c-36.96,0-56.22,12.14-62.47,19.18
				c3.89-0.46,9.28-1.41,14.25-2.3c17.69-3.13,44.42-7.88,80.22-7.88c45.22,0,72.71,21.78,87.49,33.49
				c3.15,2.49,7.01,5.55,8.78,6.41c2.53-0.75,8.75-4.67,13.81-7.86c12.47-7.86,29.81-18.78,50.42-24.15v-0.39
				c0-2.44,1.19-4.73,3.18-6.13c2-1.41,4.56-1.75,6.85-0.93c0.37,0.13,4.1,1.5,9.31,4.35c9.63-0.55,19.76,0.39,30.29,3.52
				c26.66,7.91,36.69,43.7,37.11,45.22c0.17,0.64,0.26,1.3,0.26,1.97v14.78L462.62,277.132z M446.5,276.222l-6.12-18.35
				c-0.25-0.76-0.38-1.56-0.38-2.37v-14.9c-1.54-4.92-9.85-28.93-26.63-33.91c-1.46-0.43-2.91-0.8-4.35-1.13
				c1.56,1.71,3.08,3.54,4.52,5.5c2.46,3.33,1.74,8.03-1.6,10.48c-3.33,2.46-8.03,1.74-10.48-1.6c-5.25-7.14-12-12.32-17.61-15.81
				c-0.29,0.03-0.57,0.07-0.85,0.11v19.26c0,4.14-3.36,7.5-7.5,7.5s-7.5-3.36-7.5-7.5v-16.05c-16.66,5.05-31.12,14.15-42.42,21.28
				c-9.81,6.18-16.29,10.27-22.08,10.27c-5.51,0-10.41-3.88-17.83-9.76c-14.28-11.31-38.17-30.24-78.17-30.24
				c-34.48,0-60.43,4.61-77.6,7.65c-7.84,1.39-14.03,2.49-18.68,2.73c-7.95,0.41-12.92-2.07-14.79-7.38
				c-1.58-4.47-0.41-9.79,3.27-15c5.03-7.11,14.24-13.64,25.94-18.38c14.12-5.72,30.89-8.62,49.86-8.62
				c13.37,0,28.56,2.23,44.65,4.59c44.27,6.5,94.45,13.87,134.61-18.9c19.96-16.29,29.1-35.02,27.18-55.67
				c-1.79-19.16-12.26-32.11-15.7-34.93c-4,0.51-12.39,2.98-21.94,5.8c-30.9,9.13-88.4,26.11-160.8,26.11
				c-50.16,0-92.23,8.42-121.68,24.35c-31.07,16.8-46.82,41.08-46.82,72.15c0,46.54,43.9,73.3,44.35,73.56
				c2.26,1.35,3.65,3.8,3.65,6.44c0,12.06,0,48.77,14.43,67.41c1.75,2.26,2.06,5.32,0.8,7.89c-1.26,2.57-3.87,4.2-6.73,4.2h-5.37
				c-2.35,0-4.38,1.75-4.71,4.08l-6.09,42.64l12.18,18.28h5.98l-3.69-5.53c-4.29-6.43-4.81-14.73-1.35-21.64l12.34-24.68
				c1.85-3.71,6.36-5.21,10.06-3.36c13.45,6.72,45.45,9.24,70.35-29.36c2.24-3.48,6.89-4.48,10.37-2.23
				c3.48,2.24,4.48,6.89,2.23,10.37c-1.67,2.59-3.38,5.03-5.11,7.32c14.52,4.02,46.75,7.39,68.28-0.63
				c-4.17-16.66-1.02-28.43,3.82-38.11c1.85-3.71,6.36-5.21,10.06-3.36c3.71,1.85,5.21,6.36,3.36,10.06
				c-7.94,15.88-9.18,39.94,41.86,98.02c1.72,1.96,4.34,3.13,6.99,3.13H312v-48.5c0-2.79,1.55-5.35,4.02-6.64
				c0.03-0.02,6.91-3.77,19.86-15.23c10.92-9.65,28.33-26.74,51.13-54.6c-18.2-5.19-32.22-14.92-34.81-25.79
				c-0.96-4.03,1.53-8.08,5.56-9.04c4.03-0.96,8.08,1.53,9.04,5.56c1.26,5.3,19.88,18.24,48.7,18.24c8.88,0,14.7,2.42,18.95,4.18
				C438.94,278.052,441.2,278.992,446.5,276.222z M368.21,408.002l-9.35-71.35c-9.92,9.77-17.85,16.55-23.71,21.11l26.97,47.2
				c1.07,1.88,3.07,3.04,5.23,3.04H368.21z M172.79,380.222l14.26-22.91c-8.7-0.89-16.53-2.37-22.51-4.04l-5.21,36.45l12.18,18.28
				h5.98l-3.69-5.53c-4.29-6.43-4.81-14.73-1.35-21.64C172.56,380.622,172.67,380.422,172.79,380.222z"/>
			<path style="fill:#3D484A;" d="M416.75,234.502c5.51,0,10,4.49,10,10c0,5.51-4.49,10-10,10s-10-4.49-10-10
				C406.75,238.992,411.24,234.502,416.75,234.502z"/>
		</g>
	</g>
</g>
<g>
</g>
<g>
</g>
<g>
</g>
<g>
</g>
<g>
</g>
<g>
</g>
<g>
</g>
<g>
</g>
<g>
</g>
<g>
</g>
<g>
</g>
<g>
</g>
<g>
</g>
<g>
</g>
<g>
</g>
</svg>
