<?xml version="1.0" encoding="iso-8859-1"?>
<!-- Generator: Adobe Illustrator 19.0.0, SVG Export Plug-In . SVG Version: 6.00 Build 0)  -->
<svg version="1.1" id="Capa_1" xmlns="http://www.w3.org/2000/svg" xmlns:xlink="http://www.w3.org/1999/xlink" x="0px" y="0px"
	 viewBox="0 0 463.004 463.004" style="enable-background:new 0 0 463.004 463.004;" xml:space="preserve">
<g>
	<path style="fill:#817F75;" d="M113.704,231.073c1.151-0.709,2.352-1.328,3.609-1.805c1.517-0.575,4.552-1.174,6.816-0.838
		c5.023-8.442,10.245-15.749,15.443-22.058C129.701,214.068,121.002,222.759,113.704,231.073z"/>
	<path style="fill:#817F75;" d="M190.682,168.042c3.43-0.37,6.66,1.63,7.86,4.86c1.19,3.23,0.03,6.86-2.82,8.8
		c-0.47,0.33-12.72,9.13-12.72,25.8c0,28.27-10.2,73.23-14.59,91.25c-0.32,1.32-0.02,2.68,0.78,3.76
		c1.94-6.36,6.78-14.63,18.53-21.49c2.37-1.38,4.89-2.81,7.51-4.29c17.09-9.68,38.35-21.73,54.4-41.9c2.58-3.24,7.3-3.78,10.54-1.2
		c3.24,2.58,3.78,7.3,1.2,10.54c-0.74,0.92-1.5,1.81-2.25,2.7c21.72-2.67,28.2-8.96,29.46-10.46c-5.43-10.6-8.02-18.03-8.17-18.47
		c-1.35-3.91,0.73-8.18,4.65-9.53c3.91-1.35,8.18,0.73,9.53,4.65c0.05,0.13,4.91,13.98,15.26,30.45
		c8.57,13.63,14.83,32.35,18.95,47.61c1.17-8.23,3.64-17.28,8.67-24.08c7.08-9.55,15.81-21.15,20.56-27.45l-4.7-3.22
		c-1.94-1.33-3.15-3.5-3.25-5.85c-0.04-0.67-1.21-17.59-17.37-24.06c-25.6-10.24-63.31-31.53-64.9-32.43
		c-3.61-2.04-4.88-6.62-2.84-10.22c2.04-3.61,6.62-4.88,10.22-2.84c0.38,0.22,38.43,21.7,63.1,31.57
		c19.68,7.87,24.91,25.44,26.29,33.35l48.59,33.24c6.9,2.36,13.34,6.45,19.14,11.31c-7.58-14.58-17.67-29.76-29.99-41.51
		c-5.2-4.97-10.44-10.58-15.99-16.52c-25.56-27.36-57.38-61.41-114.83-61.41c-44.5,0-70.95,5.88-92.2,10.6
		c-13.03,2.9-24.28,5.4-35.8,5.4c-4.24,0-8.97-0.43-13.98-0.89c-29.59-2.69-74.31-6.76-115.43,68.97
		c-0.211,0.388-0.456,0.744-0.721,1.078c2.236,2.259,4.599,4.629,7.087,6.896c27.405-46.118,51.315-59.996,52.355-60.584
		c3.61-2.04,8.19-0.76,10.22,2.84c2.03,3.6,0.77,8.16-2.81,10.2c-0.437,0.262-22.29,13.422-47.564,56.379
		c3.47,1.747,7.114,2.843,10.925,2.903c21.487-39.178,64.135-73.921,66.019-75.441c3.22-2.6,7.95-2.11,10.55,1.11
		c2.6,3.22,2.11,7.95-1.11,10.55c-0.368,0.296-29.555,24.091-50.865,53.217c0.768-0.408,1.542-0.804,2.328-1.178
		c5.617-2.672,10.074-2.777,12.505,3.116C98.822,222.718,137.74,173.855,190.682,168.042z"/>
	<path style="fill:#817F75;" d="M288.622,236.502c-0.02,0.04-0.03,0.07-0.03,0.07l0.09,0.04
		C288.662,236.572,288.642,236.532,288.622,236.502z"/>
	<path style="fill:#3D484A;" d="M462.902,310.272c-2.75-16.49-19.21-62.59-50.22-92.2c-4.9-4.67-9.99-10.12-15.39-15.9
		c-26.09-27.92-61.83-66.17-125.79-66.17c-46.15,0-74.65,6.33-95.46,10.96c-12.66,2.82-22.67,5.04-32.54,5.04
		c-3.55,0-7.75-0.38-12.62-0.82c-31.47-2.87-84.14-7.66-129.97,76.74c-1.98,3.64-0.63,8.19,3.01,10.17
		c3.252,1.769,7.226,0.874,9.448-1.932c0.265-0.335,0.51-0.69,0.721-1.078c41.12-75.73,85.84-71.66,115.43-68.97
		c5.01,0.46,9.74,0.89,13.98,0.89c11.52,0,22.77-2.5,35.8-5.4c21.25-4.72,47.7-10.6,92.2-10.6c57.45,0,89.27,34.05,114.83,61.41
		c5.55,5.94,10.79,11.55,15.99,16.52c12.32,11.75,22.41,26.93,29.99,41.51c-5.8-4.86-12.24-8.95-19.14-11.31l-48.59-33.24
		c-1.38-7.91-6.61-25.48-26.29-33.35c-24.67-9.87-62.72-31.35-63.1-31.57c-3.6-2.04-8.18-0.77-10.22,2.84
		c-2.04,3.6-0.77,8.18,2.84,10.22c1.59,0.9,39.3,22.19,64.9,32.43c16.16,6.47,17.33,23.39,17.37,24.06c0.1,2.35,1.31,4.52,3.25,5.85
		l4.7,3.22c-4.75,6.3-13.48,17.9-20.56,27.45c-5.03,6.8-7.5,15.85-8.67,24.08c-4.12-15.26-10.38-33.98-18.95-47.61
		c-10.35-16.47-15.21-30.32-15.26-30.45c-1.35-3.92-5.62-6-9.53-4.65c-3.92,1.35-6,5.62-4.65,9.53c0.15,0.44,2.74,7.87,8.17,18.47
		c-1.26,1.5-7.74,7.79-29.46,10.46c0.75-0.89,1.51-1.78,2.25-2.7c2.58-3.24,2.04-7.96-1.2-10.54c-3.24-2.58-7.96-2.04-10.54,1.2
		c-16.05,20.17-37.31,32.22-54.4,41.9c-2.62,1.48-5.14,2.91-7.51,4.29c-11.75,6.86-16.59,15.13-18.53,21.49
		c-0.8-1.08-1.1-2.44-0.78-3.76c4.39-18.02,14.59-62.98,14.59-91.25c0-16.67,12.25-25.47,12.72-25.8c2.85-1.94,4.01-5.57,2.82-8.8
		c-1.2-3.23-4.43-5.23-7.86-4.86c-52.943,5.813-91.86,54.676-107.673,78.125c-4.644,6.886-7.301,11.588-7.728,12.355
		c-2.01,3.62-0.71,8.18,2.9,10.2c3.62,2.01,8.19,0.71,10.2-2.9c0.199-0.356,9.441-16.658,25.321-34.749
		c7.299-8.314,15.997-17.005,25.869-24.701c-5.198,6.309-10.42,13.616-15.443,22.058c-2.939,4.939-5.809,10.265-8.566,16.012
		c-1.79,3.73-0.22,8.21,3.52,10c1.04,0.5,2.15,0.74,3.23,0.74c2.8,0,5.48-1.57,6.77-4.26c12.98-27.04,28.61-43.62,39.9-52.98
		c-0.61,2.96-0.98,6.14-0.98,9.56c0,26.64-9.9,70.21-14.16,87.7c-1.62,6.67,0.32,13.56,5.19,18.43l11.17,11.17
		c1.4,1.41,3.31,2.2,5.3,2.2h16c4.14,0,7.5-3.36,7.5-7.5c0-4.14-3.36-7.5-7.5-7.5h-8.52c0.04-0.52,0.02-1.06-0.06-1.6
		c-0.01-0.08-0.67-8.82,12.36-16.42c2.32-1.35,4.78-2.75,7.35-4.2c5.51-3.13,11.68-6.63,18.1-10.67l-3.42,17.09
		c-1.22,6.11,0.68,12.4,5.09,16.81l3.8,3.79l8,8c1.4,1.41,3.31,2.2,5.3,2.2h16c4.14,0,7.5-3.36,7.5-7.5c0-4.14-3.36-7.5-7.5-7.5
		h-12.89l-3.22-3.22c1.82-7.14,9.76-17.86,16.31-26.68c6.05-8.16,11.39-15.35,14.02-21.73c13.61-2.66,21.68-6.82,26.4-10.53
		c0.34,0.55,0.68,1.1,1.03,1.65c10.75,17.1,17.7,44.19,20.88,58.81c2.11,9.68,10.85,16.7,20.8,16.7h4.67c4.14,0,7.5-3.36,7.5-7.5
		c0-4.14-3.36-7.5-7.5-7.5h-0.53c0.03-0.35,0.04-0.7,0.01-1.06c-0.49-6.61-0.26-25.79,6.55-34.98c1.34-1.8,2.74-3.69,4.16-5.59
		l20.51,46.63c2.68,6.07,8.7,10,15.34,10h9.96c4.14,0,7.5-3.36,7.5-7.5c0-4.14-3.36-7.5-7.5-7.5h-8.52
		c0.03-0.44,0.02-0.89-0.03-1.34c-1.48-13.12-2.09-35.68,1.61-47.45l13.02,8.91c0.62,0.42,1.3,0.75,2.01,0.97
		c22.46,6.98,41.1,41.58,41.28,41.92c1.34,2.51,3.92,3.99,6.63,3.99c0.8,0,1.61-0.13,2.41-0.4
		C461.392,317.422,463.502,313.892,462.902,310.272z M288.622,236.502c0.02,0.03,0.04,0.07,0.06,0.11l-0.09-0.04
		C288.592,236.572,288.602,236.542,288.622,236.502z M243.652,273.162c-3.04,4.11-6.12,8.26-8.91,12.39l3.78-18.92
		c1.5-1.18,3-2.39,4.48-3.65c0.17,0.01,0.33,0.02,0.5,0.02c0.07,0,0.14,0,0.21,0c2.62-0.07,5.12-0.19,7.52-0.35
		C248.992,265.962,246.302,269.592,243.652,273.162z M374.942,281.432l-10.93-24.85c2.52-3.34,4.75-6.31,6.42-8.51l9.42,6.44
		C376.682,261.792,375.362,271.782,374.942,281.432z"/>
	<path style="fill:#64625A;" d="M364.012,256.582l10.93,24.85c0.42-9.65,1.74-19.64,4.91-26.92l-9.42-6.44
		C368.762,250.272,366.532,253.242,364.012,256.582z"/>
	<path style="fill:#64625A;" d="M243.502,263.002c-0.17,0-0.33-0.01-0.5-0.02c-1.48,1.26-2.98,2.47-4.48,3.65l-3.78,18.92
		c2.79-4.13,5.87-8.28,8.91-12.39c2.65-3.57,5.34-7.2,7.58-10.51c-2.4,0.16-4.9,0.28-7.52,0.35
		C243.642,263.002,243.572,263.002,243.502,263.002z"/>
	<path style="fill:#3D484A;" d="M119.042,191.012c3.22-2.6,3.71-7.33,1.11-10.55c-2.6-3.22-7.33-3.71-10.55-1.11
		c-1.884,1.52-44.532,36.264-66.019,75.441c-0.982,1.791-1.923,3.591-2.811,5.398c-1.83,3.72-0.3,8.21,3.42,10.04
		c1.07,0.52,2.19,0.77,3.3,0.77c2.77,0,5.44-1.54,6.74-4.19c3.771-7.672,8.612-15.294,13.945-22.583
		C89.487,215.102,118.674,191.308,119.042,191.012z"/>
	<path style="fill:#3D484A;" d="M80.223,195.512c3.58-2.04,4.84-6.6,2.81-10.2c-2.03-3.6-6.61-4.88-10.22-2.84
		c-1.04,0.587-24.951,14.465-52.355,60.584c-1.048,1.763-2.099,3.558-3.155,5.416c-2.05,3.6-0.79,8.18,2.81,10.23
		c1.17,0.67,2.45,0.98,3.7,0.98c2.61,0,5.15-1.36,6.53-3.79c0.775-1.363,1.547-2.694,2.317-4.001
		C57.932,208.934,79.786,195.774,80.223,195.512z"/>
</g>
<g>
</g>
<g>
</g>
<g>
</g>
<g>
</g>
<g>
</g>
<g>
</g>
<g>
</g>
<g>
</g>
<g>
</g>
<g>
</g>
<g>
</g>
<g>
</g>
<g>
</g>
<g>
</g>
<g>
</g>
</svg>
