<?xml version="1.0" encoding="iso-8859-1"?>
<!-- Generator: Adobe Illustrator 19.0.0, SVG Export Plug-In . SVG Version: 6.00 Build 0)  -->
<svg version="1.1" id="Capa_1" xmlns="http://www.w3.org/2000/svg" xmlns:xlink="http://www.w3.org/1999/xlink" x="0px" y="0px"
	 viewBox="0 0 462.999 462.999" style="enable-background:new 0 0 462.999 462.999;" xml:space="preserve">
<g id="XMLID_52_">
	<g>
		<polygon style="fill:#8C704D;" points="263.22,289.876 265.66,294.756 259.39,302.696 		"/>
		<path style="fill:#8C704D;" d="M87.85,276.416c-0.36,2.271-1.3,5.05-2.57,8.07c-2.74,4.26-8.72,8.84-14.52,13.28
			c-4.8,3.68-9.85,7.55-14.17,11.92l-2.91-18.5c3.3-9.01,6.47-19.59,9.15-31.931c1.6-7.39,3.44-14.51,5.37-21.19
			c1.27,5.26,2.92,9.96,4.65,14.03C77.91,264.006,84.4,272.426,87.85,276.416z"/>
		<path style="fill:#B99365;" d="M443.69,146.866l-7.3,7.3H407.5c-1.58,0-3.11,0.49-4.39,1.42c-12.32,8.89-55.11,79.9-65.36,97.07
			l-38.94,31.15c-1.27,1.02-2.17,2.42-2.57,3.99c-0.22,0.851-3.01,11.93-4.06,26.45l-21.57-43.13c-0.49-2.37-1.94-10.85,0.18-19.7
			c0.97-4.03-1.51-8.08-5.54-9.05c-4.03-0.96-8.08,1.52-9.04,5.55c-1.55,6.45-1.71,12.65-1.41,17.54
			c-24.57,3.07-63.58-6.21-84.27-15.15c0.16-6.62-0.89-12.84-1.89-18.63c-0.84-4.91-1.64-9.54-1.64-14.01c0-4.15-3.36-7.5-7.5-7.5
			s-7.5,3.35-7.5,7.5c0,5.75,0.94,11.24,1.86,16.55c1.73,10.04,3.22,18.71-1.18,28.33c-2.47,5.391-13.38,12.74-23.93,19.84
			c-14.22,9.57-30.67,20.66-38.54,34.49c-0.94-1.7-1.88-3.39-2.84-5.06c3.15-4.79,7.93-12.57,11.37-20.629
			c0.13-0.23,0.27-0.46,0.39-0.69c0.35-0.67,0.59-1.36,0.73-2.06c2.04-5.32,3.36-10.63,3.13-15.161c-0.1-1.879-0.89-3.65-2.24-4.97
			c-0.33-0.32-32.89-33.05-14.28-79.87c1.49-3.76-0.26-8.021-3.96-9.641c-3.7-1.63-8.02-0.02-9.77,3.62
			c-0.64,1.33-15.77,33.1-24.57,73.66c-6.41,29.54-16.2,49.44-23.46,60.22c-4.26-9.07-9.71-24.27-9.71-42.63
			c0-9.85,1.12-35.53,11.46-61.2c10.29-25.55,26.41-43,47.9-51.87c35.5-14.64,67.99-5.32,94.1,2.17c11.88,3.41,22.16,6.36,30.88,6.4
			c2.07,0.08,24.29,0.93,47.63,0.42c45.88-0.979,57.06-6.11,61.68-10.47c23.48-22.17,55.19-47.32,55.51-47.57
			c2.2-1.75,3.24-4.58,2.7-7.33c-1.98-10.05,1.44-20.53,4.98-27.99l14.56,24.96c1.11,1.839,2.36,3.93,20.17,10.51
			c10.89,4.03,13.11,16.03,13.19,16.49c0.33,2.069,1.52,3.92,3.28,5.069L443.69,146.866z"/>
		<path style="fill:#3D484A;" d="M462.96,144.906c0.23,2.24-0.56,4.47-2.16,6.06l-16,16c-1.4,1.41-3.31,2.2-5.3,2.2h-29.17
			c-8.96,9.34-36.81,52.75-60.39,92.33c-0.46,0.78-1.05,1.46-1.75,2.02l-37.97,30.37c-1.77,8.22-6.89,36.15,0.23,56.9l21.69,43.38
			h11.36c4.14,0,7.5,3.35,7.5,7.5c0,4.14-3.36,7.5-7.5,7.5h-16c-2.84,0-5.44-1.61-6.71-4.15l-47.72-95.44l-25.36,32.1l-8.17,27.29
			l12.6,25.2h11.36c4.14,0,7.5,3.35,7.5,7.5c0,4.14-3.36,7.5-7.5,7.5h-16c-2.84,0-5.44-1.61-6.71-4.15l-16-32
			c-0.85-1.71-1.02-3.68-0.47-5.51l25.95-86.64c-1.9,0.1-3.82,0.16-5.79,0.16c-25.56,0-57.27-7.85-76.77-15.66
			c-0.42,1.13-0.86,2.27-1.39,3.42c-4.22,9.23-15.8,17.02-29.2,26.04c-22.91,15.43-40.1,28.42-35.9,43.48
			c11.44,23.76,19.99,46.12,23.56,55.86h10.72c4.14,0,7.5,3.35,7.5,7.5c0,4.14-3.36,7.5-7.5,7.5h-16c-3.19,0-6.04-2.03-7.08-5.04
			c-0.18-0.5-17.6-50.28-40.16-88.439c-6.61,5.54-11.91,11.37-11.8,17.899c0,0.18-0.01,0.34-0.02,0.51l9.47,60.07h9.59
			c4.14,0,7.5,3.35,7.5,7.5c0,4.14-3.36,7.5-7.5,7.5h-16c-3.69,0-6.83-2.69-7.41-6.34l-13.69-86.84
			c-7.32,13.02-13.33,18.74-13.8,19.18c-1.6,1.48-3.77,2.19-5.93,1.95c-2.17-0.24-4.12-1.41-5.36-3.21
			c-0.7-1.03-17.31-25.65-17.31-60.24c0-10.729,1.22-38.71,12.54-66.809c11.86-29.43,30.74-49.66,56.1-60.13
			c40.33-16.63,77.1-6.08,103.95,1.62c10.87,3.12,20.26,5.82,26.91,5.82c0.1,0,0.21,0,0.31,0c0.23,0.01,22.73,0.93,46.5,0.441
			c44.5-0.93,51.41-5.851,52.05-6.41c19.4-18.32,44.21-38.55,53.12-45.72c-2.11-23.26,13.63-44.67,14.34-45.63
			c1.51-2.02,3.92-3.15,6.44-3c2.51,0.14,4.78,1.53,6.05,3.7l20.15,34.54c1.43,0.76,5.05,2.49,13.31,5.54
			c14.65,5.42,20.13,18.45,21.98,24.72l25.88,17.05C461.51,140.636,462.73,142.656,462.96,144.906z M436.39,154.166l7.3-7.3
			l-20.65-13.61c-1.76-1.149-2.95-3-3.28-5.069c-0.08-0.46-2.3-12.46-13.19-16.49c-17.81-6.58-19.06-8.67-20.17-10.51l-14.56-24.96
			c-3.54,7.46-6.96,17.94-4.98,27.99c0.54,2.75-0.5,5.58-2.7,7.33c-0.32,0.25-32.03,25.4-55.51,47.57
			c-4.62,4.36-15.8,9.49-61.68,10.47c-23.34,0.51-45.56-0.34-47.63-0.42c-8.72-0.04-19-2.99-30.88-6.4
			c-26.11-7.49-58.6-16.81-94.1-2.17c-21.49,8.87-37.61,26.32-47.9,51.87c-10.34,25.67-11.46,51.35-11.46,61.2
			c0,18.36,5.45,33.56,9.71,42.63c7.26-10.78,17.05-30.68,23.46-60.22c8.8-40.56,23.93-72.33,24.57-73.66
			c1.75-3.64,6.07-5.25,9.77-3.62c3.7,1.62,5.45,5.88,3.96,9.641c-18.61,46.819,13.95,79.55,14.28,79.87
			c1.35,1.32,2.14,3.09,2.24,4.97c0.23,4.53-1.09,9.84-3.13,15.161c-0.14,0.7-0.38,1.39-0.73,2.06c-0.12,0.23-0.26,0.46-0.39,0.69
			c-3.44,8.06-8.22,15.839-11.37,20.629c0.96,1.67,1.9,3.36,2.84,5.06c7.87-13.83,24.32-24.92,38.54-34.49
			c10.55-7.1,21.46-14.45,23.93-19.84c4.4-9.62,2.91-18.29,1.18-28.33c-0.92-5.31-1.86-10.8-1.86-16.55c0-4.15,3.36-7.5,7.5-7.5
			s7.5,3.35,7.5,7.5c0,4.47,0.8,9.1,1.64,14.01c1,5.79,2.05,12.01,1.89,18.63c20.69,8.94,59.7,18.22,84.27,15.15
			c-0.3-4.89-0.14-11.09,1.41-17.54c0.96-4.03,5.01-6.51,9.04-5.55c4.03,0.97,6.51,5.02,5.54,9.05c-2.12,8.85-0.67,17.33-0.18,19.7
			l21.57,43.13c1.05-14.52,3.84-25.6,4.06-26.45c0.4-1.57,1.3-2.97,2.57-3.99l38.94-31.15c10.25-17.17,53.04-88.18,65.36-97.07
			c1.28-0.93,2.81-1.42,4.39-1.42H436.39z M265.66,294.756l-2.44-4.88l-3.83,12.82L265.66,294.756z M85.28,284.486
			c1.27-3.02,2.21-5.8,2.57-8.07c-3.45-3.99-9.94-12.41-15-24.32c-1.73-4.07-3.38-8.77-4.65-14.03c-1.93,6.68-3.77,13.8-5.37,21.19
			c-2.68,12.34-5.85,22.92-9.15,31.931l2.91,18.5c4.32-4.371,9.37-8.24,14.17-11.92C76.56,293.326,82.54,288.746,85.28,284.486z"/>
	</g>
</g>
<g>
</g>
<g>
</g>
<g>
</g>
<g>
</g>
<g>
</g>
<g>
</g>
<g>
</g>
<g>
</g>
<g>
</g>
<g>
</g>
<g>
</g>
<g>
</g>
<g>
</g>
<g>
</g>
<g>
</g>
</svg>
