<?xml version="1.0" encoding="iso-8859-1"?>
<!-- Generator: Adobe Illustrator 19.0.0, SVG Export Plug-In . SVG Version: 6.00 Build 0)  -->
<svg version="1.1" id="Capa_1" xmlns="http://www.w3.org/2000/svg" xmlns:xlink="http://www.w3.org/1999/xlink" x="0px" y="0px"
	 viewBox="0 0 463.221 463.221" style="enable-background:new 0 0 463.221 463.221;" xml:space="preserve">
<g>
	<g id="XMLID_70_">
		<g>
			<path style="fill:#CB8F68;" d="M60.761,322.696c1.75,6.27,3.96,12.32,6.569,17.95c-5.989,3.54-19.29,9.64-42.12,11.84
				c0.61-0.37,1.25-0.74,1.92-1.12C38.321,345.176,51.731,336.306,60.761,322.696z"/>
			<path style="fill:#CB8F68;" d="M448.121,152.076c0.03,1.25,0.061,2.7,0.08,4c-3.82,2.84-5.939,7.2-7.859,11.18
				c-4.301,8.88-8.74,18.05-32.841,18.05c-3.229,0-6.1,2.07-7.12,5.14c-0.159,0.5-17.09,50.39-53.239,76.26
				c-2.691,1.93-3.011,4.17-3.521,7.9c-0.25,1.79-0.58,4.33-0.97,7.37c-0.771,6.02-1.76,14.03-2.74,22.02
				c-1.95,15.98-3.859,31.92-3.859,31.92c-0.25,2.13,0.42,4.26,1.84,5.87c1.43,1.6,3.47,2.52,5.609,2.52h8.721
				c2.05,0,3.949,1.02,5.08,2.72l4.189,6.28H335.5c-12.609,0-16.51-9.83-16.88-10.87c-0.569-1.69-1.71-3.12-3.229-4.04
				c-0.221-0.14-22.24-13.48-40.07-24.04c-12.53-7.43-12.51-9.25-12.35-21.12c0.01-1.38,0.029-2.86,0.029-4.43v-24
				c0-1.38-0.38-2.74-1.1-3.91c-3.9-6.39-14.19-25.41-14.91-36.57c-0.27-4.14-3.84-7.27-7.97-7c-4.13,0.26-7.271,3.83-7,7.96
				c0.95,14.83,12.17,35.1,15.979,41.59v21.93c0,1.51-0.02,2.91-0.029,4.24c-0.051,3.42-0.03,6.48,0.25,9.32
				c-7.96,11.57-46.5,27.09-87.67,31.1c-1.891-2.46-4.46-4.27-7.341-5.26c3.99-7.56,7.721-15.77,10.601-23.37
				c6.08-16.09,8.649-29.78,7.66-40.71c-0.37-4.12-4.021-7.16-8.15-6.79c-4.12,0.38-7.16,4.02-6.79,8.15
				c0.8,8.75-2.63,33.12-21,63.6l-15.47,2.3c-4.09,0.61-6.92,4.43-6.311,8.52c0.61,4.1,4.431,6.93,8.521,6.32l25.89-3.86
				c0.19-0.03,0.41,0.07,0.51,0.25l6.011,10.69h-59.15c-1.58-0.14-7.89-4.74-14.31-18.34C74.731,321.216,71,304.386,71,288.806
				c0-38.89,10.471-76.73,28.721-103.81c21.47-31.85,53.21-48.69,91.779-48.69c43.021,0,67.851,14.75,68.07,14.89
				c1.32,0.81,2.86,1.2,4.42,1.09c13.061-0.84,27.01-8.61,43.16-17.61c0.78-0.43,1.58-0.87,2.37-1.31c0.81,2.76,2.13,5.38,3.95,7.78
				c5.13,6.78,13.779,11.16,22.029,11.16c4.141,0,7.5-3.36,7.5-7.5c0-4.14-3.359-7.5-7.5-7.5c-3.04,0-7.479-1.79-10.069-5.21
				c-1.891-2.5-2.37-5.28-1.46-8.5c0.67-2.38,3.159-4.67,6.35-5.84c1.63-0.6,5.81-1.72,9.49,0.77c3.43,2.31,8.09,1.41,10.41-2.02
				c0.449-0.68,0.779-1.4,0.989-2.14c3.261-0.92,6.41-1.64,9.52-2.16c29.97-5,52.3-1.48,56.57,4.81
				c3.529,5.21,9.529,9.26,15.88,13.55c6.26,4.22,14.819,10,14.819,14.24C448,146.986,448.061,149.576,448.121,152.076z
				 M404.5,129.306c0-6.34-5.159-11.5-11.5-11.5c-6.34,0-11.5,5.16-11.5,11.5c0,6.34,5.16,11.5,11.5,11.5
				C399.341,140.806,404.5,135.645,404.5,129.306z"/>
			<path style="fill:#3D484A;" d="M463.111,151.736c0.06,2.36,0.11,4.6,0.11,6.33c-0.011,2.57-0.011,8.6-5.971,10.03
				c-0.739,0.18-2.479,3.77-3.409,5.7c-4.54,9.37-11.971,24.71-41.04,26.36c-5.351,13.82-22.53,52.72-54.381,76.86
				c-1.109,8.15-4.119,32.81-6.47,52.29h0.271c7.069,0,13.64,3.51,17.559,9.4l11.96,17.94c1.54,2.3,1.68,5.26,0.37,7.7
				c-1.3,2.44-3.84,3.96-6.61,3.96h-40c-18.72,0-27.059-12.54-29.909-18.31c-5.86-3.54-23.301-14.08-37.91-22.74
				c-5.96-3.53-10.141-6.76-13.061-9.97c-8.64,7.5-21.54,13.36-32.229,17.34c-16.311,6.07-35.441,10.68-53.691,13.02l5.34,9.48
				c1.301,2.33,1.28,5.17-0.06,7.47c-1.351,2.3-3.811,3.71-6.48,3.71h-72c-8.43,0-15.62-7.23-20.739-14.56
				c-4.301,2.54-10.57,5.51-19.4,8.18c-14.019,4.23-30.12,6.38-47.86,6.38c-2.3,0-4.47-1.06-5.89-2.86
				c-1.43-1.81-1.94-4.17-1.4-6.41c0.471-1.91,3.591-11.9,19.66-20.79c8.82-4.89,17.75-10.71,24.53-18.59
				c6.77-7.89,11.39-17.84,11.6-30.97c0.021-41.76,11.42-82.6,31.28-112.07c24.39-36.18,60.42-55.31,104.22-55.31
				c40.261,0,65.941,11.75,73.58,15.79c9.45-1.42,21.78-8.29,34.78-15.52c3.68-2.05,7.49-4.16,11.38-6.24
				c2.78-5.19,7.731-9.4,13.92-11.67c4.75-1.73,9.62-2.12,14.181-1.23c6.609-2.36,12.81-4.01,18.93-5.03
				c9.58-1.59,58.04-8.56,71.439,11.19c1.91,2.81,6.971,6.23,11.86,9.54c10.05,6.78,21.43,14.46,21.43,26.67
				C463,146.816,463.061,149.316,463.111,151.736z M448.201,156.076c-0.019-1.3-0.05-2.75-0.08-4c-0.06-2.5-0.12-5.09-0.12-7.27
				c0-4.24-8.559-10.02-14.819-14.24c-6.351-4.29-12.351-8.34-15.88-13.55c-4.271-6.29-26.601-9.81-56.57-4.81
				c-3.11,0.52-6.26,1.24-9.52,2.16c-0.21,0.74-0.54,1.46-0.989,2.14c-2.32,3.43-6.981,4.33-10.41,2.02
				c-3.681-2.49-7.86-1.37-9.49-0.77c-3.19,1.17-5.68,3.46-6.35,5.84c-0.91,3.22-0.431,6,1.46,8.5c2.59,3.42,7.029,5.21,10.069,5.21
				c4.141,0,7.5,3.36,7.5,7.5c0,4.14-3.359,7.5-7.5,7.5c-8.25,0-16.899-4.38-22.029-11.16c-1.82-2.4-3.141-5.02-3.95-7.78
				c-0.79,0.44-1.59,0.88-2.37,1.31c-16.15,9-30.1,16.77-43.16,17.61c-1.56,0.11-3.1-0.28-4.42-1.09
				c-0.22-0.14-25.05-14.89-68.07-14.89c-38.569,0-70.31,16.84-91.779,48.69C81.471,212.076,71,249.915,71,288.806
				c0,15.58,3.73,32.41,10.221,46.16c6.42,13.6,12.729,18.2,14.31,18.34h59.15l-6.011-10.69c-0.1-0.18-0.319-0.28-0.51-0.25
				l-25.89,3.86c-4.09,0.61-7.91-2.22-8.521-6.32c-0.609-4.09,2.221-7.91,6.311-8.52l15.47-2.3c18.37-30.48,21.8-54.85,21-63.6
				c-0.37-4.13,2.67-7.77,6.79-8.15c4.13-0.37,7.78,2.67,8.15,6.79c0.989,10.93-1.58,24.62-7.66,40.71
				c-2.88,7.6-6.61,15.81-10.601,23.37c2.881,0.99,5.45,2.8,7.341,5.26c41.17-4.01,79.71-19.53,87.67-31.1
				c-0.28-2.84-0.301-5.9-0.25-9.32c0.01-1.33,0.029-2.73,0.029-4.24v-21.93c-3.81-6.49-15.029-26.76-15.979-41.59
				c-0.271-4.13,2.87-7.7,7-7.96c4.13-0.27,7.7,2.86,7.97,7c0.72,11.16,11.01,30.18,14.91,36.57c0.72,1.17,1.1,2.53,1.1,3.91v24
				c0,1.57-0.02,3.05-0.029,4.43c-0.16,11.87-0.181,13.69,12.35,21.12c17.83,10.56,39.85,23.9,40.07,24.04
				c1.52,0.92,2.66,2.35,3.229,4.04c0.37,1.04,4.271,10.87,16.88,10.87h25.99l-4.189-6.28c-1.131-1.7-3.03-2.72-5.08-2.72H343.5
				c-2.14,0-4.18-0.92-5.609-2.52c-1.42-1.61-2.09-3.74-1.84-5.87c0,0,1.909-15.94,3.859-31.92c0.98-7.99,1.97-16,2.74-22.02
				c0.39-3.04,0.72-5.58,0.97-7.37c0.51-3.73,0.83-5.97,3.521-7.9c36.149-25.87,53.08-75.76,53.239-76.26
				c1.021-3.07,3.891-5.14,7.12-5.14c24.101,0,28.54-9.17,32.841-18.05C442.261,163.276,444.38,158.915,448.201,156.076z
				 M67.331,340.646c-2.609-5.63-4.819-11.68-6.569-17.95c-9.03,13.61-22.44,22.48-33.631,28.67c-0.67,0.38-1.309,0.75-1.92,1.12
				C48.041,350.286,61.341,344.185,67.331,340.646z"/>
			<path style="fill:#3D484A;" d="M393,117.806c6.341,0,11.5,5.16,11.5,11.5c0,6.34-5.159,11.5-11.5,11.5
				c-6.34,0-11.5-5.16-11.5-11.5C381.5,122.966,386.661,117.806,393,117.806z"/>
		</g>
	</g>
</g>
<g>
</g>
<g>
</g>
<g>
</g>
<g>
</g>
<g>
</g>
<g>
</g>
<g>
</g>
<g>
</g>
<g>
</g>
<g>
</g>
<g>
</g>
<g>
</g>
<g>
</g>
<g>
</g>
<g>
</g>
</svg>
