<?xml version="1.0" encoding="iso-8859-1"?>
<!-- Generator: Adobe Illustrator 19.0.0, SVG Export Plug-In . SVG Version: 6.00 Build 0)  -->
<svg version="1.1" id="Capa_1" xmlns="http://www.w3.org/2000/svg" xmlns:xlink="http://www.w3.org/1999/xlink" x="0px" y="0px"
	 viewBox="0 0 462.998 462.998" style="enable-background:new 0 0 462.998 462.998;" xml:space="preserve">
<g>
	<g id="XMLID_71_">
		<g>
			<path style="fill:#A29885;" d="M370.719,348.693h-0.42c-6.72-5.98-28.89-26.87-41.29-52.36c9.54-4.53,20.84-12.01,30.94-24.24
				C359.888,285.493,360.648,324.363,370.719,348.693z"/>
			<path style="fill:#A29885;" d="M135.958,292.503c-0.32,4.27-2.55,28.18-13.52,56.19h-11.26c-0.3,0-0.52-0.19-0.54-0.47
				c-0.71-12.43-2.62-35.98-7.46-56.21c1.69-2.3,3.31-4.59,4.84-6.86C117.128,288.653,126.548,291.013,135.958,292.503z"/>
			<path style="fill:#BCB19B;" d="M447.708,258.363l-7.91,11.87c-2.38,3.56-6.65,5.43-10.88,4.75c-7.06-1.13-19.04-3.12-36.1-6.17
				c-12.09-2.17-21.24-9.23-27.19-21c-4.89-9.67-6.63-20.61-6.63-27.62c0-4.14-3.36-7.5-7.5-7.5c-4.14,0-7.5,3.36-7.5,7.5
				c0,9.43,2.37,23.43,9.17,35.97c-12.55,18.58-28.56,26.53-38.44,29.84c1.66-5.68,3.08-11.19,4.12-16.32
				c0.82-4.06-1.8-8.01-5.86-8.84c-4.05-0.82-8.02,1.8-8.84,5.86c-5.61,27.65-23.49,68.7-29.47,81.99h-6.59
				c-12.04-23.81-29.09-61.37-29.09-72.5c0-13.09,7.22-28.66,7.29-28.8c1.76-3.75,0.15-8.22-3.6-9.98
				c-3.75-1.77-8.21-0.16-9.98,3.59c-0.31,0.67-6.9,14.82-8.4,29.5c-12.92,4.64-64.99,17-108.3,1.61c4.94-8.96,8.53-17.64,10.74-26
				c1.06-4.01-1.33-8.11-5.33-9.17c-4.01-1.06-8.11,1.33-9.17,5.34c-11.99,45.38-70.19,92.6-81.01,101.07l-14.63-19.51
				c6.67-10.88,22.39-39.14,22.39-63.65c0-5.46-0.38-11.17-0.77-17.2c-1.7-25.75-3.62-54.93,22.61-81.53
				c17.4-17.65,36.63-30.49,57.15-38.17c22.12-8.28,46.55-10.86,72.59-7.65c59.27,7.28,101.81,23.39,102.23,23.55
				c1.27,0.49,2.63,0.62,3.97,0.39c31.21-5.4,48.04,2.96,52.15,5.42c-0.23,8.31,0.47,18.32,3.32,29.11
				c0.89,3.36,3.92,5.58,7.25,5.58c0.63,0,1.27-0.08,1.92-0.25c4-1.05,6.39-5.16,5.33-9.16c-3.9-14.76-3.04-27.93-1.81-35.88
				c21.16,10.34,27.05,30.77,27.32,31.75c1.08,3.99,5.18,6.35,9.17,5.29c1.98-0.53,3.56-1.8,4.53-3.44
				C436.668,190.953,445.949,245.773,447.708,258.363z M430.168,223.863c0-5.33-4.34-9.67-9.67-9.67c-5.33,0-9.67,4.34-9.67,9.67
				s4.34,9.67,9.67,9.67C425.828,233.533,430.168,229.193,430.168,223.863z"/>
			<path style="fill:#3D484A;" d="M462.958,259.423c0.18,1.73-0.25,3.48-1.22,4.93l-9.46,14.2c-4.86,7.28-13.06,11.57-21.65,11.57
				c-1.36,0-2.72-0.11-4.09-0.33c-7.11-1.14-19.19-3.14-36.36-6.22c-5.68-1.01-10.7-2.79-15.15-5.12c0.13,6.5,0.48,15.5,1.39,25.12
				c1.97,20.86,5.83,36.63,10.99,45.12h12.09c4.14,0,7.5,3.36,7.5,7.5c0,4.14-3.36,7.5-7.5,7.5h-32c-1.74,0-3.44-0.61-4.78-1.72
				c-1.36-1.12-31.9-26.65-47.82-60.39c-2.36,0.64-4.28,1.03-5.59,1.27c-6.19,17.79-13.5,35.14-18.21,45.84h12.4
				c4.14,0,7.5,3.36,7.5,7.5c0,4.14-3.36,7.5-7.5,7.5h-40c-2.81,0-5.38-1.56-6.66-4.06c-2.91-5.63-25.34-49.51-31.36-73.73
				c-11.64,3.56-34.98,8.72-61.43,8.72c-4.32,0-8.72-0.14-13.17-0.45c-0.47,5.99-2.76,27.9-12.4,54.52h13.02
				c4.14,0,7.5,3.36,7.5,7.5c0,4.14-3.36,7.5-7.5,7.5h-40.32c-8.23,0-15.05-6.42-15.52-14.62c-0.54-9.55-1.81-25.91-4.65-41.85
				c-4.35,5.05-9.07,10.17-14.16,15.35c-10.89,11.1-21.17,20.14-28.35,26.12h7c4.14,0,7.5,3.36,7.5,7.5c0,4.14-3.36,7.5-7.5,7.5
				h-13.96c-8.64,0-16.88-4.12-22.06-11.03l-17.98-23.97c-1.92-2.56-2-6.05-0.21-8.7c0.22-0.33,22.71-33.97,22.71-59.8
				c0-4.97-0.36-10.43-0.74-16.22c-1.81-27.46-4.06-61.65,26.9-93.04c39.48-40.05,87.34-56.93,142.26-50.18
				c54.67,6.72,94.63,20.38,103.82,23.72c17.11-2.73,32.57-2.18,46,1.63c3.28,0.93,6.07,1.97,8.39,2.97c0.82-4.3,1.64-6.89,1.74-7.2
				c1.27-3.91,5.45-6.06,9.37-4.84c20.45,6.4,32.14,19.95,38.45,30.57c22.39,9.15,39.76,30.81,51.63,64.41
				C460.518,236.623,462.858,258.503,462.958,259.423z M439.798,270.233l7.91-11.87c-1.76-12.59-11.04-67.41-41.75-90.36
				c-0.97,1.64-2.55,2.91-4.53,3.44c-3.99,1.06-8.09-1.3-9.17-5.29c-0.27-0.98-6.16-21.41-27.32-31.75
				c-1.23,7.95-2.09,21.12,1.81,35.88c1.06,4-1.33,8.11-5.33,9.16c-0.65,0.17-1.29,0.25-1.92,0.25c-3.33,0-6.36-2.22-7.25-5.58
				c-2.85-10.79-3.55-20.8-3.32-29.11c-4.11-2.46-20.94-10.82-52.15-5.42c-1.34,0.23-2.7,0.1-3.97-0.39
				c-0.42-0.16-42.96-16.27-102.23-23.55c-26.04-3.21-50.47-0.63-72.59,7.65c-20.52,7.68-39.75,20.52-57.15,38.17
				c-26.23,26.6-24.31,55.78-22.61,81.53c0.39,6.03,0.77,11.74,0.77,17.2c0,24.51-15.72,52.77-22.39,63.65l14.63,19.51
				c10.82-8.47,69.02-55.69,81.01-101.07c1.06-4.01,5.16-6.4,9.17-5.34c4,1.06,6.39,5.16,5.33,9.17c-2.21,8.36-5.8,17.04-10.74,26
				c43.31,15.39,95.38,3.03,108.3-1.61c1.5-14.68,8.09-28.83,8.4-29.5c1.77-3.75,6.23-5.36,9.98-3.59c3.75,1.76,5.36,6.23,3.6,9.98
				c-0.07,0.14-7.29,15.71-7.29,28.8c0,11.13,17.05,48.69,29.09,72.5h6.59c5.98-13.29,23.86-54.34,29.47-81.99
				c0.82-4.06,4.79-6.68,8.84-5.86c4.06,0.83,6.68,4.78,5.86,8.84c-1.04,5.13-2.46,10.64-4.12,16.32
				c9.88-3.31,25.89-11.26,38.44-29.84c-6.8-12.54-9.17-26.54-9.17-35.97c0-4.14,3.36-7.5,7.5-7.5c4.14,0,7.5,3.36,7.5,7.5
				c0,7.01,1.74,17.95,6.63,27.62c5.95,11.77,15.1,18.83,27.19,21c17.06,3.05,29.04,5.04,36.1,6.17
				C433.148,275.663,437.418,273.793,439.798,270.233z M370.298,348.693h0.42c-10.07-24.33-10.83-63.2-10.77-76.6
				c-10.1,12.23-21.4,19.71-30.94,24.24C341.409,321.823,363.578,342.713,370.298,348.693z M122.438,348.693
				c10.97-28.01,13.2-51.92,13.52-56.19c-9.41-1.49-18.83-3.85-27.94-7.35c-1.53,2.27-3.15,4.56-4.84,6.86
				c4.84,20.23,6.75,43.78,7.46,56.21c0.02,0.28,0.24,0.47,0.54,0.47H122.438z"/>
			<path style="fill:#3D484A;" d="M420.498,214.193c5.33,0,9.67,4.34,9.67,9.67s-4.34,9.67-9.67,9.67c-5.33,0-9.67-4.34-9.67-9.67
				S415.168,214.193,420.498,214.193z"/>
		</g>
	</g>
</g>
<g>
</g>
<g>
</g>
<g>
</g>
<g>
</g>
<g>
</g>
<g>
</g>
<g>
</g>
<g>
</g>
<g>
</g>
<g>
</g>
<g>
</g>
<g>
</g>
<g>
</g>
<g>
</g>
<g>
</g>
</svg>
