<?xml version="1.0" encoding="iso-8859-1"?>
<!-- Generator: Adobe Illustrator 19.0.0, SVG Export Plug-In . SVG Version: 6.00 Build 0)  -->
<svg version="1.1" id="Capa_1" xmlns="http://www.w3.org/2000/svg" xmlns:xlink="http://www.w3.org/1999/xlink" x="0px" y="0px"
	 viewBox="0 0 463 463" style="enable-background:new 0 0 463 463;" xml:space="preserve">
<g>
	<g id="XMLID_72_">
		<g>
			<path style="fill:#CEB290;" d="M448,123.21v27.14c0,3.87-13.65,11.84-55.83,11.84c-21.69,0-28.38-3.88-36.11-9.79
				c-3.29-2.52-8-1.89-10.52,1.4c-2.51,3.29-1.89,8,1.4,10.51c5.3,4.05,10.78,7.69,19.45,10.06
				c-33.85,59.49-70.25,75.19-77.44,77.81c-10.21,3.7-17.45,12.82-18.89,23.79c-2.77,21.01-6.06,49.58-6.06,66.38
				c0,10.69,2.51,18.66,5.78,24.5h-0.13c-4.99,0-9.32-3.35-10.54-8.15c-4.06-15.93-11.02-45.54-12.12-64.77
				c-0.05-0.81-0.23-1.61-0.53-2.36l-16-40c-1.53-3.85-5.9-5.72-9.75-4.18c-3.84,1.54-5.71,5.9-4.17,9.75l7.89,19.74
				c-20.23,6.8-55.79,4.43-82.25,2.65c-9.03-0.61-17.11-1.15-23.93-1.33c2.91-3.88,5.57-7.98,7.88-12.33
				c1.94-3.66,0.54-8.2-3.12-10.14c-3.66-1.94-8.2-0.55-10.14,3.11c-15.43,29.12-50.5,46.79-67.36,55.28
				c-9.67,4.87-12.93,6.51-13.47,11.42c-2.21,20.11-1.07,34.05,1.17,43.61l-10.76-7.18l-6.98-48.88C22.52,306,39,287.61,39,270.35
				c0-9.92-5.2-18.29-10.71-27.16C21.75,232.68,15,221.81,15,206.35c0-18.29,9.28-40.33,24.22-57.51
				c17.38-19.98,40.21-30.99,64.28-30.99c29.5,0,64.42,7.35,95.23,13.82c25.98,5.47,48.42,10.18,64.77,10.18
				c2.34,0,8.57,0,34.35-16.49c9.76-6.24,19.51-13.13,26.84-18.88c2.28,4.89,4.57,8.05,4.77,8.32c1.47,2,3.74,3.05,6.05,3.05
				c1.54,0,3.09-0.47,4.43-1.45c3.34-2.46,4.06-7.15,1.6-10.49c-0.06-0.09-6.06-8.49-6.52-17.78c4.7,0.46,14.99,5.42,18.21,10.33
				c2.27,3.47,6.92,4.44,10.38,2.17c0.98-0.65,1.76-1.48,2.32-2.43c36.79-2.38,71.26,17.32,81.36,23.7
				C447.75,122.19,448,122.66,448,123.21z M391,118.35c0-4.14-3.36-7.5-7.5-7.5h-8c-4.14,0-7.5,3.36-7.5,7.5
				c0,4.15,3.36,7.5,7.5,7.5h8C387.64,125.85,391,122.5,391,118.35z"/>
			<path style="fill:#3D484A;" d="M463,123.21v27.14c0,17.81-23.83,26.84-70.83,26.84c-3.64,0-6.96-0.12-10-0.33
				c-13.86,25.39-29.91,46.59-47.76,63.03c-18.31,16.86-33.14,23.77-40.34,26.38c-4.93,1.79-8.43,6.26-9.14,11.65
				c-2.21,16.84-5.93,47.6-5.93,64.43c0,19.78,11.27,25.03,11.38,25.08c3.3,1.38,5.18,4.89,4.47,8.4c-0.7,3.5-3.77,6.02-7.35,6.02
				h-17.85c-11.85,0-22.17-7.99-25.08-19.45c-5.01-19.68-11.18-46.97-12.48-66.38l-2.08-5.19c-12.3,4.29-28.3,5.62-45.03,5.62
				c-14.72,0-29.99-1.03-43.8-1.95c-15.5-1.04-30.14-2.02-36.19-0.8c-0.32,0.07-0.64,0.11-0.96,0.13
				c-18.02,16.67-39.41,27.46-51.77,33.68c-1.97,1-4.11,2.07-5.63,2.89c-2.63,27.91,2.12,40.17,4.56,44.45h4.31
				c4.14,0,7.5,3.36,7.5,7.5c0,4.15-3.36,7.5-7.5,7.5h-16c-1.48,0-2.93-0.43-4.16-1.26l-24-16c-1.78-1.18-2.96-3.06-3.26-5.17l-8-56
				c-0.35-2.46,0.53-4.92,2.35-6.59C10.77,297.16,24,281.02,24,270.35c0-5.64-3.92-11.94-8.45-19.24C8.62,239.96,0,226.09,0,206.35
				c0-42.2,40.32-103.5,103.5-103.5c31.06,0,66.79,7.52,98.31,14.14c24.05,5.06,46.76,9.83,61.55,9.86
				c6.67-0.94,40.99-22.33,56.83-36.03c-0.16-1.52-0.23-3.08-0.19-4.66c0.16-6.14,3.67-10.77,9.38-12.39
				c7.15-2.03,15.83,1.39,20.36,3.61c2.11,1.04,6.16,3.21,9.96,6.33c42.1-4.86,80.79,16.14,95.61,25.52
				C460.12,112.27,463,117.5,463,123.21z M448,150.35v-27.14c0-0.55-0.25-1.02-0.71-1.31c-10.1-6.38-44.57-26.08-81.36-23.7
				c-0.56,0.95-1.34,1.78-2.32,2.43c-3.46,2.27-8.11,1.3-10.38-2.17c-3.22-4.91-13.51-9.87-18.21-10.33
				c0.46,9.29,6.46,17.69,6.52,17.78c2.46,3.34,1.74,8.03-1.6,10.49c-1.34,0.98-2.89,1.45-4.43,1.45c-2.31,0-4.58-1.05-6.05-3.05
				c-0.2-0.27-2.49-3.43-4.77-8.32c-7.33,5.75-17.08,12.64-26.84,18.88c-25.78,16.49-32.01,16.49-34.35,16.49
				c-16.35,0-38.79-4.71-64.77-10.18c-30.81-6.47-65.73-13.82-95.23-13.82c-24.07,0-46.9,11.01-64.28,30.99
				C24.28,166.02,15,188.06,15,206.35c0,15.46,6.75,26.33,13.29,36.84C33.8,252.06,39,260.43,39,270.35
				c0,17.26-16.48,35.65-23.53,42.74l6.98,48.88l10.76,7.18c-2.24-9.56-3.38-23.5-1.17-43.61c0.54-4.91,3.8-6.55,13.47-11.42
				c16.86-8.49,51.93-26.16,67.36-55.28c1.94-3.66,6.48-5.05,10.14-3.11c3.66,1.94,5.06,6.48,3.12,10.14
				c-2.31,4.35-4.97,8.45-7.88,12.33c6.82,0.18,14.9,0.72,23.93,1.33c26.46,1.78,62.02,4.15,82.25-2.65l-7.89-19.74
				c-1.54-3.85,0.33-8.21,4.17-9.75c3.85-1.54,8.22,0.33,9.75,4.18l16,40c0.3,0.75,0.48,1.55,0.53,2.36
				c1.1,19.23,8.06,48.84,12.12,64.77c1.22,4.8,5.55,8.15,10.54,8.15h0.13c-3.27-5.84-5.78-13.81-5.78-24.5
				c0-16.8,3.29-45.37,6.06-66.38c1.44-10.97,8.68-20.09,18.89-23.79c7.19-2.62,43.59-18.32,77.44-77.81
				c-8.67-2.37-14.15-6.01-19.45-10.06c-3.29-2.51-3.91-7.22-1.4-10.51c2.52-3.29,7.23-3.92,10.52-1.4
				c7.73,5.91,14.42,9.79,36.11,9.79C434.35,162.19,448,154.22,448,150.35z"/>
			<path style="fill:#3D484A;" d="M383.5,110.85c4.14,0,7.5,3.36,7.5,7.5c0,4.15-3.36,7.5-7.5,7.5h-8c-4.14,0-7.5-3.35-7.5-7.5
				c0-4.14,3.36-7.5,7.5-7.5H383.5z"/>
		</g>
	</g>
</g>
<g>
</g>
<g>
</g>
<g>
</g>
<g>
</g>
<g>
</g>
<g>
</g>
<g>
</g>
<g>
</g>
<g>
</g>
<g>
</g>
<g>
</g>
<g>
</g>
<g>
</g>
<g>
</g>
<g>
</g>
</svg>
