<?xml version="1.0" encoding="iso-8859-1"?>
<!-- Generator: Adobe Illustrator 19.0.0, SVG Export Plug-In . SVG Version: 6.00 Build 0)  -->
<svg version="1.1" id="Capa_1" xmlns="http://www.w3.org/2000/svg" xmlns:xlink="http://www.w3.org/1999/xlink" x="0px" y="0px"
	 viewBox="0 0 463.003 463.003" style="enable-background:new 0 0 463.003 463.003;" xml:space="preserve">
<g id="XMLID_73_">
	<g>
		<path style="fill:#3D484A;" d="M462.55,296.551c1.12,4.46,0.14,9.1-2.68,12.73c-2.84,3.64-7.11,5.72-11.73,5.72h-2.78
			c-4.64,0-8.91-2.09-11.73-5.74c-3.71-4.82-14.1-14.73-21.91-19.28c-6.26-3.65-12.45-7.78-17.07-10.99
			c-10.34,18.34-25.2,28.01-43.15,28.01c-4.07,0-7.8-0.35-11.25-0.97l0.93,2.81c6.4,1.14,18.35,3.61,28.98,7.65
			c3.87,1.47,5.82,5.8,4.35,9.67c-1.13,3-3.99,4.84-7.01,4.84c-0.89,0-1.78-0.16-2.66-0.49c-13.57-5.14-30.23-7.56-30.4-7.59
			c-2.81-0.4-5.16-2.35-6.06-5.05l-6.08-18.26c-5.46-3.01-10.14-6.56-14.57-9.93c-10.33-7.88-19.26-14.68-36.23-14.68
			c-17.22,0-25.08,3.26-34.19,7.04c-1.39,0.57-2.8,1.16-4.26,1.74l4.61,18.44c9.72,1.25,20.12,3.2,28.42,6.24
			c3.89,1.42,5.89,5.73,4.46,9.62c-1.11,3.04-3.98,4.92-7.04,4.92c-0.86,0-1.73-0.15-2.58-0.46c-19.08-6.98-53.18-7.54-53.53-7.54
			c-2.47-0.04-4.76-1.28-6.13-3.34l-13.92-20.87c-10.77-1.08-19.66-6.28-26.84-13.3c-6.63,5.93-17.17,11.99-29.41,16.75
			c-13.14,5.11-34.21,11.07-63.03,12.46c9.96,0.81,21.67,1.3,35.44,1.3c4.14,0,7.5,3.36,7.5,7.5c0,4.14-3.36,7.5-7.5,7.5
			c-38.65,0-103.5-4.09-103.5-31.5c0-12.6,11.57-18,21.27-20.3c9.33-2.21,22.36-3.2,42.23-3.2c35.71,0,68.01-21.35,74.97-28.77
			c-1.67-5.43-2.47-9.71-2.47-11.73c0-8.25,12.21-32,34.28-53.39c19.83-19.21,53.49-42.11,101.22-42.11
			c46.11,0,78.59,16.75,97.72,30.8c10.57,7.76,18.33,15.55,23.46,21.42c0.2-0.3,0.4-0.61,0.6-0.91c2.28-3.37,6.82-4.32,10.25-2.14
			c0.69,0.44,11.52,7.48,18.06,19.51c3.09-4.72,7.44-11.26,11.75-17.46c2.29-3.29,6.76-4.2,10.16-2.08
			c2.16,1.35,3.18,3.11,4.74,8.21c0.74,2.41,1.76,6.28,2.41,10.98c1.15,8.25,1.28,20.3-4.6,30.83c-0.04,0.07-0.09,0.13-0.13,0.2
			c8.53,16.19,9.08,35.85,9.08,36.14c0,3.83,2.49,11.96,4.49,18.49C460.65,289.771,461.74,293.341,462.55,296.551z M445.44,300.001
			h2.51c-0.72-2.8-1.73-6.11-2.8-9.62c-2.53-8.26-5.15-16.8-5.15-22.88c0-4.85-3.04-30.72-15.88-39.27
			c-1.59,1.62-3.89,2.52-6.32,2.21c-4.11-0.53-7.01-4.28-6.49-8.39c0.87-6.77-1.46-13.52-6.92-20.06c-0.78-0.95-1.58-1.82-2.36-2.62
			c-4.94,15.77,3.94,32.34,4.05,32.53c0.6,1.1,0.92,2.34,0.92,3.6c0,6.03-1.69,17.59-6.04,29.59c4.5,3.18,11.45,7.92,18.32,11.93
			C429.09,282.751,440.92,294.191,445.44,300.001z M435.29,217.821c0.99-3.96,1.14-8.13,0.86-11.99c-2.61,3.95-4.67,7.14-5.67,8.69
			C432.2,215.492,433.8,216.591,435.29,217.821z M385.97,262.441c3.89-9.78,5.67-19.6,5.98-25.27c-2.49-5.3-8.62-20.53-5.59-36.91
			c-3.18-4.31-11.9-15.11-26.56-25.77c-8.25-6-17.01-11-26.24-15.05c-8.72,13.93-27.94,54.83-31.03,108.5
			c5.34,3,9.94,6.49,14.29,9.81c10.04,7.64,18.71,14.25,34.68,14.25c16.01,0,26.32-11.91,32.53-25.09c0.11-1.37,0.58-2.73,1.47-3.91
			C385.65,262.801,385.81,262.622,385.97,262.441z M319.29,154.071c-6.04-1.91-12.26-3.42-18.64-4.55
			c-3.08,6.69-8.09,20.81-11.89,39.09c-3.86,18.57-7.41,45.97-3.1,72.86c0.76,0.16,1.5,0.35,2.24,0.54
			C291.8,210.541,309.25,171.171,319.29,154.071z M285.15,147.551c-4.48-0.36-9.02-0.55-13.65-0.55c-0.7,0-1.39,0.02-2.08,0.03
			c-5.6,15.9-18.32,68.12-3.72,113.09c1.46-0.06,2.98-0.1,4.56-0.11C264.51,216.932,276.16,169.551,285.15,147.551z M245.69,263.082
			c1.54-0.42,3.15-0.81,4.85-1.16c-13.13-43.67-3.84-91.52,2.73-113.62c-5.15,0.74-10.08,1.77-14.79,3.05
			c-0.25,1.45-0.55,3.09-0.9,4.97C233.91,176.021,225.38,221.952,245.69,263.082z M221.81,300.671l-3.09-12.35
			c-3.93,0.89-8.39,1.63-13.59,2.1l6.46,9.69C214.1,300.202,217.64,300.372,221.81,300.671z M231.51,268.211
			c-20.48-42.87-13.42-88.72-9.31-111.19c-17.14,7.32-30.6,17.53-40.35,26.78c-20.93,19.86-30.11,39.8-30.83,43.73
			c0.78,5.92,12.95,48.47,40.48,48.47c0.01,0,0.02,0,0.03,0c0,0,0.01,0,0.02,0C212.69,275.992,221.85,272.211,231.51,268.211z
			 M151.01,265.901c-2.57-3.86-4.79-7.86-6.67-11.77c-6.25,5.08-15.1,10.57-24.67,15.14c-13.14,6.26-33.55,13.73-56.17,13.73
			c-18.66,0-30.62,0.86-38.77,2.8c-3.63,0.86-9.73,2.75-9.73,5.7c0,0.82,1.4,2.64,5.34,4.78c5.01-3.51,15.68-4.28,35.16-4.28
			C109.72,292.001,141.6,274.852,151.01,265.901z"/>
		<path style="fill:#9A9389;" d="M447.95,300.001h-2.51c-4.52-5.81-16.35-17.25-26.16-22.98c-6.87-4.01-13.82-8.75-18.32-11.93
			c4.35-12,6.04-23.56,6.04-29.59c0-1.26-0.32-2.5-0.92-3.6c-0.11-0.19-8.99-16.76-4.05-32.53c0.78,0.8,1.58,1.67,2.36,2.62
			c5.46,6.54,7.79,13.29,6.92,20.06c-0.52,4.11,2.38,7.86,6.49,8.39c2.43,0.31,4.73-0.59,6.32-2.21
			c12.84,8.55,15.88,34.42,15.88,39.27c0,6.08,2.62,14.62,5.15,22.88C446.22,293.892,447.23,297.202,447.95,300.001z"/>
		<path style="fill:#9A9389;" d="M436.15,205.832c0.28,3.86,0.13,8.03-0.86,11.99c-1.49-1.23-3.09-2.33-4.81-3.3
			C431.48,212.972,433.54,209.781,436.15,205.832z"/>
		<path style="fill:#CDC3B6;" d="M391.95,237.171c-0.31,5.67-2.09,15.49-5.98,25.27c-0.16,0.18-0.32,0.36-0.47,0.56
			c-0.89,1.18-1.36,2.54-1.47,3.91c-6.21,13.18-16.52,25.09-32.53,25.09c-15.97,0-24.64-6.61-34.68-14.25
			c-4.35-3.32-8.95-6.81-14.29-9.81c3.09-53.67,22.31-94.57,31.03-108.5c9.23,4.05,17.99,9.05,26.24,15.05
			c14.66,10.66,23.38,21.46,26.56,25.77C383.33,216.642,389.46,231.872,391.95,237.171z"/>
		<path style="fill:#9A9389;" d="M300.65,149.521c6.38,1.13,12.6,2.64,18.64,4.55c-10.04,17.1-27.49,56.47-31.39,107.94
			c-0.74-0.19-1.48-0.38-2.24-0.54c-4.31-26.89-0.76-54.29,3.1-72.86C292.56,170.332,297.57,156.211,300.65,149.521z"/>
		<path style="fill:#CDC3B6;" d="M271.5,147.001c4.63,0,9.17,0.19,13.65,0.55c-8.99,22-20.64,69.38-14.89,112.46
			c-1.58,0.01-3.1,0.05-4.56,0.11c-14.6-44.97-1.88-97.19,3.72-113.09C270.11,147.021,270.8,147.001,271.5,147.001z"/>
		<path style="fill:#9A9389;" d="M250.54,261.921c-1.7,0.35-3.31,0.74-4.85,1.16c-20.31-41.13-11.78-87.06-8.11-106.76
			c0.35-1.88,0.65-3.52,0.9-4.97c4.71-1.28,9.64-2.31,14.79-3.05C246.7,170.401,237.41,218.251,250.54,261.921z"/>
		<path style="fill:#9A9389;" d="M218.72,288.321l3.09,12.35c-4.17-0.3-7.71-0.47-10.22-0.56l-6.46-9.69
			C210.33,289.952,214.79,289.211,218.72,288.321z"/>
		<path style="fill:#CDC3B6;" d="M222.2,157.021c-4.11,22.47-11.17,68.32,9.31,111.19c-9.66,4-18.82,7.78-39.96,7.79
			c-0.01,0-0.02,0-0.02,0c-0.01,0-0.02,0-0.03,0c-27.53,0-39.7-42.55-40.48-48.47c0.72-3.93,9.9-23.87,30.83-43.73
			C191.6,174.551,205.06,164.341,222.2,157.021z"/>
		<path style="fill:#9A9389;" d="M144.34,254.131c1.88,3.91,4.1,7.91,6.67,11.77c-9.41,8.95-41.29,26.1-95.51,26.1
			c-19.48,0-30.15,0.77-35.16,4.28c-3.94-2.14-5.34-3.96-5.34-4.78c0-2.95,6.1-4.84,9.73-5.7c8.15-1.94,20.11-2.8,38.77-2.8
			c22.62,0,43.03-7.47,56.17-13.73C129.24,264.702,138.09,259.211,144.34,254.131z"/>
	</g>
</g>
<g>
</g>
<g>
</g>
<g>
</g>
<g>
</g>
<g>
</g>
<g>
</g>
<g>
</g>
<g>
</g>
<g>
</g>
<g>
</g>
<g>
</g>
<g>
</g>
<g>
</g>
<g>
</g>
<g>
</g>
</svg>
