<?xml version="1.0" encoding="iso-8859-1"?>
<!-- Generator: Adobe Illustrator 19.0.0, SVG Export Plug-In . SVG Version: 6.00 Build 0)  -->
<svg version="1.1" id="Capa_1" xmlns="http://www.w3.org/2000/svg" xmlns:xlink="http://www.w3.org/1999/xlink" x="0px" y="0px"
	 viewBox="0 0 463 463" style="enable-background:new 0 0 463 463;" xml:space="preserve">
<g>
	<g id="XMLID_74_">
		<g>
			<path style="fill:#E2BA89;" d="M428.41,275.97l-33.521,0.02c1.16-3.44,2.29-7.55,3.061-12.17
				C404.72,267.23,414.76,271.63,428.41,275.97z"/>
			<path style="fill:#E2BA89;" d="M365.33,222.46l18.63,31.05c-0.41,11.45-4.17,20.58-5.97,24.32
				c-13.99,6.46-35.561,9.49-51.181,7.4C331.78,266.79,354.24,233.95,365.33,222.46z M373.67,256.67c0-5.33-4.34-9.67-9.67-9.67
				s-9.67,4.34-9.67,9.67c0,5.33,4.34,9.66,9.67,9.66S373.67,262,373.67,256.67z"/>
			<path style="fill:#C4A278;" d="M348.41,170.42c10.189,14.26,13.97,29.94,13.979,35.24c-7.989,4.71-18.5,18.59-26.34,30.12
				c-11.97,17.62-20.87,34.74-23.8,45.8c-1.02,3.86-7.06,10.93-36.04,14.99c-22.56,3.17-51.42,3.43-76.71,3.43
				c-24.16,0-48.46,3.67-74.19,7.56C97.89,311.71,69.54,316,39.5,316C28.05,316,15,302.95,15,291.5c0-34.52,6.19-84.24,15.07-100.39
				C43.91,165.95,89.58,139,135.5,139c33.8,0,96.75,6.52,142.72,11.28c21.87,2.27,39.16,4.06,48.78,4.7
				C336,155.58,343.61,163.71,348.41,170.42z"/>
			<path style="fill:#3D484A;" d="M463,275.5v1.52c0,3.97-1.7,7.77-4.66,10.42c-2.83,2.54-6.59,3.8-10.37,3.52L385.26,291
				c-13.06,6.25-31.59,9.84-48.069,9.84c-7.06,0-13.74-0.66-19.46-2.05c-0.11-0.03-0.221-0.07-0.32-0.1
				c-12.021,9.12-33.87,13.19-61.141,14.97L266.61,324h44.89c4.14,0,7.5,3.36,7.5,7.5s-3.36,7.5-7.5,7.5h-48
				c-1.99,0-3.9-0.79-5.3-2.2l-22.22-22.22c-11.591,0.34-23.83,0.42-36.48,0.42c-23.03,0-46.79,3.59-71.94,7.4
				c-3.54,0.53-7.1,1.07-10.67,1.6h34.61c4.14,0,7.5,3.36,7.5,7.5s-3.36,7.5-7.5,7.5h-48c-1.99,0-3.9-0.79-5.3-2.2l-8-8
				c-0.33-0.32-0.62-0.68-0.87-1.05C73.26,329.66,56.72,331,39.5,331C19.57,331,0,311.43,0,291.5c0-36.95,6.47-88.6,16.93-107.61
				C32.77,155.08,82.61,124,135.5,124c34.58,0,97.97,6.57,144.26,11.36c20.87,2.17,38.891,4.03,48.24,4.66
				c12.84,0.85,24.95,9.58,35.01,25.23c7.45,11.57,13,26.01,14.15,36.78c0.45,4.23,0.08,7.39-0.73,9.78l20.62,34.36
				c4.73,2.96,23.851,13.87,60.09,22.01C460.57,268.95,463,271.99,463,275.5z M394.89,275.99l33.521-0.02
				c-13.65-4.34-23.69-8.74-30.46-12.15C397.18,268.44,396.05,272.55,394.89,275.99z M383.96,253.51l-18.63-31.05
				c-11.09,11.49-33.55,44.33-38.521,62.77c15.62,2.09,37.19-0.94,51.181-7.4C379.79,274.09,383.55,264.96,383.96,253.51z
				 M362.39,205.66c-0.01-5.3-3.79-20.98-13.979-35.24c-4.8-6.71-12.41-14.84-21.41-15.44c-9.62-0.64-26.91-2.43-48.78-4.7
				C232.25,145.52,169.3,139,135.5,139c-45.92,0-91.59,26.95-105.43,52.11C21.19,207.26,15,256.98,15,291.5
				c0,11.45,13.05,24.5,24.5,24.5c30.04,0,58.39-4.29,85.81-8.44c25.73-3.89,50.03-7.56,74.19-7.56c25.29,0,54.15-0.26,76.71-3.43
				c28.98-4.06,35.021-11.13,36.04-14.99c2.93-11.06,11.83-28.18,23.8-45.8C343.89,224.25,354.4,210.37,362.39,205.66z"/>
			<path style="fill:#3D484A;" d="M364,247c5.33,0,9.67,4.34,9.67,9.67c0,5.33-4.34,9.66-9.67,9.66s-9.67-4.33-9.67-9.66
				C354.33,251.34,358.67,247,364,247z"/>
		</g>
	</g>
</g>
<g>
</g>
<g>
</g>
<g>
</g>
<g>
</g>
<g>
</g>
<g>
</g>
<g>
</g>
<g>
</g>
<g>
</g>
<g>
</g>
<g>
</g>
<g>
</g>
<g>
</g>
<g>
</g>
<g>
</g>
</svg>
