<?xml version="1.0" encoding="iso-8859-1"?>
<!-- Generator: Adobe Illustrator 19.0.0, SVG Export Plug-In . SVG Version: 6.00 Build 0)  -->
<svg version="1.1" id="Capa_1" xmlns="http://www.w3.org/2000/svg" xmlns:xlink="http://www.w3.org/1999/xlink" x="0px" y="0px"
	 viewBox="0 0 462.999 462.999" style="enable-background:new 0 0 462.999 462.999;" xml:space="preserve">
<g>
	<g id="XMLID_75_">
		<g>
			<path style="fill:#765225;" d="M167.31,287.999h-44.09c-1.68,0-3.13-1-3.81-2.43l32.729-6.55c5.851,0.1,10.11,1.57,12.66,4.41
				C166.04,284.81,166.82,286.43,167.31,287.999z"/>
			<path style="fill:#765225;" d="M93.85,269.509c1.141,1.82,2.33,3.55,3.521,5.14c-12.65,2.29-32.68,5.35-49.54,5.35
				c-27.22,0-32.74-3.54-32.83-9.68c0.83-1.34,7.78-6.25,28.27-7.31C60.75,262.12,79.54,264.539,93.85,269.509z"/>
			<path style="fill:#765225;" d="M327.31,287.999h-44.09c-1.68,0-3.13-1-3.81-2.43l32.729-6.55c5.851,0.1,10.11,1.57,12.66,4.41
				C326.04,284.81,326.82,286.43,327.31,287.999z"/>
			<path style="fill:#765225;" d="M444.51,244.31c-1.609,2.12-3.41,3.69-5.01,3.69c-7.15,0-38.77-4.39-56.39-6.96
				c0.479-13.98,2.5-21.43,3.949-25.07c4.87,1.48,13.511,5.04,23.7,13.34C419.05,236.069,434.48,241.37,444.51,244.31z"/>
			<path style="fill:#AA8557;" d="M373.81,208.7c-2.909,6.35-5.69,17.62-5.81,37.54c-3.92,4.24-23.63,13.01-44.01,19.55
				c-2.25-0.72-4.67-1.22-7.26-1.51c-1.98-5.46-5.131-15.46-5.74-25.25c-0.26-4.13-3.82-7.26-7.96-7.02
				c-4.13,0.26-7.271,3.82-7.021,7.96c0.61,9.72,3.2,19.3,5.391,25.9l-26.45,5.29l-13.21-19.82c-2.3-3.45-6.95-4.38-10.4-2.08
				c-3.45,2.3-4.38,6.95-2.08,10.4l13.48,20.22c-37.83-0.99-67.48-8.13-85.71-12.52c-8.691-2.1-13.931-3.36-17.53-3.36
				c-0.78,0-1.53,0.12-2.23,0.34c-0.18-0.02-0.359-0.04-0.539-0.06c-1.98-5.45-5.131-15.41-5.74-25.25
				c-0.26-4.13-3.83-7.26-7.96-7.02c-4.13,0.26-7.271,3.82-7.021,7.96c0.61,9.72,3.2,19.3,5.391,25.9l-27.341,5.47
				c-3.829-4.26-9.479-11.5-11.359-17.94c-1.41-5,0.439-34.02,16.67-55.44c11.54-15.23,27.74-22.96,48.13-22.96
				c41.46,0,81.21,12.61,110.24,21.81c17.95,5.69,32.12,10.19,41.76,10.19c7.49,0,14.23-1.41,20.75-2.77
				C353.04,201.56,362.67,199.549,373.81,208.7z M357.08,223.499c0-5.1-4.15-9.25-9.25-9.25c-5.1,0-9.25,4.15-9.25,9.25
				c0,5.1,4.15,9.25,9.25,9.25C352.93,232.749,357.08,228.6,357.08,223.499z"/>
			<path style="fill:#3D484A;" d="M462.07,235.89c1.02,1.85,1.21,4.05,0.52,6.05c-0.74,2.15-7.68,21.06-23.09,21.06
				c-9.11,0-45.6-5.22-59.87-7.31c-4.24,4.89-12.73,9.71-26.77,15.5c-5.08,2.09-10.12,3.97-14.4,5.5
				c5.64,8.73,4.63,18.53,4.48,19.74c-0.471,3.75-3.66,6.57-7.44,6.57h-52.28c-6.42,0-12.1-3.17-15.59-8.02
				c-36.36-0.42-66.51-6.56-85.88-11.08c1.86,6.24,1.3,11.65,1.19,12.53c-0.471,3.75-3.66,6.57-7.44,6.57h-52.28
				c-8.939,0-16.45-6.15-18.59-14.43c-12.47,2.4-36.38,6.43-56.8,6.43c-12.51,0-22.47-0.51-30.41-3.01
				C3.02,287.459,0,277.62,0,270.169c0-3.61,1.34-8.85,7.7-13.32c14.24-9.98,50.68-11.68,79.819-4.76
				c-0.71-13.15,3.221-40.96,19.65-62.86c14.34-19.12,35.2-29.23,60.33-29.23c43.78,0,84.81,13.01,114.77,22.51
				c16.051,5.09,29.91,9.49,37.23,9.49c5.94,0,11.65-1.19,17.68-2.45c14.96-3.12,31.84-6.65,49.971,10.98
				c5.529,1.19,18.23,5.05,33.09,17.16c8.109,6.61,29.46,12.72,37,14.51C459.3,232.689,461.05,234.029,462.07,235.89z
				 M439.5,247.999c1.6,0,3.4-1.57,5.01-3.69c-10.029-2.94-25.46-8.24-33.75-15c-10.189-8.3-18.83-11.86-23.7-13.34
				c-1.449,3.64-3.47,11.09-3.949,25.07C400.73,243.609,432.35,247.999,439.5,247.999z M368,246.24c0.12-19.92,2.9-31.19,5.81-37.54
				c-11.14-9.15-20.77-7.14-33.56-4.47c-6.52,1.36-13.26,2.77-20.75,2.77c-9.64,0-23.81-4.5-41.76-10.19
				c-29.03-9.2-68.78-21.81-110.24-21.81c-20.39,0-36.59,7.73-48.13,22.96c-16.23,21.42-18.08,50.44-16.67,55.44
				c1.88,6.44,7.53,13.68,11.359,17.94l27.341-5.47c-2.19-6.6-4.78-16.18-5.391-25.9c-0.25-4.14,2.891-7.7,7.021-7.96
				c4.13-0.24,7.7,2.89,7.96,7.02c0.609,9.84,3.76,19.8,5.74,25.25c0.18,0.02,0.359,0.04,0.539,0.06c0.7-0.22,1.45-0.34,2.23-0.34
				c3.6,0,8.84,1.26,17.53,3.36c18.229,4.39,47.88,11.53,85.71,12.52l-13.48-20.22c-2.3-3.45-1.37-8.1,2.08-10.4
				c3.45-2.3,8.101-1.37,10.4,2.08l13.21,19.82l26.45-5.29c-2.19-6.6-4.78-16.18-5.391-25.9c-0.25-4.14,2.891-7.7,7.021-7.96
				c4.14-0.24,7.7,2.89,7.96,7.02c0.609,9.79,3.76,19.79,5.74,25.25c2.59,0.29,5.01,0.79,7.26,1.51
				C344.37,259.249,364.08,250.479,368,246.24z M283.22,287.999h44.09c-0.489-1.57-1.27-3.19-2.51-4.57
				c-2.55-2.84-6.81-4.31-12.66-4.41l-32.729,6.55C280.09,286.999,281.54,287.999,283.22,287.999z M123.22,287.999h44.09
				c-0.489-1.57-1.27-3.19-2.51-4.57c-2.55-2.84-6.81-4.31-12.66-4.41l-32.729,6.55C120.09,286.999,121.54,287.999,123.22,287.999z
				 M97.37,274.649c-1.19-1.59-2.38-3.32-3.521-5.14c-14.31-4.97-33.1-7.39-50.58-6.5c-20.489,1.06-27.439,5.97-28.27,7.31
				c0.09,6.14,5.61,9.68,32.83,9.68C64.69,279.999,84.72,276.939,97.37,274.649z"/>
			<path style="fill:#3D484A;" d="M347.83,214.249c5.1,0,9.25,4.15,9.25,9.25c0,5.1-4.15,9.25-9.25,9.25c-5.1,0-9.25-4.15-9.25-9.25
				C338.58,218.399,342.73,214.249,347.83,214.249z"/>
		</g>
	</g>
</g>
<g>
</g>
<g>
</g>
<g>
</g>
<g>
</g>
<g>
</g>
<g>
</g>
<g>
</g>
<g>
</g>
<g>
</g>
<g>
</g>
<g>
</g>
<g>
</g>
<g>
</g>
<g>
</g>
<g>
</g>
</svg>
