<?xml version="1.0" encoding="iso-8859-1"?>
<!-- Generator: Adobe Illustrator 19.0.0, SVG Export Plug-In . SVG Version: 6.00 Build 0)  -->
<svg version="1.1" id="Capa_1" xmlns="http://www.w3.org/2000/svg" xmlns:xlink="http://www.w3.org/1999/xlink" x="0px" y="0px"
	 viewBox="0 0 462.996 462.996" style="enable-background:new 0 0 462.996 462.996;" xml:space="preserve">
<g>
	<g id="XMLID_76_">
		<g>
			<path style="fill:#D7B994;" d="M108.77,349.518l0.32,0.98H59.57l-17.96-27.7c2.58-1.99,5.67-4.47,8.46-6.97
				c1.24,0.59,2.5,1.15,3.76,1.69c4.12,2.16,8.45,4.04,12.95,5.67c-1.63,1.33-2.67,3.3-2.77,5.45c-0.13,2.71,1.21,5.28,3.51,6.72
				l8,5c1.2,0.74,2.57,1.14,3.98,1.14h18.14C102.7,341.498,107.17,344.718,108.77,349.518z"/>
			<path style="fill:#D7B994;" d="M348.54,343.078l4.95,7.42h-33.28c-5.17-2.05-23.44-16.95-39.45-31.25l5.45-10.9
				c1.85-3.7,0.35-8.21-3.36-10.06c-3.7-1.85-8.21-0.35-10.06,3.36l-6.31,12.63c-10.69,1.82-44.18,6.91-85.84,7.36
				c8.9-1.93,17.43-4.12,25.39-6.38c40.41-11.48,77.18-27.75,104.4-42.47c-0.19,8.14,0.77,18.19,5.86,26.23
				c-4.5,1.73-8.91,5.01-11.6,10.84c-4.41,9.55,4.71,23.23,8.83,28.67c1.42,1.87,3.63,2.97,5.98,2.97h26.09
				C346.78,341.498,347.88,342.088,348.54,343.078z"/>
			<path style="fill:#D7B994;" d="M445.47,304.418l-0.54,0.55l-44.2-7.37c-0.4-0.07-0.82-0.1-1.23-0.1h-56
				c-6.05,0-10.36-1.54-13.19-4.7c-6.52-7.29-4.92-22.31-4.18-28.94c5.08-3.05,9.64-5.96,13.6-8.66c1.84-1.26,3.06-3.26,3.26-5.48
				c0.21-2.23-0.56-4.4-2.14-5.98c-0.95-0.98-3.39-4.23-3.32-7.44c0.04-1.98,1.07-3.9,3.14-5.87c1-0.95,1.62-0.99,2.17-0.94
				c3.32,0.26,8.33,4.95,10.66,8.01c1.41,1.88,3.63,2.99,5.98,3c2.35-0.04,4.58-1.09,6-2.97c9.4-12.41,24.65-17.59,34.1-19.68
				c2.24,15.27,10.82,34.65,25.57,57.75C433.07,287.998,440.85,298.448,445.47,304.418z M405.33,262.668c0-6.9-5.6-12.5-12.5-12.5
				c-6.89,0-12.5,5.6-12.5,12.5c0,6.89,5.61,12.5,12.5,12.5C399.73,275.168,405.33,269.558,405.33,262.668z"/>
			<path style="fill:#D8A96F;" d="M413.62,186.298l-10.42,15.63c-8.42,1.18-28.82,5.42-43.88,20c-3.87-3.39-9.23-6.89-15.22-7.39
				c-5.11-0.43-9.87,1.31-13.77,5.03c-6.36,6.05-7.75,12.38-7.8,16.62c-0.05,4.12,1.1,7.78,2.52,10.71
				c-27.76,17.66-74.52,40.12-123.12,53.93c-41.47,11.79-98.82,21.45-141.98,3c-32.64-17.45-44.95-51.1-44.95-78.83
				c0-23.06,12.19-50.83,31.81-72.46c23.41-25.82,54.91-40.04,88.69-40.04c41.99,0,75.65,13.33,108.21,26.23
				c28.26,11.19,54.97,21.77,83.79,21.77C375.41,160.498,403.43,178.288,413.62,186.298z"/>
			<path style="fill:#3D484A;" d="M461.29,300.228c2.45,2.98,2.24,7.34-0.49,10.07l-8,8c-1.41,1.42-3.33,2.2-5.3,2.2
				c-0.41,0-0.82-0.03-1.23-0.1l-47.39-7.9H343.5h-16c-0.46,0-0.73-0.01-1.18-0.09c-0.88-0.12-5.75-0.54-7.84,3.4
				c0.04,1.87,2.21,6.49,4.92,10.69h22.19c6.21,0,11.98,3.09,15.43,8.26l12.72,19.08c1.53,2.3,1.68,5.26,0.37,7.7
				c-1.3,2.44-3.84,3.96-6.61,3.96h-48c-3.85,0-9.16-1.55-31.56-20.24c-7.63-6.37-14.9-12.81-18.72-16.22
				c-16.4,2.87-82.97,13.1-153.88,4.15c3.45,3.05,6.13,7,7.66,11.58l3.62,10.86c0.76,2.29,0.37,4.8-1.04,6.76
				c-1.41,1.95-3.67,3.11-6.08,3.11h-64c-2.54,0-4.91-1.29-6.29-3.42l-24-37c-2.18-3.36-1.33-7.85,1.93-10.18
				c0.07-0.05,5.4-3.87,10.4-8.06c-7.02-5.66-13.21-12.28-18.45-19.81C6.78,269.338,0,247.308,0,224.998
				c0-26.63,13.68-58.26,35.69-82.54c26.3-28.99,61.74-44.96,99.81-44.96c44.86,0,81.45,14.49,113.73,27.28
				c26.9,10.66,52.31,20.72,78.27,20.72c68.46,0,100.16,32.97,101.47,34.37c2.38,2.54,2.7,6.39,0.77,9.29l-15.65,23.47
				C416.09,239.838,448.67,284.908,461.29,300.228z M444.93,304.968l0.54-0.55c-4.62-5.97-12.4-16.42-20.32-28.82
				c-14.75-23.1-23.33-42.48-25.57-57.75c-9.45,2.09-24.7,7.27-34.1,19.68c-1.42,1.88-3.65,2.93-6,2.97c-2.35-0.01-4.57-1.12-5.98-3
				c-2.33-3.06-7.34-7.75-10.66-8.01c-0.55-0.05-1.17-0.01-2.17,0.94c-2.07,1.97-3.1,3.89-3.14,5.87c-0.07,3.21,2.37,6.46,3.32,7.44
				c1.58,1.58,2.35,3.75,2.14,5.98c-0.2,2.22-1.42,4.22-3.26,5.48c-3.96,2.7-8.52,5.61-13.6,8.66c-0.74,6.63-2.34,21.65,4.18,28.94
				c2.83,3.16,7.14,4.7,13.19,4.7h56c0.41,0,0.83,0.03,1.23,0.1L444.93,304.968z M403.2,201.928l10.42-15.63
				c-10.19-8.01-38.21-25.8-86.12-25.8c-28.82,0-55.53-10.58-83.79-21.77c-32.56-12.9-66.22-26.23-108.21-26.23
				c-33.78,0-65.28,14.22-88.69,40.04c-19.62,21.63-31.81,49.4-31.81,72.46c0,27.73,12.31,61.38,44.95,78.83
				c43.16,18.45,100.51,8.79,141.98-3c48.6-13.81,95.36-36.27,123.12-53.93c-1.42-2.93-2.57-6.59-2.52-10.71
				c0.05-4.24,1.44-10.57,7.8-16.62c3.9-3.72,8.66-5.46,13.77-5.03c5.99,0.5,11.35,4,15.22,7.39
				C374.38,207.348,394.78,203.108,403.2,201.928z M353.49,350.498l-4.95-7.42c-0.66-0.99-1.76-1.58-2.95-1.58H319.5
				c-2.35,0-4.56-1.1-5.98-2.97c-4.12-5.44-13.24-19.12-8.83-28.67c2.69-5.83,7.1-9.11,11.6-10.84c-5.09-8.04-6.05-18.09-5.86-26.23
				c-27.22,14.72-63.99,30.99-104.4,42.47c-7.96,2.26-16.49,4.45-25.39,6.38c41.66-0.45,75.15-5.54,85.84-7.36l6.31-12.63
				c1.85-3.71,6.36-5.21,10.06-3.36c3.71,1.85,5.21,6.36,3.36,10.06l-5.45,10.9c16.01,14.3,34.28,29.2,39.45,31.25H353.49z
				 M109.09,350.498l-0.32-0.98c-1.6-4.8-6.07-8.02-11.13-8.02H79.5c-1.41,0-2.78-0.4-3.98-1.14l-8-5c-2.3-1.44-3.64-4.01-3.51-6.72
				c0.1-2.15,1.14-4.12,2.77-5.45c-4.5-1.63-8.83-3.51-12.95-5.67c-1.26-0.54-2.52-1.1-3.76-1.69c-2.79,2.5-5.88,4.98-8.46,6.97
				l17.96,27.7H109.09z"/>
			<path style="fill:#3D484A;" d="M392.83,250.168c6.9,0,12.5,5.6,12.5,12.5c0,6.89-5.6,12.5-12.5,12.5c-6.89,0-12.5-5.61-12.5-12.5
				C380.33,255.768,385.94,250.168,392.83,250.168z"/>
		</g>
	</g>
</g>
<g>
</g>
<g>
</g>
<g>
</g>
<g>
</g>
<g>
</g>
<g>
</g>
<g>
</g>
<g>
</g>
<g>
</g>
<g>
</g>
<g>
</g>
<g>
</g>
<g>
</g>
<g>
</g>
<g>
</g>
</svg>
