<?xml version="1.0" encoding="iso-8859-1"?>
<!-- Generator: Adobe Illustrator 19.0.0, SVG Export Plug-In . SVG Version: 6.00 Build 0)  -->
<svg version="1.1" id="Capa_1" xmlns="http://www.w3.org/2000/svg" xmlns:xlink="http://www.w3.org/1999/xlink" x="0px" y="0px"
	 viewBox="0 0 462.998 462.998" style="enable-background:new 0 0 462.998 462.998;" xml:space="preserve">
<g>
	<path style="fill:#D7B994;" d="M444.13,306.381c-8.739-10.723-10.628-25.971-14.733-38.813c-3.052-9.56-7.163-18.952-11.063-28.184
		c-6.463-15.288-14.689-36.216-29.592-46.04c-2.196-3.514-4.446-6.992-6.741-10.429c-0.189-1.354-0.497-2.75-1.078-4.231
		c-17.204-43.622-58.938-69.554-99.113-89.854c-7.254-3.666-14.19-2.058-19.159,1.954c-1.006-0.65-2.024-1.29-3.021-1.954
		c-13.495-8.954-26.291,4.003-25.654,16.654c-0.615,0.085-1.24,0.171-1.848,0.264c-1.08,0.164-2.078,0.416-3.008,0.734
		c-22.865-8.889-47.111-14.128-71.724-15.37c-13.65-0.688-18.886,11.312-16.137,21.466c-2.774-0.196-5.564-0.35-8.379-0.451
		c-19.956-0.722-23.59,29.345-4.651,34.396c4.323,1.157,8.66,2.333,12.99,3.536c-1.491,12.482,4.118,21.695,12.689,28.848
		c-8.968,0.52-18.327,24.738-26.863,28.949c-11.315,5.578-10.117-4.283-3.626,3.53c-17.573-1.888-20.275,14.392-33.732,27.991
		c-7.146,7.218-37.664,2.312-39.186,12.122c-7.597-2.761-6.745,48.65-11,42.363c1.796,4.638,5.472,7.723,9.783,9.231
		c0.444,1.193,0.916,2.38,1.443,3.554c-2.894,3.79,7.45,27.554,8.622,27.835c31.996,7.623,65.186,6.968,97.813,5.144
		c13.856-0.773,27.4-2.265,41.067-4.686c6.068-1.074,12.526-2.514,19.007-3.369c-6.128,6.96-10.962,14.984-13.679,24.567
		c-6.176,21.775,27.62,31.002,33.773,9.312c3.947-13.915,18.301-23.203,32.396-30.777c19.988,1.71,42.616,5.561,63.069,3.283
		c-1.266,5.254-2.168,10.555-2.612,15.833c-1.896,22.52,33.145,22.338,35.023,0c0.352-4.202,1.291-8.592,2.687-12.952
		c0.897-0.314,1.787-0.656,2.648-1.115c5.226-2.787,9.823-6.611,14.416-10.322l0.025-0.022c2.362,1.054,4.719,2.06,7.09,2.772
		c11.395,3.419,23.561,0.126,35.023,3.501C445.272,341.007,454.511,319.118,444.13,306.381z"/>
</g>
<g>
	<g id="XMLID_77_">
		<g>
			<path style="fill:#3D484A;" d="M462.719,325.48c0.97,3.46-0.65,7.12-3.87,8.73l-16,8c-1.41,0.71-3.02,0.95-4.58,0.69l-46.13-7.69
				c-5.03,2-23.65,11.25-32.94,40.79h0.3c4.14,0,7.5,3.36,7.5,7.5s-3.36,7.5-7.5,7.5h-16c-2.98,0-5.68-1.77-6.87-4.5
				c-0.32-0.72-6.95-16.21-8.37-41.51c-10.11,1.59-28.5,2.57-59.73-1.27c-3.72,6.74-12.85,16.46-34.88,27.3l2.49,4.98h3.36
				c4.14,0,7.5,3.36,7.5,7.5s-3.36,7.5-7.5,7.5h-7.97c-0.01,0-0.02,0-0.02,0c-0.01,0-0.02,0-0.03,0h-10.86
				c-5.76,0-11.07-2.89-14.2-7.73l-7.55-11.7c-1.24-1.92-1.54-4.3-0.81-6.47l6.99-20.7c-20.28,3.24-44.28,5.49-71.84,5.49
				c-25.86,0-54.86-1.98-86.87-6.98c-4.09-0.64-6.89-4.48-6.25-8.57c0.64-4.09,4.48-6.89,8.57-6.25
				c165.8,25.91,249.76-30.2,250.59-30.77c3.41-2.35,8.08-1.48,10.43,1.93c2.35,3.41,1.48,8.08-1.93,10.43
				c-0.71,0.49-13.95,9.46-39.88,18.83c49.06,6.32,64.2,0.32,64.33,0.25c2.33-1.13,5.08-0.99,7.27,0.38
				c2.2,1.37,3.53,3.77,3.53,6.36c0,13.17,1.64,23.91,3.37,31.6c11.24-30.85,32.8-44.11,43.22-46.85c1.03-0.27,2.1-0.32,3.14-0.15
				l45.6,7.6l8.14-4.07c-4.78-14.94-19.19-56.23-45.12-100.4c-18.9-32.18-40.13-59.57-63.1-81.4
				c-28.46-27.05-59.69-45.59-92.82-55.12c-3.98-1.15-6.28-5.3-5.14-9.28c1.15-3.98,5.3-6.28,9.28-5.14
				c35.54,10.22,68.9,30.01,99.16,58.81c24.01,22.85,46.13,51.4,65.74,84.86C447.739,272.72,462.129,323.35,462.719,325.48z
				 M255.999,335.63c-0.02-1.17,0.24-2.31,0.73-3.34c-4.77,1.52-9.87,3.01-15.3,4.46c-6.09,1.61-12.8,3.21-20.11,4.7
				c0.05,0.92-0.07,1.86-0.38,2.78l-7.51,22.24l5.18,8.02l-1.82-3.64c-0.91-1.83-1.04-3.95-0.35-5.87c0.69-1.93,2.13-3.49,4-4.33
				c19.53-8.73,28.44-16.13,32.48-20.8C254.509,338,255.999,335.64,255.999,335.63z"/>
			<path style="fill:#3D484A;" d="M426.699,297.76c4.82,0,8.75,3.93,8.75,8.75c0,4.83-3.93,8.75-8.75,8.75
				c-4.82,0-8.75-3.92-8.75-8.75C417.949,301.69,421.879,297.76,426.699,297.76z"/>
			<path style="fill:#3D484A;" d="M388.949,232.3c1.77,3.74,0.16,8.22-3.58,9.98c-1.04,0.49-2.13,0.72-3.2,0.72
				c-2.81,0-5.51-1.59-6.79-4.3c-29.05-61.57-81.04-96.49-119.54-114.94c-44.03-21.1-86.52-28.76-104.34-28.76
				c-4.14,0-7.5-3.36-7.5-7.5s3.36-7.5,7.5-7.5c10.98,0,27.75,2.49,44.85,6.65c22.3,5.43,45.11,13.59,65.97,23.59
				C303.019,129.74,358.009,166.75,388.949,232.3z"/>
			<path style="fill:#3D484A;" d="M357.939,242.16c1.57,3.84-0.27,8.22-4.1,9.78c-0.93,0.38-1.89,0.56-2.84,0.56
				c-2.95,0-5.76-1.76-6.94-4.66c-0.13-0.31-13.86-32.72-54.01-64.6c-23.6-18.72-51.58-33.63-83.19-44.29
				c-39.67-13.39-85.23-20.09-135.34-19.95c0,0-0.01,0-0.02,0c-4.13,0-7.49-3.34-7.5-7.48c-0.01-4.14,3.34-7.51,7.48-7.52
				c52.09-0.17,99.48,6.9,140.89,20.98c33.32,11.32,62.87,27.19,87.82,47.17C343.009,206.43,357.349,240.72,357.939,242.16z"/>
			<path style="fill:#3D484A;" d="M334.129,259.99c1.94,3.65,0.54,8.19-3.12,10.14c-1.12,0.59-2.32,0.87-3.5,0.87
				c-2.69,0-5.29-1.45-6.64-3.99c-0.13-0.25-14.52-26.83-46.53-54.27c-29.42-25.23-80.25-56.42-155.37-61.76
				c-4.13-0.29-7.24-3.88-6.95-8.01c0.29-4.13,3.87-7.25,8.01-6.95c79.54,5.65,133.42,38.9,164.62,65.8
				C318.569,231.07,333.509,258.82,334.129,259.99z"/>
			<path style="fill:#3D484A;" d="M297.319,261.4c2.08,3.59,0.86,8.18-2.72,10.25c-1.19,0.69-2.48,1.02-3.76,1.02
				c-2.59,0-5.1-1.34-6.49-3.74c-0.09-0.15-9.91-16.69-32.28-35.47c-20.61-17.31-56.42-40.13-110.01-50.6
				c-4.06-0.79-6.72-4.73-5.92-8.8c0.79-4.06,4.73-6.71,8.8-5.92c57.11,11.16,95.36,35.71,117.38,54.34
				C286.429,242.88,296.889,260.66,297.319,261.4z"/>
			<path style="fill:#3D484A;" d="M262.139,263.63c2.5,3.29,1.86,8-1.43,10.51c-1.36,1.03-2.96,1.53-4.54,1.53
				c-2.26,0-4.5-1.02-5.97-2.96c-0.11-0.14-12-15.44-36-30.12c-22.08-13.5-59.27-29.24-111.13-27.59c-4.13,0.16-7.6-3.12-7.73-7.26
				c-0.13-4.14,3.11-7.6,7.25-7.74c55.93-1.78,96.18,15.44,120.1,30.2C248.829,246.33,261.609,262.93,262.139,263.63z"/>
			<path style="fill:#3D484A;" d="M240.829,288.55c4.12,0.46,7.08,4.17,6.62,8.28c-0.43,3.84-3.67,6.67-7.44,6.67
				c-0.28,0-0.56-0.01-0.84-0.05c-0.72-0.08-72.27-8.09-135.25-15.84c-4.11-0.51-7.04-4.25-6.53-8.36c0.51-4.11,4.25-7.03,8.36-6.53
				C168.649,280.46,240.119,288.47,240.829,288.55z"/>
			<path style="fill:#3D484A;" d="M220.579,262.34c3.59,2.07,4.82,6.65,2.75,10.24c-1.39,2.41-3.91,3.75-6.5,3.75
				c-1.28,0-2.56-0.32-3.74-1c-0.16-0.09-17.17-9.72-46.2-16.6c-26.73-6.33-69.45-11.57-121.16-0.56c-4.05,0.86-8.04-1.72-8.9-5.77
				c-0.86-4.06,1.72-8.04,5.77-8.9c54.75-11.66,100.05-6,128.4,0.79C201.949,251.71,219.839,261.91,220.579,262.34z"/>
			<path style="fill:#3D484A;" d="M182.369,307.34c4.14,0.11,7.41,3.56,7.29,7.7c-0.11,4.07-3.44,7.29-7.49,7.29
				c-0.07,0-0.14,0-0.21,0c-96.24-2.65-175.24-19.33-176.03-19.5c-4.05-0.86-6.63-4.85-5.76-8.9c0.86-4.05,4.85-6.63,8.9-5.76
				C9.839,288.33,87.569,304.72,182.369,307.34z"/>
		</g>
	</g>
</g>
<g>
</g>
<g>
</g>
<g>
</g>
<g>
</g>
<g>
</g>
<g>
</g>
<g>
</g>
<g>
</g>
<g>
</g>
<g>
</g>
<g>
</g>
<g>
</g>
<g>
</g>
<g>
</g>
<g>
</g>
</svg>
