<?xml version="1.0" encoding="iso-8859-1"?>
<!-- Generator: Adobe Illustrator 19.0.0, SVG Export Plug-In . SVG Version: 6.00 Build 0)  -->
<svg version="1.1" id="Capa_1" xmlns="http://www.w3.org/2000/svg" xmlns:xlink="http://www.w3.org/1999/xlink" x="0px" y="0px"
	 viewBox="0 0 463.024 463.024" style="enable-background:new 0 0 463.024 463.024;" xml:space="preserve">
<g>
	<g id="XMLID_79_">
		<g>
			<path style="fill:#D8BA80;" d="M296.965,248.212l5.58,22.31c-20.061,5.46-39.41,1.62-47.9-0.67c1.29-3.92-0.83-8.15-4.75-9.46
				c-3.93-1.3-8.18,0.82-9.49,4.75c-4.83,14.49-15.27,23.72-19.319,26.87h-5.561c-8.64,0-16.43-4.87-21.26-8.75
				c4.62-5.55,7.72-11.56,10.54-17.04c5.13-9.95,9.56-18.54,21.71-23.83C259.364,228.092,288.755,243.242,296.965,248.212z"/>
			<path style="fill:#D8C7A6;" d="M440.595,214.642c1.95,3.17,6.2,19.79,7.21,26.67c-3.07,2.41-10.53,6.84-18.07,10.7h-30.21
				c-5.74,0-12.37-7.07-17.22-12.24l-1.34-1.42c-2.851-3.01-7.59-3.13-10.601-0.28c-3.01,2.84-3.13,7.59-0.29,10.6l1.29,1.37
				c3.08,3.27,6.67,7.1,10.83,10.29c-9.33,13.03-23.29,15.67-23.899,15.78c-3.62,0.6-6.271,3.73-6.271,7.4v3.86l-34.06-17.03
				l-7.16-28.65c-0.44-1.74-1.49-3.27-2.95-4.3c-1.67-1.19-41.479-28.71-87.32-8.76c-17.05,7.42-23.43,19.8-29.059,30.72
				c-2.47,4.79-4.85,9.4-8.05,13.46l-2.601-2.6c-2.119-2.12-5.319-2.76-8.1-1.66c-0.2,0.08-20.03,7.77-40.66-1.39
				c-4.48-2-10.99-7.28-17.88-12.87c-14.439-11.71-32.41-26.28-50.66-26.28c-15.979,0-25.45,8.58-34.609,16.87
				c-4.351,3.94-8.551,7.74-13.5,10.81c1.33-15.62,6.159-37.99,19.779-45.64c31.41-17.64,61.101,11.02,80.74,29.99l0.38,0.37
				c12.33,11.9,24.55,17.68,36.311,17.18c12.699-0.55,19.79-8.27,20.55-9.15c0.67-0.76,1.17-1.65,1.479-2.61
				c8.58-26.36,24.45-46.36,47.17-59.44c16.98-9.78,38.011-15.38,57.7-15.38c36.25,0,57.58,13.26,59.891,14.78
				c1.52,0.99,3.34,1.4,5.13,1.15c4.489-0.62,11.71-1.58,19.489-2.57c-4,9.88-2,21.64,5.99,29.63c2.94,2.94,6.4,5.12,10.29,6.48
				c0.82,0.28,1.66,0.42,2.48,0.42c3.1,0,6-1.94,7.08-5.03c1.37-3.91-0.691-8.18-4.601-9.55c-1.75-0.61-3.31-1.6-4.64-2.92
				c-4.81-4.81-4.81-12.64,0-17.44c2.33-2.33,5.43-3.62,8.72-3.62c3.3,0,6.391,1.29,8.72,3.62c2.801,2.79,4.06,6.64,3.48,10.56
				c-0.61,4.09,2.21,7.91,6.31,8.52c4.091,0.61,7.91-2.21,8.52-6.3c0.38-2.55,0.39-5.11,0.05-7.62c1.54,1.24,3.16,2.6,4.91,4.12
				C431.125,203.792,439.205,212.562,440.595,214.642z M434.354,224.182c0-6.34-5.16-11.5-11.5-11.5c-6.34,0-11.5,5.16-11.5,11.5
				c0,6.34,5.16,11.5,11.5,11.5C429.194,235.682,434.354,230.522,434.354,224.182z"/>
			<path style="fill:#3D484A;" d="M453.095,206.352c4.3,6.45,9.93,31.2,9.93,37.16c0,3.44,0,8.64-28.149,22.71
				c-1.04,0.52-2.191,0.79-3.351,0.79h-32c-1.22,0-2.41-0.1-3.569-0.28c-8.801,13.73-21.421,19.9-28.931,22.48v2.8h8.5
				c4.141,0,7.5,3.36,7.5,7.5c0,4.14-3.359,7.5-7.5,7.5h-16c-0.279,0-0.56-0.02-0.83-0.05c-0.069-0.01-0.14-0.02-0.199-0.03
				c-0.211-0.03-0.421-0.06-0.62-0.11c-0.07-0.01-0.15-0.04-0.221-0.06c-0.199-0.05-0.39-0.1-0.58-0.17
				c-0.069-0.02-0.149-0.05-0.22-0.08c-0.189-0.07-0.37-0.15-0.55-0.23c-0.05-0.03-0.09-0.04-0.14-0.06l-45.16-22.58
				c-10.58,3.5-21,4.72-30.34,4.72c-14.78,0-26.82-3.02-32.42-4.72c-1.891,3.12-3.91,5.9-5.921,8.37h5.2c4.141,0,7.5,3.36,7.5,7.5
				c0,4.14-3.359,7.5-7.5,7.5h-23.979h-0.011c-0.01,0-0.02,0-0.02,0h-7.99c-20.18,0-35.49-16.18-37.45-18.34l-4.619-4.62
				c-8.641,2.39-27.53,5.68-47.48-3.19c-6.3-2.8-13.229-8.41-21.24-14.92c-12.6-10.22-28.269-22.93-41.21-22.93
				c-10.2,0-16.529,5.73-24.54,12.99c-7.529,6.81-16.05,14.54-29.22,18.67c-2.24,0.7-4.67,0.31-6.59-1.05
				c-1.91-1.36-3.08-3.54-3.15-5.88c-0.069-2.22-1.31-54.4,27.83-70.77c18.08-10.16,37.55-10.02,57.851,0.4
				c16.31,8.37,30.38,21.96,40.649,31.88l0.38,0.36c9.13,8.82,17.86,13.31,25.24,12.99c4.49-0.19,7.62-2.16,9.04-3.27
				c9.9-29.09,27.83-51.27,53.33-65.94c26.26-15.12,52.11-17.38,65.18-17.38c34.91,0,57.641,11.07,65.63,15.71
				c10.61-1.44,45.341-6.04,54.03-6.04c2.75,0,11.09,0,32.021,18.26C441.154,192.632,450.555,202.542,453.095,206.352z
				 M447.805,241.312c-1.01-6.88-5.26-23.5-7.21-26.67c-1.39-2.08-9.47-10.85-19.25-19.4c-1.75-1.52-3.37-2.88-4.91-4.12
				c0.34,2.51,0.33,5.07-0.05,7.62c-0.61,4.09-4.43,6.91-8.52,6.3c-4.1-0.61-6.92-4.43-6.31-8.52c0.58-3.92-0.68-7.77-3.48-10.56
				c-2.329-2.33-5.42-3.62-8.72-3.62c-3.29,0-6.39,1.29-8.72,3.62c-4.81,4.8-4.81,12.63,0,17.44c1.33,1.32,2.89,2.31,4.64,2.92
				c3.91,1.37,5.971,5.64,4.601,9.55c-1.08,3.09-3.98,5.03-7.08,5.03c-0.82,0-1.66-0.14-2.48-0.42c-3.89-1.36-7.35-3.54-10.29-6.48
				c-7.99-7.99-9.99-19.75-5.99-29.63c-7.779,0.99-15,1.95-19.489,2.57c-1.79,0.25-3.61-0.16-5.13-1.15
				c-2.311-1.52-23.641-14.78-59.891-14.78c-19.689,0-40.72,5.6-57.7,15.38c-22.72,13.08-38.59,33.08-47.17,59.44
				c-0.31,0.96-0.81,1.85-1.479,2.61c-0.76,0.88-7.851,8.6-20.55,9.15c-11.761,0.5-23.98-5.28-36.311-17.18l-0.38-0.37
				c-19.64-18.97-49.33-47.63-80.74-29.99c-13.62,7.65-18.449,30.02-19.779,45.64c4.949-3.07,9.149-6.87,13.5-10.81
				c9.159-8.29,18.63-16.87,34.609-16.87c18.25,0,36.221,14.57,50.66,26.28c6.89,5.59,13.4,10.87,17.88,12.87
				c20.63,9.16,40.46,1.47,40.66,1.39c2.78-1.1,5.98-0.46,8.1,1.66l2.601,2.6c3.2-4.06,5.58-8.67,8.05-13.46
				c5.63-10.92,12.01-23.3,29.059-30.72c45.841-19.95,85.65,7.57,87.32,8.76c1.46,1.03,2.51,2.56,2.95,4.3l7.16,28.65l34.06,17.03
				v-3.86c0-3.67,2.65-6.8,6.271-7.4c0.609-0.11,14.569-2.75,23.899-15.78c-4.16-3.19-7.75-7.02-10.83-10.29l-1.29-1.37
				c-2.84-3.01-2.72-7.76,0.29-10.6c3.011-2.85,7.75-2.73,10.601,0.28l1.34,1.42c4.85,5.17,11.479,12.24,17.22,12.24h30.21
				C437.274,248.152,444.734,243.722,447.805,241.312z M302.545,270.522l-5.58-22.31c-8.21-4.97-37.601-20.12-70.45-5.82
				c-12.15,5.29-16.58,13.88-21.71,23.83c-2.82,5.48-5.92,11.49-10.54,17.04c4.83,3.88,12.62,8.75,21.26,8.75h5.561
				c4.05-3.15,14.489-12.38,19.319-26.87c1.311-3.93,5.561-6.05,9.49-4.75c3.92,1.31,6.04,5.54,4.75,9.46
				C263.135,272.142,282.484,275.982,302.545,270.522z"/>
			<path style="fill:#3D484A;" d="M422.854,212.682c6.34,0,11.5,5.16,11.5,11.5c0,6.34-5.16,11.5-11.5,11.5
				c-6.34,0-11.5-5.16-11.5-11.5C411.354,217.842,416.515,212.682,422.854,212.682z"/>
		</g>
	</g>
</g>
<g>
</g>
<g>
</g>
<g>
</g>
<g>
</g>
<g>
</g>
<g>
</g>
<g>
</g>
<g>
</g>
<g>
</g>
<g>
</g>
<g>
</g>
<g>
</g>
<g>
</g>
<g>
</g>
<g>
</g>
</svg>
