<?xml version="1.0" encoding="iso-8859-1"?>
<!-- Generator: Adobe Illustrator 19.0.0, SVG Export Plug-In . SVG Version: 6.00 Build 0)  -->
<svg version="1.1" id="Capa_1" xmlns="http://www.w3.org/2000/svg" xmlns:xlink="http://www.w3.org/1999/xlink" x="0px" y="0px"
	 viewBox="0 0 463 463" style="enable-background:new 0 0 463 463;" xml:space="preserve">
<g id="XMLID_53_">
	<g>
		<path style="fill:#9B5E42;" d="M191.65,253.849c-2.49,4.28-13.45,13.23-24.23,18.18c5.98-11.21,10.36-28.9,1.07-52.75
			c-0.11-0.29-0.25-0.57-0.39-0.839c0.84-1.03,1.66-2.04,2.46-2.99C174.65,228.94,183.09,243.799,191.65,253.849z"/>
		<path style="fill:#C47652;" d="M446.22,208.4c-0.02,0.01-0.03,0.03-0.04,0.04c-4.35-1.07-12.92-4.09-19.87-6.9
			c-1.47-0.59-3.09-0.7-4.63-0.32l-32,8c-0.87,0.22-1.69,0.59-2.43,1.1c-44.73,30.78-69.76,38.95-70,39.02
			c-2.75,0.87-4.77,3.24-5.17,6.101l-3.99,27.899l-12.44-34.37l6.56-13.12c1.85-3.7,0.35-8.21-3.36-10.06
			c-3.7-1.85-8.21-0.35-10.06,3.36l-7.81,15.629c-10.98-0.85-23.73-4.02-32.59-8.07c4.05-9.95,4.51-20.81-2.51-32.16
			c-2.18-3.52-6.8-4.609-10.33-2.43c-3.52,2.18-4.61,6.81-2.43,10.33c9.26,14.95-3.51,29.57-21.16,47.13
			c-0.64,0.64-1.27,1.26-1.88,1.88l1.02-1.89c1.76-3.26,0.88-7.3-2.06-9.54c-10.89-8.28-26.04-34.78-26.04-49.53
			c0-2.69-1.44-5.17-3.78-6.51c-2.33-1.34-5.2-1.32-7.52,0.05c-6.6,3.88-12.89,11.88-20.86,22.01
			c-12.02,15.29-26.98,34.311-49.45,48.36c-18.85,11.78-39.67,17.94-63.09,18.58c23.96-15.03,52.03-40.27,76.08-61.9
			c9.63-8.66,18.73-16.84,25.92-22.83c20.84-17.37,41.16-14.49,41.97-14.359c1.93,0.32,3.92-0.13,5.53-1.26
			c0.23-0.15,23.06-15.62,74.42-6.75c53.05,9.16,78.63,8.25,81.49,8.11c19.09-0.11,52.81-14.96,56.6-16.65
			c0.8-0.36,1.52-0.85,2.15-1.45l5.48-5.29l-0.19,7.36c-0.1,4.14,3.16,7.59,7.31,7.69c4.13,0.08,7.58-3.16,7.69-7.3l0.01-0.5
			c3.17,2.37,6.87,6.28,8.98,12.41C435.79,192.039,442.28,202.589,446.22,208.4z"/>
		<path style="fill:#3D484A;" d="M461.43,203.909c1.76,2.28,2.07,5.37,0.78,7.94c-0.06,0.12-6.83,11.98-13.88,11.98
			c-5.54,0-18.26-4.67-25.36-7.47l-28.34,7.09c-26.64,18.24-46.44,28.71-58.63,34.36l20.7,55.19h2.8c4.14,0,7.5,3.36,7.5,7.5
			c0,4.14-3.36,7.5-7.5,7.5h-8c-3.13,0-5.92-1.94-7.02-4.87l-19.5-51.979l-4.65,32.59c-1.33,9.27-9.39,16.26-18.75,16.26H279.5
			c-4.14,0-7.5-3.36-7.5-7.5c0-4.14,3.36-7.5,7.5-7.5h20.48l-16.31-45.05c-14.16-0.49-31.03-4.56-42.75-10.17
			c-5.61,7.72-12.54,14.63-18.38,20.43c-4.22,4.21-9.8,9.76-11.6,12.77l24.15,30.02h4.41c4.14,0,7.5,3.36,7.5,7.5
			c0,4.14-3.36,7.5-7.5,7.5h-8c-2.27,0-4.42-1.03-5.84-2.8l-37-46c-0.4-0.49-0.71-1.03-0.96-1.58c-0.23,0.15-0.45,0.31-0.69,0.47
			c-4.77,3.22-16.03,10.13-27.24,11.95c1.22,8.58,3.63,17.54,5.24,22.96h2.49c4.14,0,7.5,3.36,7.5,7.5c0,4.14-3.36,7.5-7.5,7.5h-8
			c-3.21,0-6.07-2.04-7.1-5.08c-0.34-1.01-8.4-24.88-8.4-42.42c0-2.28,1.04-4.43,2.81-5.86c0.73-0.6,17.27-14.72,10.19-42.21
			c-11.48,14.31-26.59,31.53-47.65,44.7c-29.21,18.25-63.84,24.57-102.95,18.79c-3.68-0.55-6.4-3.71-6.4-7.43
			c0-3.72,2.74-6.87,6.42-7.41c22.45-3.28,66.08-42.5,97.93-71.14c9.74-8.76,18.94-17.03,26.35-23.2
			c21.58-17.99,43.33-18.46,51.09-17.95c8.06-4.42,34.86-15.99,82.99-7.68c53.18,9.189,78.04,7.919,78.28,7.899
			c0.14-0.01,0.3-0.01,0.44-0.01c12.93,0,39.03-10.24,49.5-14.82l17.71-17.08c2.19-2.11,5.44-2.69,8.23-1.46
			c2.78,1.22,4.55,4.01,4.47,7.05l-0.21,8.29c4.64,1.91,17.23,8.42,22.73,24.42C451.09,190.419,461.33,203.779,461.43,203.909z
			 M446.18,208.44c0.01-0.01,0.02-0.03,0.04-0.04c-3.94-5.811-10.43-16.36-14.48-28.13c-2.11-6.13-5.81-10.04-8.98-12.41l-0.01,0.5
			c-0.11,4.14-3.56,7.38-7.69,7.3c-4.15-0.1-7.41-3.55-7.31-7.69l0.19-7.36l-5.48,5.29c-0.63,0.6-1.35,1.09-2.15,1.45
			c-3.79,1.69-37.51,16.54-56.6,16.65c-2.86,0.14-28.44,1.05-81.49-8.11c-51.36-8.87-74.19,6.6-74.42,6.75
			c-1.61,1.13-3.6,1.58-5.53,1.26c-0.81-0.13-21.13-3.01-41.97,14.359c-7.19,5.99-16.29,14.17-25.92,22.83
			c-24.05,21.63-52.12,46.87-76.08,61.9c23.42-0.64,44.24-6.8,63.09-18.58c22.47-14.05,37.43-33.07,49.45-48.36
			c7.97-10.13,14.26-18.13,20.86-22.01c2.32-1.37,5.19-1.39,7.52-0.05c2.34,1.34,3.78,3.82,3.78,6.51
			c0,14.75,15.15,41.25,26.04,49.53c2.94,2.24,3.82,6.28,2.06,9.54l-1.02,1.89c0.61-0.62,1.24-1.24,1.88-1.88
			c17.65-17.56,30.42-32.18,21.16-47.13c-2.18-3.52-1.09-8.15,2.43-10.33c3.53-2.18,8.15-1.09,10.33,2.43
			c7.02,11.351,6.56,22.21,2.51,32.16c8.86,4.05,21.61,7.22,32.59,8.07l7.81-15.629c1.85-3.71,6.36-5.21,10.06-3.36
			c3.71,1.85,5.21,6.36,3.36,10.06l-6.56,13.12l12.44,34.37l3.99-27.899c0.4-2.86,2.42-5.23,5.17-6.101
			c0.24-0.07,25.27-8.24,70-39.02c0.74-0.51,1.56-0.879,2.43-1.1l32-8c1.54-0.38,3.16-0.27,4.63,0.32
			C433.26,204.349,441.83,207.369,446.18,208.44z M167.42,272.029c10.78-4.95,21.74-13.9,24.23-18.18
			c-8.56-10.05-17-24.91-21.09-38.4c-0.8,0.95-1.62,1.96-2.46,2.99c0.14,0.27,0.28,0.55,0.39,0.839
			C177.78,243.129,173.4,260.819,167.42,272.029z"/>
	</g>
</g>
<g>
</g>
<g>
</g>
<g>
</g>
<g>
</g>
<g>
</g>
<g>
</g>
<g>
</g>
<g>
</g>
<g>
</g>
<g>
</g>
<g>
</g>
<g>
</g>
<g>
</g>
<g>
</g>
<g>
</g>
</svg>
