<?xml version="1.0" encoding="iso-8859-1"?>
<!-- Generator: Adobe Illustrator 19.0.0, SVG Export Plug-In . SVG Version: 6.00 Build 0)  -->
<svg version="1.1" id="Capa_1" xmlns="http://www.w3.org/2000/svg" xmlns:xlink="http://www.w3.org/1999/xlink" x="0px" y="0px"
	 viewBox="0 0 463 463" style="enable-background:new 0 0 463 463;" xml:space="preserve">
<g id="XMLID_80_">
	<g>
		<path style="fill:#D99B6D;" d="M444.5,204.29c2.26,2.26,3.5,5.26,3.5,8.45c0,3.36-1.37,6.53-3.75,8.71
			c-6.27,5.71-10.78,7.74-12.75,7.74c-12.56,0-22.9,3.97-32.03,7.47c-0.88,0.34-1.76,0.68-2.63,1.01
			c-14.06,5.33-22.71,2.06-25.78,0.41c-3.649-1.96-8.199-0.6-10.159,3.05c-1.971,3.65-0.601,8.19,3.04,10.16
			c0.479,0.26,1,0.52,1.56,0.78l-22.9,22.91c-4.26,4.26-6.6,9.91-6.6,15.93v1.64l-27.36-13.68l-14.899-22.35
			c-2.3-3.44-6.95-4.37-10.4-2.08c-3.45,2.3-4.38,6.96-2.08,10.41l3.86,5.79c-13.31,1.74-38.63,4.15-57.73,0.66
			c2.271-5.44,3.61-11.63,3.61-18.61c0-13.7-6.33-25.56-17.81-33.4c-7.75-5.29-17.21-8.32-26.95-8.99
			c22.76-16.61,44.359-21.76,53.55-22.12c17.96-0.7,29.07,5.42,40.84,11.89c13.9,7.65,29.65,16.33,56.08,12.02
			c4.08-0.67,6.86-4.52,6.19-8.61c-0.66-4.09-4.52-6.87-8.61-6.2c-21.31,3.48-32.95-2.93-46.43-10.35
			c-12.441-6.84-26.54-14.61-48.65-13.74c-9.75,0.38-26.77,4.4-45.3,14.54c-22.17,12.12-41.76,30.38-56.66,52.8
			c-2.29,3.45-1.35,8.11,2.1,10.4c1.28,0.85,2.721,1.26,4.141,1.26c2.43,0,4.81-1.18,6.26-3.35c5.19-7.82,10.7-14.66,16.34-20.68
			c0.16-0.05,0.311-0.09,0.47-0.16c12.48-4.87,27.82-3.39,38.171,3.68c5.14,3.51,11.27,10,11.27,21.01
			c0,24.23-22.07,31.54-26.49,32.77c-7.939,2.18-29.029,8-57.319-14.63c-2.681-2.14-6.46-2.2-9.19-0.14
			c-11.31,8.48-45.49,30.5-67.5,30.5c-25.35,0-40.5-28.73-40.5-56.5c0-33.27,7.34-52.84,10.39-55.38
			c4.88-3.74,9.681-3.91,13.521-0.49c4.46,3.97,6.729,12.34,2.149,20.03c-11.56,19.39-13.75,47.84-4.899,63.42
			c4.37,7.68,11.229,11.92,19.34,11.92c10.13,0,45.72-3.82,78.25-52.86c17.77-26.79,39.74-42.64,55.04-51.23
			c17.77-9.97,37.1-15.91,51.71-15.91c24.32,0,37.58,7.64,49.28,14.39c7.319,4.21,14.229,8.2,22.55,9.51
			c13.96,2.21,31.07-1.65,40.11-3.91c3.369,8.03,8.04,15.45,8.739,16.54c2.23,3.49,6.86,4.51,10.36,2.28
			c3.49-2.22,4.51-6.86,2.28-10.35c-2.19-3.44-8.2-13.84-9.66-20.55c-0.91-4.24,0.87-8.31,3.13-9.78c0.87-0.57,1.93-0.91,3.83,0.45
			c3.91,2.81,9.98,17.04,12.98,35.14c0.61,3.67,3.79,6.28,7.391,6.28c0.41,0,0.819-0.04,1.229-0.11c3.07-0.5,5.391-2.8,6.07-5.64
			c1.97,0.67,4.04,1.44,6.01,2.24c-1.7,2.15-2.17,5.15-0.939,7.82c1.26,2.74,3.979,4.35,6.809,4.35c1.05,0,2.12-0.22,3.14-0.69
			l3.45-1.59c4.351,4.66,9.271,6.15,10.01,6.35c0.66,0.18,1.33,0.27,1.98,0.27c3.3,0,6.32-2.19,7.23-5.53
			c1.1-3.99-1.261-8.12-5.25-9.21c-0.03-0.01-3.23-1.15-4.801-4.95c-1.029-2.52-3.08-5.4-15.47-10.5
			c-4.49-1.85-10.36-3.93-14.93-4.94c-0.681-2.58-1.471-5.34-2.391-8.14c13.86,3.23,29.41,10.87,33.38,12.89L444.5,204.29z"/>
		<path style="fill:#3D484A;" d="M455.11,193.68c5.09,5.09,7.89,11.86,7.89,19.06c0,7.57-3.15,14.78-8.65,19.79
			c-8.48,7.73-16.17,11.66-22.85,11.66c-9.78,0-17.97,3.14-26.65,6.48c-0.899,0.34-1.8,0.69-2.689,1.03
			c-7.561,2.86-14.16,3.91-19.76,3.92c-0.37,0.86-0.9,1.67-1.601,2.37l-27.59,27.6c-1.43,1.42-2.21,3.31-2.21,5.32v9
			c1.48,0.45,3.06,0.52,4.58,0.19l16.79-3.74c1.74-0.38,3.55-0.14,5.12,0.69l9.5,5c3.67,1.93,5.08,6.46,3.149,10.13
			c-1.35,2.55-3.949,4.01-6.649,4.01c-1.17,0-2.37-0.28-3.48-0.87l-7.069-3.72l-14.11,3.14c-5.35,1.19-11.01,0.49-15.91-1.96
			l-42.77-21.39c-1.17-0.58-2.17-1.46-2.891-2.54l-2.91-4.37c-6.47,1.03-24.51,3.59-43.609,3.59c-11,0-22.32-0.86-32.01-3.34
			c-7.08,7.66-16.25,12.61-24.761,15.05c0.57,0.36,1.271,0.51,1.96,0.37l34.101-6.82c2.46-0.49,5,0.28,6.77,2.05l8,8
			c2.931,2.93,2.931,7.68,0,10.61c-1.46,1.46-3.38,2.2-5.3,2.2s-3.84-0.74-5.3-2.2l-5.16-5.16l-30.17,6.03
			c-6.311,1.26-12.82-1.01-16.98-5.93l-5.26-6.21c-12.33,0.46-29.52-2.4-49.27-16.71c-12.25,8.5-46.011,30.18-71.86,30.18
			c-34.74,0-55.5-36.36-55.5-71.5c0-32.29,6.69-59.96,16.28-67.29c10.559-8.09,23.37-8.01,32.609,0.22
			c9.16,8.16,13.851,24.15,5.051,38.9c-9.431,15.84-10.28,38.59-4.74,48.34c2.18,3.83,4.51,4.33,6.3,4.33
			c16.99,0,43.18-12.13,65.75-46.15c32.16-48.49,84.33-73.85,119.25-73.85c28.33,0,44.1,9.09,56.77,16.39
			c6.61,3.81,11.82,6.82,17.4,7.7c11.07,1.75,26.521-1.76,34.25-3.68c0.07-8.04,3.85-15.7,10.14-19.83
			c6.44-4.22,14.221-3.91,20.82,0.82c2.36,1.7,4.47,4.14,6.34,7.01c20.33,1.49,47.62,15.84,48.79,16.46
			c0.66,0.35,1.271,0.79,1.79,1.32L455.11,193.68z M448,212.74c0-3.19-1.24-6.19-3.5-8.45l-17.48-17.48
			c-3.97-2.02-19.52-9.66-33.38-12.89c0.92,2.8,1.71,5.56,2.391,8.14c4.569,1.01,10.439,3.09,14.93,4.94
			c12.39,5.1,14.44,7.98,15.47,10.5c1.57,3.8,4.771,4.94,4.801,4.95c3.989,1.09,6.35,5.22,5.25,9.21
			c-0.91,3.34-3.931,5.53-7.23,5.53c-0.65,0-1.32-0.09-1.98-0.27c-0.739-0.2-5.659-1.69-10.01-6.35l-3.45,1.59
			c-1.02,0.47-2.09,0.69-3.14,0.69c-2.83,0-5.55-1.61-6.809-4.35c-1.23-2.67-0.761-5.67,0.939-7.82c-1.97-0.8-4.04-1.57-6.01-2.24
			c-0.68,2.84-3,5.14-6.07,5.64c-0.41,0.07-0.819,0.11-1.229,0.11c-3.601,0-6.78-2.61-7.391-6.28c-3-18.1-9.069-32.33-12.98-35.14
			c-1.9-1.36-2.96-1.02-3.83-0.45c-2.26,1.47-4.04,5.54-3.13,9.78c1.46,6.71,7.47,17.11,9.66,20.55c2.229,3.49,1.21,8.13-2.28,10.35
			c-3.5,2.23-8.13,1.21-10.36-2.28c-0.699-1.09-5.37-8.51-8.739-16.54c-9.04,2.26-26.15,6.12-40.11,3.91
			c-8.32-1.31-15.23-5.3-22.55-9.51c-11.7-6.75-24.96-14.39-49.28-14.39c-14.61,0-33.94,5.94-51.71,15.91
			c-15.3,8.59-37.27,24.44-55.04,51.23c-32.53,49.04-68.12,52.86-78.25,52.86c-8.11,0-14.97-4.24-19.34-11.92
			c-8.851-15.58-6.66-44.03,4.899-63.42c4.58-7.69,2.31-16.06-2.149-20.03c-3.84-3.42-8.641-3.25-13.521,0.49
			C22.34,191.85,15,211.42,15,244.69c0,27.77,15.15,56.5,40.5,56.5c22.01,0,56.19-22.02,67.5-30.5c2.73-2.06,6.51-2,9.19,0.14
			c28.29,22.63,49.38,16.81,57.319,14.63c4.42-1.23,26.49-8.54,26.49-32.77c0-11.01-6.13-17.5-11.27-21.01
			c-10.351-7.07-25.691-8.55-38.171-3.68c-0.159,0.07-0.31,0.11-0.47,0.16c-5.64,6.02-11.149,12.86-16.34,20.68
			c-1.45,2.17-3.83,3.35-6.26,3.35c-1.42,0-2.86-0.41-4.141-1.26c-3.449-2.29-4.39-6.95-2.1-10.4c14.9-22.42,34.49-40.68,56.66-52.8
			c18.53-10.14,35.55-14.16,45.3-14.54c22.11-0.87,36.21,6.9,48.65,13.74c13.479,7.42,25.12,13.83,46.43,10.35
			c4.09-0.67,7.95,2.11,8.61,6.2c0.67,4.09-2.11,7.94-6.19,8.61c-26.43,4.31-42.18-4.37-56.08-12.02
			c-11.77-6.47-22.88-12.59-40.84-11.89c-9.19,0.36-30.79,5.51-53.55,22.12c9.74,0.67,19.2,3.7,26.95,8.99
			c11.48,7.84,17.81,19.7,17.81,33.4c0,6.98-1.34,13.17-3.61,18.61c19.101,3.49,44.42,1.08,57.73-0.66l-3.86-5.79
			c-2.3-3.45-1.37-8.11,2.08-10.41c3.45-2.29,8.101-1.36,10.4,2.08l14.899,22.35L336,292.55v-1.64c0-6.02,2.34-11.67,6.6-15.93
			l22.9-22.91c-0.56-0.26-1.08-0.52-1.56-0.78c-3.641-1.97-5.011-6.51-3.04-10.16c1.96-3.65,6.51-5.01,10.159-3.05
			c3.07,1.65,11.721,4.92,25.78-0.41c0.87-0.33,1.75-0.67,2.63-1.01c9.13-3.5,19.471-7.47,32.03-7.47c1.97,0,6.48-2.03,12.75-7.74
			C446.63,219.27,448,216.1,448,212.74z"/>
	</g>
</g>
<g>
</g>
<g>
</g>
<g>
</g>
<g>
</g>
<g>
</g>
<g>
</g>
<g>
</g>
<g>
</g>
<g>
</g>
<g>
</g>
<g>
</g>
<g>
</g>
<g>
</g>
<g>
</g>
<g>
</g>
</svg>
