<?xml version="1.0" encoding="iso-8859-1"?>
<!-- Generator: Adobe Illustrator 19.0.0, SVG Export Plug-In . SVG Version: 6.00 Build 0)  -->
<svg version="1.1" id="Capa_1" xmlns="http://www.w3.org/2000/svg" xmlns:xlink="http://www.w3.org/1999/xlink" x="0px" y="0px"
	 viewBox="0 0 463 463" style="enable-background:new 0 0 463 463;" xml:space="preserve">
<g>
	<g id="XMLID_81_">
		<g>
			<path style="fill:#C2AC9C;" d="M446.3,230.949c-5.61,4.03-16.87,9.79-30.24,4.05c-3.81-1.64-8.22,0.12-9.85,3.93
				c-0.86,1.99-0.77,4.15,0.04,5.99c-5.55-0.91-11.58-2.64-16.23-4.48c-3.19-1.28-6.84-0.23-8.85,2.56
				c-25.12,34.63-66.87,50.53-114.54,43.62c-23.23-3.37-55.5-1.62-69.51-0.61c-1.3-8.569-2.98-24.77-0.89-42.319
				c3.94-33.171,19.03-54.96,44.85-64.75c44.81-17,79.97,5.119,81.43,6.06c1.22,0.79,2.64,1.21,4.1,1.21h22.15
				c1.63,2.54,4.27,5.65,8.53,9.51c4.74,4.3,10.4,8.53,13.45,10.05c1.08,0.54,2.22,0.801,3.35,0.801c2.75,0,5.4-1.52,6.71-4.15
				c1.85-3.71,0.35-8.21-3.35-10.06c-0.97-0.49-4.69-3.03-8.92-6.721c-4.68-4.08-6.69-6.71-7.29-7.739v-19.99
				c2.38,0.71,5.01,1.67,7.57,2.93c11.33,5.601,11.93,12.4,11.4,17.021c-0.47,4.109,2.48,7.83,6.6,8.3c2.1,0.24,4.1-0.41,5.61-1.66
				C403.3,188.768,431.82,202.279,446.3,230.949z M410.84,217.138c0-5.699-4.64-10.34-10.34-10.34s-10.34,4.641-10.34,10.34
				c0,5.7,4.64,10.341,10.34,10.341S410.84,222.839,410.84,217.138z"/>
			<path style="fill:#3D484A;" d="M462.41,230.069c1.16,2.76,0.58,5.939-1.49,8.1c-0.64,0.67-11.83,12.12-28.62,14.03
				c-0.43,1.21-1.17,2.33-2.23,3.21c-10.61,8.89-30.15,4.21-40.19,0.91c-18.66,23.46-44.33,38.6-74.05,44.319l1.91,5.011
				c3.81-0.41,8.48-0.15,12.62,2.25c3.59,2.08,4.81,6.659,2.74,10.25c-1.39,2.399-3.91,3.739-6.5,3.739
				c-1.28,0-2.57-0.319-3.75-1.01c-1.27-0.729-4.84-0.32-7.19,0.54c-3.86,1.4-8.17-0.53-9.63-4.36l-5.47-14.35
				c-4.03,0.33-8.12,0.5-12.27,0.5c-7.76,0-15.71-0.57-23.81-1.75c-16.5-2.39-38.62-1.97-54.15-1.21l-1.41,4.23
				c8.48-1.07,19.15-1.091,26.64,3.52c3.53,2.17,4.63,6.79,2.46,10.32c-1.42,2.3-3.88,3.569-6.4,3.569
				c-1.34,0-2.69-0.359-3.92-1.109c-5.6-3.45-19.67-1.61-27.86,0.8c-2.69,0.79-5.58,0.03-7.52-1.98c-1.94-2.01-2.61-4.93-1.72-7.58
				l3.57-10.73c-1.58,0.13-2.48,0.21-2.54,0.22c-3.3,0.3-6.33-1.569-7.59-4.51c-12.09,4.07-75.73,23.75-176.54,23.75
				c-4.14,0-7.5-3.36-7.5-7.5c0-4.14,3.36-7.5,7.5-7.5c107.44,0,172.79-23.31,173.44-23.55c0.17-0.061,0.34-0.11,0.51-0.16
				c-1.15-10-1.98-24.49-0.12-40.12c4.59-38.61,23.41-65.24,54.43-77c46.31-17.57,83.89,1.11,92.93,6.29h17.55v-22.6
				c0-2.141,0.91-4.181,2.51-5.601c1.6-1.42,3.73-2.09,5.85-1.85c13.16,1.51,35.77,9.32,40.02,28.14
				C404.76,172.829,445.16,189.149,462.41,230.069z M416.06,234.999c13.37,5.74,24.63-0.02,30.24-4.05
				c-14.48-28.67-43-42.181-53.88-46.45c-1.51,1.25-3.51,1.9-5.61,1.66c-4.12-0.47-7.07-4.191-6.6-8.3
				c0.53-4.62-0.07-11.42-11.4-17.021c-2.56-1.26-5.19-2.22-7.57-2.93v19.99c0.6,1.029,2.61,3.659,7.29,7.739
				c4.23,3.691,7.95,6.23,8.92,6.721c3.7,1.85,5.2,6.35,3.35,10.06c-1.31,2.63-3.96,4.15-6.71,4.15c-1.13,0-2.27-0.261-3.35-0.801
				c-3.05-1.52-8.71-5.75-13.45-10.05c-4.26-3.859-6.9-6.97-8.53-9.51h-22.15c-1.46,0-2.88-0.42-4.1-1.21
				c-1.46-0.94-36.62-23.06-81.43-6.06c-25.82,9.79-40.91,31.579-44.85,64.75c-2.09,17.55-0.41,33.75,0.89,42.319
				c14.01-1.01,46.28-2.76,69.51,0.61c47.67,6.91,89.42-8.99,114.54-43.62c2.01-2.79,5.66-3.84,8.85-2.56
				c4.65,1.84,10.68,3.569,16.23,4.48c-0.81-1.84-0.9-4-0.04-5.99C407.84,235.119,412.25,233.359,416.06,234.999z"/>
			<path style="fill:#3D484A;" d="M400.5,206.799c5.7,0,10.34,4.641,10.34,10.34c0,5.7-4.64,10.341-10.34,10.341
				s-10.34-4.641-10.34-10.341C390.16,211.439,394.8,206.799,400.5,206.799z"/>
		</g>
	</g>
</g>
<g>
</g>
<g>
</g>
<g>
</g>
<g>
</g>
<g>
</g>
<g>
</g>
<g>
</g>
<g>
</g>
<g>
</g>
<g>
</g>
<g>
</g>
<g>
</g>
<g>
</g>
<g>
</g>
<g>
</g>
</svg>
