<?xml version="1.0" encoding="iso-8859-1"?>
<!-- Generator: Adobe Illustrator 19.0.0, SVG Export Plug-In . SVG Version: 6.00 Build 0)  -->
<svg version="1.1" id="Capa_1" xmlns="http://www.w3.org/2000/svg" xmlns:xlink="http://www.w3.org/1999/xlink" x="0px" y="0px"
	 viewBox="0 0 462.999 462.999" style="enable-background:new 0 0 462.999 462.999;" xml:space="preserve">
<g>
	<g id="XMLID_82_">
		<g>
			<path style="fill:#ECDDAF;" d="M391.73,342.203h-69.61l44.17-7.36c5.26-0.88,10.56-0.08,15.33,2.301L391.73,342.203z"/>
			<path style="fill:#3D484A;" d="M461.09,184.703c2.65,2.96,2.53,7.49-0.29,10.3l-16,16c-1.4,1.41-3.31,2.2-5.3,2.2h-12.56
				c-0.54,0-1.22,0.26-1.91,0.74c-0.36,0.26-0.74,0.49-1.11,0.74l10.96,11.3c2.31,2.37,2.78,5.97,1.18,8.859l-5,9
				c-1.92,3.45-6.17,4.83-9.74,3.15c-5.35-2.5-12.11-5.36-14.86-6.16c-5.21,1.65-22.16,9.32-36.19,16.12
				c-1.03,0.5-2.15,0.75-3.27,0.75c-1.33,0-2.65-0.35-3.82-1.05c-0.39-0.22-6.13-3.68-12.79-10.29c-5.3,4.31-12.04,8.72-15.48,10.89
				c-0.8,8.71-3.59,17.471-9.49,25.061c-14.34,18.43-32.3,27.899-48.15,36.25c-12.13,6.39-23.07,12.189-30.87,21.05l117.42-19.57
				c8.41-1.399,16.88-0.12,24.51,3.69l38.52,19.26c3.12,1.56,4.75,5.05,3.95,8.43c-0.8,3.391-3.82,5.78-7.3,5.78H231.52
				c0,0-0.01,0-0.02,0c-0.47,0-0.95-0.04-1.42-0.13c-0.22-0.05-0.44-0.1-0.66-0.16c0,0-0.01-0.01-0.02-0.01
				c-0.47-0.13-0.92-0.32-1.34-0.54c-0.09-0.04-0.16-0.09-0.24-0.13c-0.13-0.07-0.25-0.15-0.37-0.221
				c-0.11-0.069-0.21-0.14-0.31-0.21c-0.09-0.069-0.18-0.13-0.26-0.199c-0.11-0.08-0.21-0.17-0.31-0.261
				c-0.08-0.06-0.15-0.13-0.23-0.199c-0.09-0.091-0.18-0.181-0.28-0.28c-0.07-0.08-0.14-0.15-0.21-0.23
				c-0.08-0.1-0.16-0.189-0.23-0.29c-0.08-0.09-0.15-0.189-0.22-0.279c-0.06-0.09-0.12-0.181-0.18-0.271
				c-0.08-0.12-0.14-0.229-0.21-0.34c-0.05-0.09-0.1-0.17-0.14-0.26c-0.07-0.13-0.13-0.25-0.19-0.38
				c-0.04-0.09-0.08-0.17-0.11-0.261c-0.06-0.13-0.1-0.26-0.15-0.399c-0.03-0.09-0.07-0.18-0.09-0.28c-0.04-0.12-0.07-0.25-0.1-0.37
				c-0.03-0.12-0.06-0.229-0.08-0.34c-0.02-0.11-0.04-0.22-0.06-0.33c-0.02-0.14-0.04-0.27-0.05-0.41c0-0.029-0.01-0.06-0.01-0.1
				c-0.01-0.07-0.01-0.13-0.01-0.2c-0.01-0.14-0.02-0.28-0.02-0.42c0-0.11,0.01-0.21,0.01-0.32c0.01-0.13,0.01-0.26,0.03-0.39
				c0.01-0.13,0.03-0.25,0.05-0.38c0.01-0.11,0.03-0.21,0.05-0.32c0.03-0.16,0.07-0.31,0.11-0.47c0.02-0.07,0.03-0.15,0.05-0.22
				c0.06-0.21,0.14-0.42,0.22-0.62c0-0.021,0.01-0.04,0.02-0.06c0-0.01,0-0.02,0.01-0.029c0-0.011,0.01-0.03,0.01-0.04l7.79-19.46
				c1.15-2.891,0.94-6.11-0.59-8.83c-1.53-2.721-4.17-4.57-7.25-5.09l-26.24-4.37c-3.09-0.521-5.42-2.851-6.08-5.73
				c-14.99,13.64-63.97,53.83-120.69,53.83c-26.61,0-46.45-7.54-58.99-22.42C0.9,321.003,0,305.984,0,301.703
				c0-34.97,41.31-52.13,77.3-63.17c16.79-5.15,36.03-16.09,39.67-31.35c1.19-4.971,0.25-9.25-2.64-12.051
				c-0.02-0.01-0.04-0.029-0.05-0.05c-0.11-0.09-0.22-0.2-0.33-0.3c-0.96-0.73-6.69-4.15-30.62-5.35
				c-14.24-0.71-27.42-0.24-27.55-0.23c-0.47,0.01-0.94-0.01-1.4-0.08c-11.4-1.729-21.67-10.399-29.71-25.07
				c-5.61-10.239-8.29-19.97-8.41-20.38c-0.75-2.77,0.14-5.739,2.31-7.63c2.17-1.88,5.23-2.37,7.88-1.23
				c8.29,3.54,78.82,33.899,96.38,47.87c0.78,0.569,1.41,1.149,1.96,1.71c6.73,6.529,9.2,16.1,6.77,26.27
				c-4.33,18.18-22.97,33.96-49.86,42.21c-45.51,13.96-66.7,29.481-66.7,48.83c0,4.15,1.59,40.5,56.5,40.5
				c52.66,0,100.09-40.31,111.88-51.13c-6.72-37.62-5.01-72.64,4.97-101.51c10.02-28.96,27.41-48.511,48.98-55.04
				c27.59-8.351,56.93-1.391,76.44,5.76l-12.37-19.79c-2.31-3.7-1.84-8.51,1.15-11.68c3-3.181,7.76-3.931,11.6-1.851l67.96,37.08
				c2.53-0.8,7.4-2.18,13.05-2.939c11.92-1.61,21.32,0.189,27.94,5.35C435.25,155.894,460.04,183.533,461.09,184.703z
				 M436.39,198.203l8.75-8.75c-7.78-8.47-23.15-24.86-31.24-31.16c-3.58-2.78-9.5-3.109-15.16-2.51c0.48,1.79,0.3,3.76-0.66,5.51
				c-1.98,3.641-6.53,4.98-10.17,2.99l-62.89-34.3l20.71,33.14c1.21,1.93,3.28,3.08,5.56,3.08h16.21c4.14,0,7.5,3.36,7.5,7.5
				c0,4.14-3.36,7.5-7.5,7.5h-16.21c-7.48,0-14.31-3.78-18.28-10.13l-5.09-8.14c-7.11-3.86-49.14-25.28-86.25-14.051
				c-16.59,5.021-30.86,21.641-39.14,45.58c-9.35,27.03-10.65,61.761-3.67,97.811c0.13,0.66,0.16,1.31,0.12,1.96
				c0.57-0.04,1.16-0.03,1.75,0.069l26.25,4.381c7.58,1.26,14.08,5.829,17.85,12.52c1.32,2.35,2.24,4.84,2.76,7.4
				c7.14-5.11,14.97-9.24,22.69-13.311c15.21-8.02,30.95-16.31,43.3-32.189c11.36-14.61,5.96-38.11-0.26-47.15
				c-2.35-3.41-1.48-8.08,1.93-10.43c3.41-2.351,8.08-1.48,10.43,1.93c3.35,4.88,6.73,12.99,8.41,22.35
				c2.49-1.739,4.83-3.449,6.69-4.949c-0.95-1.391-1.88-2.851-2.77-4.38c-2.08-3.591-0.86-8.181,2.72-10.261
				c3.59-2.069,8.18-0.859,10.26,2.73c5.4,9.3,12.59,15.55,16.67,18.62c10.35-4.96,30.74-14.49,36.87-15.71
				c1.54-0.311,3.5-0.71,11.86,2.6l-6.94-7.15c-5.93,1.69-11.72,2.28-16.87,2.28c-10.81,0.01-18.81-2.55-19.43-2.76
				c-3.93-1.29-6.07-5.53-4.77-9.46c1.29-3.94,5.53-6.08,9.47-4.78c0.19,0.061,21.78,6.8,38.6-4.939c3.23-2.25,6.86-3.44,10.49-3.44
				H436.39z M322.12,342.203h69.61l-10.11-5.06c-4.77-2.381-10.07-3.181-15.33-2.301L322.12,342.203z M56.02,174.184
				c2.55-0.08,10.84-0.28,20.82-0.011c-12.66-6.13-26.75-12.59-39.52-18.26c0.21,0.39,0.42,0.78,0.64,1.17
				C41.81,164.064,48.05,172.604,56.02,174.184z"/>
			<path style="fill:#ECDDAF;" d="M445.14,189.453l-8.75,8.75h-9.45c-3.63,0-7.26,1.19-10.49,3.44c-16.82,11.739-38.41,5-38.6,4.939
				c-3.94-1.3-8.18,0.84-9.47,4.78c-1.3,3.93,0.84,8.17,4.77,9.46c0.62,0.21,8.62,2.77,19.43,2.76c5.15,0,10.94-0.59,16.87-2.28
				l6.94,7.15c-8.36-3.31-10.32-2.91-11.86-2.6c-6.13,1.22-26.52,10.75-36.87,15.71c-4.08-3.07-11.27-9.32-16.67-18.62
				c-2.08-3.59-6.67-4.8-10.26-2.73c-3.58,2.08-4.8,6.67-2.72,10.261c0.89,1.529,1.82,2.989,2.77,4.38
				c-1.86,1.5-4.2,3.21-6.69,4.949c-1.68-9.359-5.06-17.47-8.41-22.35c-2.35-3.41-7.02-4.28-10.43-1.93
				c-3.41,2.35-4.28,7.02-1.93,10.43c6.22,9.04,11.62,32.54,0.26,47.15c-12.35,15.88-28.09,24.17-43.3,32.189
				c-7.72,4.07-15.55,8.2-22.69,13.311c-0.52-2.561-1.44-5.051-2.76-7.4c-3.77-6.69-10.27-11.26-17.85-12.52l-26.25-4.381
				c-0.59-0.1-1.18-0.109-1.75-0.069c0.04-0.65,0.01-1.3-0.12-1.96c-6.98-36.05-5.68-70.78,3.67-97.811
				c8.28-23.939,22.55-40.56,39.14-45.58c37.11-11.229,79.14,10.191,86.25,14.051l5.09,8.14c3.97,6.35,10.8,10.13,18.28,10.13h16.21
				c4.14,0,7.5-3.36,7.5-7.5c0-4.14-3.36-7.5-7.5-7.5h-16.21c-2.28,0-4.35-1.15-5.56-3.08l-20.71-33.14l62.89,34.3
				c3.64,1.99,8.19,0.65,10.17-2.99c0.96-1.75,1.14-3.72,0.66-5.51c5.66-0.6,11.58-0.271,15.16,2.51
				C421.99,164.593,437.36,180.984,445.14,189.453z M422,177.703c0-5.79-4.71-10.5-10.5-10.5s-10.5,4.71-10.5,10.5
				c0,5.79,4.71,10.5,10.5,10.5S422,183.493,422,177.703z"/>
			<path style="fill:#3D484A;" d="M411.5,167.203c5.79,0,10.5,4.71,10.5,10.5c0,5.79-4.71,10.5-10.5,10.5s-10.5-4.71-10.5-10.5
				C401,171.913,405.71,167.203,411.5,167.203z"/>
			<path style="fill:#ECDDAF;" d="M76.84,174.173c-9.98-0.27-18.27-0.069-20.82,0.011c-7.97-1.58-14.21-10.12-18.06-17.101
				c-0.22-0.39-0.43-0.78-0.64-1.17C50.09,161.583,64.18,168.043,76.84,174.173z"/>
		</g>
	</g>
</g>
<g>
</g>
<g>
</g>
<g>
</g>
<g>
</g>
<g>
</g>
<g>
</g>
<g>
</g>
<g>
</g>
<g>
</g>
<g>
</g>
<g>
</g>
<g>
</g>
<g>
</g>
<g>
</g>
<g>
</g>
</svg>
