<?xml version="1.0" encoding="iso-8859-1"?>
<!-- Generator: Adobe Illustrator 19.0.0, SVG Export Plug-In . SVG Version: 6.00 Build 0)  -->
<svg version="1.1" id="Capa_1" xmlns="http://www.w3.org/2000/svg" xmlns:xlink="http://www.w3.org/1999/xlink" x="0px" y="0px"
	 viewBox="0 0 463.001 463.001" style="enable-background:new 0 0 463.001 463.001;" xml:space="preserve">
<g id="XMLID_83_">
	<g>
		<path style="fill:#A3845D;" d="M393.85,214.56c4.63,11.881,10.98,20.811,16.59,27.061c-10.77-0.95-22.68-1.62-34.94-1.62
			c-41.21,0-73.58,24.32-82.61,31.84c-21.5-1.96-36.54-20.1-37.9-24.79c-0.23-3.93-3.5-7.05-7.49-7.05c-4.14,0-7.5,3.36-7.5,7.5
			c0,2.86,1.27,6.15,3.3,9.5c-14.96,0.97-42.43,1.81-68.35-2.37c-0.08-0.73-0.28-1.46-0.6-2.18c-1.68-3.78-6.11-5.49-9.9-3.8
			c-12.62,5.609-43.23,7.35-52.95,7.35c-8,0-16.5-11.39-16.5-32.5c0-0.72,1.01-72.5,88.5-72.5c35.76,0,63.27,6.24,80.04,11.47
			c18.19,5.67,28.04,11.431,28.13,11.48c1.8,1.069,3.97,1.34,5.98,0.729c0.23-0.069,23.15-6.83,42.57-3.46
			C369.7,176.34,389.39,203.12,393.85,214.56z"/>
		<path style="fill:#3D484A;" d="M457.03,248.161c4.06,0.84,6.66,4.82,5.81,8.87c-0.84,4.05-4.81,6.66-8.87,5.81
			c-0.38-0.08-38.12-7.84-78.47-7.84c-22.94,0-43.09,8.89-56.7,17h5.39c4.14,0,8.03,1.61,10.96,4.54l5.65,5.66
			c2.93,2.93,2.93,7.68,0,10.6c-1.46,1.47-3.38,2.2-5.3,2.2c-1.92,0-3.84-0.73-5.3-2.2l-5.66-5.649c-0.09-0.101-0.22-0.15-0.35-0.15
			H295.5c-0.06,0-0.12,0-0.18,0c-13.63-0.33-27.53-5.83-39.12-15.49c-0.19-0.149-0.37-0.319-0.56-0.479
			c-3.48,0.38-17.94,1.81-36.74,1.81c-18.39,0-40.93-1.38-61.41-6.45c-10.97,2.42-23.79,3.57-33.11,4.12l-0.74,1.49h35.86
			c0.61,0,1.22,0.08,1.82,0.22l21.02,5.261c8.5,2.119,16.27,6.52,22.46,12.72c2.93,2.92,2.93,7.67,0,10.6
			c-1.46,1.47-3.38,2.2-5.3,2.2c-1.92,0-3.84-0.73-5.3-2.2c-4.28-4.27-9.63-7.3-15.5-8.77L158.58,287h-39.13
			c-4.33,0-8.28-2.2-10.56-5.89c-1.96-3.17-2.37-6.95-1.22-10.41c-8.5-1.29-15.59-6.9-20.47-15.601
			c-4.5,0.61-21.22,3.08-37.65,8.181c-21.59,6.7-34.12,15.35-34.54,23.79c1.4,1.939,12.53,12.1,94.51,19.59
			c45.39,4.14,89.73,5.33,90.18,5.34c4.14,0.11,7.41,3.55,7.3,7.7c-0.11,4.069-3.44,7.3-7.5,7.3c-0.06,0-0.13,0-0.2,0
			c-0.48-0.01-48.81-1.31-96.52-5.91c-28.21-2.72-50.75-6.05-67.01-9.899C19.12,307.241,0,300.981,0,287.5
			c0-16.32,15.24-29.31,45.28-38.6c14.73-4.561,29.26-7.091,36.55-8.19c-1.19-5.24-1.83-11.02-1.83-17.21c0-2.7,0.49-27,17.46-50.07
			C120.22,142.491,156.81,136,183.5,136c37.97,0,67.25,6.71,85.13,12.35c13.98,4.4,23.38,8.841,27.81,11.131
			c7.61-1.94,27.84-6.25,46.34-3.04c19.85,3.449,34.8,14.43,43.84,23.029c11.31,10.77,18.37,22.37,21.2,29.641
			c9.07,23.279,26.64,34.6,31.97,36.04C449.95,246.701,456.4,248.031,457.03,248.161z M410.44,241.62
			c-5.61-6.25-11.96-15.18-16.59-27.061c-4.46-11.439-24.15-38.22-53.63-43.34c-19.42-3.37-42.34,3.391-42.57,3.46
			c-2.01,0.61-4.18,0.34-5.98-0.729c-0.09-0.05-9.94-5.811-28.13-11.48c-16.77-5.23-44.28-11.47-80.04-11.47
			c-87.49,0-88.5,71.78-88.5,72.5c0,21.11,8.5,32.5,16.5,32.5c9.72,0,40.33-1.74,52.95-7.35c3.79-1.69,8.22,0.02,9.9,3.8
			c0.32,0.72,0.52,1.45,0.6,2.18c25.92,4.18,53.39,3.34,68.35,2.37c-2.03-3.35-3.3-6.64-3.3-9.5c0-4.14,3.36-7.5,7.5-7.5
			c3.99,0,7.26,3.12,7.49,7.05c1.36,4.69,16.4,22.83,37.9,24.79c9.03-7.52,41.4-31.84,82.61-31.84
			C387.76,240,399.67,240.67,410.44,241.62z"/>
	</g>
</g>
<g>
</g>
<g>
</g>
<g>
</g>
<g>
</g>
<g>
</g>
<g>
</g>
<g>
</g>
<g>
</g>
<g>
</g>
<g>
</g>
<g>
</g>
<g>
</g>
<g>
</g>
<g>
</g>
<g>
</g>
</svg>
