<?xml version="1.0" encoding="iso-8859-1"?>
<!-- Generator: Adobe Illustrator 19.0.0, SVG Export Plug-In . SVG Version: 6.00 Build 0)  -->
<svg version="1.1" id="Capa_1" xmlns="http://www.w3.org/2000/svg" xmlns:xlink="http://www.w3.org/1999/xlink" x="0px" y="0px"
	 viewBox="0 0 463.001 463.001" style="enable-background:new 0 0 463.001 463.001;" xml:space="preserve">
<g id="XMLID_84_">
	<g>
		<path style="fill:#666564;" d="M299.191,289.518l7.79,15.12c-5.431,1.71-10.78,3.89-15.961,6.58l-22.649-19.42L299.191,289.518z"
			/>
		<path style="fill:#666564;" d="M446.011,395.659l-2.52,10.51c-0.471,1.979-1.69,3.649-3.431,4.71
			c-1.739,1.059-3.79,1.38-5.77,0.89l-20.07-4.97c-4.02-1-8.08,1.46-9.08,5.479c-0.739,3.011,0.45,6.051,2.79,7.811
			c-4.51,1.86-11.34,3.54-21.489,3.72c-12.81,0.24-27.69,2.49-42.07,4.66c-13.42,2.04-26.101,3.96-35.33,3.96
			c-7.39,0-25.14-3.89-39.41-18.62c-12.54-12.939-19.19-30.66-19.86-52.71l22.171,8.31c0.869,0.329,1.76,0.479,2.64,0.479
			c3.03,0,5.89-1.86,7.02-4.87c1.45-3.88-0.51-8.2-4.39-9.649l-68.92-25.851c-0.84-0.319-1.74-0.479-2.64-0.479h-16l58.3-34.98
			l56.21,48.18c1.41,1.211,3.149,1.801,4.87,1.801c2.12,0,4.22-0.891,5.7-2.62c2.699-3.141,2.329-7.88-0.811-10.57l-10.439-8.95
			c30.92-13.37,64.46-6.05,76.109,1.53c-1.77,32.79,7.79,64.89,8.43,66.99c0.98,3.229,3.961,5.319,7.171,5.319
			c0.72,0,1.46-0.109,2.19-0.329c3.96-1.21,6.19-5.4,4.99-9.36c-0.06-0.19-5.67-18.82-7.46-41.41
			c-1.54-19.559-0.44-45.939,13.229-62c4.101,1.61,14.25,10.01,22.971,23.59c7.38,11.49,10.72,22.141,8.71,27.8
			c-7.351,20.7-16.051,32.32-16.12,32.421c-2.521,3.289-1.891,7.989,1.399,10.51c3.29,2.52,7.99,1.89,10.511-1.4
			c0.02-0.03,0.069-0.09,0.13-0.17c1.31,4.191,2.7,9.4,3.819,14.46C440.271,393.048,442.931,395.298,446.011,395.659z"/>
		<path style="fill:#666564;" d="M314.811,176.218c-18.92-1.15-44.489-2.43-64.199-2.5c-7.691-5.04-34.17-22.35-63.92-41.2
			c13.27-14.63,19.079-19.33,21.26-20.81C233.571,120.268,285.561,155.548,314.811,176.218z"/>
		<path style="fill:#666564;" d="M221.011,182.538c-8.64,2.85-18.67,6.23-28.74,9.75c-57.34,20.06-60.199,25.199-62.1,28.609
			c-3.22,5.801-10.47,30.09-16.66,51.99c-0.05-0.189-0.09-0.37-0.14-0.55c-6.67-25.811-19.311-46.2-36.731-59.37
			c6.91-21.16,15.65-44.09,19.851-50.05C123.451,161.258,185.621,174.388,221.011,182.538z"/>
		<path style="fill:#7B7977;" d="M312.321,156.138c-31.63-21.96-78.181-52.439-102.21-59.47c-5.13-1.5-10.191,1.2-20.07,10.689
			c-4.25,4.08-9.37,9.45-15.23,15.94c2.671-36.37-11.48-70.55-19.319-86.34c5.859-1.2,13.83-2.721,22.24-3.971
			c29.739-4.449,38.01-1.739,39.779-0.84C226.001,37.138,269.061,94.858,312.321,156.138z"/>
		<path style="fill:#7B7977;" d="M75.681,85.539c9.681,1.439,70.49,38.449,133.101,78.84c-37.931-8.351-91.46-18.63-115.86-16.22
			c-5.479,0.54-9.04,5.72-13,13.909c-2.53,5.24-5.5,12.42-8.83,21.341c-0.32,0.859-0.64,1.72-0.95,2.579
			c-11.069-34.699-36.989-61.1-50.189-72.829c4.99-3.301,11.819-7.681,19.149-11.99C65.021,85.938,73.711,85.358,75.681,85.539z"/>
		<path style="fill:#7B7977;" d="M331.471,192.338l-33.1,82.2l-42.14,3.12v-88.9C282.281,189.108,315.982,191.258,331.471,192.338z"
			/>
		<path style="fill:#7B7977;" d="M241.232,191.699v88.899l-76.101,45.66c-12.229-17.53-30.57-23.03-44.3-23.62
			c7.74-28.43,18.66-66.63,22.189-73.939C149.841,222.898,196.291,206.068,241.232,191.699z"/>
		<path style="fill:#3D484A;" d="M112.091,318.088c-0.17,0.03-0.34,0.05-0.52,0.07c-0.061,0-0.12,0.01-0.181,0.01
			c-0.21,0.02-0.409,0.02-0.62,0.02c-0.029,0-0.06,0-0.09,0c-0.29-0.01-0.569-0.029-0.859-0.069c-3.761-0.54-6.53-3.811-6.431-7.61
			c0.011-0.61,0.9-61.82-39.59-88.24c-0.189-0.13-0.38-0.26-0.56-0.39c-1.021-0.78-1.79-1.78-2.28-2.891
			c-0.32-0.71-0.52-1.47-0.61-2.26c-0.02-0.229-0.04-0.47-0.04-0.7c-1.569-54.93-56.76-97.069-57.319-97.489
			c-1.91-1.45-3.03-3.721-2.99-6.11c0.04-2.4,1.22-4.63,3.18-6.02c8.92-6.29,54.4-37.58,73.92-35.801
			c3.65,0.33,11.931,1.091,83.021,45.23c0.59-41.65-22.12-79.82-22.37-80.23c-1.24-2.06-1.42-4.58-0.49-6.79
			c0.931-2.21,2.86-3.84,5.19-4.39c10.63-2.5,64.5-14.54,81.95-5.6c3.449,1.769,11.519,5.909,69.22,85.46
			c28.04,38.67,54.48,76.83,54.75,77.21c1.43,2.08,1.73,4.739,0.79,7.08l-37.34,92.71l10.189,19.76
			c22.74-3.771,45.05-0.37,59.45,6.32c2.53-13.53,7.65-26.33,16.85-36.24c2.171-2.33,8.431-7.021,19.74-0.17
			c16.92,10.25,43.72,46.05,35.9,68.09c-2.851,8.05-5.891,14.85-8.66,20.32c3.14,5.17,5.91,14.8,7.65,21.819
			c1.329-0.489,2.819-0.6,4.31-0.25c4.03,0.971,6.51,5.011,5.54,9.04l-4.71,19.681c-1.41,5.899-5.05,10.89-10.23,14.04
			c-3.58,2.18-7.6,3.3-11.689,3.3c-1.82,0-3.66-0.221-5.47-0.67l-4.15-1.03c-4.41,4.93-15.37,13.07-39.83,13.51
			c-11.82,0.21-26.19,2.391-40.09,4.5c-14,2.12-27.22,4.12-37.58,4.12c-12.79,0-33.61-6.07-50.18-23.18
			c-11.36-11.73-24.61-33.11-24.141-68.8l-30.43-11.41h-47.78c-1.06,3.229-2.76,8.22-5.52,16.149c-1.07,3.09-3.98,5.03-7.08,5.03
			c-0.82,0-1.65-0.13-2.46-0.41c-3.92-1.37-5.98-5.64-4.62-9.55c1.04-2.99,2.12-6.13,3.1-9.01l-12.93,4.31v11.83
			c0,4.14-3.36,7.5-7.5,7.5c-4.14,0-7.5-3.36-7.5-7.5v-17.229c0-3.23,2.07-6.101,5.13-7.12l25.84-8.61
			c0.771-0.26,1.57-0.39,2.38-0.39h2.58c-14.67-14.41-34.71-11.141-35.72-10.96C112.171,318.079,112.131,318.088,112.091,318.088z
			 M443.491,406.168l2.52-10.51c-3.08-0.36-5.74-2.61-6.45-5.81c-1.119-5.06-2.51-10.27-3.819-14.46
			c-0.061,0.08-0.11,0.14-0.13,0.17c-2.521,3.29-7.221,3.92-10.511,1.4c-3.29-2.521-3.92-7.221-1.399-10.51
			c0.069-0.101,8.77-11.721,16.12-32.421c2.01-5.659-1.33-16.31-8.71-27.8c-8.721-13.58-18.87-21.979-22.971-23.59
			c-13.67,16.061-14.77,42.441-13.229,62c1.79,22.59,7.399,41.22,7.46,41.41c1.2,3.96-1.03,8.15-4.99,9.36
			c-0.73,0.22-1.47,0.329-2.19,0.329c-3.21,0-6.19-2.09-7.171-5.319c-0.64-2.101-10.199-34.2-8.43-66.99
			c-11.649-7.58-45.189-14.9-76.109-1.53l10.439,8.95c3.14,2.69,3.51,7.43,0.811,10.57c-1.48,1.729-3.58,2.62-5.7,2.62
			c-1.721,0-3.46-0.59-4.87-1.801l-56.21-48.18l-58.3,34.98h16c0.899,0,1.8,0.16,2.64,0.479l68.92,25.851
			c3.88,1.449,5.84,5.77,4.39,9.649c-1.13,3.01-3.989,4.87-7.02,4.87c-0.88,0-1.771-0.15-2.64-0.479l-22.171-8.31
			c0.671,22.05,7.32,39.77,19.86,52.71c14.27,14.73,32.02,18.62,39.41,18.62c9.229,0,21.91-1.92,35.33-3.96
			c14.38-2.17,29.26-4.42,42.07-4.66c10.149-0.18,16.979-1.859,21.489-3.72c-2.34-1.76-3.529-4.8-2.79-7.811
			c1-4.02,5.061-6.479,9.08-5.479l20.07,4.97c1.979,0.49,4.03,0.17,5.77-0.89C441.801,409.818,443.021,408.148,443.491,406.168z
			 M298.371,274.539l33.1-82.2c-15.489-1.08-49.189-3.23-75.239-3.58v88.9L298.371,274.539z M306.982,304.638l-7.79-15.12
			l-30.82,2.28l22.649,19.42C296.201,308.528,301.551,306.348,306.982,304.638z M250.611,173.718c19.71,0.07,45.279,1.35,64.199,2.5
			c-29.25-20.67-81.239-55.95-106.859-64.51c-2.181,1.479-7.99,6.18-21.26,20.81C216.441,151.369,242.921,168.678,250.611,173.718z
			 M210.111,96.668c24.029,7.03,70.58,37.51,102.21,59.47c-43.261-61.28-86.32-119-94.811-123.99
			c-1.77-0.899-10.04-3.609-39.779,0.84c-8.41,1.25-16.381,2.77-22.24,3.971c7.84,15.79,21.99,49.97,19.319,86.34
			c5.86-6.49,10.98-11.86,15.23-15.94C199.921,97.869,204.982,95.168,210.111,96.668z M241.232,280.598v-88.899
			c-44.941,14.369-91.391,31.199-98.211,37c-3.529,7.31-14.449,45.51-22.189,73.939c13.729,0.59,32.07,6.09,44.3,23.62
			L241.232,280.598z M192.271,192.288c10.07-3.52,20.101-6.9,28.74-9.75c-35.39-8.15-97.56-21.28-124.52-19.62
			c-4.2,5.96-12.94,28.89-19.851,50.05c17.42,13.17,30.061,33.56,36.731,59.37c0.05,0.18,0.09,0.36,0.14,0.55
			c6.19-21.9,13.44-46.189,16.66-51.99C132.071,217.488,134.931,212.348,192.271,192.288z M208.781,164.378
			c-62.61-40.391-123.42-77.4-133.101-78.84c-1.97-0.181-10.66,0.399-36.58,15.63c-7.33,4.31-14.159,8.689-19.149,11.99
			c13.2,11.729,39.12,38.13,50.189,72.829c0.311-0.859,0.63-1.72,0.95-2.579c3.33-8.921,6.3-16.101,8.83-21.341
			c3.96-8.189,7.521-13.369,13-13.909C117.321,145.749,170.851,156.028,208.781,164.378z"/>
	</g>
</g>
<g>
</g>
<g>
</g>
<g>
</g>
<g>
</g>
<g>
</g>
<g>
</g>
<g>
</g>
<g>
</g>
<g>
</g>
<g>
</g>
<g>
</g>
<g>
</g>
<g>
</g>
<g>
</g>
<g>
</g>
</svg>
