<?xml version="1.0" encoding="iso-8859-1"?>
<!-- Generator: Adobe Illustrator 19.0.0, SVG Export Plug-In . SVG Version: 6.00 Build 0)  -->
<svg version="1.1" id="Capa_1" xmlns="http://www.w3.org/2000/svg" xmlns:xlink="http://www.w3.org/1999/xlink" x="0px" y="0px"
	 viewBox="0 0 463.001 463.001" style="enable-background:new 0 0 463.001 463.001;" xml:space="preserve">
<g>
	<g id="XMLID_85_">
		<g>
			<path style="fill:#736B54;" d="M353.801,114.81c-1.76,15.37-5.71,40.801-12.02,74.24c-7.641,40.5-14.601,70.9-18.33,83.15
				c-15.46-7.75-26.04-11.53-33.84-12.11c2.76-15.149,2.689-29.66,1.08-43.14c7.829-15.08,32.079-74.59,43.25-102.59
				C340.542,114.56,347.162,114.7,353.801,114.81z"/>
			<path style="fill:#736B54;" d="M186.261,100.77c-1.399,3.841-2.99,7.641-4,10.07c-0.79,1.87-1.55,3.68-2.22,5.37
				c-3.36,8.39-3.66,34.79-3.03,83.75c0.08,6.5,0.17,13.13,0.181,18.15c-16.591-4.38-33.57-5.37-44.381-5.87
				c0.061-1.8,0.091-3.32,0.11-4.46c0.21-13.73-0.51-27.311-2.02-39.53c3.449-7.9,14.46-29.11,23.39-46.32
				c4.84-9.319,9.42-18.149,12.58-24.41C173.282,98.66,179.752,99.74,186.261,100.77z"/>
			<path style="fill:#8C836B;" d="M439.551,307.46c5.181,7.64,5.48,17.49,0.76,25.1c-7.579,12.23-25.71,35.66-61.989,55.28
				c-39.45,21.34-88.84,32.16-146.82,32.16c-40.07,0-75.85-5.76-106.35-17.12c-26.061-9.71-48.311-23.5-66.15-40.99
				c-32.44-31.8-44-69.609-44-94.39c0-30.97,10.5-50.51,23.79-75.24c7.55-14.05,16.11-29.97,23.729-50.109
				C82.702,88.77,96.891,67,111.502,67c7.12,0,11.76,3.91,14.38,7.15c-8.86,9.39-24.61,33.02-13.64,75.239
				c9,34.62,5.85,88.16,0.55,98.761c-1.85,3.699-0.35,8.21,3.36,10.06c3.699,1.85,8.21,0.35,10.06-3.36
				c3.16-6.319,4.83-17.51,5.72-27.64c14.301,0.67,43.58,2.45,62.301,13.85c-7.77,17.181-17.27,29.65-24.29,37.41
				c-2.78,3.07-2.54,7.811,0.529,10.59c3.07,2.78,7.811,2.54,10.59-0.529c15.091-16.67,40.591-52.98,41.94-108.851
				c0.54-22.3,4.03-45.229,9.57-62.93c6.55-20.9,13.21-25.68,15.22-25.76c6.8-0.25,11.36,1.17,14.18,2.6
				c-4.819,10.34-12.75,32.601-5.649,56.08c1.359,4.5,3.199,9.62,5.14,15.03c10.68,29.81,26.83,74.85,3.29,123.54
				c-1.81,3.72-0.24,8.21,3.49,10.01c1.05,0.51,2.16,0.75,3.25,0.75c2.79,0,5.47-1.56,6.76-4.24c3.24-6.7,5.81-13.35,7.79-19.899
				c0.479,0.09,0.96,0.14,1.46,0.14c9.94,0,32.6,12.23,40.04,16.25c9.979,5.39,22.08,4.99,31.58-1.03l2.63-1.67
				c14.26-9.069,40.79-25.939,51.09-22.04c1.76,0.67,3.7,0.65,5.45-0.05c4.89-1.95,8.61-1.49,11.36,1.43
				c3.569,3.771,4.199,9.98,3.05,12.44C429.532,287.13,431.771,296.01,439.551,307.46z M423.502,308.5c0-5.65-4.6-10.25-10.25-10.25
				s-10.25,4.6-10.25,10.25c0,5.65,4.6,10.25,10.25,10.25S423.502,314.151,423.502,308.5z"/>
			<path style="fill:#3D484A;" d="M462.462,72.71c1.54,3.85-0.33,8.21-4.17,9.75l-80,32c-0.89,0.36-1.84,0.54-2.79,0.54
				c-2.22,0-4.42-0.02-6.64-0.03c-2.9,27.07-11.5,72.55-13.57,83.351c-4.16,21.6-8.44,41.979-12.08,57.37
				c-2.77,11.75-4.75,18.89-6.25,23.369c4.69,1.681,9.91,1.171,14.12-1.5l2.62-1.67c19.87-12.63,44.33-28.189,61.59-24.27
				c9.68-3,18.78-0.89,25.26,5.97c7.23,7.65,9.76,20.37,5.78,29c-0.04,0.34-0.28,3.75,5.63,12.45c8.5,12.52,8.93,28.78,1.1,41.43
				c-8.369,13.49-28.27,39.29-67.6,60.57c-41.67,22.53-93.46,33.96-153.96,33.96c-41.87,0-79.41-6.08-111.59-18.07
				c-28.04-10.44-52.061-25.359-71.41-44.319c-35.76-35.061-48.5-77.29-48.5-105.11c0-34.75,11.85-56.8,25.58-82.34
				c7.689-14.311,15.64-29.101,22.9-48.311c9.64-25.489,18.489-45.869,27.89-60.279c-47.101-13.721-71.2-25.84-72.271-26.38
				C0.412,48.31-1.058,43.8,0.811,40.1c1.881-3.689,6.391-5.159,10.08-3.29c0.32,0.16,26.101,13.061,75.49,27.03
				c7.58-7.75,15.76-11.84,25.12-11.84c22.03,0,30.56,19.76,30.92,20.6c0.68,1.62,0.75,3.37,0.29,4.971
				c5.61,1.17,11.28,2.29,17,3.37c4.58-5.25,9.58-7.681,13.47-8.771c7.74-2.18,16.83-0.7,24.29,3.97c4.57,2.86,6.41,7.15,6.59,12.16
				c7.61,1.09,15.301,2.101,23.03,3.03c5.8-9.89,12.53-15.03,20.12-15.32c20.62-0.819,29.309,9.721,30.23,10.92
				c1.899,2.46,2.079,5.83,0.46,8.471c-0.011,0.029-0.2,0.35-0.5,0.899c15.27,1.17,30.8,2.07,46.5,2.69
				c0.77-1.98,1.3-3.36,1.54-4.01c1.05-2.94,3.76-6.881,10.69-8.921c10.71-3.149,24.13-0.479,29.94,4
				c3.31,2.54,3.569,6.65,3.689,8.41c0.03,0.471,0.05,0.971,0.061,1.5c0.779,0.011,1.56,0.021,2.35,0.021l38.07-45.63
				c0.54-0.641,1.18-1.19,1.91-1.63l39.5-23.66c3.55-2.13,8.149-0.98,10.279,2.58c2.13,3.55,0.98,8.149-2.58,10.279L420.942,64.95
				l-20.41,24.46l52.18-20.87C456.561,67,460.922,68.87,462.462,72.71z M440.311,332.56c4.721-7.609,4.421-17.46-0.76-25.1
				c-7.78-11.45-10.02-20.33-6.85-27.13c1.149-2.46,0.52-8.67-3.05-12.44c-2.75-2.92-6.471-3.38-11.36-1.43
				c-1.75,0.7-3.69,0.72-5.45,0.05c-10.3-3.899-36.83,12.971-51.09,22.04l-2.63,1.67c-9.5,6.021-21.601,6.42-31.58,1.03
				c-7.44-4.02-30.1-16.25-40.04-16.25c-0.5,0-0.98-0.05-1.46-0.14c-1.98,6.55-4.55,13.199-7.79,19.899
				c-1.29,2.681-3.97,4.24-6.76,4.24c-1.09,0-2.2-0.24-3.25-0.75c-3.73-1.8-5.3-6.29-3.49-10.01c23.54-48.69,7.39-93.73-3.29-123.54
				c-1.94-5.41-3.78-10.53-5.14-15.03c-7.101-23.479,0.83-45.74,5.649-56.08c-2.819-1.43-7.38-2.85-14.18-2.6
				c-2.01,0.08-8.67,4.859-15.22,25.76c-5.54,17.7-9.03,40.63-9.57,62.93c-1.35,55.87-26.85,92.181-41.94,108.851
				c-2.779,3.069-7.52,3.31-10.59,0.529c-3.069-2.779-3.31-7.52-0.529-10.59c7.02-7.76,16.52-20.229,24.29-37.41
				c-18.721-11.399-48-13.18-62.301-13.85c-0.89,10.13-2.56,21.32-5.72,27.64c-1.85,3.71-6.36,5.21-10.06,3.36
				c-3.71-1.85-5.21-6.36-3.36-10.06c5.3-10.601,8.45-64.141-0.55-98.761c-10.971-42.22,4.779-65.85,13.64-75.239
				c-2.62-3.24-7.26-7.15-14.38-7.15c-14.61,0-28.8,21.77-48.981,75.15c-7.619,20.14-16.18,36.06-23.729,50.109
				c-13.29,24.73-23.79,44.27-23.79,75.24c0,24.78,11.56,62.59,44,94.39c17.84,17.49,40.09,31.28,66.15,40.99
				c30.5,11.36,66.279,17.12,106.35,17.12c57.98,0,107.37-10.82,146.82-32.16C414.601,368.22,432.732,344.79,440.311,332.56z
				 M341.782,189.05c6.31-33.439,10.26-58.87,12.02-74.24c-6.64-0.109-13.26-0.25-19.859-0.449
				c-11.171,28-35.421,87.51-43.25,102.59c1.609,13.479,1.68,27.99-1.08,43.14c7.8,0.58,18.38,4.36,33.84,12.11
				C327.181,259.95,334.141,229.55,341.782,189.05z M285.822,191.57c9.6-22.11,23.63-56.471,32.199-77.811
				c-15.729-0.68-31.27-1.64-46.55-2.88c-2.77,9.351-4.6,21.87-0.79,34.45c1.25,4.14,2.94,8.85,4.9,14.309
				C278.801,168.63,282.672,179.42,285.822,191.57z M218.261,112.26c0.73-2.319,1.48-4.529,2.25-6.63
				c-6.42-0.8-12.81-1.66-19.14-2.57c-1.52,4.601-3.46,9.24-5.28,13.57c-0.75,1.8-1.479,3.53-2.13,5.16
				c-2.85,7.14-2.25,54.98-1.95,77.98c0.141,11.171,0.23,18.75,0.15,23.421c2.62,1.119,5.16,2.369,7.609,3.739
				c4.58-13.6,7.79-29.46,8.23-47.609C208.572,155.68,212.311,131.24,218.261,112.26z M182.261,110.84
				c1.01-2.43,2.601-6.229,4-10.07c-6.51-1.029-12.98-2.109-19.39-3.25c-3.16,6.261-7.74,15.091-12.58,24.41
				c-8.93,17.21-19.94,38.42-23.39,46.32c1.51,12.22,2.229,25.8,2.02,39.53c-0.02,1.14-0.05,2.66-0.11,4.46
				c10.811,0.5,27.79,1.49,44.381,5.87c-0.011-5.021-0.101-11.65-0.181-18.15c-0.63-48.96-0.33-75.36,3.03-83.75
				C180.712,114.52,181.471,112.71,182.261,110.84z M140.982,115.02c3.88-7.479,7.6-14.64,10.529-20.38
				c-6.569-1.279-13.069-2.62-19.49-4.01c-1.069,1.66-2.149,3.55-3.159,5.7c-6.13,13.1-6.99,28.99-2.601,47.24
				C130.622,134.99,135.841,124.92,140.982,115.02z"/>
			<path style="fill:#3D484A;" d="M413.252,298.25c5.65,0,10.25,4.6,10.25,10.25c0,5.65-4.6,10.25-10.25,10.25
				s-10.25-4.6-10.25-10.25C403.002,302.85,407.601,298.25,413.252,298.25z"/>
		</g>
	</g>
</g>
<g>
</g>
<g>
</g>
<g>
</g>
<g>
</g>
<g>
</g>
<g>
</g>
<g>
</g>
<g>
</g>
<g>
</g>
<g>
</g>
<g>
</g>
<g>
</g>
<g>
</g>
<g>
</g>
<g>
</g>
</svg>
