<?xml version="1.0" encoding="iso-8859-1"?>
<!-- Generator: Adobe Illustrator 19.0.0, SVG Export Plug-In . SVG Version: 6.00 Build 0)  -->
<svg version="1.1" id="Capa_1" xmlns="http://www.w3.org/2000/svg" xmlns:xlink="http://www.w3.org/1999/xlink" x="0px" y="0px"
	 viewBox="0 0 462.997 462.997" style="enable-background:new 0 0 462.997 462.997;" xml:space="preserve">
<g id="XMLID_87_">
	<g>
		<path style="fill:#5C5A53;" d="M388.08,343.183h-32.37c-1.22,0-2.29-0.32-3.03-0.891c-24.74-19.08-48.69-67.5-54.61-80.02
			c7.17,0.26,26.99,1.08,46.27,2.649c0.36,1.181,5.72,18.62,12.39,36.391c12.88,34.35,19.35,40.87,26.77,40.87
			C385.56,342.183,387.02,342.573,388.08,343.183z"/>
		<path style="fill:#5C5A53;" d="M158.51,343.183h-42.43c-10.7-22.04-12.65-46.28-13-54c8.94,2.04,23.88,4.31,40.92,5.029v32.471
			c0,4.14,3.36,7.5,7.5,7.5C154.99,334.183,157.21,338.703,158.51,343.183z"/>
		<path style="fill:#716E65;" d="M380.14,147.193c1.2,3.42,2.47,7.25,3.4,10.63c-2,1.6-5.96,3.9-10.57,6.17
			c-0.37-3.68-0.27-7.41,0.96-9.45C375.42,152.052,377.76,149.462,380.14,147.193z"/>
		<path style="fill:#716E65;" d="M300.02,141.393c6.93,22.33,21.35,68.81,6.18,83.979c-22.35,22.36-50.97,84.8-50.2,109.54
			c0.13,4.05,3.45,7.271,7.5,7.271c2.08,0,3.72,0.329,4.96,1h-39.27c-3.76-14.31-12.98-54.81-6.34-86.99
			c1.38-6.72,2.9-14.601,4.5-22.94c4.15-21.55,9.31-48.37,15.16-69.93c8.92-32.91,15.1-37.33,16.24-37.88
			c11.68-5.62,24.77-7.23,31.83-3.92c3.02,1.41,4.81,3.63,5.64,6.98C297.04,131.783,298.43,136.233,300.02,141.393z"/>
		<path style="fill:#716E65;" d="M82.04,239.033c23.08-4.18,29.06-0.95,29.96-0.32c-0.05,16.84-38.07,64.691-62.04,90.91
			c-1.77,1.94-2.77,4.55-2.02,7.07c0.73,2.46,2.31,4.26,4.75,4.96c0.3,0.189,0.89,0.63,1.5,1.53H22.83
			c0.02-4.4,0.2-10.78,0.88-18.841c1.26-15.01,4.52-39.08,12.92-68.52c0.66-2.33,2.39-4.28,4.64-5.24
			C49.69,246.983,66.39,241.863,82.04,239.033z"/>
		<path style="fill:#FFFFFF;" d="M424.85,218.453l20.76,20.91l-17.59,23.46c-7.92-0.82-26.1-3.021-42.6-7.39
			c-17.53-4.641-58.14-6.931-78.17-7.811c3.31-4.68,6.54-8.63,9.55-11.64c21.58-21.57,6.54-70.061-2.45-99.03
			c-0.81-2.63-1.57-5.06-2.2-7.2c22.87,4.44,40.71,11.431,49.91,15.51c-0.34,0.521-0.68,1.03-0.99,1.561
			c-6.42,10.7-1.72,26.979-0.72,30.14c0.64,1.99,2.08,3.63,3.97,4.511c1.01,0.47,2.09,0.71,3.18,0.71c0.96,0,1.92-0.19,2.83-0.561
			c0.28-0.11,6.77-2.77,13.2-6.2c5.95-3.18,11.49-6.68,14.06-10.989c10.99,9.75,17.08,21.54,20.42,31.069
			c0,0.19,0.01,0.391,0.03,0.59c0.32,3.24-4.13,12.141-8.33,18.091c-2.39,3.38-1.59,8.06,1.79,10.449
			c1.32,0.931,2.83,1.38,4.33,1.38c2.35,0,4.66-1.1,6.13-3.17C422.63,221.893,423.68,220.363,424.85,218.453z"/>
		<path style="fill:#FFFFFF;" d="M239.76,126.393c-10.28,19.85-18.1,57.08-27.14,104.029c-1.59,8.29-3.1,16.11-4.47,22.74
			c-1.25,6.1-2.01,12.42-2.38,18.77c-30.38,11.29-73.37,7.579-94.24,3.69c15.45-24.08,15.47-33.35,15.47-36.94
			c0-5.19-2.42-9.65-6.83-12.561c-17.86-11.8-71.27,4.89-84.79,10.66c-6.46,2.76-11.26,8.2-13.18,14.92
			c-1.02,3.58-1.97,7.08-2.85,10.51c-2.36-4.059-4.35-9.33-4.35-15.529c0-7.82,8.76-54.761,50.4-89.03
			C106.47,123.863,165.11,113.363,239.76,126.393z"/>
		<path style="fill:#3D484A;" d="M460.82,233.393c2.62,2.64,2.91,6.81,0.68,9.79l-24,32c-1.42,1.89-3.65,3-6,3
			c-0.2,0-0.39-0.011-0.59-0.03c-1.06-0.08-26.27-2.12-49.33-8.22c-5.1-1.351-12.58-2.5-21.04-3.46
			c8.42,26.489,19.53,54.989,24.78,60.76c15.53,0.97,21.49,14.25,21.68,23.29c0.04,2.02-0.73,3.97-2.14,5.41
			c-1.41,1.44-3.34,2.25-5.36,2.25h-43.79c-4.58,0-8.79-1.391-12.19-4.011c-22.91-17.67-44.01-55.47-54.19-75.59
			c-1.18,2.43-2.35,4.92-3.5,7.45c-7.52,16.57-12.76,32.18-14.35,42.26c4.32,1.311,7.27,3.55,9.18,5.54
			c6.57,6.84,6.38,16.12,6.33,17.16c-0.16,4.02-3.47,7.19-7.49,7.19h-56c-3.29,0-6.2-2.15-7.17-5.29
			c-0.52-1.69-9.69-31.891-10.74-65.08c-14.58,4.529-30.96,6.35-46.59,6.609v26.27c4.62,1.95,9.65,6.27,12.98,15.42
			c2.49,6.82,2.96,13.38,3.01,14.1c0.12,2.07-0.61,4.09-2.02,5.601c-1.42,1.51-3.4,2.37-5.47,2.37h-56
			c-2.75,0-5.28-1.511-6.59-3.931c-9.16-16.88-13.35-35.09-15.28-48.359c-9.36,11.869-18.22,22.159-23.54,28.189
			c2.75,3.75,4.91,9.17,4.91,16.601c0,4.14-3.36,7.5-7.5,7.5h-48c-3.93,0-7.2-3.04-7.48-6.96c-0.1-1.341-1.84-27.94,6.99-70.381
			C9.92,275.873,0,263.973,0,246.683c0-10.841,9.94-62.82,55.87-100.61c20.98-17.271,46.51-29.11,75.87-35.191
			c34.31-7.12,74.19-6.37,118.54,2.19c0.65-0.43,1.3-0.83,1.97-1.15c19.35-9.319,35.78-8.16,44.7-3.979
			c2.89,1.35,5.38,3.13,7.47,5.27c34.18,5.11,59.51,16.19,68.3,20.431c3.26-2.83,5.92-4.71,6.49-5.12
			c1.88-1.311,4.26-1.69,6.45-1.021c2.2,0.66,3.97,2.28,4.81,4.42c0.15,0.36,2.27,5.74,4.45,12.09c0.15,0.08,0.3,0.15,0.45,0.25
			c33.3,20.08,40.03,54.48,41.33,64.83L460.82,233.393z M445.61,239.363l-20.76-20.91c-1.17,1.91-2.22,3.44-2.89,4.39
			c-1.47,2.07-3.78,3.17-6.13,3.17c-1.5,0-3.01-0.449-4.33-1.38c-3.38-2.39-4.18-7.069-1.79-10.449
			c4.2-5.95,8.65-14.851,8.33-18.091c-0.02-0.199-0.03-0.399-0.03-0.59c-3.34-9.529-9.43-21.319-20.42-31.069
			c-2.57,4.31-8.11,7.81-14.06,10.989c-6.43,3.431-12.92,6.09-13.2,6.2c-0.91,0.37-1.87,0.561-2.83,0.561
			c-1.09,0-2.17-0.24-3.18-0.71c-1.89-0.881-3.33-2.52-3.97-4.511c-1-3.16-5.7-19.439,0.72-30.14c0.31-0.53,0.65-1.04,0.99-1.561
			c-9.2-4.079-27.04-11.069-49.91-15.51c0.63,2.141,1.39,4.57,2.2,7.2c8.99,28.97,24.03,77.46,2.45,99.03
			c-3.01,3.01-6.24,6.96-9.55,11.64c20.03,0.88,60.64,3.17,78.17,7.811c16.5,4.369,34.68,6.569,42.6,7.39L445.61,239.363z
			 M355.71,343.183h32.37c-1.06-0.61-2.52-1-4.58-1c-7.42,0-13.89-6.521-26.77-40.87c-6.67-17.771-12.03-35.21-12.39-36.391
			c-19.28-1.569-39.1-2.39-46.27-2.649c5.92,12.52,29.87,60.939,54.61,80.02C353.42,342.863,354.49,343.183,355.71,343.183z
			 M383.54,157.823c-0.93-3.38-2.2-7.21-3.4-10.63c-2.38,2.27-4.72,4.859-6.21,7.35c-1.23,2.04-1.33,5.77-0.96,9.45
			C377.58,161.723,381.54,159.422,383.54,157.823z M306.2,225.373c15.17-15.17,0.75-61.649-6.18-83.979
			c-1.59-5.16-2.98-9.61-3.8-12.891c-0.83-3.35-2.62-5.569-5.64-6.98c-7.06-3.311-20.15-1.7-31.83,3.92
			c-1.14,0.55-7.32,4.97-16.24,37.88c-5.85,21.559-11.01,48.38-15.16,69.93c-1.6,8.34-3.12,16.221-4.5,22.94
			c-6.64,32.18,2.58,72.68,6.34,86.99h39.27c-1.24-0.671-2.88-1-4.96-1c-4.05,0-7.37-3.221-7.5-7.271
			C255.23,310.172,283.85,247.733,306.2,225.373z M212.62,230.422c9.04-46.949,16.86-84.18,27.14-104.029
			c-74.65-13.03-133.29-2.53-174.36,31.26c-41.64,34.27-50.4,81.21-50.4,89.03c0,6.199,1.99,11.47,4.35,15.529
			c0.88-3.43,1.83-6.93,2.85-10.51c1.92-6.72,6.72-12.16,13.18-14.92c13.52-5.771,66.93-22.46,84.79-10.66
			c4.41,2.91,6.83,7.37,6.83,12.561c0,3.59-0.02,12.859-15.47,36.94c20.87,3.89,63.86,7.601,94.24-3.69
			c0.37-6.351,1.13-12.671,2.38-18.77C209.52,246.533,211.03,238.712,212.62,230.422z M116.08,343.183h42.43
			c-1.3-4.48-3.52-9-7.01-9c-4.14,0-7.5-3.36-7.5-7.5v-32.471c-17.04-0.72-31.98-2.989-40.92-5.029
			C103.43,296.903,105.38,321.143,116.08,343.183z M112,238.712c-0.9-0.63-6.88-3.859-29.96,0.32
			c-15.65,2.83-32.35,7.95-40.77,11.55c-2.25,0.96-3.98,2.91-4.64,5.24c-8.4,29.439-11.66,53.51-12.92,68.52
			c-0.68,8.061-0.86,14.44-0.88,18.841h31.36c-0.61-0.9-1.2-1.341-1.5-1.53c-2.44-0.7-4.02-2.5-4.75-4.96
			c-0.75-2.52,0.25-5.13,2.02-7.07C73.93,303.403,111.95,255.552,112,238.712z"/>
	</g>
</g>
<g>
</g>
<g>
</g>
<g>
</g>
<g>
</g>
<g>
</g>
<g>
</g>
<g>
</g>
<g>
</g>
<g>
</g>
<g>
</g>
<g>
</g>
<g>
</g>
<g>
</g>
<g>
</g>
<g>
</g>
</svg>
