<?xml version="1.0" encoding="iso-8859-1"?>
<!-- Generator: Adobe Illustrator 19.0.0, SVG Export Plug-In . SVG Version: 6.00 Build 0)  -->
<svg version="1.1" id="Capa_1" xmlns="http://www.w3.org/2000/svg" xmlns:xlink="http://www.w3.org/1999/xlink" x="0px" y="0px"
	 viewBox="0 0 462.267 462.267" style="enable-background:new 0 0 462.267 462.267;" xml:space="preserve">
<g id="XMLID_88_">
	<g>
		<path style="fill:#ECDDAF;" d="M192.814,301.755h-16.39c-5.66-8.22-11.02-24.38-12.01-35.56c4.86,0.06,8.59,0.5,11.18,0.971
			c1.13,5.2,4.32,12.989,11.75,25.64C189.204,295.975,191.084,299.015,192.814,301.755z"/>
		<path style="fill:#ECDDAF;" d="M129.944,301.755h-13.61c-3.06-6.01-5.87-16.5-6.58-24.25c1.22-0.39,2.41-0.78,3.54-1.19
			c3.37-1.22,6.59-2.279,9.69-3.229C123.934,282.265,126.574,293.076,129.944,301.755z"/>
		<path style="fill:#ECDDAF;" d="M15.104,292.185c11.31-0.88,31.66-2.689,52.09-5.7c0.53,4.851,1.77,10.37,3.4,15.27h-47.84
			c-1.57,0-5.73,0-7.75-9.42C14.994,292.286,14.994,292.255,15.104,292.185z"/>
		<path style="fill:#C76340;" d="M100.074,301.755h-13.39c-2.18-4.46-4.2-12.18-4.66-17.69c4.5-0.81,8.9-1.689,13.09-2.64
			C95.964,288.036,97.784,295.456,100.074,301.755z"/>
		<path style="fill:#C76340;" d="M159.224,301.755h-12.89c-4.15-7.96-7.96-22.46-8.63-32.54c4.27-0.92,8.19-1.59,11.74-2.05
			C150.334,277.855,154.194,291.315,159.224,301.755z"/>
		<path style="fill:#C76340;" d="M445.584,211.815l-9.16,9.17c-2.57-0.52-6.18-1.069-10.74-1.409c-0.82-0.921-5.06-6.4,2.68-14.32
			c2.9-2.97,2.84-7.72-0.12-10.61c-2.97-2.89-7.72-2.84-10.61,0.12c-8.44,8.64-9.91,17.57-8.28,24.71
			c-5.7,0.311-12.12,1.01-19.22,2.271c-1.4-2.66-2.29-10.92-1.43-19.191c0.44-4.12-2.54-7.82-6.66-8.25
			c-4.12-0.439-7.81,2.54-8.25,6.66c-0.03,0.23-0.6,5.68-0.32,11.96c0.42,9.74,2.61,16.36,6.7,20.25
			c-3.09,4.26-7.54,8.72-11.89,13.08c-6.23,6.229-12.66,12.67-16.21,19.58c-2.6,5.069-3.2,11.63-1.83,19.59l-8.14-10.86
			c-0.46-5.989-2.24-21.62-8.86-33.06c-2.08-3.59-6.67-4.811-10.25-2.74c-3.59,2.08-4.81,6.67-2.74,10.25
			c2.23,3.84,3.75,8.5,4.79,12.94l-27.1,6.769c-5.09-22.85-31.52-36.979-32.71-37.609c-3.67-1.921-8.2-0.511-10.13,3.159
			c-1.92,3.67-0.51,8.2,3.16,10.13c0.24,0.12,23.89,12.99,25.45,30.16c0.8,8.78-4.46,17.92-15.62,27.19h-57.4
			c-11.3-16.68-20.64-34.21-20.61-38.87c1.23-4.17,11.52-23.7,28.45-42.5c15.06-16.73,39.22-37.18,68.84-39.65
			c52.65-4.39,84.81-8.729,98.69-10.819c-0.16,2.5-0.11,5.13,0.25,7.85c0.51,3.76,3.73,6.5,7.43,6.5c0.33,0,0.67-0.03,1.01-0.07
			c4.1-0.56,6.98-4.329,6.43-8.439c-0.68-5.01,0.36-9.7,1.57-13.12c3.5,1.86,6.69,4.32,7.14,6.6c0.81,4.061,4.77,6.69,8.83,5.881
			c2.31-0.461,4.16-1.95,5.17-3.891c8.49,6.36,13.26,17.93,17.63,30.34l0.15,0.44C443.144,206.185,444.494,209.416,445.584,211.815z
			"/>
		<path style="fill:#3D484A;" d="M461.094,209.265c1.9,2.97,1.45,6.811-1.04,9.3l-16,16c-2.01,2.011-4.98,2.71-7.68,1.811
			c-0.1-0.03-14.48-4.46-40.35-0.4c-3.83,7.55-10.57,14.311-17.13,20.88c-5.41,5.41-11,11-13.47,15.83
			c-2.88,5.62,1.39,19.36,5.95,29.07h3.38c4.14,0,7.5,3.36,7.5,7.5c0,4.149-3.36,7.5-7.5,7.5h-16c-2.37,0-4.59-1.11-6-3l-24-32
			c-0.93-1.22-1.45-2.7-1.5-4.24c0-0.01-0.01-0.25-0.03-0.64l-29.31,7.319c-1.39,6.091-4.42,12.051-9.06,17.87
			c3.12,0.91,5.4,3.78,5.4,7.19c0,4.149-3.36,7.5-7.5,7.5h-264c-11.36,0-19.52-7.75-22.42-21.28c-0.91-4.28,0.06-8.74,2.67-12.229
			c2.61-3.49,6.59-5.681,10.94-6.021c15.71-1.21,68.93-5.88,94.26-15.019c35.8-12.92,59.11-11.731,70.07-9.771
			c10.92-22.76,50.99-81.91,107.85-86.649c62.74-5.23,96.76-10.5,103.88-11.67c1.37-3.101,2.58-5,2.71-5.2
			c1.81-2.771,5.21-4.03,8.39-3.101c1.1,0.32,6.71,2.07,12.22,5.67c27.58,3.17,36.79,29.32,42.35,45.101l0.15,0.43
			C458.824,205.555,461.074,209.225,461.094,209.265z M436.424,220.985l9.16-9.17c-1.09-2.399-2.44-5.63-3.91-9.81l-0.15-0.44
			c-4.37-12.41-9.14-23.98-17.63-30.34c-1.01,1.941-2.86,3.43-5.17,3.891c-4.06,0.809-8.02-1.82-8.83-5.881
			c-0.45-2.279-3.64-4.739-7.14-6.6c-1.21,3.42-2.25,8.11-1.57,13.12c0.55,4.11-2.33,7.88-6.43,8.439
			c-0.34,0.04-0.68,0.07-1.01,0.07c-3.7,0-6.92-2.74-7.43-6.5c-0.36-2.72-0.41-5.35-0.25-7.85c-13.88,2.09-46.04,6.43-98.69,10.819
			c-29.62,2.471-53.78,22.92-68.84,39.65c-16.93,18.8-27.22,38.33-28.45,42.5c-0.03,4.66,9.31,22.19,20.61,38.87h57.4
			c11.16-9.27,16.42-18.41,15.62-27.19c-1.56-17.17-25.21-30.04-25.45-30.16c-3.67-1.93-5.08-6.46-3.16-10.13
			c1.93-3.67,6.46-5.08,10.13-3.159c1.19,0.63,27.62,14.76,32.71,37.609l27.1-6.769c-1.04-4.44-2.56-9.101-4.79-12.94
			c-2.07-3.58-0.85-8.17,2.74-10.25c3.58-2.07,8.17-0.85,10.25,2.74c6.62,11.439,8.4,27.07,8.86,33.06l8.14,10.86
			c-1.37-7.96-0.77-14.521,1.83-19.59c3.55-6.91,9.98-13.351,16.21-19.58c4.35-4.36,8.8-8.82,11.89-13.08
			c-4.09-3.89-6.28-10.51-6.7-20.25c-0.28-6.28,0.29-11.73,0.32-11.96c0.44-4.12,4.13-7.1,8.25-6.66c4.12,0.43,7.1,4.13,6.66,8.25
			c-0.86,8.271,0.03,16.53,1.43,19.191c7.1-1.261,13.52-1.96,19.22-2.271c-1.63-7.14-0.16-16.07,8.28-24.71
			c2.89-2.96,7.64-3.01,10.61-0.12c2.96,2.891,3.02,7.641,0.12,10.61c-7.74,7.92-3.5,13.399-2.68,14.32
			C430.244,219.916,433.854,220.465,436.424,220.985z M176.424,301.755h16.39c-1.73-2.74-3.61-5.78-5.47-8.95
			c-7.43-12.65-10.62-20.439-11.75-25.64c-2.59-0.471-6.32-0.91-11.18-0.971C165.404,277.375,170.764,293.536,176.424,301.755z
			 M146.334,301.755h12.89c-5.03-10.44-8.89-23.9-9.78-34.59c-3.55,0.46-7.47,1.13-11.74,2.05
			C138.374,279.295,142.184,293.795,146.334,301.755z M116.334,301.755h13.61c-3.37-8.68-6.01-19.49-6.96-28.67
			c-3.1,0.95-6.32,2.01-9.69,3.229c-1.13,0.41-2.32,0.801-3.54,1.19C110.464,285.255,113.274,295.746,116.334,301.755z
			 M86.684,301.755h13.39c-2.29-6.3-4.11-13.72-4.96-20.33c-4.19,0.95-8.59,1.83-13.09,2.64
			C82.484,289.576,84.504,297.295,86.684,301.755z M22.754,301.755h47.84c-1.63-4.9-2.87-10.42-3.4-15.27
			c-20.43,3.011-40.78,4.82-52.09,5.7c-0.11,0.07-0.11,0.101-0.1,0.15C17.024,301.755,21.184,301.755,22.754,301.755z"/>
	</g>
</g>
<g>
</g>
<g>
</g>
<g>
</g>
<g>
</g>
<g>
</g>
<g>
</g>
<g>
</g>
<g>
</g>
<g>
</g>
<g>
</g>
<g>
</g>
<g>
</g>
<g>
</g>
<g>
</g>
<g>
</g>
</svg>
