<?xml version="1.0" encoding="iso-8859-1"?>
<!-- Generator: Adobe Illustrator 19.0.0, SVG Export Plug-In . SVG Version: 6.00 Build 0)  -->
<svg version="1.1" id="Capa_1" xmlns="http://www.w3.org/2000/svg" xmlns:xlink="http://www.w3.org/1999/xlink" x="0px" y="0px"
	 viewBox="0 0 463.004 463.004" style="enable-background:new 0 0 463.004 463.004;" xml:space="preserve">
<g id="XMLID_54_">
	<g>
		<path style="fill:#718689;" d="M280.862,277.915l5.27,3.96c-1.37,2.98-2.61,5.8-3.72,8.43L280.862,277.915z"/>
		<path style="fill:#718689;" d="M151.742,260.874c-4.79,4.29-12.96,6.86-20.9,9.35c-1.26,0.39-2.54,0.8-3.84,1.22
			c0.01-13.621,3.17-27.4,6.6-38.371C138.122,243.554,144.832,252.984,151.742,260.874z"/>
		<path style="fill:#5D6364;" d="M87.962,211.624l19.67,21.98c-3.57,3.52-7.09,6.8-10.54,9.87l-19.71-22.03
			c1.99-1.9,3.88-3.681,5.62-5.29C84.672,214.604,86.332,213.094,87.962,211.624z"/>
		<path style="fill:#5D6364;" d="M46.572,253.655l14.479,16.189c-7.38,4.28-14.03,7.47-19.74,9.82
			c-7.56,3.12-14.109,5.07-19.369,6.3C29.282,274.674,37.882,263.695,46.572,253.655z"/>
		<path style="fill:#9EA8AA;" d="M66.672,231.964l18.91,21.14c-4.01,3.15-7.91,6.02-11.68,8.6l-17.25-19.28
			C60.072,238.734,63.442,235.234,66.672,231.964z"/>
		<path style="fill:#3D484A;" d="M462.271,220.294c1.11,2.33,0.95,5.06-0.43,7.23c-1.37,2.18-3.77,3.5-6.34,3.5h-24
			c-0.95,0-1.9-0.18-2.79-0.54c-9.93-3.97-21.99-8.5-25.45-9.39c-3.62,0.601-16.609,3.95-30.38,7.7
			c-13.19,16.53-40.63,35.28-47.67,39.95c4.45,11.26,9.34,25.33,9.76,33.68c1.55,6.57,0.971,19.271-10.17,30.4
			c-1.46,1.47-3.38,2.2-5.3,2.2s-3.84-0.73-5.3-2.2c-2.931-2.919-2.931-7.669,0-10.6c5.85-5.85,6.52-11.59,6.39-14.51l-22.14-16.6
			c-4.22,9.61-8.79,21.25-10.62,28.91h7.67c4.14,0,7.5,3.36,7.5,7.5c0,4.14-3.36,7.5-7.5,7.5h-16c-3.78,0-6.97-2.82-7.44-6.57
			l-7.88-63.05l-1.609-1.2c-6.41,2.61-19.32,6.65-37.92,6.81c-5.261,13.45-13.48,27.76-25.82,41.57l19.3,15.44h13.37
			c4.14,0,7.5,3.36,7.5,7.5c0,4.14-3.36,7.5-7.5,7.5h-16c-1.7,0-3.36-0.58-4.69-1.64l-40-32c-2.449-1.97-3.42-5.25-2.43-8.229
			l6.28-18.82c-3.141-2.41-7.59-6.04-12.5-10.67c-7.15,6.68-17.13,9.82-26.82,12.87c-16.92,5.31-24.34,8.72-24.34,18.99v20.89
			l3.61,3.61h12.89c4.14,0,7.5,3.36,7.5,7.5c0,4.14-3.36,7.5-7.5,7.5h-16c-1.99,0-3.9-0.79-5.3-2.2l-8-8c-1.41-1.4-2.2-3.31-2.2-5.3
			v-45.87c0-9.26,7.17-16.871,16.26-17.581c0.37-5.49,1.12-10.9,2.101-16.09c-55.96,53.41-101.351,55.04-106.61,55.04
			c-0.21,0-0.35,0-0.43,0c-2.61-0.06-5-1.48-6.311-3.74c-1.31-2.26-1.35-5.03-0.109-7.33c19.42-35.86,54.17-70.5,73.149-87.95
			c19.92-18.31,45.04-38.41,57.16-43.01c7.21-8.16,38.34-40.13,84.15-40.97c49.67-0.92,76.14,12.44,82.739,16.3l52.561,7.51
			c5.53-1.99,21.93-7.25,41.93-7.76c5.57-6.129,12.25-11.77,19.68-15.32c2.32-1.11,5.051-0.95,7.23,0.43
			c2.18,1.37,3.5,3.77,3.5,6.34v14.94c16.04,16.98,24.5,44.89,25.88,49.75L462.271,220.294z M443.622,216.024l-8.561-17.94
			c-0.189-0.41-0.35-0.83-0.47-1.27c-0.01-0.06-0.32-1.17-0.91-3.03c-2.56,1.27-6.05,3.19-10.34,5.98
			c-1.26,0.83-2.68,1.22-4.08,1.22c-2.45,0-4.859-1.2-6.3-3.41c-2.25-3.47-1.27-8.12,2.2-10.379c5.59-3.641,10.09-6.04,13.28-7.56
			c-2.021-4.75-4.53-9.97-7.511-14.94c-1.37,1.43-3.29,2.33-5.43,2.33c-4.14,0-7.5-3.36-7.5-7.5v-17.65
			c-7.79,7.19-14.27,16.79-16.9,23.17c-1.189,2.9-3.989,4.65-6.939,4.65c-0.95,0-1.91-0.181-2.851-0.57
			c-3.829-1.57-5.649-5.96-4.079-9.79c0.869-2.12,2.119-4.62,3.68-7.32c-15.45,2.02-26.45,6.41-26.59,6.46
			c-1.23,0.5-2.57,0.66-3.88,0.48l-56-8c-1.131-0.16-2.21-0.58-3.16-1.23c-0.2-0.13-24.24-15.64-75.641-14.7
			c-44.479,0.81-74.01,36.84-74.3,37.21c-1.17,1.45-2.84,2.42-4.689,2.7c-3.65,0.98-18.03,10.41-37.391,26.81l18.811,21.03
			c1.27-1.38,2.54-2.78,3.819-4.22c0.37-0.43,0.79-0.79,1.23-1.109c2.96-7.78,5.41-12.76,5.67-13.27c1.56-3.11,5.05-4.75,8.43-3.95
			c3.391,0.8,5.78,3.82,5.78,7.3c0,17.91,11.98,34.73,22.03,45.68c11.279,12.3,22.58,20.04,22.689,20.12
			c2.771,1.89,3.96,5.39,2.9,8.57l-6.351,19.04l2.83,2.27c34.62-38.26,31.87-77.55,29.28-85.31c-1.3-3.93,0.82-8.17,4.75-9.48
			c3.92-1.31,8.17,0.81,9.49,4.74c2.66,8,3.6,23.79-1.13,42.71c13.89-0.73,23.279-3.851,27.6-5.63l7.13-28.53
			c1.011-4.02,5.08-6.46,9.101-5.45c4.02,1,6.46,5.07,5.46,9.09l-6.8,27.17l28.029,21.02c0.01,0.01,0.021,0.01,0.03,0.02l15.2,11.4
			c-3.2-9.11-7.391-19.27-10.58-26.35c-1.7-3.77-0.021-8.21,3.76-9.92c3.771-1.7,8.21-0.02,9.92,3.76c0.24,0.54,0.57,1.28,0.97,2.18
			c7.15-4.87,22.721-15.88,34.11-26.84c-0.33-0.68-0.559-1.419-0.68-2.18c-0.16-1.16-3.95-28.49,8.62-46.39
			c2.38-3.39,7.059-4.21,10.449-1.83c3.391,2.38,4.21,7.06,1.83,10.45c-5.529,7.88-6.59,19.23-6.56,26.99
			c21.24-5.84,33.47-8.8,36.42-8.8c1.42,0,4.34,0,29.44,10H443.622z M286.132,281.874l-5.27-3.96l1.55,12.39
			C283.521,287.674,284.762,284.854,286.132,281.874z M130.842,270.225c7.941-2.49,16.11-5.06,20.9-9.35
			c-6.91-7.89-13.62-17.32-18.141-27.8c-3.43,10.97-6.59,24.75-6.6,38.371C128.302,271.024,129.582,270.615,130.842,270.225z
			 M107.632,233.604l-19.67-21.98c-1.63,1.47-3.29,2.98-4.96,4.53c-1.74,1.609-3.63,3.39-5.62,5.29l19.71,22.03
			C100.542,240.405,104.061,237.124,107.632,233.604z M85.582,253.104l-18.91-21.14c-3.23,3.27-6.6,6.77-10.02,10.46l17.25,19.28
			C77.672,259.124,81.572,256.254,85.582,253.104z M61.052,269.844l-14.479-16.189c-8.69,10.04-17.29,21.02-24.63,32.31
			c5.26-1.23,11.81-3.18,19.369-6.3C47.021,277.314,53.672,274.124,61.052,269.844z"/>
		<path style="fill:#9EA8AA;" d="M435.061,198.084l8.561,17.94h-10.68c-25.101-10-28.021-10-29.44-10c-2.95,0-15.18,2.96-36.42,8.8
			c-0.03-7.76,1.03-19.11,6.56-26.99c2.38-3.39,1.561-8.07-1.83-10.45c-3.39-2.38-8.069-1.56-10.449,1.83
			c-12.57,17.9-8.78,45.23-8.62,46.39c0.12,0.76,0.35,1.5,0.68,2.18c-11.39,10.96-26.96,21.97-34.11,26.84
			c-0.399-0.9-0.729-1.64-0.97-2.18c-1.71-3.78-6.149-5.46-9.92-3.76c-3.78,1.71-5.46,6.15-3.76,9.92
			c3.189,7.08,7.38,17.24,10.58,26.35l-15.2-11.4c-0.01-0.01-0.021-0.01-0.03-0.02l-28.029-21.02l6.8-27.17
			c1-4.02-1.44-8.09-5.46-9.09c-4.021-1.01-8.09,1.43-9.101,5.45l-7.13,28.53c-4.32,1.78-13.71,4.9-27.6,5.63
			c4.729-18.92,3.79-34.71,1.13-42.71c-1.32-3.93-5.57-6.05-9.49-4.74c-3.93,1.31-6.05,5.55-4.75,9.48
			c2.59,7.76,5.34,47.05-29.28,85.31l-2.83-2.27l6.351-19.04c1.06-3.18-0.13-6.68-2.9-8.57c-0.109-0.08-11.41-7.82-22.689-20.12
			c-10.05-10.95-22.03-27.77-22.03-45.68c0-3.48-2.39-6.5-5.78-7.3c-3.38-0.8-6.87,0.84-8.43,3.95c-0.26,0.51-2.71,5.49-5.67,13.27
			c-0.44,0.319-0.86,0.68-1.23,1.109c-1.279,1.44-2.55,2.84-3.819,4.22l-18.811-21.03c19.36-16.4,33.74-25.83,37.391-26.81
			c1.85-0.28,3.52-1.25,4.689-2.7c0.29-0.37,29.82-36.4,74.3-37.21c51.4-0.94,75.441,14.57,75.641,14.7
			c0.95,0.65,2.029,1.07,3.16,1.23l56,8c1.31,0.18,2.649,0.02,3.88-0.48c0.14-0.05,11.14-4.44,26.59-6.46
			c-1.561,2.7-2.811,5.2-3.68,7.32c-1.57,3.83,0.25,8.22,4.079,9.79c0.94,0.39,1.9,0.57,2.851,0.57c2.95,0,5.75-1.75,6.939-4.65
			c2.631-6.38,9.11-15.98,16.9-23.17v17.65c0,4.14,3.36,7.5,7.5,7.5c2.14,0,4.06-0.9,5.43-2.33c2.98,4.97,5.49,10.19,7.511,14.94
			c-3.19,1.52-7.69,3.92-13.28,7.56c-3.47,2.26-4.45,6.91-2.2,10.379c1.44,2.21,3.85,3.41,6.3,3.41c1.4,0,2.82-0.39,4.08-1.22
			c4.29-2.79,7.78-4.71,10.34-5.98c0.59,1.86,0.9,2.97,0.91,3.03C434.712,197.254,434.872,197.674,435.061,198.084z"/>
	</g>
</g>
<g>
</g>
<g>
</g>
<g>
</g>
<g>
</g>
<g>
</g>
<g>
</g>
<g>
</g>
<g>
</g>
<g>
</g>
<g>
</g>
<g>
</g>
<g>
</g>
<g>
</g>
<g>
</g>
<g>
</g>
</svg>
