<?xml version="1.0" encoding="iso-8859-1"?>
<!-- Generator: Adobe Illustrator 19.0.0, SVG Export Plug-In . SVG Version: 6.00 Build 0)  -->
<svg version="1.1" id="Capa_1" xmlns="http://www.w3.org/2000/svg" xmlns:xlink="http://www.w3.org/1999/xlink" x="0px" y="0px"
	 viewBox="0 0 463.001 463.001" style="enable-background:new 0 0 463.001 463.001;" xml:space="preserve">
<g id="XMLID_90_">
	<g>
		<path style="fill:#F2E4DC;" d="M82.908,319.52l1.71,4.48h-13.58c-0.59,0-1.1-0.44-1.18-1.03l-0.16-1.1l12.67-2.64
			C82.608,319.181,82.828,319.31,82.908,319.52z"/>
		<path style="fill:#3D484A;" d="M462.557,200.971c0.551,1.52,0.591,3.19,0.11,4.74c-5.85,18.98-10.89,20.271-13.31,20.89
			c-1.431,0.36-4.61,0.631-7.48,0.591c-2.53,1.63-5.95,2.96-9.95,2.96c-3.83,0-8.199-1.23-12.83-4.58
			c-8.409-6.09-13.64-6.57-19.6-6.57c-0.27,0.01-1.28,0.17-2.01,0.28c-3.07,0.48-8.88,1.38-15.19,0.069
			c-0.91,7.94-2.939,22.011-7.37,41.301c0.37,4.939,7.84,25.14,15.38,43.279l5.381-0.42c9.6-0.74,18.46,4.74,22.079,13.641
			l4.681,11.529c0.939,2.31,0.67,4.94-0.73,7.011c-1.39,2.069-3.72,3.31-6.22,3.31h-40c-1.54,0-3.03-0.47-4.29-1.35
			c-18.67-13.021-36.91-33.69-54.2-61.431c-1.979-3.18-3.84-6.27-5.55-9.22c-0.01,0-0.02,0-0.04,0c-6.41-0.06-12.66-0.25-18.75-0.55
			l-15.52,36.13c0.04-0.01,0.08-0.01,0.119-0.01c8.45,0,16.29,5.38,19.07,13.729l4.28,12.83c0.76,2.29,0.37,4.8-1.04,6.75
			c-1.41,1.96-3.67,3.12-6.08,3.12h-30c-2.84,0-5.44-1.61-6.71-4.15l-16-32c-0.74-1.489-0.97-3.18-0.64-4.819l7.18-35.94
			c-18.85-2.75-35.32-6.35-49.14-10.06c-2.74,17-11.58,34.68-14.921,40.899l1.66,11.98l8.061-0.9c6.689-0.75,12.98,2.9,15.67,9.07
			l6.72,15.43c1.01,2.311,0.78,4.99-0.61,7.101c-1.38,2.12-3.739,3.39-6.27,3.39h-25c-1.99,0-3.9-0.79-5.3-2.2l-32-32
			c-1.41-1.399-2.2-3.31-2.2-5.3c0-21.01-5.5-35.84-9.35-43.65c-17.021,14.381-35.631,25.07-46.431,31.261
			c-1.899,1.09-3.55,2.04-4.89,2.84c-6.23,3.7-9.32,10.399-10.84,16.02l6.819-1.43c7.48-1.55,14.9,2.5,17.62,9.64l5.58,14.65
			c0.88,2.31,0.57,4.89-0.83,6.93c-1.399,2.03-3.71,3.24-6.18,3.24h-24.46c-8,0-14.9-5.98-16.03-13.91l-6.93-48.53
			c-0.29-2,0.25-4.04,1.479-5.64c0.301-0.39,30.44-39.96,30.44-75.42v-13.77c-12.38,18.97-19.47,41.939-25.25,63.699
			c-10.19,38.351-25.51,52.28-36.69,62.45c-1.89,1.72-3.67,3.34-5.26,4.92c-1.46,1.47-3.38,2.2-5.3,2.2s-3.84-0.73-5.3-2.2
			c-2.931-2.93-2.931-7.67,0-10.6c1.84-1.84,3.74-3.58,5.76-5.41c10.36-9.42,23.24-21.13,32.29-55.22
			c5.35-20.141,12.42-43.42,24.3-63.4c13.21-22.21,30.29-37.15,52.24-45.66c34.01-13.2,92.26-3.399,130.8,3.09
			c14.04,2.36,26.16,4.4,31.91,4.4c12.9,0,16.76-1.67,19.57-2.89c2.29-0.99,4.89-2.11,9.1-2.11c5.16,0,9.54,2,13.05,3.6
			c2.54,1.16,4.931,2.25,6.57,2.101c1.6-0.15,5.5-1.04,9.62-1.99c11.29-2.58,28.14-6.43,44.38-6.68c1.23-2.19,2.72-4.221,4.53-5.95
			c2.18-2.09,5.41-2.66,8.18-1.46c1.28,0.56,10.28,4.69,16.12,12.66c19.69,4.26,32.24,16.16,35.59,22.87
			C452.168,172.071,462.137,199.791,462.557,200.971z M444.028,212.161c1-1.84,2.38-5.17,3.54-8.53
			c-2.57-7.03-10.181-27.58-14.78-36.78c-0.76-1.51-7.4-9.439-20.47-13.609c-0.77,0.649-1.69,1.16-2.73,1.46
			c-3.97,1.16-8.14-1.13-9.29-5.11c-0.92-3.16-3.76-5.97-6.52-8.02c-1.931,4.72-2.721,10.92-2.78,14.08
			c-0.08,4.09-3.42,7.35-7.5,7.35c-0.05,0-0.1,0-0.15,0c-4.14-0.08-7.43-3.51-7.35-7.65c0.02-0.779,0.12-3.97,0.81-8.109
			c-13.13,0.859-26.64,3.939-36.05,6.09c-5.21,1.2-8.979,2.059-11.55,2.3c-5.63,0.54-10.39-1.64-14.22-3.38
			c-2.53-1.16-4.92-2.25-6.82-2.25c-1.08,0-1.43,0.14-3.14,0.88c-3.8,1.64-9.53,4.12-25.53,4.12c-7.01,0-19.09-2.03-34.4-4.61
			c-36.92-6.22-92.72-15.609-122.89-3.899c-10.72,4.16-19.66,10.04-27.21,17.13v31.88c0,35.4-24.45,71.99-31.64,81.98l1.39,9.77
			c2.72-3.86,6.27-7.44,10.92-10.2c1.4-0.83,3.11-1.81,5.08-2.939c15.24-8.75,46.95-26.95,64.71-51.061
			c2.18-2.95,6.17-3.899,9.44-2.24c0.569,0.29,57.3,28.471,148.22,31.03c-4.07-7.859-6.32-12.95-6.49-13.32
			c-1.66-3.8,0.061-8.22,3.851-9.89c3.789-1.66,8.22,0.061,9.89,3.851c0.27,0.63,27.81,62.489,67.53,91.519h26.46l-0.49-1.2
			c-1.15-2.83-3.97-4.58-7.01-4.33l-10.78,0.84c-3.21,0.25-6.22-1.579-7.48-4.54c-20.46-48.079-18.909-54.76-18.409-56.96
			c6.409-27.77,7.68-44.54,7.81-46.52c-2.96-3.21-5.6-7.53-7.59-13.36c-1.351-3.92,0.74-8.18,4.66-9.52
			c3.91-1.351,8.18,0.74,9.52,4.66c4.41,12.83,11.62,12.79,20.59,11.39c1.601-0.25,2.98-0.46,4.32-0.46c9.5,0,17.56,1.58,28.4,9.43
			c4.17,3.011,5.96,1.12,6.04,1.04c1.779-1.97,4.449-2.84,7.04-2.319C441.578,212.221,442.878,212.211,444.028,212.161z
			 M283.088,324.001l-0.979-2.96c-0.841-2.521-3.521-3.97-6.101-3.3l-9.609,2.51c-0.04,0.02-0.08,0.03-0.12,0.04l1.85,3.71H283.088z
			 M259.248,306.231l17.54-40.811c-4.98-0.4-9.82-0.87-14.54-1.41l-6.89,34.44L259.248,306.231z M197.048,324.001l-2.14-4.93
			c-0.05-0.101-0.16-0.16-0.26-0.15l-11.811,1.311l3.771,3.77H197.048z M168.998,287.77c0.13-0.229,12.39-21.84,14.65-39.949
			c-13.99-4.36-24.11-8.46-29.91-11.011c-2.431,2.94-5.01,5.78-7.71,8.52c4.46,7.93,12.33,25.42,12.93,51.03l11.19,11.18
			l-2.08-15.01C167.838,290.881,168.168,289.211,168.998,287.77z M84.618,324.001l-1.71-4.48c-0.08-0.21-0.3-0.34-0.54-0.289
			l-12.67,2.64l0.16,1.1c0.08,0.59,0.59,1.03,1.18,1.03H84.618z"/>
		<path style="fill:#F2E4DC;" d="M447.568,203.631c-1.16,3.36-2.54,6.69-3.54,8.53c-1.15,0.05-2.45,0.06-3.05-0.01
			c-2.591-0.52-5.261,0.35-7.04,2.319c-0.08,0.08-1.87,1.971-6.04-1.04c-10.841-7.85-18.9-9.43-28.4-9.43
			c-1.34,0-2.72,0.21-4.32,0.46c-8.97,1.4-16.18,1.44-20.59-11.39c-1.34-3.92-5.609-6.011-9.52-4.66c-3.92,1.34-6.011,5.6-4.66,9.52
			c1.99,5.83,4.63,10.15,7.59,13.36c-0.13,1.98-1.4,18.75-7.81,46.52c-0.5,2.2-2.051,8.881,18.409,56.96
			c1.261,2.961,4.271,4.79,7.48,4.54l10.78-0.84c3.04-0.25,5.859,1.5,7.01,4.33l0.49,1.2h-26.46
			c-39.721-29.03-67.261-90.89-67.53-91.519c-1.67-3.79-6.101-5.511-9.89-3.851c-3.79,1.67-5.511,6.09-3.851,9.89
			c0.17,0.37,2.42,5.461,6.49,13.32c-90.92-2.56-147.65-30.74-148.22-31.03c-3.27-1.659-7.261-0.71-9.44,2.24
			c-17.76,24.11-49.47,42.311-64.71,51.061c-1.97,1.13-3.68,2.109-5.08,2.939c-4.65,2.76-8.2,6.34-10.92,10.2l-1.39-9.77
			c7.189-9.99,31.64-46.58,31.64-81.98v-31.88c7.55-7.09,16.49-12.97,27.21-17.13c30.17-11.71,85.97-2.32,122.89,3.899
			c15.311,2.58,27.391,4.61,34.4,4.61c16,0,21.73-2.48,25.53-4.12c1.71-0.74,2.059-0.88,3.14-0.88c1.9,0,4.29,1.09,6.82,2.25
			c3.83,1.74,8.59,3.92,14.22,3.38c2.57-0.24,6.34-1.1,11.55-2.3c9.41-2.15,22.92-5.23,36.05-6.09c-0.69,4.14-0.79,7.33-0.81,8.109
			c-0.08,4.141,3.21,7.57,7.35,7.65c0.051,0,0.101,0,0.15,0c4.08,0,7.42-3.26,7.5-7.35c0.06-3.16,0.85-9.36,2.78-14.08
			c2.76,2.05,5.6,4.859,6.52,8.02c1.15,3.98,5.32,6.271,9.29,5.11c1.04-0.3,1.96-0.811,2.73-1.46
			c13.069,4.17,19.71,12.1,20.47,13.609C437.387,176.051,444.998,196.6,447.568,203.631z"/>
		<path style="fill:#F1D0BA;" d="M282.108,321.041l0.979,2.96h-14.96l-1.85-3.71c0.04-0.01,0.08-0.021,0.12-0.04l9.609-2.51
			C278.588,317.071,281.267,318.52,282.108,321.041z"/>
		<path style="fill:#F1D0BA;" d="M276.788,265.421l-17.54,40.811l-3.89-7.78l6.89-34.44
			C266.968,264.551,271.807,265.02,276.788,265.421z"/>
		<path style="fill:#F1D0BA;" d="M194.908,319.071l2.14,4.93h-10.439l-3.771-3.77l11.811-1.311
			C194.748,318.911,194.858,318.97,194.908,319.071z"/>
		<path style="fill:#F1D0BA;" d="M183.648,247.821c-2.261,18.109-14.52,39.72-14.65,39.949c-0.83,1.441-1.16,3.11-0.93,4.761
			l2.08,15.01l-11.19-11.18c-0.6-25.61-8.47-43.101-12.93-51.03c2.7-2.74,5.279-5.58,7.71-8.52
			C159.538,239.361,169.658,243.461,183.648,247.821z"/>
	</g>
</g>
<g>
</g>
<g>
</g>
<g>
</g>
<g>
</g>
<g>
</g>
<g>
</g>
<g>
</g>
<g>
</g>
<g>
</g>
<g>
</g>
<g>
</g>
<g>
</g>
<g>
</g>
<g>
</g>
<g>
</g>
</svg>
