<?xml version="1.0" encoding="iso-8859-1"?>
<!-- Generator: Adobe Illustrator 19.0.0, SVG Export Plug-In . SVG Version: 6.00 Build 0)  -->
<svg version="1.1" id="Capa_1" xmlns="http://www.w3.org/2000/svg" xmlns:xlink="http://www.w3.org/1999/xlink" x="0px" y="0px"
	 viewBox="0 0 463.003 463.003" style="enable-background:new 0 0 463.003 463.003;" xml:space="preserve">
<g id="XMLID_91_">
	<g>
		<path style="fill:#AFAFB0;" d="M324.14,256.641l-17.57,40.99l-2.93-2.93l6.68-33.41C315.41,259.931,320.05,258.341,324.14,256.641
			z"/>
		<path style="fill:#AFAFB0;" d="M168.38,251.541c0.32,0.93,0.58,1.9,0.82,2.89c-2.02,3.58-9.15,8.04-15.48,12.011
			c-8.39,5.25-18.69,11.71-24.42,20.63c-1.08-2.431-1.87-4.62-2.25-6.36c15.81-14.21,27.95-32.11,35.99-46.09
			C164.46,239.782,166.29,245.271,168.38,251.541z"/>
		<path style="fill:#DEDEDD;" d="M413.35,170.131l3.24,4.86c2.3,3.45,6.96,4.38,10.4,2.08c0.96-0.63,1.71-1.45,2.26-2.37
			c4.63,2.01,7.41,4.21,8.73,5.45l1.88,8.05c0.17,0.71,0.43,1.38,0.79,2.01l6.35,11.18l-4.14,8.28H407.5
			c-1.48,0-2.93,0.44-4.16,1.26l-12.55,8.36c0.05-0.36,0.09-0.72,0.14-1.08c0.57-4.1-2.29-7.89-6.39-8.47
			c-4.1-0.58-7.89,2.279-8.47,6.38c-3.53,25.21,0.72,60.6,17.03,88.979c-37.97-27.71-50.22-73.34-50.34-73.81
			c-1.04-4.01-5.12-6.42-9.13-5.39c-4.01,1.04-6.43,5.13-5.39,9.14c0.05,0.22,0.25,0.98,0.61,2.17c-7.28,5.85-47.78,23.45-93.29,5.5
			c1.02-2.21,2.01-4.48,2.92-6.8c1.52-3.86-0.38-8.21-4.24-9.72c-3.85-1.52-8.21,0.38-9.72,4.23c-7,17.811-18.46,32.35-24.68,39.43
			c-5.56,6.351-6.7,15.37-2.89,22.98l2.43,4.88l-15.62-11.72c1.41-8.31,3.41-25.54-1.14-39.2c-5.32-15.94-8.53-25.559-7.64-37.05
			c0.28-3.67-2.15-7.01-5.73-7.87c-3.58-0.851-7.27,1.02-8.68,4.42c-0.34,0.84-35.2,83.38-89.07,83.38
			c-28.51,0-56.5-24.03-56.5-48.5c0-19.95,4.02-24.6,6.18-27.1c3-3.48,8.19-4.57,10.65-3.19c2.28,1.28,2.49,5.88,0.53,12
			c-4.62,14.41-2.43,29.3,5.99,40.84c7.87,10.77,19.95,16.95,33.15,16.95c26.67,0,62.53-33.3,78.3-72.72
			c10.15-25.38,29.05-41,56.17-46.431c8.59-1.72,13.61-1.02,18.45-0.35c3.92,0.55,7.96,1.11,13.07,0.43
			c20.11-2.68,67.13-3.38,81.13-0.43c8.65,1.82,15.46,0.15,22.05-1.46c4.76-1.17,9.68-2.38,15.83-2.38c4.84,0,6.79,1.38,9.75,3.45
			c2.86,2.01,6.43,4.52,12.06,5.17c5.68,0.66,14.19,1.72,20.11,2.46c-0.21,2.07-0.1,4.3,0.42,6.689c0.77,3.511,3.87,5.9,7.32,5.9
			c0.53,0,1.07-0.05,1.61-0.17c4.05-0.89,6.61-4.89,5.72-8.93C413.36,171.271,413.32,170.681,413.35,170.131z"/>
		<path style="fill:#3D484A;" d="M462.02,197.461c1.24,2.18,1.31,4.82,0.19,7.059l-8,16c-1.27,2.54-3.87,4.15-6.71,4.15h-37.73
			l-19.82,13.21c0.67,22.19,7,47.89,21.31,67.79h4.24c4.14,0,7.5,3.35,7.5,7.5c0,4.14-3.36,7.5-7.5,7.5h-24
			c-1.51,0-2.99-0.46-4.24-1.32c-24.76-16.979-40-40.27-48.78-58.09l-19.03,44.41h8.05c4.14,0,7.5,3.35,7.5,7.5
			c0,4.14-3.36,7.5-7.5,7.5h-16c-1.99,0-3.9-0.79-5.3-2.2l-16-16c-1.78-1.77-2.55-4.31-2.05-6.77l6.24-31.24
			c-5.21,0.7-11.01,1.17-17.29,1.17c-14.21,0-30.84-2.34-48.43-9.52c-0.07-0.03-0.14-0.061-0.21-0.091
			c-6.31,10.471-12.99,18.771-17.34,23.721c-1.53,1.74-1.82,4.25-0.76,6.38l9.78,19.55h3.36c4.14,0,7.5,3.35,7.5,7.5
			c0,4.14-3.36,7.5-7.5,7.5h-16c-1.62,0-3.2-0.53-4.5-1.5l-32-24c-2.38-1.79-3.48-4.81-2.8-7.71c0.02-0.11,1.38-6.1,1.98-13.81
			c-2.68,1.859-5.57,3.659-8.5,5.5c-14.21,8.899-23.38,15.43-21.49,24.88c0.11,0.55,0.15,1.1,0.14,1.64h11.17
			c4.14,0,7.5,3.35,7.5,7.5c0,4.14-3.36,7.5-7.5,7.5h-16c-2.5,0-4.83-1.25-6.23-3.32c-1.24-1.85-10.19-15.34-14.74-26.81
			c-12.58,8.49-26.97,14.13-43.03,14.13c-17.34,0-35.24-6.92-49.11-18.97C8.16,273.331,0,257.101,0,241.171
			c0-21.189,3.93-30.08,9.82-36.91c7.48-8.649,20.37-11.49,29.35-6.46c13.34,7.48,9.09,24.59,7.47,29.65
			c-3.13,9.8-1.74,19.8,3.83,27.43c5.01,6.851,12.67,10.79,21.03,10.79c9.02,0,21.59-6.81,33.64-18.2
			c12.98-12.279,24.18-28.72,30.73-45.09c11.98-29.96,35.21-49.18,67.16-55.57c11.08-2.22,17.95-1.26,23.46-0.489
			c3.32,0.46,5.94,0.819,9.02,0.41c20.11-2.681,69.32-3.79,86.2-0.24c5.3,1.12,9.54,0.08,15.39-1.351
			c5.36-1.319,11.44-2.81,19.4-2.81c9.58,0,14.66,3.57,18.37,6.18c2.3,1.61,3.39,2.34,5.16,2.54c8.24,0.95,22.33,2.74,26.12,3.22
			c1.67-1.439,3.35-2.51,4.75-3.189c3.37-1.63,7.43-0.52,9.51,2.59l2.25,3.38c0.26,0.03,0.52,0.07,0.79,0.12
			c18.81,4.14,26.54,13.71,27.35,14.79c0.64,0.84,1.1,1.809,1.34,2.84l2.08,8.94L462.02,197.461z M447,201.391l-6.35-11.18
			c-0.36-0.63-0.62-1.3-0.79-2.01l-1.88-8.05c-1.32-1.24-4.1-3.44-8.73-5.45c-0.55,0.92-1.3,1.74-2.26,2.37
			c-3.44,2.3-8.1,1.37-10.4-2.08l-3.24-4.86c-0.03,0.55,0.01,1.14,0.14,1.771c0.89,4.04-1.67,8.04-5.72,8.93
			c-0.54,0.12-1.08,0.17-1.61,0.17c-3.45,0-6.55-2.39-7.32-5.9c-0.52-2.39-0.63-4.619-0.42-6.689c-5.92-0.74-14.43-1.8-20.11-2.46
			c-5.63-0.65-9.2-3.16-12.06-5.17c-2.96-2.07-4.91-3.45-9.75-3.45c-6.15,0-11.07,1.21-15.83,2.38c-6.59,1.61-13.4,3.28-22.05,1.46
			c-14-2.95-61.02-2.25-81.13,0.43c-5.11,0.681-9.15,0.12-13.07-0.43c-4.84-0.67-9.86-1.37-18.45,0.35
			c-27.12,5.431-46.02,21.051-56.17,46.431c-15.77,39.42-51.63,72.72-78.3,72.72c-13.2,0-25.28-6.18-33.15-16.95
			c-8.42-11.54-10.61-26.43-5.99-40.84c1.96-6.12,1.75-10.72-0.53-12c-2.46-1.38-7.65-0.29-10.65,3.19
			c-2.16,2.5-6.18,7.149-6.18,27.1c0,24.47,27.99,48.5,56.5,48.5c53.87,0,88.73-82.54,89.07-83.38c1.41-3.4,5.1-5.27,8.68-4.42
			c3.58,0.86,6.01,4.2,5.73,7.87c-0.89,11.49,2.32,21.109,7.64,37.05c4.55,13.66,2.55,30.89,1.14,39.2l15.62,11.72l-2.43-4.88
			c-3.81-7.61-2.67-16.63,2.89-22.98c6.22-7.08,17.68-21.619,24.68-39.43c1.51-3.85,5.87-5.75,9.72-4.23
			c3.86,1.51,5.76,5.859,4.24,9.72c-0.91,2.32-1.9,4.59-2.92,6.8c45.51,17.95,86.01,0.35,93.29-5.5c-0.36-1.191-0.56-1.95-0.61-2.17
			c-1.04-4.01,1.38-8.1,5.39-9.14c4.01-1.03,8.09,1.38,9.13,5.39c0.12,0.47,12.37,46.1,50.34,73.81
			c-16.31-28.38-20.56-63.77-17.03-88.979c0.58-4.101,4.37-6.96,8.47-6.38c4.1,0.58,6.96,4.37,6.39,8.47
			c-0.05,0.36-0.09,0.72-0.14,1.08l12.55-8.36c1.23-0.819,2.68-1.26,4.16-1.26h35.36L447,201.391z M306.57,297.631l17.57-40.99
			c-4.09,1.7-8.73,3.29-13.82,4.65l-6.68,33.41L306.57,297.631z M169.2,254.431c-0.24-0.989-0.5-1.96-0.82-2.89
			c-2.09-6.27-3.92-11.76-5.34-16.92c-8.04,13.979-20.18,31.88-35.99,46.09c0.38,1.74,1.17,3.93,2.25,6.36
			c5.73-8.92,16.03-15.38,24.42-20.63C160.05,262.471,167.18,258.011,169.2,254.431z"/>
	</g>
</g>
<g>
</g>
<g>
</g>
<g>
</g>
<g>
</g>
<g>
</g>
<g>
</g>
<g>
</g>
<g>
</g>
<g>
</g>
<g>
</g>
<g>
</g>
<g>
</g>
<g>
</g>
<g>
</g>
<g>
</g>
</svg>
