<?xml version="1.0" encoding="iso-8859-1"?>
<!-- Generator: Adobe Illustrator 19.0.0, SVG Export Plug-In . SVG Version: 6.00 Build 0)  -->
<svg version="1.1" id="Capa_1" xmlns="http://www.w3.org/2000/svg" xmlns:xlink="http://www.w3.org/1999/xlink" x="0px" y="0px"
	 viewBox="0 0 463.195 463.195" style="enable-background:new 0 0 463.195 463.195;" xml:space="preserve">
<g id="XMLID_92_">
	<g>
		<path style="fill:#9B7055;" d="M168.2,371.598v0.5h-18.21c-6.77,0-13.08-3-17.34-8.24l-44.62-59.319
			c6.53-2.44,12.68-5.04,18.47-7.78l32.9,62.34c1.21,2.29,3.53,3.8,6.12,3.98C155.73,363.798,168.2,367.867,168.2,371.598z"/>
		<path style="fill:#9B7055;" d="M386.78,297.268c5.17,4.48,5.56,10.58,4.97,14.91c-1.01,7.49-5.21,13-7.28,13.979
			c-2.01,0.96-3.56,0.761-5.36-0.67c-4.34-3.46-6.7-11.359-5.76-15.6c1.37-6.18-4.39-9.15-6.85-10.42
			c-2.06-1.07-4.93-2.38-8.77-4.01c-6.17-2.62-14.79-6.04-25.62-10.16c-13.12-5-26.4-9.851-32.98-12.23
			c0.89-2.72,1.79-5.439,2.69-8.13c4.25-2.189,12.57-6.84,22.48-14.16c5.23,4.71,17.56,13.801,42.52,31.83
			C375.83,289.108,385.14,295.838,386.78,297.268z"/>
		<path style="fill:#C18A68;" d="M446.88,187.168c-2.87,3.609-8.28,8.93-15.18,8.93c-8.41,0-17.38,2.01-26.89,4.15
			c-11.59,2.6-24.46,5.47-37.76,4.819c0.58-2.88-0.58-5.95-3.17-7.689c-3.44-2.32-8.1-1.4-10.41,2.04
			c-24.42,36.319-60.53,53.189-60.89,53.359c-1.88,0.86-3.33,2.46-3.99,4.431c-0.07,0.22-7.28,21.689-13.82,43.21
			c-3.86,12.72-6.75,22.989-8.58,30.54c-2.92,12.05-4.4,19.62,1.79,23.149c10.04,5.74,12.53,13.061,12.91,17.99H266.1
			c-8.65-6.28-16.77-13.52-18.75-16.72c0.43-1.641,1.47-4.28,2.4-6.65c3.6-9.16,8.53-21.7,5.22-34.95
			c-3.65-14.62-12.22-48.87,6.69-73.63c2.51-3.29,1.88-8-1.41-10.51c-3.29-2.521-8-1.88-10.51,1.41c-3.34,4.37-5.98,8.91-8.07,13.55
			c-13.66,2.15-49.21,4.34-76.06-0.59c0.56-1.21,1.1-2.42,1.6-3.66c12.08-29.96-0.29-55.08-0.82-56.13
			c-1.86-3.7-6.37-5.18-10.07-3.32c-3.7,1.87-5.19,6.38-3.32,10.08c0.1,0.2,9.86,20.03,0.3,43.77
			c-9.69,24.029-35.29,43.47-76.08,57.77c-2.55,0.89-4.42,3.08-4.9,5.73c-4.79,26.159-11.68,56.229-14.93,61.29
			c-6.27,9.75-16.76,13.25-31.18,10.399c-0.22-0.04-0.8-0.149-0.99-0.99c-0.1-0.439-0.08-1.05,0.54-1.52l18.44-13.83
			c1.71-1.29,2.79-3.24,2.97-5.38c0.03-0.38,3.13-37.16,7.42-60.69c5.79-5.239,22.57-21.48,39.43-47.89
			c1.63-2.56,1.56-5.84-0.17-8.32c-19.84-28.529-17.85-70.02-14.88-81.899c0.21-0.82,0.27-1.66,0.2-2.49
			c-0.05-0.57-0.58-5.7-3.43-10.92c-4.18-7.68-11.3-11.91-20.04-11.91c-7.65,0-26.55-1.36-36.73-13.96
			c-2.5-3.09-3.56-5.86-3.87-7.54c3.21-0.12,9.7,1.06,14.24,1.88c5.45,1,11.62,2.12,17.78,2.601c18.12,1.39,31.02,9.67,35.27,13.819
			c1.94,1.94,4.77,2.67,7.39,1.9c0.44-0.12,44.27-12.55,83.65-0.05c31.97,10.149,63.2,5.73,86.01,2.5
			c8.16-1.15,15.21-2.15,20.26-2.15c17.61,0,27.91,5.63,38.82,11.58c11.18,6.11,22.73,12.42,41.18,12.42
			c10.35,0,22.37-7.3,36.73-22.32c2.81-2.93,5.41-5.859,7.69-8.55l4.3,17.19c1.01,4.02,5.08,6.46,9.1,5.46
			c2.38-0.601,4.2-2.27,5.08-4.37c4.02,2.63,8.29,7.1,9.74,14.53C435.29,164.178,442.97,179.838,446.88,187.168z"/>
		<path style="fill:#3D484A;" d="M462.16,183.788c1.35,2.3,1.38,5.14,0.09,7.46c-0.46,0.81-11.3,19.85-30.55,19.85
			c-6.74,0-14.93,1.84-23.6,3.78c-11.28,2.54-23.68,5.319-37.05,5.319c-4.41,0-8.93-0.319-13.54-1.04
			c-6.94,8.601-14.28,15.94-21.34,22.091c7.38,6.05,26.98,20.21,39.43,29.199c12.05,8.7,18.96,13.71,21.01,15.48
			c7.99,6.92,11.54,16.96,10,28.27c-1.54,11.351-7.99,21.841-15.69,25.5c-2.87,1.37-5.82,2.04-8.73,2.051
			c-4.38,0-8.66-1.53-12.42-4.53c-6.96-5.54-11.56-15.96-11.61-25.18c-9.34-4.46-37.18-15.12-63.64-24.69
			c-7.84,24.7-14.41,47.53-15.64,55.9c11.03,7.52,14.99,16.8,16.33,23.55c1.6,8.02-0.12,14.24-0.32,14.92
			c-0.94,3.189-3.87,5.38-7.19,5.38h-24c-1.55,0-3.05-0.48-4.32-1.36c-28.25-19.859-27.42-28.159-27.15-30.89
			c0.35-3.45,1.84-7.23,3.56-11.61c3.02-7.68,6.78-17.229,4.63-25.819c-2.91-11.641-8.53-34.16-3.82-57.061
			c-8.51,0.91-20.05,1.63-32.53,1.63c-15.46,0-32.32-1.109-46.54-4.319c-8.82,12.08-21.43,22.83-37.73,32.17l30.99,58.72
			c9.92,1.309,32.41,6.16,32.41,23.04v8c0,4.14-3.36,7.5-7.5,7.5h-25.71c-11.37,0-21.97-5.08-29.1-13.92
			c-0.05-0.07-0.1-0.13-0.15-0.2l-37.91-50.41c-3.61,17.191-8.7,38.67-12.82,45.09c-7.7,11.96-19.8,18.221-34.76,18.221
			c-3.81,0-7.8-0.4-11.95-1.221c-6.38-1.26-11.25-6-12.7-12.369c-1.47-6.45,0.89-12.91,6.16-16.86l15.76-11.82
			c0.91-10.229,3.86-41.12,7.81-61.439c0.33-1.7,1.24-3.23,2.57-4.33c0.17-0.15,17.69-14.96,35.85-42.24
			c-18.87-30.85-18.22-71.91-14.67-88.34c-0.51-2.771-2.28-8.16-8.38-8.16c-28.37,0-42.5-12.23-48.39-19.53
			c-5.73-7.069-8.32-15.13-6.95-21.54c0.66-3.05,3.39-10.149,14.7-10.41c4.85-0.109,10.46,0.921,16.97,2.11
			c5.34,0.97,10.85,1.98,16.24,2.39c21.14,1.631,35.21,10.521,41.31,15.25c12.42-3,51.49-10.63,88.39,1.08
			c28.71,9.12,57.99,4.98,79.37,1.95c8.72-1.229,16.25-2.3,22.36-2.3c21.44,0,34.49,7.13,46.01,13.42
			c10.39,5.68,19.37,10.58,33.99,10.58c10.31,0,29.32-19.82,40.5-34.94v-13.56c0-4.14,3.35-7.5,7.5-7.5c4.14,0,7.5,3.36,7.5,7.5
			v15.08l4.55,18.21c6.67,1.94,23.31,8.77,27.31,29.27C450.51,163.867,462.04,183.598,462.16,183.788z M431.7,196.098
			c6.9,0,12.31-5.32,15.18-8.93c-3.91-7.33-11.59-22.99-14.54-38.13c-1.45-7.431-5.72-11.9-9.74-14.53c-0.88,2.1-2.7,3.77-5.08,4.37
			c-4.02,1-8.09-1.44-9.1-5.46l-4.3-17.19c-2.28,2.69-4.88,5.62-7.69,8.55c-14.36,15.021-26.38,22.32-36.73,22.32
			c-18.45,0-30-6.31-41.18-12.42c-10.91-5.95-21.21-11.58-38.82-11.58c-5.05,0-12.1,1-20.26,2.15c-22.81,3.23-54.04,7.649-86.01-2.5
			c-39.38-12.5-83.21-0.07-83.65,0.05c-2.62,0.77-5.45,0.04-7.39-1.9c-4.25-4.149-17.15-12.43-35.27-13.819
			c-6.16-0.48-12.33-1.601-17.78-2.601c-4.54-0.82-11.03-2-14.24-1.88c0.31,1.68,1.37,4.45,3.87,7.54
			c10.18,12.6,29.08,13.96,36.73,13.96c8.74,0,15.86,4.23,20.04,11.91c2.85,5.22,3.38,10.35,3.43,10.92
			c0.07,0.83,0.01,1.67-0.2,2.49c-2.97,11.88-4.96,53.37,14.88,81.899c1.73,2.48,1.8,5.761,0.17,8.32
			c-16.86,26.41-33.64,42.65-39.43,47.89c-4.29,23.53-7.39,60.31-7.42,60.69c-0.18,2.14-1.26,4.09-2.97,5.38l-18.44,13.83
			c-0.62,0.47-0.64,1.08-0.54,1.52c0.19,0.841,0.77,0.95,0.99,0.99c14.42,2.851,24.91-0.649,31.18-10.399
			c3.25-5.06,10.14-35.131,14.93-61.29c0.48-2.65,2.35-4.841,4.9-5.73c40.79-14.3,66.39-33.74,76.08-57.77
			c9.56-23.74-0.2-43.57-0.3-43.77c-1.87-3.7-0.38-8.21,3.32-10.08c3.7-1.859,8.21-0.38,10.07,3.32c0.53,1.05,12.9,26.17,0.82,56.13
			c-0.5,1.24-1.04,2.45-1.6,3.66c26.85,4.93,62.4,2.74,76.06,0.59c2.09-4.64,4.73-9.18,8.07-13.55c2.51-3.29,7.22-3.931,10.51-1.41
			c3.29,2.51,3.92,7.22,1.41,10.51c-18.91,24.76-10.34,59.01-6.69,73.63c3.31,13.25-1.62,25.79-5.22,34.95
			c-0.93,2.37-1.97,5.01-2.4,6.65c1.98,3.2,10.1,10.439,18.75,16.72h14.79c-0.38-4.93-2.87-12.25-12.91-17.99
			c-6.19-3.529-4.71-11.1-1.79-23.149c1.83-7.551,4.72-17.82,8.58-30.54c6.54-21.521,13.75-42.99,13.82-43.21
			c0.66-1.971,2.11-3.57,3.99-4.431c0.36-0.17,36.47-17.04,60.89-53.359c2.31-3.44,6.97-4.36,10.41-2.04
			c2.59,1.739,3.75,4.81,3.17,7.689c13.3,0.65,26.17-2.22,37.76-4.819C414.32,198.108,423.29,196.098,431.7,196.098z
			 M391.75,312.178c0.59-4.33,0.2-10.43-4.97-14.91c-1.64-1.43-10.95-8.16-19.96-14.66c-24.96-18.029-37.29-27.12-42.52-31.83
			c-9.91,7.32-18.23,11.971-22.48,14.16c-0.9,2.69-1.8,5.41-2.69,8.13c6.58,2.38,19.86,7.23,32.98,12.23
			c10.83,4.12,19.45,7.54,25.62,10.16c3.84,1.63,6.71,2.939,8.77,4.01c2.46,1.27,8.22,4.24,6.85,10.42
			c-0.94,4.24,1.42,12.14,5.76,15.6c1.8,1.431,3.35,1.63,5.36,0.67C386.54,325.178,390.74,319.668,391.75,312.178z M168.2,372.098
			v-0.5c0-3.73-12.47-7.8-22.68-8.52c-2.59-0.181-4.91-1.69-6.12-3.98l-32.9-62.34c-5.79,2.74-11.94,5.34-18.47,7.78l44.62,59.319
			c4.26,5.24,10.57,8.24,17.34,8.24H168.2z"/>
	</g>
</g>
<g>
</g>
<g>
</g>
<g>
</g>
<g>
</g>
<g>
</g>
<g>
</g>
<g>
</g>
<g>
</g>
<g>
</g>
<g>
</g>
<g>
</g>
<g>
</g>
<g>
</g>
<g>
</g>
<g>
</g>
</svg>
