<?xml version="1.0" encoding="iso-8859-1"?>
<!-- Generator: Adobe Illustrator 19.0.0, SVG Export Plug-In . SVG Version: 6.00 Build 0)  -->
<svg version="1.1" id="Capa_1" xmlns="http://www.w3.org/2000/svg" xmlns:xlink="http://www.w3.org/1999/xlink" x="0px" y="0px"
	 viewBox="0 0 462.674 462.674" style="enable-background:new 0 0 462.674 462.674;" xml:space="preserve">
<g>
	<g id="XMLID_93_">
		<g>
			<path style="fill:#938E80;" d="M62.255,243.494c-4.03,12.689-6.08,21.51-6.23,22.16c-0.2,0.859-0.24,1.739-0.13,2.609l0.15,1.221
				c-6.32,1.06-13.93,0.42-21.62-1.91c-9.76-2.96-16.3-7.65-18.46-10.98c-2.02-3.12-0.37-6.63,0.43-7.99
				c1.68-2.88,3.94-4.029,4.64-4.05C30.755,248.833,48.085,248.173,62.255,243.494z"/>
			<path style="fill:#938E80;" d="M187.884,283.013c1.24,0.09,2.5,0.19,3.77,0.29c-1.08,3.141-5.17,7.061-9.14,10.86
				c-5.24,5-11.62,11.11-14.76,18.99l-7.78-7.79c-0.73-0.721-1.14-1.721-1.14-2.74v-16.35c2.22-1.48,4.37-3.04,6.44-4.681
				C170.375,281.683,178.535,282.303,187.884,283.013z"/>
			<path style="fill:#AEA897;" d="M80.424,318.893c0,1.75,0.28,3.391,0.71,4.94h-0.21c-1.69,0-3.13-1.269-3.34-2.94l-6.64-53.159
				c7.35-31,33.84-108.08,73.31-112.96c52.66-6.5,149.6-0.02,150.57,0.04c1.33,0.09,2.67-0.171,3.86-0.77l30.17-15.09
				c7.26,0.63,34.95,4.17,57.83,22.26c1.5,1.2,3.42,1.76,5.34,1.59c0.22-0.02,22.28-1.91,35.11,6.75
				c4.31,2.9,7.47,13.82,10.01,22.59c0.82,2.83,1.66,5.75,2.55,8.5c1.55,4.77,3.57,8.351,5.19,11.23c1.88,3.34,2.79,5.04,2.79,6.99
				c0,4.529-1.75,8.97-3.53,8.97c-16.31,0-40.52,4.71-51.04,7.2c-10.84,2.569-14.45-2.45-20.11-14.53c-0.3-0.64-0.59-1.27-0.89-1.89
				c-1.78-3.74-6.26-5.33-10-3.55c-3.74,1.779-5.32,6.25-3.54,9.989c0.28,0.601,0.56,1.2,0.85,1.82c2.04,4.35,4.64,9.89,8.63,14.54
				c-6.38,17.71-30.09,44.68-30.33,44.95c-1.88,2.13-2.4,5.13-1.34,7.76l11.88,29.71h-9.56c-8.37-9.36-37.39-41.71-49.21-53.58
				c-2.27-3.78-5.18-22.78,1.48-40.25c1.47-3.87-0.47-8.2-4.34-9.68c-3.87-1.48-8.21,0.47-9.68,4.34
				c-5.59,14.66-6.21,32.26-3.58,44.189c-23.03,3.851-59.62,1.08-84.34-0.8c-3.56-0.27-6.87-0.52-9.92-0.73
				c0.97-1.37,1.88-2.78,2.72-4.24c2.07-3.58,0.85-8.17-2.74-10.24c-3.58-2.08-8.17-0.85-10.25,2.74
				c-11.14,19.29-40.16,30.21-59.35,37.43c-8.63,3.24-14.86,5.59-18.53,8.23C82.255,307.513,80.424,314.293,80.424,318.893z
				 M398.114,179.704c1.31-3.93-0.81-8.18-4.74-9.49c-0.57-0.18-14.01-4.58-28.1-1.92c-1.96,0.37-3.7,1.51-4.82,3.17
				c-1.12,1.65-1.53,3.68-1.15,5.64c0.32,1.62,3.33,16.07,11.6,24.74c1.48,1.55,3.45,2.32,5.43,2.32c1.86,0,3.72-0.69,5.18-2.07
				c2.99-2.859,3.1-7.609,0.24-10.609c-2.19-2.29-3.94-5.73-5.23-9.021c6.71,0.26,12,1.95,12.12,1.99
				C392.575,185.753,396.805,183.623,398.114,179.704z"/>
			<path style="fill:#3D484A;" d="M457.944,204.503c2.33,4.13,4.73,8.39,4.73,14.36c0,11.91-6.37,23.97-18.53,23.97
				c-13.85,0-36.04,4.07-47.58,6.8c-6.23,1.47-11.39,1.34-15.71,0.16c-6.86,15.92-22.29,35.14-28.87,42.97l12.43,31.07h10.92
				c4.14,0,7.5,3.36,7.5,7.5c0,4.14-3.36,7.5-7.5,7.5h-15.96c-0.01,0-0.03,0-0.04,0c-0.01,0-0.02,0-0.03,0h-23.97
				c-2.14,0-4.18-0.91-5.6-2.51c-0.36-0.4-34.46-38.641-49.04-53.61c-10.39,2.29-23.35,3.101-37.03,3.101
				c-12.18,0-24.92-0.641-36.91-1.431c-1.17,8.46-7.63,14.641-13.88,20.62c-7.48,7.15-12.36,12.24-11.96,18.83h18.42
				c4.14,0,7.5,3.36,7.5,7.5c0,4.14-3.36,7.5-7.5,7.5h-24c-1.99,0-3.9-0.79-5.3-2.2l-20.67-20.66c-3.57-3.569-5.53-8.31-5.53-13.35
				v-7.74c-10.18,5.061-20.51,8.95-29.07,12.17c-6.39,2.4-12.99,4.88-15.05,6.37c-1.59,1.15-4.27,3.38-4.29,5.44
				c-0.01,1.64,1.41,3.59,2.74,4.97h5.17c4.14,0,7.5,3.36,7.5,7.5c0,4.14-3.36,7.5-7.5,7.5h-7.88c-0.04,0-0.07,0.01-0.1,0.01
				c-0.03,0-0.06-0.01-0.08-0.01h-14.35c-9.24,0-17.08-6.91-18.22-16.08l-4.8-38.38c-2.65,0.41-5.37,0.61-8.12,0.61
				c-18.98,0-39.26-9.19-46.41-20.24c-6.18-9.54-3.05-20.71,2.79-27.54c5.9-6.9,14.09-9.41,20.88-6.39
				c3.53,1.569,12.01,2.409,22.29,0.559c9.25-1.67,17.18-5.13,20.21-8.809c0.04-0.04,0.08-0.08,0.12-0.131
				c1.98-5.09,4.17-10.369,6.59-15.699c18.74-41.25,41-63.74,66.16-66.841c50.41-6.23,136.63-1.119,151.38-0.18l30.18-15.09
				c1.13-0.56,2.39-0.82,3.64-0.79c1.51,0.06,36.3,1.62,66.07,23.85c7.62-0.3,27.76-0.069,41.84,9.431
				c8.82,5.95,12.49,18.62,16.03,30.87c0.82,2.83,1.59,5.51,2.41,8.04C455.055,199.364,456.525,201.973,457.944,204.503z
				 M447.674,218.864c0-1.95-0.91-3.65-2.79-6.99c-1.62-2.88-3.64-6.46-5.19-11.23c-0.89-2.75-1.73-5.67-2.55-8.5
				c-2.54-8.77-5.7-19.689-10.01-22.59c-12.83-8.66-34.89-6.77-35.11-6.75c-1.92,0.17-3.84-0.39-5.34-1.59
				c-22.88-18.09-50.57-21.63-57.83-22.26l-30.17,15.09c-1.19,0.6-2.53,0.86-3.86,0.77c-0.97-0.061-97.91-6.54-150.57-0.04
				c-39.47,4.88-65.96,81.96-73.31,112.96l6.64,53.159c0.21,1.671,1.65,2.94,3.34,2.94h0.21c-0.43-1.55-0.71-3.19-0.71-4.94
				c0-4.6,1.83-11.38,10.53-17.649c3.67-2.641,9.9-4.99,18.53-8.23c19.19-7.22,48.21-18.14,59.35-37.43
				c2.08-3.59,6.67-4.82,10.25-2.74c3.59,2.07,4.81,6.66,2.74,10.24c-0.84,1.46-1.75,2.87-2.72,4.24c3.05,0.21,6.36,0.46,9.92,0.73
				c24.72,1.88,61.31,4.65,84.34,0.8c-2.63-11.93-2.01-29.529,3.58-44.189c1.47-3.87,5.81-5.82,9.68-4.34
				c3.87,1.479,5.81,5.81,4.34,9.68c-6.66,17.47-3.75,36.47-1.48,40.25c11.82,11.87,40.84,44.22,49.21,53.58h9.56l-11.88-29.71
				c-1.06-2.63-0.54-5.63,1.34-7.76c0.24-0.27,23.95-27.24,30.33-44.95c-3.99-4.65-6.59-10.19-8.63-14.54
				c-0.29-0.62-0.57-1.22-0.85-1.82c-1.78-3.739-0.2-8.21,3.54-9.989c3.74-1.78,8.22-0.191,10,3.55c0.3,0.62,0.59,1.25,0.89,1.89
				c5.66,12.08,9.27,17.1,20.11,14.53c10.52-2.49,34.73-7.2,51.04-7.2C445.924,227.833,447.674,223.393,447.674,218.864z
				 M191.654,283.303c-1.27-0.1-2.53-0.2-3.77-0.29c-9.35-0.71-17.51-1.33-22.61-1.42c-2.07,1.641-4.22,3.2-6.44,4.681v16.35
				c0,1.02,0.41,2.02,1.14,2.74l7.78,7.79c3.14-7.88,9.52-13.99,14.76-18.99C186.484,290.364,190.575,286.444,191.654,283.303z
				 M56.025,265.654c0.15-0.65,2.2-9.471,6.23-22.16c-14.17,4.68-31.5,5.34-41.22,1.059c-0.7,0.021-2.96,1.17-4.64,4.05
				c-0.8,1.36-2.45,4.87-0.43,7.99c2.16,3.33,8.7,8.02,18.46,10.98c7.69,2.33,15.3,2.97,21.62,1.91l-0.15-1.221
				C55.785,267.393,55.825,266.513,56.025,265.654z"/>
			<path style="fill:#3D484A;" d="M393.375,170.213c3.93,1.311,6.05,5.561,4.74,9.49c-1.31,3.92-5.54,6.05-9.47,4.75
				c-0.12-0.04-5.41-1.73-12.12-1.99c1.29,3.29,3.04,6.73,5.23,9.021c2.86,3,2.75,7.75-0.24,10.609c-1.46,1.38-3.32,2.07-5.18,2.07
				c-1.98,0-3.95-0.77-5.43-2.32c-8.27-8.67-11.28-23.12-11.6-24.74c-0.38-1.96,0.03-3.989,1.15-5.64c1.12-1.66,2.86-2.8,4.82-3.17
				C379.364,165.633,392.805,170.034,393.375,170.213z"/>
		</g>
	</g>
</g>
<g>
</g>
<g>
</g>
<g>
</g>
<g>
</g>
<g>
</g>
<g>
</g>
<g>
</g>
<g>
</g>
<g>
</g>
<g>
</g>
<g>
</g>
<g>
</g>
<g>
</g>
<g>
</g>
<g>
</g>
</svg>
