<?xml version="1.0" encoding="iso-8859-1"?>
<!-- Generator: Adobe Illustrator 19.0.0, SVG Export Plug-In . SVG Version: 6.00 Build 0)  -->
<svg version="1.1" id="Capa_1" xmlns="http://www.w3.org/2000/svg" xmlns:xlink="http://www.w3.org/1999/xlink" x="0px" y="0px"
	 viewBox="0 0 463.074 463.074" style="enable-background:new 0 0 463.074 463.074;" xml:space="preserve">
<g id="XMLID_94_">
	<g>
		<path style="fill:#C39D62;" d="M356.675,285.926l10.37,9.12c-7.01-1.74-12.02-4.12-15.45-6.26
			C353.226,287.916,354.925,286.966,356.675,285.926z"/>
		<path style="fill:#C39D62;" d="M125.385,282.617c-4.6,3.689-12.05,6.66-18.779,9.33c-3,1.189-6.03,2.399-8.91,3.7
			c7.319-8.681,13.3-18.82,17.88-30.41C118.105,271.067,121.335,276.907,125.385,282.617z"/>
		<path style="fill:#3D484A;" d="M460.305,173.777c2.761,2.029,3.431,5.42,2.131,8.6l-5.521,13.49
			c-3.16,7.729-10.27,13.22-18.54,14.32l-3.2,0.43c-7.609,7.79-17.55,12.74-22.319,14.83c-13.4,24.87-29.181,41.12-43.301,51.83
			l18.9,16.63c0.88,0.78,1.57,1.75,2,2.84l16,40c1.54,3.85-0.33,8.21-4.17,9.75c-0.92,0.37-1.86,0.54-2.79,0.54
			c-2.97,0-5.79-1.78-6.96-4.71l-12.04-30.08c-25.77-1.88-38.8-11.06-44.31-16.44c-0.41,0.16-0.801,0.311-1.16,0.461
			c-0.561,0.21-1.181,0.449-1.73,0.67c-2.35,6.13-8.56,25.31-14.1,43.1h8.3c4.14,0,7.5,3.36,7.5,7.5c0,4.14-3.36,7.5-7.5,7.5h-16
			c-3.31,0-6.23-2.17-7.18-5.34l-19.891-66.3c-4.13,0.359-11.17,0.83-20.16,0.83c-17.46,0-42.21-1.771-67.01-9.53
			c-0.39-0.12-0.76-0.28-1.12-0.46c-5.029,6.66-11.809,14.1-20.39,22.399c-11.59,11.21-23.72,21.21-30.64,26.471l10.55,16.93h11.84
			c4.14,0,7.5,3.36,7.5,7.5c0,4.14-3.36,7.5-7.5,7.5h-16c-2.59,0-5-1.34-6.37-3.53l-27-43.34c-0.8-1.29-1.16-2.77-1.11-4.24
			c-1.64,0.67-3.27,1.32-4.869,1.96c-5.99,2.381-17.15,6.82-17.15,9.65v23.46c0,0.57,0.47,1.04,1.04,1.04h7.46
			c4.14,0,7.5,3.36,7.5,7.5c0,4.14-3.36,7.5-7.5,7.5h-7.46c-8.84,0-16.04-7.2-16.04-16.04v-27.06c-1.79,1.27-3.62,2.51-5.51,3.67
			c-21.38,13.069-43.05,15.02-54.07,15.02c-7.72,0-14.12-3.74-17.12-10l-1.56-3.26c-3.24-6.771-1.86-14.87,3.45-20.18
			c3.159-3.17,7.449-4.99,12.079-5.15c40.761-1.33,47.881-23.96,57.731-55.28c3.76-11.939,7.64-24.279,13.79-36.569
			c11.5-22.99,31.45-39.08,59.3-47.811c23.59-7.39,48.78-8.34,68.08-8.34c36.691,0,81.16,10.31,88.23,12h47.1
			c2.29,0,7.11-4.63,10.98-8.34c6.399-6.16,14.27-13.7,25.289-18.07c5.561-8.68,13.881-17.75,25.561-21.269
			c2.27-0.681,4.74-0.261,6.64,1.16c1.91,1.409,3.03,3.649,3.03,6.019v12.34c22.56,5.86,30.95,23.73,31.33,24.561
			c0.439,0.97,0.67,2.029,0.67,3.1C454.995,167.987,459.605,173.067,460.305,173.777z M443.035,190.187l3.81-9.311
			c-2.939-4.27-6.47-11.76-6.819-23.41c-1.69-2.83-6.8-10.01-17.03-13.87v3.94c0,4.14-3.36,7.5-7.5,7.5c-4.14,0-7.5-3.36-7.5-7.5
			v-19.1c-10.07,9.17-14.92,24.689-14.97,24.89c-0.971,3.27-3.96,5.38-7.19,5.38c-0.71,0-1.42-0.1-2.13-0.31
			c-2.59-0.771-4.45-2.811-5.11-5.24c-2.01,1.78-3.909,3.6-5.729,5.35c-6.71,6.45-13.04,12.53-21.37,12.53h-48
			c-0.6,0-1.21-0.07-1.79-0.22c-0.479-0.12-48.26-11.78-85.54-11.78c-41.92,0-92.75,5.44-113.96,47.85
			c-5.62,11.23-9.32,23-12.9,34.37c-9.909,31.511-20.159,64.09-71.55,65.78c-0.79,0.02-1.51,0.3-1.97,0.76
			c-0.81,0.811-1.021,2.05-0.521,3.08l1.561,3.271c0.66,1.37,2.92,1.479,3.59,1.479c16.65,0,72.15-5.53,87.41-76.66
			c0.1-0.43,0.229-0.84,0.38-1.229c-2.04-17.75,1.24-32.431,4.98-38.26c2.239-3.48,6.88-4.49,10.369-2.25
			c3.48,2.239,4.49,6.88,2.25,10.359c-3.29,5.26-9.75,40.55,15.48,71.181c1.93,2.34,2.26,5.619,0.83,8.289l-8.97,16.851l4.02,6.45
			c16.78-12.79,52.83-45.34,54.91-59.88c2.14-15.04-6.38-26.181-6.47-26.29c-2.53-3.25-1.981-7.96,1.26-10.521
			c3.23-2.55,7.91-2.04,10.49,1.18c0.519,0.65,12.649,16.12,9.559,37.75c-0.37,2.631-1.27,5.48-2.67,8.54
			c31.26,9.23,62.66,8.44,75.84,7.54c-0.17-1.109-0.09-2.239,0.23-3.319c0.04-0.11,3.479-11.521,7.85-31.431
			c0.89-4.04,4.89-6.609,8.941-5.72c4.04,0.89,6.6,4.89,5.72,8.94c-3.44,15.64-6.28,26.059-7.51,30.359l15.12,50.4
			c8.779-27.47,10.27-29.7,10.819-30.53c1.66-2.5,4.03-3.42,8.32-5.09c12.63-4.92,46.18-18,71.27-66.21
			c0.86-1.66,2.311-2.94,4.07-3.58c0.12-0.05,13.32-5.01,20.89-13.84c1.2-1.4,2.87-2.311,4.7-2.55l5.88-0.79
			C439.355,194.926,441.905,192.956,443.035,190.187z M367.045,295.046l-10.37-9.12c-1.75,1.04-3.449,1.99-5.08,2.86
			C355.025,290.926,360.035,293.306,367.045,295.046z M106.605,291.947c6.729-2.67,14.18-5.641,18.779-9.33
			c-4.05-5.71-7.279-11.55-9.809-17.38c-4.58,11.59-10.561,21.73-17.88,30.41C100.575,294.346,103.605,293.136,106.605,291.947z"/>
		<path style="fill:#C4A87C;" d="M446.845,180.876l-3.81,9.311c-1.13,2.77-3.68,4.739-6.65,5.13l-5.88,0.79
			c-1.83,0.239-3.5,1.149-4.7,2.55c-7.569,8.83-20.77,13.79-20.89,13.84c-1.76,0.64-3.21,1.92-4.07,3.58
			c-25.09,48.21-58.64,61.29-71.27,66.21c-4.29,1.67-6.66,2.59-8.32,5.09c-0.55,0.83-2.04,3.061-10.819,30.53l-15.12-50.4
			c1.229-4.3,4.069-14.72,7.51-30.359c0.88-4.051-1.68-8.051-5.72-8.94c-4.051-0.89-8.051,1.68-8.941,5.72
			c-4.37,19.91-7.809,31.32-7.85,31.431c-0.32,1.08-0.4,2.21-0.23,3.319c-13.18,0.9-44.58,1.69-75.84-7.54
			c1.4-3.06,2.3-5.909,2.67-8.54c3.09-21.63-9.04-37.1-9.559-37.75c-2.58-3.22-7.261-3.729-10.49-1.18
			c-3.24,2.561-3.79,7.271-1.26,10.521c0.09,0.109,8.609,11.25,6.47,26.29c-2.08,14.54-38.13,47.09-54.91,59.88l-4.02-6.45
			l8.97-16.851c1.43-2.67,1.1-5.949-0.83-8.289c-25.23-30.631-18.771-65.921-15.48-71.181c2.24-3.48,1.23-8.12-2.25-10.359
			c-3.489-2.24-8.13-1.23-10.369,2.25c-3.74,5.829-7.021,20.51-4.98,38.26c-0.15,0.39-0.28,0.8-0.38,1.229
			c-15.26,71.13-70.76,76.66-87.41,76.66c-0.67,0-2.93-0.109-3.59-1.479l-1.561-3.271c-0.5-1.03-0.289-2.27,0.521-3.08
			c0.46-0.46,1.18-0.74,1.97-0.76c51.391-1.69,61.641-34.27,71.55-65.78c3.58-11.37,7.28-23.14,12.9-34.37
			c21.21-42.409,72.04-47.85,113.96-47.85c37.28,0,85.061,11.66,85.54,11.78c0.58,0.149,1.19,0.22,1.79,0.22h48
			c8.33,0,14.66-6.08,21.37-12.53c1.82-1.75,3.72-3.569,5.729-5.35c0.66,2.43,2.521,4.47,5.11,5.24c0.71,0.21,1.42,0.31,2.13,0.31
			c3.23,0,6.22-2.11,7.19-5.38c0.05-0.2,4.899-15.72,14.97-24.89v19.1c0,4.14,3.36,7.5,7.5,7.5c4.14,0,7.5-3.36,7.5-7.5v-3.94
			c10.23,3.86,15.34,11.04,17.03,13.87C440.375,169.117,443.905,176.607,446.845,180.876z"/>
	</g>
</g>
<g>
</g>
<g>
</g>
<g>
</g>
<g>
</g>
<g>
</g>
<g>
</g>
<g>
</g>
<g>
</g>
<g>
</g>
<g>
</g>
<g>
</g>
<g>
</g>
<g>
</g>
<g>
</g>
<g>
</g>
</svg>
