<?xml version="1.0" encoding="iso-8859-1"?>
<!-- Generator: Adobe Illustrator 19.0.0, SVG Export Plug-In . SVG Version: 6.00 Build 0)  -->
<svg version="1.1" id="Capa_1" xmlns="http://www.w3.org/2000/svg" xmlns:xlink="http://www.w3.org/1999/xlink" x="0px" y="0px"
	 viewBox="0 0 462.995 462.995" style="enable-background:new 0 0 462.995 462.995;" xml:space="preserve">
<g>
	<g id="XMLID_95_">
		<g>
			<path style="fill:#6C6152;" d="M261.762,290.198l-4.42,8.859l-8.68,8.671l5.51-16.54
				C256.682,290.898,259.212,290.568,261.762,290.198z"/>
			<path style="fill:#9D8D79;" d="M418.972,294.818c-7.6-2.551-22.319-6.82-35.47-6.82h-0.86c-10.35,0-27.6,0.02-44.59-14.2
				c2.37-6.609,5.12-16.5,6.25-28.95c0.38-4.13-2.66-7.779-6.79-8.149c-4.109-0.391-7.77,2.66-8.149,6.79
				c-1.811,19.96-8.38,32.3-8.431,32.399c-1.05,1.91-1.22,4.19-0.449,6.24c0.05,0.14,3.789,10.26,5.98,22.2
				c-42.16-17.65-55.46-55.61-55.46-64.83c0-4.14-3.36-7.5-7.5-7.5c-4.14,0-7.5,3.36-7.5,7.5c0,6.57,3.48,19.99,12.4,34.481
				c-65.57,11.52-97.29-3.99-110.96-15.28c3.279-4.681,6.21-10,8.93-16.181c1.66-3.789-0.061-8.22-3.851-9.89
				c-3.789-1.66-8.22,0.06-9.89,3.851c-6.399,14.569-16.49,30.199-42.67,35.68c-23.5,4.92-45.6,21.82-54.96,29.76v-10.49
				c8.53-6.18,30.28-23.88,39.55-49.37c1.41-3.89-0.59-8.189-4.49-9.609c-2.46-0.9-5.09-0.41-7.05,1.05
				c-5.87-19.18-12.01-41.85-12.01-49.98c0.13-2.409,6.61-11.729,25-23.75c15.11-9.869,31.35-16.77,39.5-16.77
				c12.42,0,37.97,2.86,58.5,5.16c16.2,1.81,25.56,2.84,29.5,2.84c1.14,0,2.27-0.26,3.3-0.76c0.311-0.16,31.44-15.24,60.7-15.24
				c12.97,0,37.36,7.01,62.15,17.86c26.56,11.63,41.39,22.29,43.06,25.83c3.44,7.3,6.3,36.54,7.3,53.26
				c0.141,2.29,1.32,4.399,3.21,5.71c6.261,4.34,23.77,18.07,29.63,29.31c4.631,8.87,9.28,15.66,12.57,20.011l-4.45,4.439
				c-0.35,0.35-0.739,0.42-1.01,0.42c-0.35-0.01-0.65-0.14-0.88-0.39c-6.69-7.2-16.98-16.46-27.99-19.65
				c-3.97-1.16-8.14,1.13-9.29,5.11c-1.16,3.979,1.13,8.14,5.11,9.29c4.05,1.18,8.77,4.05,13.75,8.29l-0.09,0.069
				C420.082,294.908,419.521,294.997,418.972,294.818z M382.802,197.257c3.181-2.649,3.61-7.38,0.96-10.56
				c-2.6-3.12-16.26-18.7-29.76-18.7c-2.53,0-7.3,0.94-10.86,7.21c-6.25,11-6.34,34.05,4.42,52.13c1.4,2.351,3.891,3.66,6.45,3.66
				c1.3,0,2.62-0.34,3.83-1.06c3.561-2.11,4.72-6.721,2.601-10.28c-8.69-14.61-7.051-31.26-4.66-36.36
				c4.87,1.47,12.33,8.07,16.46,13C374.891,199.478,379.622,199.908,382.802,197.257z"/>
			<path style="fill:#3D484A;" d="M461.021,282.417c2.711,2.96,2.62,7.54-0.22,10.38l-9.22,9.23c-3.07,3.059-7.28,4.809-11.6,4.809
				c-0.101,0-0.2,0-0.301-0.01c-2.729-0.05-5.33-0.76-7.63-2.061l-2.7,1.95c-2.899,2.09-6.359,3.181-9.85,3.181
				c-1.78,0-3.57-0.28-5.3-0.86c-5.42-1.82-19.26-6.04-30.7-6.04h-0.84c-8.93,0-25.75,0.03-43.311-10.05
				c1.71,6.96,3.28,15.399,3.591,23.66c2.739,2.81,8.63,8.569,13.75,13.47c2.21,2.12,2.909,5.37,1.77,8.22
				c-1.14,2.84-3.9,4.7-6.96,4.7h-24c-3.74,0-6.91-2.76-7.43-6.47l-2.75-19.82c-16.58-7.53-29.101-17.75-38.37-28.39
				c-0.101,0.859-0.33,1.72-0.74,2.529l-8,16c-0.36,0.73-0.84,1.381-1.41,1.95l-12.17,12.181l5.58,11.17
				c1.16,2.319,1.04,5.08-0.33,7.29c-1.37,2.21-3.78,3.56-6.38,3.56h-16c-4.14,0-7.5-3.36-7.5-7.5v-24c0-0.81,0.13-1.61,0.38-2.37
				l5.51-16.53c-4.13,0.23-8.189,0.351-12.159,0.351c-33.15,0-60.021-7.79-78.171-22.99c-6.579,5.98-14.43,10.6-23.46,13.79
				l7.811,5.68c1.939,1.42,3.09,3.67,3.09,6.07v32c0,3.03-1.83,5.77-4.63,6.93c-0.93,0.38-1.9,0.57-2.87,0.57
				c-1.95,0-3.87-0.76-5.3-2.2l-16-16c-1.86-1.85-2.61-4.54-1.99-7.08l2.81-11.46l-8.859-6.47c-14.88,6.59-27.96,16.91-33.98,22.04
				l6.44,19.3c0.76,2.29,0.37,4.8-1.04,6.76c-1.41,1.95-3.67,3.11-6.08,3.11h-16c-4.14,0-7.5-3.36-7.5-7.5v-48
				c0-2.56,1.31-4.95,3.47-6.33c0.221-0.13,17.65-11.46,29.53-29.6c-2.51-7.681-13.05-40.511-16.14-59.53
				c-9.4,3.1-15.641,13.01-23.391,26.84c-6.14,10.95-12.489,22.26-22.62,27.33c-1.069,0.54-2.22,0.79-3.34,0.79
				c-2.76,0-5.399-1.52-6.72-4.15c-1.85-3.699-0.35-8.21,3.36-10.06c6-3,10.97-11.86,16.229-21.25c8.101-14.43,18-32.08,37.26-35.09
				c4.94-11.29,20.051-22.59,29.74-28.97c14.32-9.421,34.49-19.48,48.12-19.48c13.26,0,39.27,2.91,60.17,5.25
				c11.09,1.25,21.65,2.43,26.271,2.69c7.409-3.4,36.689-15.94,65.56-15.94c22.72,0,57.92,14.64,68.17,19.12
				c13.25,5.8,44.72,20.649,50.62,33.189c5.04,10.721,7.64,42.87,8.47,55.19c7.01,5.22,24.34,19.01,31.391,32.53
				C453.532,274.167,460.952,282.337,461.021,282.417z M440.972,291.417l4.45-4.439c-3.29-4.351-7.939-11.141-12.57-20.011
				c-5.859-11.239-23.369-24.97-29.63-29.31c-1.89-1.311-3.069-3.42-3.21-5.71c-1-16.72-3.859-45.96-7.3-53.26
				c-1.67-3.54-16.5-14.2-43.06-25.83c-24.79-10.851-49.181-17.86-62.15-17.86c-29.26,0-60.39,15.08-60.7,15.24
				c-1.03,0.5-2.16,0.76-3.3,0.76c-3.94,0-13.3-1.03-29.5-2.84c-20.53-2.3-46.08-5.16-58.5-5.16c-8.15,0-24.39,6.9-39.5,16.77
				c-18.39,12.021-24.87,21.341-25,23.75c0,8.131,6.14,30.801,12.01,49.98c1.96-1.46,4.59-1.95,7.05-1.05
				c3.9,1.42,5.9,5.72,4.49,9.609c-9.27,25.49-31.02,43.19-39.55,49.37v10.49c9.36-7.939,31.46-24.84,54.96-29.76
				c26.18-5.48,36.271-21.11,42.67-35.68c1.67-3.79,6.101-5.511,9.89-3.851c3.79,1.67,5.511,6.101,3.851,9.89
				c-2.72,6.181-5.65,11.5-8.93,16.181c13.67,11.29,45.39,26.8,110.96,15.28c-8.92-14.49-12.4-27.91-12.4-34.481
				c0-4.14,3.36-7.5,7.5-7.5c4.14,0,7.5,3.36,7.5,7.5c0,9.22,13.3,47.18,55.46,64.83c-2.191-11.94-5.93-22.061-5.98-22.2
				c-0.77-2.05-0.601-4.33,0.449-6.24c0.051-0.1,6.62-12.439,8.431-32.399c0.38-4.13,4.04-7.181,8.149-6.79
				c4.13,0.37,7.17,4.02,6.79,8.149c-1.13,12.45-3.88,22.341-6.25,28.95c16.99,14.22,34.24,14.2,44.59,14.2h0.86
				c13.15,0,27.87,4.27,35.47,6.82c0.55,0.18,1.11,0.09,1.601-0.261l0.09-0.069c-4.98-4.24-9.7-7.11-13.75-8.29
				c-3.98-1.15-6.271-5.311-5.11-9.29c1.15-3.98,5.32-6.271,9.29-5.11c11.01,3.19,21.3,12.45,27.99,19.65
				c0.229,0.25,0.53,0.38,0.88,0.39C440.232,291.837,440.622,291.767,440.972,291.417z M257.342,299.057l4.42-8.859
				c-2.55,0.37-5.08,0.7-7.59,0.99l-5.51,16.54L257.342,299.057z"/>
			<path style="fill:#3D484A;" d="M383.762,186.698c2.65,3.18,2.221,7.91-0.96,10.56c-3.18,2.65-7.91,2.221-10.56-0.96
				c-4.13-4.93-11.59-11.53-16.46-13c-2.391,5.101-4.03,21.75,4.66,36.36c2.119,3.56,0.96,8.17-2.601,10.28
				c-1.21,0.72-2.53,1.06-3.83,1.06c-2.56,0-5.05-1.31-6.45-3.66c-10.76-18.08-10.67-41.13-4.42-52.13
				c3.561-6.27,8.33-7.21,10.86-7.21C367.502,167.997,381.162,183.577,383.762,186.698z"/>
		</g>
	</g>
</g>
<g>
</g>
<g>
</g>
<g>
</g>
<g>
</g>
<g>
</g>
<g>
</g>
<g>
</g>
<g>
</g>
<g>
</g>
<g>
</g>
<g>
</g>
<g>
</g>
<g>
</g>
<g>
</g>
<g>
</g>
</svg>
