<?xml version="1.0" encoding="iso-8859-1"?>
<!-- Generator: Adobe Illustrator 19.0.0, SVG Export Plug-In . SVG Version: 6.00 Build 0)  -->
<svg version="1.1" id="Capa_1" xmlns="http://www.w3.org/2000/svg" xmlns:xlink="http://www.w3.org/1999/xlink" x="0px" y="0px"
	 viewBox="0 0 463 463" style="enable-background:new 0 0 463 463;" xml:space="preserve">
<g>
	<g id="XMLID_97_">
		<g>
			<path style="fill:#BD7B56;" d="M265.728,325.7c2.12,0.38,4.18,0.84,6.16,1.39c-4.42,6.67-8.47,13.03-12.13,19.04L265.728,325.7z"
				/>
			<path style="fill:#BD7B56;" d="M153.517,315.68L143.277,366c-0.22,1.07-0.2,2.17,0.04,3.22l6.3,26.7l-13.5-22.5v-39.63
				c4.65-1.83,8.7-5.06,11.56-9.35L153.517,315.68z"/>
			<path style="fill:#D88C62;" d="M429.507,154.33c1.11,0.55,1.65,1.85,1.26,3.03l-3.55,10.64h-18.6c-1.04,0-2.07,0.22-3.03,0.64
				c-11.6,5.13-26.54,9.091-39.23-5.97c-2.67-3.17-7.4-3.57-10.57-0.91c-3.17,2.67-3.57,7.4-0.9,10.57
				c6.18,7.34,13.25,12.13,21.17,14.38c-1.1,49.37-17.79,68.07-25.06,76.21l-1,1.12c-5.32,6.02-9.57,15.39-12.2,22.19
				c-0.84,2.159-2.48,3.89-4.63,4.89l-11.39,5.29c0.05-0.24,0.1-0.49,0.15-0.73c0.93-4.029-1.59-8.06-5.62-8.989
				c-4.04-0.931-8.07,1.59-8.99,5.63c-6.24,27.12,2.41,59.81,4.42,66.779l-0.2,4.61l-32.08-71.29c-1.7-3.78-6.14-5.46-9.91-3.76
				c-3.78,1.7-5.46,6.14-3.77,9.92l5.85,12.979c-18.13-4.02-39.17-2.109-55.58-0.619c-6.25,0.569-11.66,1.06-15.43,1.06
				c-27.35,0-42.27-13.42-42.86-13.96c-1.6-1.51-3.8-2.25-5.99-1.99c-2.19,0.25-4.16,1.45-5.39,3.29l-11.18,16.78
				c-1.58,2.36-4.02,3.92-6.71,4.27c-8.95,1.16-23.8,4.99-43.66,16.641c-16.11,9.46-29.6,27-40.17,45.26l10.35-41.41
				c10.36-4.78,38.27-19.149,43.49-37.67c1.97-6.99,0.65-13.94-3.8-20.1c-4.46-6.181-9.12-11.65-13.63-16.941
				c-13.99-16.4-21.68-26.37-17.29-40.43c4.86-15.54,43.87-30.061,71.98-26.79c6.19,0.72,13.31,1.7,20.85,2.74
				c27.45,3.79,61.62,8.51,85.05,5.239c3.9-0.55,7.41-1.12,10.81-1.68c15.02-2.46,24.94-4.08,41.85,1.39
				c15.62,5.051,25.22,1.38,30.53-2.6c7.63-5.72,11.64-15.93,11.27-28.75c-0.62-21.61,7.5-45.07,7.58-45.3
				c1.21-3.44-0.23-7.24-3.39-9.021c-14.1-7.95-19.41-15.359-21.17-20.81l29.63,17.77c1.79,1.08,3.95,1.36,5.95,0.771
				c2.01-0.58,3.68-1.98,4.61-3.851l8-16c0.15-0.29,0.27-0.6,0.38-0.909l1.59,7.189c0.42,1.88,1.55,3.54,3.16,4.61l22.35,14.899
				l7.11,14.21c0.72,1.46,1.9,2.631,3.35,3.36L429.507,154.33z M388.168,131.75c0-5.54-4.51-10.04-10.05-10.04
				c-5.53,0-10.04,4.5-10.04,10.04c0,5.54,4.51,10.04,10.04,10.04C383.657,141.79,388.168,137.29,388.168,131.75z"/>
			<path style="fill:#3D484A;" d="M436.217,140.91c7.74,3.87,11.51,12.979,8.78,21.189l-5.26,15.771c-1.02,3.06-3.89,5.13-7.12,5.13
				h-22.45c-6.75,2.84-13.13,4.5-19.14,5.01c-1.43,54.181-20.51,75.57-28.85,84.9l-0.93,1.05c-3.01,3.41-6.37,9.69-9.47,17.69
				c-2.24,5.79-6.61,10.439-12.29,13.069l-19.41,9.011c-0.01,21.359,6.29,41.949,6.37,42.21c0.26,0.829,0.37,1.69,0.33,2.55
				l-1.54,35.66l5.9,13.1c0.03,0.05,0.07,0.09,0.11,0.14l35.2,43.38c1.82,2.25,2.19,5.341,0.95,7.961
				c-1.25,2.609-3.88,4.27-6.78,4.27h-16c-2.95,0-5.62-1.73-6.84-4.42l-54.61-121.37c-35.1,53.37-43.53,84.04-45.49,94.05
				l23.55,18.32c2.53,1.97,3.53,5.32,2.49,8.35c-1.04,3.03-3.89,5.07-7.1,5.07h-24c-2.84,0-5.43-1.61-6.7-4.15l-8-16
				c-0.85-1.689-1.03-3.64-0.49-5.46l33.1-113.13c-11.65-0.33-23.63,0.76-33.12,1.62c-6.62,0.601-12.34,1.12-16.79,1.12
				c-13.37,0-24.38-2.75-32.86-6.1l-9.46,46.48l15.5,65.72l30.28,15.75c3.07,1.591,4.65,5.07,3.83,8.431
				c-0.82,3.359-3.83,5.72-7.29,5.72h-24c-2.63,0-5.07-1.38-6.43-3.64l-48-80c-0.7-1.17-1.07-2.5-1.07-3.86v-38.26
				c-7.06,1.99-16.75,5.72-28.7,12.729c-15.07,8.84-30.28,28.69-43.98,57.4c-3.5,7.34-6.49,14.41-8.94,20.59l8.25,25.21
				c0.75,2.28,0.36,4.79-1.05,6.73c-1.41,1.949-3.67,3.1-6.08,3.1h-16c-4.14,0-7.5-3.36-7.5-7.5v-24c0-0.61,0.08-1.22,0.23-1.82
				l24-96c0.57-2.29,2.2-4.18,4.38-5.1c13.17-5.53,35.23-18.42,38.33-29.441c0.72-2.559,0.25-4.8-1.52-7.25
				c-4.11-5.689-8.57-10.93-12.89-15.989c-14.02-16.45-27.26-31.98-20.18-54.641c8.3-26.56,58.33-40.649,88.02-37.21
				c6.35,0.74,13.55,1.73,21.17,2.78c26.54,3.67,59.56,8.22,80.93,5.24c3.72-0.52,7.14-1.08,10.46-1.62
				c15.94-2.61,28.52-4.67,48.88,1.91c5.26,1.699,12.46,3.029,16.92-0.32c3.63-2.72,5.5-8.52,5.28-16.33
				c-0.51-17.691,3.94-35.78,6.57-44.83c-12.68-8.14-20.5-17.37-23.28-27.47c-3.01-10.98,1.21-18.79,1.7-19.65
				c1.01-1.74,2.67-3.01,4.62-3.52c1.95-0.5,4.02-0.21,5.74,0.83l33.06,19.83l2.87-5.74l-13.88-34.71l-22.07-14.71
				c-2.08-1.391-3.34-3.73-3.34-6.24v-32c0-4.14,3.36-7.5,7.5-7.5c4.15,0,7.5,3.36,7.5,7.5v21.89l3.2-3.189
				c2.93-2.931,7.68-2.931,10.61,0c2.93,2.93,2.93,7.67,0,10.6l-4.73,4.74l11.58,7.72c1.27,0.84,2.24,2.05,2.81,3.45l13.65,34.14
				l-11.94-53.72c-0.12-0.54-0.18-1.08-0.18-1.63v-16c0-4.14,3.36-7.5,7.5-7.5c4.15,0,7.5,3.36,7.5,7.5v15.18l2.69,12.09
				c2.17-2.67,5.97-3.579,9.17-1.979c3.7,1.85,5.2,6.36,3.35,10.06l-7.42,14.851l7.38,33.229l21.49,14.33
				c1.09,0.721,1.97,1.721,2.55,2.891l6.88,13.76L436.217,140.91z M430.767,157.36c0.39-1.181-0.15-2.48-1.26-3.03l-24.24-12.12
				c-1.45-0.73-2.63-1.9-3.35-3.36l-7.11-14.21l-22.35-14.899c-1.61-1.07-2.74-2.73-3.16-4.61l-1.59-7.189
				c-0.11,0.31-0.23,0.619-0.38,0.909l-8,16c-0.93,1.87-2.6,3.271-4.61,3.851c-2,0.59-4.16,0.31-5.95-0.771l-29.63-17.77
				c1.76,5.45,7.07,12.859,21.17,20.81c3.16,1.78,4.6,5.58,3.39,9.021c-0.08,0.229-8.2,23.689-7.58,45.3
				c0.37,12.82-3.64,23.03-11.27,28.75c-5.31,3.98-14.91,7.65-30.53,2.6c-16.91-5.47-26.83-3.85-41.85-1.39
				c-3.4,0.56-6.91,1.13-10.81,1.68c-23.43,3.27-57.6-1.449-85.05-5.239c-7.54-1.04-14.66-2.02-20.85-2.74
				c-28.11-3.27-67.12,11.25-71.98,26.79c-4.39,14.06,3.3,24.029,17.29,40.43c4.51,5.29,9.17,10.76,13.63,16.941
				c4.45,6.159,5.77,13.109,3.8,20.1c-5.22,18.521-33.13,32.89-43.49,37.67l-10.35,41.41c10.57-18.26,24.06-35.8,40.17-45.26
				c19.86-11.65,34.71-15.48,43.66-16.641c2.69-0.35,5.13-1.909,6.71-4.27l11.18-16.78c1.23-1.84,3.2-3.04,5.39-3.29
				c2.19-0.26,4.39,0.48,5.99,1.99c0.59,0.54,15.51,13.96,42.86,13.96c3.77,0,9.18-0.49,15.43-1.06
				c16.41-1.49,37.45-3.4,55.58,0.619l-5.85-12.979c-1.69-3.78-0.01-8.22,3.77-9.92c3.77-1.7,8.21-0.021,9.91,3.76l32.08,71.29
				l0.2-4.61c-2.01-6.97-10.66-39.659-4.42-66.779c0.92-4.04,4.95-6.561,8.99-5.63c4.03,0.93,6.55,4.96,5.62,8.989
				c-0.05,0.24-0.1,0.49-0.15,0.73l11.39-5.29c2.15-1,3.79-2.73,4.63-4.89c2.63-6.801,6.88-16.171,12.2-22.19l1-1.12
				c7.27-8.14,23.96-26.84,25.06-76.21c-7.92-2.25-14.99-7.04-21.17-14.38c-2.67-3.17-2.27-7.9,0.9-10.57
				c3.17-2.66,7.9-2.26,10.57,0.91c12.69,15.061,27.63,11.1,39.23,5.97c0.96-0.42,1.99-0.64,3.03-0.64h18.6L430.767,157.36z
				 M271.887,327.09c-1.98-0.55-4.04-1.01-6.16-1.39l-5.97,20.43C263.418,340.12,267.467,333.76,271.887,327.09z M143.277,366
				l10.24-50.32l-5.84,8.761c-2.86,4.29-6.91,7.52-11.56,9.35v39.63l13.5,22.5l-6.3-26.7C143.077,368.17,143.057,367.07,143.277,366
				z"/>
			<path style="fill:#3D484A;" d="M378.117,121.71c5.54,0,10.05,4.5,10.05,10.04c0,5.54-4.51,10.04-10.05,10.04
				c-5.53,0-10.04-4.5-10.04-10.04C368.077,126.21,372.588,121.71,378.117,121.71z"/>
		</g>
	</g>
</g>
<g>
</g>
<g>
</g>
<g>
</g>
<g>
</g>
<g>
</g>
<g>
</g>
<g>
</g>
<g>
</g>
<g>
</g>
<g>
</g>
<g>
</g>
<g>
</g>
<g>
</g>
<g>
</g>
<g>
</g>
</svg>
