<?xml version="1.0" encoding="iso-8859-1"?>
<!-- Generator: Adobe Illustrator 19.0.0, SVG Export Plug-In . SVG Version: 6.00 Build 0)  -->
<svg version="1.1" id="Capa_1" xmlns="http://www.w3.org/2000/svg" xmlns:xlink="http://www.w3.org/1999/xlink" x="0px" y="0px"
	 viewBox="0 0 463 463" style="enable-background:new 0 0 463 463;" xml:space="preserve">
<g id="XMLID_98_">
	<g>
		<path style="fill:#CCB48D;" d="M445.79,120.048l-2.93,5.86H415.5c-0.73,0-1.46,0.1-2.16,0.309l-28.15,8.45
			c-0.99,0.3-2.07-0.07-2.66-0.92l-8.89-12.65c-2.39-3.39-7.06-4.21-10.45-1.83c-3.39,2.381-4.21,7.061-1.83,10.45l8.89,12.65
			c0.46,0.649,0.95,1.25,1.48,1.82c-21.42,41.22-54.5,54.06-54.82,54.18c-1.35,0.5-2.52,1.37-3.39,2.51
			c-11.16,14.74-25.4,23.49-37.7,27.09c0.45-0.569,0.91-1.14,1.39-1.7c16.52-19.39,17.7-34.809,17.78-36.51
			c0.2-4.13-3-7.649-7.13-7.84c-4.14-0.21-7.65,2.99-7.85,7.13c-0.01,0.12-0.92,11.88-14.22,27.49
			c-15.17,17.81-21.41,41.75-23.99,58.15l-10.39-52c3.47-6.49,11.06-23.49,7.46-42.66c-0.76-4.07-4.68-6.761-8.75-5.99
			c-4.07,0.76-6.75,4.68-5.99,8.75c3.38,18.01-6.85,34.42-6.94,34.56c-0.86,1.351-1.26,2.931-1.17,4.511
			c-14.81-0.25-35.98-1.86-61.54-12.23c4.97-17.33,3.5-33.42-4.4-47.83c-2-3.63-6.55-4.96-10.19-2.97
			c-3.63,1.99-4.96,6.55-2.97,10.18c6.04,11.01,7.03,23.53,2.94,37.221c-9.47,31.67-43.05,61.489-63.88,72.559
			c-15.44,8.2-23.6,19.6-27.47,30.58l-7.5-14.07c2.69-2.33,6.18-5.55,9.73-9.38c10.43-11.21,16.25-21.91,17.3-31.78
			c0.85-8.01-1.53-15.5-6.88-21.649c-5.06-5.82-10.57-11.26-15.9-16.52C29.02,199.948,15,186.098,15,165.408
			c0-10.32,9.75-30.4,28.39-48.79c12.01-11.84,36.82-31.71,68.11-31.71c52.53,0,97.82,15.92,130.96,46.05
			c1.89,1.72,4.55,2.36,7.02,1.68c4.71-1.279,18.75-3.84,27.11-0.319c15.12,6.37,31.89,6.34,46.01-0.08
			c11.73-5.33,31.69-23.25,33.93-25.271c2.91-2.63,3.3-7.069,0.89-10.17c-5.27-6.77-10.87-10.56-15.8-13.91
			c-4.86-3.29-9.05-6.13-13.08-11.6c-1.93-2.61-2.12-5.29-0.58-7.97c2.02-3.471,7.16-6.88,13.69-6.13
			c11.61,1.34,22.98,26.89,26.67,39.06c1.2,3.96,5.38,6.2,9.35,5.01c3.45-1.05,5.59-4.35,5.3-7.81c2.46,0.34,5.05,0.84,7.75,1.49
			c-3.09,1.569-5.22,4.77-5.22,8.47c0,5.24,4.26,9.5,9.5,9.5c5.24,0,9.5-4.26,9.5-9.5c0-1.7-0.45-3.29-1.23-4.67
			c6.62,2.39,13.73,5.479,21.23,9.27C433.4,112.498,441,117.038,445.79,120.048z"/>
		<path style="fill:#3D484A;" d="M459.75,111.229c3.08,2.119,4.13,6.189,2.46,9.529l-8,16c-1.27,2.54-3.87,4.15-6.71,4.15h-30.9
			l-27.1,8.13c-1.25,0.37-2.51,0.6-3.77,0.69c-21.2,41.89-52.99,58.109-61.52,61.85c-18.5,23.42-42.35,32.47-58.41,33.26
			c-10.25,23.021-10.8,48.351-10.8,48.68c-0.03,1.95-0.82,3.811-2.2,5.19l-5.8,5.81v44.891c0,30.39,22.18,59.09,22.41,59.38
			c1.76,2.25,2.09,5.32,0.83,7.9c-1.25,2.579-3.87,4.22-6.74,4.22h-16c-3.23,0-6.09-2.07-7.12-5.13l-8-24
			c-0.25-0.761-0.38-1.57-0.38-2.37v-87.26l-13.05-65.25c-15.36-0.11-40.08-1.27-69.8-13.24c-15.06,32.01-47.14,58.28-66.13,68.37
			c-11.94,6.34-19.2,15.309-21.59,26.66c-1.46,6.949-0.62,12.619-0.3,14.35l14.45,27.08c0.06,0.1,0.12,0.2,0.18,0.3
			c16.02,28.91,47.05,46.25,47.36,46.42c3,1.65,4.5,5.12,3.64,8.441c-0.85,3.309-3.84,5.63-7.26,5.63h-24
			c-2.77,0-5.31-1.53-6.62-3.97l-64-120c-1.74-3.271-0.84-7.311,2.12-9.53c6.78-5.11,24.7-21.33,26.13-34.86
			c0.41-3.92-0.64-7.17-3.29-10.22c-4.68-5.38-9.99-10.62-15.12-15.68C17.65,209.798,0,192.378,0,165.408
			c0-16.18,13.2-40.07,32.86-59.47c13.64-13.45,41.99-36.03,78.64-36.03c54.79,0,102.43,16.34,138.07,47.309
			c7.08-1.46,21.56-3.479,32.84,1.28c11.11,4.67,23.81,4.71,33.99,0.08c6.15-2.8,16.98-11.46,24.32-17.71
			c-2.35-2.061-4.83-3.74-7.52-5.561c-5.24-3.55-11.18-7.569-16.74-15.119c-5.47-7.421-6.02-16.54-1.48-24.381
			c5.45-9.409,16.86-14.84,28.38-13.52c11.03,1.27,21.09,10.35,29.89,26.99c1.58,2.979,2.97,5.93,4.17,8.66
			C412.59,79.048,457.81,109.888,459.75,111.229z M442.86,125.908l2.93-5.86c-4.79-3.01-12.39-7.55-21.29-12.04
			c-7.5-3.79-14.61-6.88-21.23-9.27c0.78,1.38,1.23,2.97,1.23,4.67c0,5.24-4.26,9.5-9.5,9.5c-5.24,0-9.5-4.26-9.5-9.5
			c0-3.7,2.13-6.9,5.22-8.47c-2.7-0.65-5.29-1.15-7.75-1.49c0.29,3.46-1.85,6.76-5.3,7.81c-3.97,1.19-8.15-1.05-9.35-5.01
			c-3.69-12.17-15.06-37.72-26.67-39.06c-6.53-0.75-11.67,2.659-13.69,6.13c-1.54,2.68-1.35,5.359,0.58,7.97
			c4.03,5.47,8.22,8.31,13.08,11.6c4.93,3.351,10.53,7.141,15.8,13.91c2.41,3.101,2.02,7.54-0.89,10.17
			c-2.24,2.021-22.2,19.941-33.93,25.271c-14.12,6.42-30.89,6.45-46.01,0.08c-8.36-3.521-22.4-0.96-27.11,0.319
			c-2.47,0.681-5.13,0.04-7.02-1.68c-33.14-30.13-78.43-46.05-130.96-46.05c-31.29,0-56.1,19.87-68.11,31.71
			C24.75,135.008,15,155.088,15,165.408c0,20.689,14.02,34.54,30.26,50.56c5.33,5.261,10.84,10.7,15.9,16.52
			c5.35,6.149,7.73,13.64,6.88,21.649c-1.05,9.87-6.87,20.57-17.3,31.78c-3.55,3.83-7.04,7.05-9.73,9.38l7.5,14.07
			c3.87-10.98,12.03-22.38,27.47-30.58c20.83-11.07,54.41-40.89,63.88-72.559c4.09-13.69,3.1-26.211-2.94-37.221
			c-1.99-3.63-0.66-8.189,2.97-10.18c3.64-1.99,8.19-0.66,10.19,2.97c7.9,14.41,9.37,30.5,4.4,47.83
			c25.56,10.37,46.73,11.98,61.54,12.23c-0.09-1.58,0.31-3.16,1.17-4.511c0.09-0.14,10.32-16.55,6.94-34.56
			c-0.76-4.07,1.92-7.99,5.99-8.75c4.07-0.771,7.99,1.92,8.75,5.99c3.6,19.17-3.99,36.17-7.46,42.66l10.39,52
			c2.58-16.4,8.82-40.341,23.99-58.15c13.3-15.61,14.21-27.37,14.22-27.49c0.2-4.14,3.71-7.34,7.85-7.13
			c4.13,0.191,7.33,3.71,7.13,7.84c-0.08,1.7-1.26,17.12-17.78,36.51c-0.48,0.561-0.94,1.131-1.39,1.7
			c12.3-3.6,26.54-12.35,37.7-27.09c0.87-1.14,2.04-2.01,3.39-2.51c0.32-0.12,33.4-12.96,54.82-54.18
			c-0.53-0.57-1.02-1.171-1.48-1.82l-8.89-12.65c-2.38-3.39-1.56-8.069,1.83-10.45c3.39-2.38,8.06-1.56,10.45,1.83l8.89,12.65
			c0.59,0.85,1.67,1.22,2.66,0.92l28.15-8.45c0.7-0.21,1.43-0.309,2.16-0.309H442.86z"/>
	</g>
</g>
<g>
</g>
<g>
</g>
<g>
</g>
<g>
</g>
<g>
</g>
<g>
</g>
<g>
</g>
<g>
</g>
<g>
</g>
<g>
</g>
<g>
</g>
<g>
</g>
<g>
</g>
<g>
</g>
<g>
</g>
</svg>
