<?xml version="1.0" encoding="iso-8859-1"?>
<!-- Generator: Adobe Illustrator 19.0.0, SVG Export Plug-In . SVG Version: 6.00 Build 0)  -->
<svg version="1.1" id="Capa_1" xmlns="http://www.w3.org/2000/svg" xmlns:xlink="http://www.w3.org/1999/xlink" x="0px" y="0px"
	 viewBox="0 0 463.061 463.061" style="enable-background:new 0 0 463.061 463.061;" xml:space="preserve">
<g id="XMLID_99_">
	<g>
		<path style="fill:#A88768;" d="M218.412,275.901l-17.54,51.83c-3.59,4.149-6.859,8.189-9.859,12.12l7.23-72.34
			c6.12,0.079,12.48,0.01,19.141-0.221C217.683,270.171,218.032,273.041,218.412,275.901z"/>
		<path style="fill:#C79F7A;" d="M448.042,159.491l-16.539,11.03l-19.841-13.23c-1.42-0.939-3.1-1.38-4.81-1.229
			c-25.95,2.229-42.57,21.559-53.561,34.35c-2.699,3.14-5.029,5.84-6.96,7.69c-3.55,3.38-19.54-2.051-30.93-8.971
			c-2.149-1.319-4.83-1.46-7.11-0.38c-2.279,1.08-3.869,3.24-4.22,5.74c-2.859,20.49-10.64,35.47-16.67,44.43
			c-6.58,9.78-12.58,14.74-12.61,14.78c-1.35,1.08-2.279,2.6-2.63,4.29c-3.56,16.96-9.71,35.61-15.659,53.65
			c-3.4,10.34-6.731,20.439-9.5,29.979v-2.09c0-0.71-0.101-1.42-0.301-2.11c-0.16-0.529-15.699-54.09-15.699-93.89
			c0-4.14-3.36-7.5-7.5-7.5c-4.141,0-7.5,3.36-7.5,7.5c0,2.88,0.069,5.82,0.21,8.79c-7.851,0.26-15.301,0.28-22.36,0.09
			c-0.51-0.17-1.04-0.29-1.6-0.34c-0.921-0.1-1.801-0.01-2.641,0.21c-75.97-2.96-104.52-29.78-104.81-30.05
			c-1.92-1.92-4.721-2.66-7.33-1.92c-2.62,0.739-4.63,2.83-5.26,5.47c-7.45,30.97-26.11,59.82-39.74,80.89
			c-6.08,9.4-10.431,16.221-13.13,21.63c-1.051-6.68-2.34-13.399-3.92-19.979c3.85-8.37,15.58-35.62,15.58-56.79
			c0-11.38-3.37-23.43-6.931-36.19c-4.25-15.199-9.069-32.439-9.069-51.81c0-31.5,34.42-48.5,48.5-48.5
			c5.659,0,14.329,0.74,24.369,1.59c35.45,3,89.03,7.55,115.881-10.91c25.96-17.85,45.72-13.319,66.64-8.529
			c2.53,0.58,5.04,1.149,7.55,1.689c0.58,0.12,1.19,0.25,1.811,0.391c9.319,2.05,25.689,5.64,39.8-5.44
			c13.1,5.44,25.2,8.19,36.25,8.19c2.149,0,4.26-0.131,6.33-0.33c-2.92,2.08-4.841,5.5-4.841,9.35c0,6.34,5.16,11.5,11.5,11.5
			c5.83,0,10.65-4.36,11.391-9.99c10.51,5.641,26.55,10.13,46.27,15.29c3.86,1.01,7.59,1.981,11.07,2.931
			C445.303,132.891,447.832,149.361,448.042,159.491z"/>
		<path style="fill:#3D484A;" d="M441.482,116.301c22.8,6.23,21.71,43.37,21.51,47.591c-0.109,2.37-1.35,4.559-3.33,5.88l-24,16
			c-2.52,1.68-5.8,1.68-8.319,0l-21.71-14.471c-18.511,2.761-31.42,17.79-40.971,28.891c-2.96,3.439-5.51,6.41-7.989,8.77
			c-6.61,6.301-17.29,6.75-31.74,1.34c-2.82-1.05-5.51-2.23-7.88-3.35c-7.221,32.22-24.65,50.86-30.74,56.55
			c-3.77,17.08-9.76,35.25-15.559,52.84c-8.101,24.57-15.75,47.771-15.75,63.19c0,35.69,12.909,49.77,13.67,50.56
			c2.3,2.07,3.02,5.271,1.92,8.171c-1.11,2.909-3.98,4.77-7.09,4.77h-16c-3.23,0-6.101-2.07-7.12-5.13l-8-24
			c-0.25-0.76-0.38-1.561-0.38-2.37v-70.94c-1.08-3.8-4.7-16.869-8.23-33.75l-9.17,27.091c-0.311,0.93-0.8,1.79-1.45,2.529
			c-30.03,34.46-36.71,58.98-37.03,73.48c-0.3,13.78,5.03,20.66,5.091,20.72c1.89,2.23,2.329,5.36,1.1,8.01
			c-1.23,2.66-3.88,4.36-6.81,4.36h-13.5c-2.94,0-5.61-1.72-6.83-4.4l-7.5-16.5c-0.811-1.79-0.891-3.819-0.221-5.67l28.681-78.609
			l7.08-70.83c-54.45-2.96-85.29-17.74-99.45-26.88c-6.95,21.97-18.25,42.17-28.81,59.18c-5.02,77.11,32.78,131.33,33.16,131.87
			c1.63,2.29,1.84,5.29,0.55,7.78c-1.279,2.489-3.85,4.06-6.659,4.06h-16c-2.98,0-5.681-1.76-6.87-4.49l-10.5-24
			c-0.301-0.68-0.49-1.39-0.58-2.12c-0.061-0.489-5.271-43.029-17.05-72.51c0.05,66.54,14.729,91.42,14.869,91.67
			c1.46,2.311,1.53,5.2,0.21,7.601c-1.31,2.39-3.85,3.85-6.579,3.85h-16c-3.231,0-6.101-2.07-7.12-5.13l-8-24
			c-0.311-0.93-0.431-1.92-0.36-2.9c0.04-0.55,3.76-56.06-7.79-101.63c-0.44-1.72-0.25-3.54,0.53-5.14
			c0.16-0.311,15.24-31.41,15.24-52.7c0-9.33-2.961-19.9-6.381-32.15c-4.51-16.14-9.619-34.43-9.619-55.85
			c0-41.09,41.949-63.5,63.5-63.5c6.3,0,15.26,0.76,25.64,1.64c33.32,2.83,83.68,7.101,106.11-8.319
			c31.39-21.58,56.409-15.851,78.489-10.79c2.45,0.56,4.88,1.12,7.32,1.63c0.61,0.13,1.25,0.27,1.92,0.42
			c7.15,1.57,13.81,2.68,19.87,1.09c-18.41-10.15-38.561-25.01-60.36-44.59c-3.08-2.771-3.34-7.51-0.569-10.59
			c2.76-3.08,7.5-3.34,10.59-0.57c7.439,6.68,14.68,12.79,21.7,18.32c-3.091-5.17-6.24-10.95-9.44-17.42
			c-1.83-3.71-0.31-8.21,3.41-10.04c3.71-1.84,8.21-0.32,10.04,3.399c12.42,25.12,24.72,40.04,34.8,46.771
			c-3.33-6.99-6.27-15.54-8.8-25.63c-1-4.021,1.439-8.09,5.46-9.101c4.02-1,8.09,1.441,9.09,5.46c3.86,15.42,8.39,25.32,12.69,31.08
			c5.59-4.76,7.699-15.84,4.77-27.42c-1.02-4.01,1.41-8.09,5.43-9.109c4.021-1.02,8.091,1.409,9.11,5.43
			c3.33,13.14,1.93,25.6-3.16,34.63c4.21-3.39,8.88-9.76,12.95-19.65c1.58-3.819,5.96-5.649,9.79-4.08
			c3.83,1.58,5.66,5.971,4.08,9.801c-4.45,10.8-9.94,19.109-16.05,24.55c2.79-0.15,5.479-0.521,8.04-1.141
			c21.899-5.289,30.06-26.6,33.13-34.619c0.51-1.341,0.85-2.23,1.239-3c1.851-3.71,6.36-5.21,10.061-3.36
			c3.7,1.85,5.2,6.33,3.38,10.03c-0.12,0.25-0.43,1.05-0.67,1.699c-1.78,4.641-5.43,14.131-12.51,23.261
			c5.89-2.12,12.059-5.271,17.58-9.98c3.149-2.689,7.88-2.319,10.569,0.83c2.69,3.15,2.32,7.88-0.83,10.57
			c-14.409,12.3-31.67,16.17-42.569,17.34c9.529,5.62,30.8,11.18,44.45,14.75C434.162,114.341,437.942,115.331,441.482,116.301z
			 M431.503,170.521l16.539-11.03c-0.21-10.13-2.739-26.6-10.52-28.729c-3.48-0.95-7.21-1.921-11.07-2.931
			c-19.72-5.16-35.76-9.649-46.27-15.29c-0.74,5.63-5.561,9.99-11.391,9.99c-6.34,0-11.5-5.16-11.5-11.5
			c0-3.85,1.921-7.27,4.841-9.35c-2.07,0.199-4.181,0.33-6.33,0.33c-11.05,0-23.15-2.75-36.25-8.19
			c-14.11,11.08-30.48,7.49-39.8,5.44c-0.62-0.141-1.23-0.271-1.811-0.391c-2.51-0.54-5.02-1.109-7.55-1.689
			c-20.92-4.79-40.68-9.32-66.64,8.529c-26.851,18.46-80.431,13.91-115.881,10.91c-10.04-0.85-18.71-1.59-24.369-1.59
			c-14.08,0-48.5,17-48.5,48.5c0,19.37,4.819,36.61,9.069,51.81c3.561,12.761,6.931,24.811,6.931,36.19
			c0,21.17-11.731,48.42-15.58,56.79c1.58,6.58,2.869,13.3,3.92,19.979c2.699-5.409,7.05-12.229,13.13-21.63
			c13.63-21.069,32.29-49.92,39.74-80.89c0.63-2.64,2.64-4.73,5.26-5.47c2.609-0.74,5.41,0,7.33,1.92
			c0.29,0.27,28.84,27.09,104.81,30.05c0.84-0.22,1.72-0.31,2.641-0.21c0.56,0.05,1.09,0.17,1.6,0.34
			c7.059,0.19,14.51,0.17,22.36-0.09c-0.141-2.97-0.21-5.91-0.21-8.79c0-4.14,3.359-7.5,7.5-7.5c4.14,0,7.5,3.36,7.5,7.5
			c0,39.8,15.539,93.36,15.699,93.89c0.2,0.69,0.301,1.4,0.301,2.11v2.09c2.77-9.54,6.1-19.64,9.5-29.979
			c5.949-18.04,12.1-36.69,15.659-53.65c0.351-1.691,1.28-3.21,2.63-4.29c0.03-0.04,6.03-5,12.61-14.78
			c6.03-8.96,13.811-23.939,16.67-44.43c0.351-2.5,1.94-4.66,4.22-5.74c2.28-1.08,4.961-0.939,7.11,0.38
			c11.39,6.92,27.38,12.351,30.93,8.971c1.931-1.851,4.261-4.551,6.96-7.69c10.99-12.79,27.61-32.12,53.561-34.35
			c1.71-0.15,3.39,0.29,4.81,1.229L431.503,170.521z M200.872,327.731l17.54-51.83c-0.38-2.86-0.729-5.73-1.029-8.61
			c-6.66,0.23-13.021,0.3-19.141,0.221l-7.23,72.34C194.013,335.921,197.282,331.881,200.872,327.731z"/>
	</g>
</g>
<g>
</g>
<g>
</g>
<g>
</g>
<g>
</g>
<g>
</g>
<g>
</g>
<g>
</g>
<g>
</g>
<g>
</g>
<g>
</g>
<g>
</g>
<g>
</g>
<g>
</g>
<g>
</g>
<g>
</g>
</svg>
