<?xml version="1.0" encoding="iso-8859-1"?>
<!-- Generator: Adobe Illustrator 19.0.0, SVG Export Plug-In . SVG Version: 6.00 Build 0)  -->
<svg version="1.1" id="Capa_1" xmlns="http://www.w3.org/2000/svg" xmlns:xlink="http://www.w3.org/1999/xlink" x="0px" y="0px"
	 viewBox="0 0 463.497 463.497" style="enable-background:new 0 0 463.497 463.497;" xml:space="preserve">
<g>
	<g id="XMLID_55_">
		<g>
			<path style="fill:#756A59;" d="M248.91,288.81c-4.62,6.97-9.63,12.69-14.141,17.15l3.261-16.29
				C241.74,289.49,245.38,289.2,248.91,288.81z"/>
			<path style="fill:#756A59;" d="M158.2,279.46c4.63,1.69,10.08,3.24,16.08,4.61c-10.92,14.25-23.65,20.99-29.561,23.54l-0.37-0.46
				L158.2,279.46z"/>
			<path style="fill:#AA9881;" d="M445.41,219.07l-8.33,6.12l-28.4-4.51c-1.97-0.311-3.989,0.17-5.6,1.35
				c-0.09,0.06-9.14,6.48-21.441,8.82c-16.189,3.08-30.42-2.15-42.29-15.561c-2.739-3.1-7.48-3.39-10.59-0.649
				c-3.1,2.75-3.39,7.49-0.64,10.59c12.149,13.73,25.26,19.36,37.03,20.96c-20.62,17.66-54.25,22.41-54.641,22.46
				c-3.729,0.5-6.51,3.68-6.51,7.44c0,6.53-2.96,17.57-6.14,27.44c-1.191-2.42-2.48-4.84-3.9-7.24
				c-9.85-16.76-22.96-41.24-22.96-60.2c0-4.14-3.36-7.5-7.5-7.5s-7.5,3.36-7.5,7.5c0,10.06,2.58,21.29,8.08,34.62
				c-29.57,8.81-82.65,2.14-103.14-6.21c2.989-6.14,5.119-12.649,6-19.45c0.529-4.11-2.37-7.87-6.48-8.4
				c-4.11-0.53-7.87,2.37-8.4,6.48c-2.43,18.87-18.29,35.71-31.159,46.53c-10.94,9.19-21.681,15.71-26.391,18.4l-6.59-15.37
				c2.13-3.65,5.271-9.47,6.76-14.45c0.801-2.65,0.06-5.53-1.91-7.48c-0.1-0.11-10.399-10.45-18.189-27.56
				c-10.25-22.51-11.58-45.65-3.96-68.76c1.3-3.94-0.84-8.18-4.771-9.47c-3.939-1.3-8.18,0.84-9.47,4.77
				c-8.79,26.64-7.12,54.39,4.81,80.24c0.26,0.57,0.529,1.12,0.8,1.68c-1.76,21.82-17.23,44.97-26.25,56.79
				C28.14,294.82,15,266.81,15,236.09c0-23.71,12.06-58.67,39-83.34c24.93-22.83,57.51-32.66,96.84-29.19
				c27.97,2.46,64.11,8.871,95.99,14.53c29.939,5.31,53.58,9.5,64.67,9.5h47.41c-1.15,9.49-0.391,18.53-0.38,18.72
				c0.38,3.88,3.64,6.78,7.46,6.78c0.24,0,0.479-0.01,0.729-0.04c4.12-0.39,7.141-4.06,6.75-8.18c-0.87-9,0.391-18.65,1.91-23.09
				c2.87,1.63,8.19,5.66,18.01,14.8c3.03,2.82,7.78,2.65,10.601-0.38c1.66-1.79,2.279-4.16,1.89-6.39
				c3.78,0.17,7.41,0.791,9.74,2.19c4.75,2.88,11.93,24.03,14.48,39.32C431.37,198.9,439.58,211.14,445.41,219.07z M423.05,198
				c1.311-2.81,0.75-6.14-1.41-8.37l-6.18-6.4c-4.44-4.61-11.6-5.15-16.64-1.27c-3.5,2.68-10.95,7.97-21.59,13.13
				c-3.73,1.81-5.29,6.3-3.48,10.02c1.3,2.67,3.97,4.23,6.76,4.23c1.09,0,2.21-0.24,3.26-0.75c5.24-2.55,9.801-5.11,13.671-7.51
				l18.3,1.24C418.85,202.54,421.74,200.81,423.05,198z"/>
			<path style="fill:#3D484A;" d="M461.88,215.94c1.27,1.59,1.82,3.63,1.55,5.65c-0.27,2.02-1.35,3.84-2.989,5.04l-17,12.5
				c-1.61,1.19-3.641,1.68-5.62,1.37l-28.641-4.55c-4.09,2.5-12.43,6.97-23.01,9.28c-17.38,25.02-53.309,34.42-67.65,37.26
				c-2.01,14.98-9.739,35.83-12.329,42.52c1.31,4.41,2.3,8.48,3.029,11.98c0.44,2.08,2.351,3.6,4.55,3.6h13.73
				c4.14,0,7.5,3.36,7.5,7.5c0,4.14-3.36,7.5-7.5,7.5h-13.73c-9.25,0-17.34-6.53-19.229-15.52c-1.97-9.38-5.91-23.28-13.5-36.18
				c-4.09-6.94-7.62-13.391-10.66-19.45c-0.69,0.22-1.38,0.44-2.09,0.65c-0.13,0.37-0.271,0.74-0.46,1.11
				c-11.441,22.17-27.67,35.86-35.25,41.43l4.33,12.96h18.59c4.14,0,7.5,3.36,7.5,7.5c0,4.14-3.36,7.5-7.5,7.5h-24
				c-3.23,0-6.09-2.07-7.12-5.13l-8-24c-0.41-1.24-0.49-2.56-0.229-3.84l6.55-32.77c-10.95-0.24-22.03-1.23-32.33-2.78
				c-0.17,0.41-0.38,0.81-0.64,1.2c-11.79,17.57-26.261,26.9-35.36,31.411l16.729,20.91h20.4c4.14,0,7.5,3.36,7.5,7.5
				c0,4.14-3.36,7.5-7.5,7.5h-24c-2.28,0-4.43-1.04-5.86-2.82l-32-40c-1.819-2.28-2.159-5.419-0.85-8.04l1.8-3.6
				c-13.17,11.09-25.83,18.43-30.14,20.81l8,18.65h19.05c4.14,0,7.5,3.36,7.5,7.5c0,4.14-3.36,7.5-7.5,7.5h-24
				c-3,0-5.71-1.79-6.89-4.55l-24-56c-0.98-2.29-0.771-4.91,0.58-7.01c1.14-1.77,3.81-6.24,5.659-10.31
				c-1.51-1.76-3.42-4.13-5.529-7.04c-9.181,29.23-31.78,54.5-32.92,55.77c-1.431,1.58-3.45,2.47-5.57,2.47
				c-0.16,0-0.32,0-0.48-0.01c-2.279-0.15-4.369-1.33-5.68-3.21C27.5,324.02,0,283.89,0,236.09c0-26.99,13.56-66.65,43.87-94.4
				c27.76-25.43,65.2-36.87,108.29-33.07c28.62,2.521,65.1,8.99,97.29,14.7c26.89,4.77,52.28,9.27,62.05,9.27h51.69
				c1.94-3.4,4.609-5.88,8.3-6.55c5.609-1.02,12.1,2.42,20.779,9.53c6.08-0.89,21.32-2.33,31.11,3.6
				c14.55,8.81,21.24,48.02,21.52,49.69C445.61,193.1,454.25,206.29,461.88,215.94z M437.08,225.19l8.33-6.12
				c-5.83-7.93-14.04-20.17-15.311-27.75c-2.55-15.29-9.73-36.44-14.48-39.32c-2.33-1.399-5.96-2.02-9.74-2.19
				c0.39,2.23-0.23,4.6-1.89,6.39c-2.82,3.03-7.57,3.2-10.601,0.38c-9.819-9.14-15.14-13.17-18.01-14.8
				c-1.52,4.44-2.78,14.09-1.91,23.09c0.391,4.12-2.63,7.79-6.75,8.18c-0.25,0.03-0.489,0.04-0.729,0.04c-3.82,0-7.08-2.9-7.46-6.78
				c-0.011-0.19-0.771-9.23,0.38-18.72H311.5c-11.09,0-34.73-4.19-64.67-9.5c-31.88-5.66-68.02-12.07-95.99-14.53
				c-39.33-3.47-71.91,6.36-96.84,29.19c-26.94,24.67-39,59.63-39,83.34c0,30.72,13.14,58.73,20.74,72.36
				c9.02-11.82,24.49-34.97,26.25-56.79c-0.271-0.559-0.54-1.11-0.8-1.68c-11.931-25.85-13.601-53.6-4.81-80.24
				c1.29-3.93,5.53-6.07,9.47-4.77c3.931,1.29,6.07,5.53,4.771,9.47c-7.62,23.11-6.29,46.25,3.96,68.76
				c7.79,17.11,18.09,27.45,18.189,27.56c1.971,1.95,2.711,4.83,1.91,7.48c-1.489,4.98-4.63,10.8-6.76,14.45l6.59,15.37
				c4.71-2.69,15.45-9.209,26.391-18.4c12.869-10.82,28.729-27.66,31.159-46.53c0.53-4.11,4.29-7.01,8.4-6.48
				c4.11,0.53,7.01,4.29,6.48,8.4c-0.881,6.8-3.011,13.31-6,19.45c20.489,8.351,73.569,15.02,103.14,6.21
				c-5.5-13.33-8.08-24.56-8.08-34.62c0-4.14,3.36-7.5,7.5-7.5s7.5,3.36,7.5,7.5c0,18.96,13.11,43.44,22.96,60.2
				c1.42,2.4,2.71,4.82,3.9,7.24c3.18-9.87,6.14-20.91,6.14-27.44c0-3.76,2.78-6.94,6.51-7.44c0.391-0.05,34.021-4.8,54.641-22.46
				c-11.77-1.6-24.881-7.23-37.03-20.96c-2.75-3.1-2.46-7.84,0.64-10.59c3.11-2.74,7.851-2.45,10.59,0.649
				c11.87,13.41,26.101,18.641,42.29,15.561c12.301-2.34,21.351-8.76,21.441-8.82c1.61-1.18,3.63-1.66,5.6-1.35L437.08,225.19z
				 M234.77,305.96c4.511-4.46,9.52-10.18,14.141-17.15c-3.53,0.39-7.17,0.68-10.88,0.86L234.77,305.96z M174.28,284.07
				c-6-1.37-11.45-2.92-16.08-4.61l-13.851,27.69l0.37,0.46C150.63,305.06,163.36,298.32,174.28,284.07z"/>
			<path style="fill:#3D484A;" d="M421.64,189.63c2.16,2.23,2.721,5.56,1.41,8.37c-1.31,2.81-4.2,4.54-7.31,4.32l-18.3-1.24
				c-3.87,2.4-8.431,4.96-13.671,7.51c-1.05,0.51-2.17,0.75-3.26,0.75c-2.79,0-5.46-1.56-6.76-4.23c-1.81-3.72-0.25-8.21,3.48-10.02
				c10.64-5.16,18.09-10.45,21.59-13.13c5.04-3.88,12.199-3.34,16.64,1.27L421.64,189.63z"/>
		</g>
	</g>
</g>
<g>
</g>
<g>
</g>
<g>
</g>
<g>
</g>
<g>
</g>
<g>
</g>
<g>
</g>
<g>
</g>
<g>
</g>
<g>
</g>
<g>
</g>
<g>
</g>
<g>
</g>
<g>
</g>
<g>
</g>
</svg>
