<?xml version="1.0" encoding="iso-8859-1"?>
<!-- Generator: Adobe Illustrator 19.0.0, SVG Export Plug-In . SVG Version: 6.00 Build 0)  -->
<svg version="1.1" id="Capa_1" xmlns="http://www.w3.org/2000/svg" xmlns:xlink="http://www.w3.org/1999/xlink" x="0px" y="0px"
	 viewBox="0 0 463 463" style="enable-background:new 0 0 463 463;" xml:space="preserve">
<g>
	<g id="XMLID_100_">
		<g>
			<path style="fill:#B58D5C;" d="M98.96,275.33c-2.93,6.76-6.74,12.64-10.31,18.16c-0.04,0.06-0.08,0.12-0.12,0.18l-1.25-8.7
				C91.24,281.87,95.17,278.66,98.96,275.33z"/>
			<path style="fill:#B58D5C;" d="M444.43,218.35c3.641,1.62,3.771,3.17,3.61,7.4c0,0.12-0.01,0.24-0.01,0.35
				c-2.641,1.29-9.94,2.19-16.19,1.91c-2.42-0.109-4.77,0.96-6.26,2.891c-5.53,7.1-13.49,10.33-23.63,9.59
				c-8.4-0.61-15.19-3.74-15.23-3.76c-2.87-1.37-6.279-0.78-8.529,1.47c-24.471,24.47-60.92,38.13-61.29,38.26
				c-1.49,0.55-2.761,1.56-3.641,2.88l-10.93,16.391l-2.45-2.461c-1.609-1.6-2.85-3.479-3.689-5.59v-0.01l5.85-23.41
				c6.72-4.359,23.76-16.59,32.17-33.41c1.85-3.699,0.35-8.21-3.36-10.06c-3.71-1.85-8.21-0.35-10.06,3.36
				c-8.35,16.689-28.85,28.739-29.04,28.859c-1.76,1.01-3.04,2.7-3.53,4.67l-7.01,28.051c-0.32,1.27-0.97,2.42-1.9,3.35
				L267.5,300.89l-7.62-7.62c-3.149-3.14-4.88-7.329-4.88-11.779V243.5c0-1.16-0.27-2.31-0.79-3.35l-16-32
				c-1.86-3.71-6.36-5.21-10.07-3.36c-3.699,1.85-5.199,6.36-3.35,10.06L240,245.27v7.441c-2.58,0.4-5.49,0.93-8.86,1.55
				c-12.43,2.28-31.21,5.74-55.64,5.74c-31.04,0-59.12-14.41-60.41-15.08c-0.02-0.01-0.04-0.02-0.06-0.03v-0.01
				c-0.021,0-0.03-0.01-0.05-0.02c-0.301-0.16-0.62-0.29-0.95-0.41c-0.09-0.03-0.181-0.07-0.271-0.101
				c-0.09-0.029-0.18-0.05-0.27-0.069c-0.141-0.04-0.28-0.08-0.42-0.11c-0.08-0.02-0.17-0.03-0.25-0.05
				c-0.16-0.021-0.311-0.05-0.471-0.07c-0.079-0.01-0.159-0.01-0.239-0.02c-0.16-0.011-0.33-0.021-0.49-0.021
				c-0.04,0-0.08-0.01-0.12-0.01c-0.04,0-0.08,0.01-0.13,0.01c-0.15,0-0.311,0.01-0.47,0.021c-0.091,0.01-0.181,0.01-0.261,0.02
				c-0.149,0.02-0.29,0.04-0.43,0.07c-0.09,0.01-0.189,0.03-0.29,0.05c-0.12,0.03-0.25,0.061-0.38,0.1
				c-0.2,0.051-0.39,0.11-0.58,0.181c-0.11,0.04-0.22,0.08-0.33,0.12c-0.1,0.04-0.21,0.09-0.31,0.14c-0.11,0.05-0.21,0.1-0.32,0.16
				c-0.09,0.05-0.18,0.1-0.27,0.149c-0.12,0.07-0.23,0.131-0.341,0.211c-0.08,0.05-0.159,0.109-0.239,0.159
				c-0.11,0.08-0.221,0.16-0.32,0.25c-0.08,0.061-0.15,0.12-0.23,0.181c-0.1,0.09-0.199,0.18-0.3,0.279
				c-0.069,0.07-0.14,0.141-0.21,0.21c-0.09,0.091-0.18,0.19-0.26,0.29c-0.07,0.08-0.14,0.16-0.21,0.25
				c-0.03,0.04-0.07,0.07-0.1,0.12C94.47,261.53,75.3,275.49,59.89,286.71c-5.01,3.64-9.29,6.78-12.89,9.58v-1.19
				c5.57-4.92,16-16.68,16-35.6c0-9.72-4.28-22.99-8.81-37.03c-5.33-16.54-12.641-39.189-8.131-47.34
				C55.75,157.62,91.22,155,111.5,155c22.29,0,57.58-11.14,94.96-22.93C245.51,119.74,285.89,107,311.5,107
				c16.71,0,34.12,2.84,47.75,7.8c17.25,6.271,28.45,15.53,33.29,27.51c0.92,2.261,2.87,3.931,5.24,4.49
				c8.97,2.12,34.51,11.19,34.22,24.53c-0.05,2.07,0.79,4.08,2.25,5.53c0.12,0.12,10.54,10.59,13.16,27.149
				c-2.83,0.03-5.53,1.67-6.76,4.431C438.96,212.22,440.65,216.65,444.43,218.35z M423.33,189.83c0-4.87-3.96-8.83-8.83-8.83
				c-4.87,0-8.84,3.96-8.84,8.83c0,4.87,3.97,8.84,8.84,8.84C419.37,198.67,423.33,194.7,423.33,189.83z M415,163.5
				c0-4.14-3.36-7.5-7.5-7.5h-18.6l-4.46-13.4c-2.12-6.34-8.03-10.6-14.71-10.6c-4.141,0-7.5,3.36-7.5,7.5s3.359,7.5,7.5,7.5
				c0.22,0,0.409,0.14,0.479,0.34l6.17,18.53c1.021,3.06,3.891,5.13,7.12,5.13h24C411.64,171,415,167.64,415,163.5z"/>
			<path style="fill:#3D484A;" d="M414.5,181c4.87,0,8.83,3.96,8.83,8.83c0,4.87-3.96,8.84-8.83,8.84c-4.87,0-8.84-3.97-8.84-8.84
				C405.66,184.96,409.63,181,414.5,181z"/>
			<path style="fill:#3D484A;" d="M407.5,156c4.14,0,7.5,3.36,7.5,7.5s-3.36,7.5-7.5,7.5h-24c-3.229,0-6.1-2.07-7.12-5.13
				l-6.17-18.53c-0.07-0.2-0.26-0.34-0.479-0.34c-4.141,0-7.5-3.36-7.5-7.5s3.359-7.5,7.5-7.5c6.68,0,12.59,4.26,14.71,10.6
				l4.46,13.4H407.5z"/>
			<path style="fill:#3D484A;" d="M110.21,244.12c0.14-0.03,0.28-0.05,0.43-0.07c0.08-0.01,0.17-0.01,0.261-0.02
				c0.159-0.011,0.319-0.021,0.47-0.021c0.05,0,0.09-0.01,0.13-0.01c0.04,0,0.08,0.01,0.12,0.01c0.16,0,0.33,0.01,0.49,0.021
				c0.08,0.01,0.16,0.01,0.239,0.02c0.16,0.02,0.311,0.05,0.471,0.07c0.08,0.02,0.17,0.03,0.25,0.05c0.14,0.03,0.279,0.07,0.42,0.11
				c0.09,0.02,0.18,0.04,0.27,0.069c0.09,0.03,0.181,0.07,0.271,0.101c0.33,0.12,0.649,0.25,0.95,0.41
				c0.02,0.01,0.029,0.02,0.05,0.02v0.01c0.02,0.011,0.04,0.021,0.06,0.03c1.29,0.67,29.37,15.08,60.41,15.08
				c24.43,0,43.21-3.46,55.64-5.74c3.37-0.62,6.28-1.149,8.86-1.55v-7.441l-15.21-30.42c-1.85-3.699-0.35-8.21,3.35-10.06
				c3.71-1.85,8.21-0.35,10.07,3.36l16,32c0.52,1.04,0.79,2.189,0.79,3.35v37.99c0,4.45,1.73,8.64,4.88,11.779l7.62,7.62
				l11.81-11.809c0.931-0.93,1.58-2.08,1.9-3.35l7.01-28.051c0.49-1.97,1.771-3.66,3.53-4.67c0.19-0.12,20.69-12.17,29.04-28.859
				c1.85-3.71,6.35-5.21,10.06-3.36c3.71,1.85,5.21,6.36,3.36,10.06c-8.41,16.82-25.45,29.051-32.17,33.41l-5.85,23.41v0.01
				c0.84,2.11,2.08,3.99,3.689,5.59l2.45,2.461l10.93-16.391c0.88-1.32,2.15-2.33,3.641-2.88c0.37-0.13,36.819-13.79,61.29-38.26
				c2.25-2.25,5.659-2.84,8.529-1.47c0.04,0.02,6.83,3.149,15.23,3.76c10.14,0.74,18.1-2.49,23.63-9.59
				c1.49-1.931,3.84-3,6.26-2.891c6.25,0.28,13.55-0.62,16.19-1.91c0-0.109,0.01-0.229,0.01-0.35c0.16-4.23,0.03-5.78-3.61-7.4
				c-3.779-1.699-5.47-6.13-3.779-9.909c1.229-2.761,3.93-4.4,6.76-4.431c-2.62-16.56-13.04-27.029-13.16-27.149
				c-1.46-1.45-2.3-3.46-2.25-5.53c0.29-13.34-25.25-22.41-34.22-24.53c-2.37-0.56-4.32-2.23-5.24-4.49
				c-4.84-11.98-16.04-21.239-33.29-27.51c-13.63-4.96-31.04-7.8-47.75-7.8c-25.61,0-65.99,12.74-105.04,25.07
				C169.08,143.86,133.79,155,111.5,155c-20.28,0-55.75,2.62-65.44,20.13c-4.51,8.15,2.801,30.8,8.131,47.34
				C58.72,236.51,63,249.78,63,259.5c0,18.92-10.43,30.68-16,35.6v1.19c3.6-2.8,7.88-5.94,12.89-9.58
				c15.41-11.22,34.58-25.18,45.631-39.74c0.029-0.05,0.069-0.08,0.1-0.12c0.07-0.09,0.14-0.17,0.21-0.25
				c0.08-0.1,0.17-0.199,0.26-0.29c0.07-0.069,0.141-0.14,0.21-0.21c0.101-0.1,0.2-0.189,0.3-0.279c0.08-0.061,0.15-0.12,0.23-0.181
				c0.1-0.09,0.21-0.17,0.32-0.25c0.08-0.05,0.159-0.109,0.239-0.159c0.11-0.08,0.221-0.141,0.341-0.211
				c0.09-0.05,0.18-0.1,0.27-0.149c0.11-0.061,0.21-0.11,0.32-0.16c0.1-0.05,0.21-0.1,0.31-0.14c0.11-0.04,0.22-0.08,0.33-0.12
				c0.19-0.07,0.38-0.13,0.58-0.181c0.13-0.039,0.26-0.069,0.38-0.1C110.021,244.15,110.12,244.13,110.21,244.12z M463,211.5
				c0,0,0,15.64,0,16c0,3.45-1.37,6.57-3.96,9.04c-5.81,5.56-17.44,6.49-24.15,6.52c-14.859,15.86-36.6,13.771-49.699,9.21
				c-22.971,21.311-52.301,33.98-60.771,37.36L311,309.77v19.58l18.86,30.181c1.44,2.31,1.52,5.22,0.199,7.609
				c-1.319,2.38-3.84,3.86-6.56,3.86h-16c-3.67,0-6.8-2.65-7.4-6.27l-4-24c-0.069-0.4-0.1-0.82-0.1-1.23v-28.89l-6.729-6.73
				c-0.591-0.59-1.15-1.21-1.7-1.85L271,318.61v10.739l18.86,30.181c1.44,2.31,1.52,5.22,0.199,7.609
				c-1.319,2.38-3.84,3.86-6.56,3.86h-16c-3.67,0-6.8-2.65-7.4-6.27l-4-24c-0.069-0.4-0.1-0.82-0.1-1.23v-28.89l-6.73-6.73
				c-5.98-5.98-9.27-13.93-9.27-22.39v-13.58c-1.85,0.31-3.91,0.689-6.15,1.1C220.89,271.4,201.3,275,175.5,275
				c-23.66,0-45.23-7.21-57.35-12.21c-2.551,16.7-10.391,28.79-16.92,38.86c-4.66,7.18-8.69,13.409-8.881,18.779l0.891,6.24
				l27.899,31.89c1.94,2.221,2.4,5.36,1.19,8.04c-1.22,2.681-3.89,4.4-6.83,4.4h-16c-2.84,0-5.44-1.61-6.71-4.15l-12-24
				c-0.36-0.72-0.6-1.489-0.72-2.29L73.6,295.27c-1.659,1.211-3.29,2.41-4.89,3.561c-8.29,6.04-19.51,14.21-21.71,17.6v12.92
				l18.86,30.181c1.439,2.31,1.52,5.22,0.199,7.609c-1.319,2.38-3.84,3.86-6.56,3.86h-16c-3.67,0-6.8-2.65-7.4-6.27l-4-24
				c-0.069-0.4-0.1-0.82-0.1-1.23v-48c0-2.53,1.271-4.88,3.38-6.27C35.85,284.91,48,276.47,48,259.5c0-7.36-4.11-20.1-8.09-32.43
				c-7.19-22.301-14.63-45.37-6.98-59.2c2.24-4.05,5.261-7.66,9.051-10.83C38.85,155.9,35.21,155,31.5,155
				c-8.79,0-16.5,7.71-16.5,16.5v8c0,9.04,1.92,16.26,3.97,23.9c1.98,7.42,4.03,15.09,4.03,24.1c0,18.3-8.49,34.78-8.85,35.47
				C12.83,265.49,10.24,267,7.5,267c-0.59,0-1.19-0.07-1.79-0.22C2.36,265.96,0,262.95,0,259.5v-88C0,154.42,14.42,140,31.5,140
				c11.521,0,21.85,5.39,26.18,8c13.45-5.32,31.42-8,53.82-8c19.98,0,55.8-11.3,90.44-22.24C242.08,105.1,283.58,92,311.5,92
				c10.81,0,32.05,1.13,52.87,8.7c19.82,7.21,33.43,18.12,40.5,32.46c2.78,0.8,6.74,2.059,11.13,3.87v-2.221
				c0-0.13-0.06-0.26-0.15-0.35l-5.659-5.66c-2.931-2.93-2.931-7.68,0-10.6c2.93-2.931,7.68-2.931,10.609,0l5.66,5.649
				c2.92,2.931,4.54,6.82,4.54,10.96v10.2c8.08,5.61,14.87,13.271,15.87,23.44C451.73,174.1,463,189.57,463,211.5z M88.65,293.49
				c3.569-5.521,7.38-11.4,10.31-18.16c-3.79,3.33-7.72,6.54-11.68,9.64l1.25,8.7C88.57,293.61,88.61,293.55,88.65,293.49z"/>
		</g>
	</g>
</g>
<g>
</g>
<g>
</g>
<g>
</g>
<g>
</g>
<g>
</g>
<g>
</g>
<g>
</g>
<g>
</g>
<g>
</g>
<g>
</g>
<g>
</g>
<g>
</g>
<g>
</g>
<g>
</g>
<g>
</g>
</svg>
