<?xml version="1.0" encoding="iso-8859-1"?>
<!-- Generator: Adobe Illustrator 19.0.0, SVG Export Plug-In . SVG Version: 6.00 Build 0)  -->
<svg version="1.1" id="Capa_1" xmlns="http://www.w3.org/2000/svg" xmlns:xlink="http://www.w3.org/1999/xlink" x="0px" y="0px"
	 viewBox="0 0 463.001 463.001" style="enable-background:new 0 0 463.001 463.001;" xml:space="preserve">
<g id="XMLID_56_">
	<g>
		<path style="fill:#695F53;" d="M259.401,314.436l1.79,5.55h-17.05l-12.54-25.08l6.49-19.48c7.17,0.08,14.61-0.15,21.94-0.87
			c-2.1,2.4-4.4,4.581-6.91,6.51c-4.71,3.63-8.41,5-8.41,5c-3.67,1.27-5.76,5.13-4.82,8.9l3.33,13.34c0.92,3.67,4.43,6.08,8.19,5.62
			l6.04-0.73C258.311,313.086,259.131,313.606,259.401,314.436z"/>
		<path style="fill:#695F53;" d="M86.601,285.015l1.15,2.01l-4.66,13.97c-0.6,1.79-2.26,2.99-4.15,2.99h-2.76L86.601,285.015z"/>
		<path style="fill:#B8A791;" d="M448.001,257.256v0.82l-15.92,5.311l-29.23-14.61c-1.04-0.52-2.19-0.79-3.35-0.79h-16
			c-9.96,0-15.96-12.63-16.56-17.43c-0.51-4.11-4.26-7.03-8.37-6.51c-4.11,0.51-7.03,4.26-6.51,8.37c0.33,2.65,1.23,5.86,2.7,9.2
			l-8.56,8.56c-1.41,1.41-2.2,3.32-2.2,5.31v24c0,1.66,0.55,3.27,1.57,4.59c4.26,5.51,25.78,32,44.94,32c0.8,0,1.6-0.05,2.39-0.15
			c2.86-0.34,5.79,1.44,8.38,3.98c-15.09-0.07-35.17-0.13-41.07,0.04c-6.71-2.52-40-21.2-56.83-31.38
			c-5.48-3.31-14.87-26.77-20.49-58.87c-0.72-4.08-4.6-6.81-8.68-6.1c-4.08,0.72-6.81,4.6-6.1,8.68c0.09,0.52,2.07,11.72,5.56,24.96
			c-33.26,7.73-80.28-1.03-80.77-1.12c-2.23-0.42-4.53,0.18-6.26,1.66c-13.5,11.5-48.27,20.02-60.53,22.34
			c-1.96,0.37-3.69,1.5-4.81,3.15c-1.12,1.64-1.54,3.67-1.17,5.62l4,21c0.43,2.22,1.83,4.13,3.81,5.2c1.99,1.07,4.36,1.19,6.44,0.32
			l3.33-1.38c1.72-0.72,3.73-0.12,4.76,1.44l3.02,4.52h-21.64l-28.14-49.25c-0.06-0.11-0.05-0.15-0.04-0.18
			c3.62-11.81,11.57-41.73,7.2-64.49c-0.79-4.07-4.72-6.73-8.79-5.95c-4.06,0.79-6.73,4.72-5.95,8.79c0.22,1.12,0.39,2.28,0.54,3.45
			c-7.11,14.04-23.77,30.22-48.23,46.82c-9.21,6.25-17.96,11.49-24.56,15.24c1.54-14.58,5.38-34.97,13.71-46.55
			c6.7-9.32,32.68-30.56,64.56-49.979c36.43-22.18,69-34.9,89.35-34.9c26.83,0,48.45,4.53,69.36,8.91
			c17.37,3.65,33.78,7.09,50.64,7.09c19.69,0,31.54,7.67,41.99,14.45c7.03,4.55,13.67,8.85,21.36,9.52c1.7,0.15,3.69,0.5,5.89,1
			c-2.35,2.08-4.27,4.69-5.52,7.79c-3.2,7.95-1.11,17.2,5.18,23.02c1.45,1.331,3.27,1.99,5.09,1.99c2.02,0,4.03-0.81,5.51-2.41
			c2.81-3.05,2.62-7.791-0.42-10.601c-1.75-1.62-2.33-4.19-1.44-6.41c1.19-2.95,4.56-4.39,7.52-3.2c2.36,0.95,3.81,3.29,3.6,5.82
			c-0.33,4.13,2.75,7.75,6.87,8.08c4.14,0.33,7.75-2.74,8.08-6.87c0.15-1.77,0.06-3.51-0.23-5.2c1.36,0.57,2.61,1.11,3.69,1.58
			l22.42,29.9L448.001,257.256z"/>
		<path style="fill:#3D484A;" d="M463.001,255.486v8c0,3.23-2.07,6.09-5.13,7.11l-24,8c-1.88,0.63-3.94,0.49-5.72-0.4l-30.42-15.21
			h-14.23c-8.38,0-15.12-3.68-20.18-8.71l-4.32,4.31v18.24c2.22,2.67,6.59,7.7,11.8,12.54c12.51,11.6,18.69,11.86,20.3,11.67
			c15.57-1.9,26.97,13.811,31.25,23.39c1.04,2.32,0.82,5.02-0.57,7.16c-1.39,2.13-3.77,3.38-6.33,3.4
			c-19.77-0.13-52.26-0.25-55.28-0.03c-0.33,0.03-0.65,0.06-1.02,0.06c-2.44,0-6.78-1.45-29.16-13.85
			c-13.09-7.24-27.2-15.43-34.37-19.76c-4.16-2.52-10.14-8.13-16.86-27.33c-7.36,12.57-16.74,19.6-22.85,23.13l0.26,1.04
			c7.78-0.7,15.08,4.101,17.5,11.57l4.97,15.36c0.73,2.28,0.34,4.78-1.08,6.72c-1.41,1.94-3.66,3.09-6.06,3.09h-32
			c-2.84,0-5.44-1.61-6.71-4.15l-16-32c-0.89-1.78-1.03-3.84-0.41-5.72l6.11-18.32c-13.03-0.89-23.76-2.48-29-3.35
			c-15.72,11.42-43.89,18.82-57.25,21.85l1.05,5.52c6.83-0.69,13.71,2.39,17.66,8.33l10.79,16.18c1.53,2.3,1.68,5.26,0.37,7.7
			c-1.3,2.44-3.84,3.96-6.61,3.96h-40c-2.69,0-5.18-1.44-6.51-3.78l-15.26-26.7l-0.41,1.23c-2.64,7.92-10.03,13.25-18.38,13.25
			h-15.44c-2.65,0-5.1-1.4-6.46-3.68c-1.34-2.28-1.39-5.11-0.11-7.43l26-47.34c0.01-0.02,0.03-0.04,0.04-0.07
			c1.47-5.37,3.3-12.92,4.59-21.14c-27.53,30.05-74.31,53.67-76.71,54.87c-1.05,0.53-2.2,0.79-3.35,0.79
			c-1.39,0-2.78-0.39-3.99-1.15c-2.22-1.4-3.55-3.85-3.51-6.47c0.03-1.84,0.89-45.28,17.41-68.26
			c8.92-12.41,37.92-35.14,68.94-54.03c22.75-13.85,65.62-37.09,97.15-37.09c28.39,0,51.79,4.9,72.43,9.23
			c17.32,3.63,32.27,6.77,47.57,6.77c24.12,0,39.16,9.74,50.15,16.86c5.65,3.66,10.53,6.82,14.5,7.169
			c16.13,1.4,46.96,15.07,50.42,16.63c1.16,0.52,2.17,1.32,2.93,2.34l24,32c0.27,0.36,0.51,0.74,0.71,1.14l16,32
			C462.731,253.175,463.001,254.316,463.001,255.486z M448.001,258.075v-0.82l-14.91-29.81l-22.42-29.9
			c-1.08-0.47-2.33-1.01-3.69-1.58c0.29,1.69,0.38,3.43,0.23,5.2c-0.33,4.13-3.94,7.2-8.08,6.87c-4.12-0.33-7.2-3.95-6.87-8.08
			c0.21-2.53-1.24-4.87-3.6-5.82c-2.96-1.19-6.33,0.25-7.52,3.2c-0.89,2.22-0.31,4.79,1.44,6.41c3.04,2.81,3.23,7.55,0.42,10.601
			c-1.48,1.6-3.49,2.41-5.51,2.41c-1.82,0-3.64-0.66-5.09-1.99c-6.29-5.82-8.38-15.07-5.18-23.02c1.25-3.1,3.17-5.71,5.52-7.79
			c-2.2-0.5-4.19-0.85-5.89-1c-7.69-0.67-14.33-4.97-21.36-9.52c-10.45-6.78-22.3-14.45-41.99-14.45c-16.86,0-33.27-3.44-50.64-7.09
			c-20.91-4.38-42.53-8.91-69.36-8.91c-20.35,0-52.92,12.72-89.35,34.9c-31.88,19.419-57.86,40.66-64.56,49.979
			c-8.33,11.58-12.17,31.97-13.71,46.55c6.6-3.75,15.35-8.99,24.56-15.24c24.46-16.6,41.12-32.78,48.23-46.82
			c-0.15-1.17-0.32-2.33-0.54-3.45c-0.78-4.07,1.89-8,5.95-8.79c4.07-0.78,8,1.88,8.79,5.95c4.37,22.76-3.58,52.68-7.2,64.49
			c-0.01,0.03-0.02,0.07,0.04,0.18l28.14,49.25h21.64l-3.02-4.52c-1.03-1.56-3.04-2.16-4.76-1.44l-3.33,1.38
			c-2.08,0.87-4.45,0.75-6.44-0.32c-1.98-1.07-3.38-2.98-3.81-5.2l-4-21c-0.37-1.95,0.05-3.98,1.17-5.62
			c1.12-1.65,2.85-2.78,4.81-3.15c12.26-2.32,47.03-10.84,60.53-22.34c1.73-1.48,4.03-2.08,6.26-1.66
			c0.49,0.09,47.51,8.85,80.77,1.12c-3.49-13.24-5.47-24.44-5.56-24.96c-0.71-4.08,2.02-7.96,6.1-8.68c4.08-0.71,7.96,2.02,8.68,6.1
			c5.62,32.1,15.01,55.56,20.49,58.87c16.83,10.18,50.12,28.86,56.83,31.38c5.9-0.17,25.98-0.11,41.07-0.04
			c-2.59-2.54-5.52-4.32-8.38-3.98c-0.79,0.1-1.59,0.15-2.39,0.15c-19.16,0-40.68-26.49-44.94-32c-1.02-1.32-1.57-2.93-1.57-4.59
			v-24c0-1.99,0.79-3.9,2.2-5.31l8.56-8.56c-1.47-3.34-2.37-6.55-2.7-9.2c-0.52-4.11,2.4-7.86,6.51-8.37
			c4.11-0.52,7.86,2.4,8.37,6.51c0.6,4.8,6.6,17.43,16.56,17.43h16c1.16,0,2.31,0.27,3.35,0.79l29.23,14.61L448.001,258.075z
			 M261.191,319.986l-1.79-5.55c-0.27-0.83-1.09-1.35-1.95-1.24l-6.04,0.73c-3.76,0.46-7.27-1.95-8.19-5.62l-3.33-13.34
			c-0.94-3.77,1.15-7.63,4.82-8.9c0,0,3.7-1.37,8.41-5c2.51-1.93,4.81-4.11,6.91-6.51c-7.33,0.72-14.77,0.95-21.94,0.87l-6.49,19.48
			l12.54,25.08H261.191z M87.751,287.026l-1.15-2.01l-10.42,18.97h2.76c1.89,0,3.55-1.2,4.15-2.99L87.751,287.026z"/>
	</g>
</g>
<g>
</g>
<g>
</g>
<g>
</g>
<g>
</g>
<g>
</g>
<g>
</g>
<g>
</g>
<g>
</g>
<g>
</g>
<g>
</g>
<g>
</g>
<g>
</g>
<g>
</g>
<g>
</g>
<g>
</g>
</svg>
