<?xml version="1.0" encoding="iso-8859-1"?>
<!-- Generator: Adobe Illustrator 19.0.0, SVG Export Plug-In . SVG Version: 6.00 Build 0)  -->
<svg version="1.1" id="Capa_1" xmlns="http://www.w3.org/2000/svg" xmlns:xlink="http://www.w3.org/1999/xlink" x="0px" y="0px"
	 viewBox="0 0 462.085 462.085" style="enable-background:new 0 0 462.085 462.085;" xml:space="preserve">
<g id="XMLID_57_">
	<g>
		<path style="fill:#795D3A;" d="M128.403,258.349c0.71,6.91,2.4,13.86,4.86,20.12c-9.89,3.07-26.69,7.57-45.75,10.43
			c-26.8,4.03-49.8,3.53-67.31-1.4c3.38-3.14,8.38-7.01,15.52-10.91C63.173,261.589,100.064,258.229,128.403,258.349z"/>
		<path style="fill:#A27E4E;" d="M442.704,210.129l3.67,7.34l-1.98,1.98h-27.12l-14.42-7.21c-3.7-1.86-8.21-0.35-10.06,3.35
			c-1.85,3.71-0.35,8.21,3.35,10.06l1.53,0.77c-3.75,3.91-8.49,8.72-10.93,10.73c-3.53,2.7-23.62,6.3-35.24,6.3
			c-12.76,0-26.42,8.18-27.93,9.11c-2.66,1.63-4.03,4.74-3.44,7.8l4.53,23.46l-27.01-32.41l11.15-11.16c2.93-2.93,2.93-7.68,0-10.61
			c-2.93-2.93-7.68-2.93-10.6,0l-16,16c-2.75,2.74-2.95,7.13-0.46,10.11l5.3,6.37c-9.12,2.74-22.23,4.15-32.91,4.811
			c5.93-8.84,10.03-19.78,8.84-32.67c-0.38-4.13-4.03-7.16-8.16-6.78c-4.12,0.38-7.16,4.03-6.78,8.15
			c2.49,26.97-30.28,44.13-30.6,44.3c-3.19,1.62-4.79,5.28-3.82,8.72c0.3,1.06,0.82,2,1.49,2.8h-47.6c-10.27,0-24.5-14.08-24.5-40.5
			c0-15.49,8.96-35.75,22.83-51.63c9.43-10.79,29.44-28.87,57.67-28.87c49.73,0,101.3,15.51,101.81,15.67
			c1.77,0.54,3.67,0.41,5.34-0.37c0.19-0.08,19.17-8.46,33.06-0.33c2.14,1.25,4.76,1.36,7,0.31c0.18-0.09,15.24-7.09,31.06-8.09
			c-1.15,1.97-2.23,4.1-3.19,6.419c-1.6,3.82,0.21,8.22,4.03,9.81c0.95,0.39,1.92,0.58,2.89,0.58c2.93,0,5.72-1.74,6.92-4.62
			c3.05-7.31,7.55-12,11.58-14.95v6.07c0,4.14,3.36,7.5,7.5,7.5c1.42,0,2.74-0.41,3.87-1.09c1.65,2.43,2.71,5.07,3.39,7.48
			c-0.19-0.01-0.37-0.03-0.52-0.04c-4.13-0.31-7.73,2.77-8.05,6.9c-0.32,4.13,2.77,7.74,6.9,8.06
			C437.524,209.789,440.104,209.989,442.704,210.129z"/>
		<path style="fill:#3D484A;" d="M460.843,212.859c2.26,4.52,1.38,9.97-2.2,13.55l-3.75,3.75c-2.76,2.76-6.44,4.29-10.35,4.29
			h-29.04c-1.17,0-2.31-0.28-3.36-0.8l-0.44-0.22c-3.22,3.43-11.24,11.85-15.43,15.31c-8.97,7.38-37.5,9.71-44.77,9.71
			c-5,0-11.21,2.39-15.59,4.49l3.02,15.66l9.97-0.8c0.2-0.01,0.4-0.02,0.6-0.02c4.51,0,11.13,3.2,17,18.47
			c0.89,2.31,0.58,4.91-0.82,6.94c-1.4,2.04-3.71,3.26-6.18,3.26h-32c-2.23,0-4.34-0.99-5.76-2.7l-24.49-29.38
			c-14.15,5.99-38.7,7.54-50.74,7.94c3.47,3.7,6.12,9.09,7.99,13.94c0.89,2.31,0.58,4.91-0.82,6.94c-1.4,2.04-3.71,3.26-6.18,3.26
			h-80c-10.42,0-19.78-5.14-26.88-14.59c-10,3.24-29.13,8.61-50.88,11.88c-12.88,1.93-24.88,2.9-35.95,2.9
			c-19.32,0-35.82-2.94-49.29-8.82c-1.92-0.84-3.41-2.45-4.09-4.43c-0.69-1.99-0.51-4.171,0.49-6.01
			c1.01-1.86,25.3-44.5,127.6-44.03c2.22-17.57,11.77-37.57,26.04-53.9c19.16-21.93,43.65-34,68.96-34
			c46.14,0,92.24,12.31,103.6,15.56c6.73-2.51,24.49-7.74,40.68-0.36c7.96-3.24,28.09-10.29,46.86-7.46
			c7.71-5.77,14.7-7.45,15.2-7.56c2.23-0.5,4.56,0.03,6.34,1.46c1.78,1.42,2.82,3.58,2.82,5.86v7.1c0.03,0.02,0.07,0.04,0.1,0.06
			c13.39,9.27,15.52,25.29,15.84,30.95L460.843,212.859z M446.374,217.469l-3.67-7.34c-2.6-0.14-5.18-0.34-5.61-0.37
			c-4.13-0.32-7.22-3.93-6.9-8.06c0.32-4.13,3.92-7.21,8.05-6.9c0.15,0.01,0.33,0.03,0.52,0.04c-0.68-2.41-1.74-5.05-3.39-7.48
			c-1.13,0.68-2.45,1.09-3.87,1.09c-4.14,0-7.5-3.36-7.5-7.5v-6.07c-4.03,2.95-8.53,7.64-11.58,14.95c-1.2,2.88-3.99,4.62-6.92,4.62
			c-0.97,0-1.94-0.19-2.89-0.58c-3.82-1.59-5.63-5.99-4.03-9.81c0.96-2.32,2.04-4.45,3.19-6.419c-15.82,1-30.88,8-31.06,8.09
			c-2.24,1.05-4.86,0.94-7-0.31c-13.89-8.13-32.87,0.25-33.06,0.33c-1.67,0.78-3.57,0.91-5.34,0.37
			c-0.51-0.16-52.08-15.67-101.81-15.67c-28.23,0-48.24,18.08-57.67,28.87c-13.87,15.88-22.83,36.14-22.83,51.63
			c0,26.42,14.23,40.5,24.5,40.5h47.6c-0.67-0.8-1.19-1.74-1.49-2.8c-0.97-3.44,0.63-7.1,3.82-8.72
			c0.32-0.17,33.09-17.331,30.6-44.3c-0.38-4.12,2.66-7.77,6.78-8.15c4.13-0.38,7.78,2.65,8.16,6.78
			c1.19,12.89-2.91,23.83-8.84,32.67c10.68-0.66,23.79-2.07,32.91-4.811l-5.3-6.37c-2.49-2.98-2.29-7.37,0.46-10.11l16-16
			c2.92-2.93,7.67-2.93,10.6,0c2.93,2.93,2.93,7.68,0,10.61l-11.15,11.16l27.01,32.41l-4.53-23.46c-0.59-3.06,0.78-6.17,3.44-7.8
			c1.51-0.93,15.17-9.11,27.93-9.11c11.62,0,31.71-3.6,35.24-6.3c2.44-2.01,7.18-6.82,10.93-10.73l-1.53-0.77
			c-3.7-1.85-5.2-6.35-3.35-10.06c1.85-3.7,6.36-5.21,10.06-3.35l14.42,7.21h27.12L446.374,217.469z M133.264,278.469
			c-2.46-6.26-4.15-13.21-4.86-20.12c-28.34-0.12-65.23,3.24-92.68,18.24c-7.14,3.9-12.14,7.77-15.52,10.91
			c17.51,4.93,40.51,5.43,67.31,1.4C106.573,286.039,123.374,281.539,133.264,278.469z"/>
	</g>
</g>
<g>
</g>
<g>
</g>
<g>
</g>
<g>
</g>
<g>
</g>
<g>
</g>
<g>
</g>
<g>
</g>
<g>
</g>
<g>
</g>
<g>
</g>
<g>
</g>
<g>
</g>
<g>
</g>
<g>
</g>
</svg>
