<?xml version="1.0" encoding="iso-8859-1"?>
<!-- Generator: Adobe Illustrator 19.0.0, SVG Export Plug-In . SVG Version: 6.00 Build 0)  -->
<svg version="1.1" id="Capa_1" xmlns="http://www.w3.org/2000/svg" xmlns:xlink="http://www.w3.org/1999/xlink" x="0px" y="0px"
	 viewBox="0 0 463.001 463.001" style="enable-background:new 0 0 463.001 463.001;" xml:space="preserve">
<g id="XMLID_59_">
	<g>
		<path style="fill:#89643D;" d="M354.412,236.31l2.77,13.83l-8.319-8.98C350.771,239.48,352.632,237.861,354.412,236.31z"/>
		<path style="fill:#89643D;" d="M229.021,253.73l-11.81,14.31l2.57-14.14C222.832,253.861,225.912,253.8,229.021,253.73z"/>
		<path style="fill:#BC8753;" d="M442.561,189.58l-4.829,2.42h-22.23c-17.76,0-41.05,9.06-52.45,17.46
			c-6.08,4.48-28.729,24.44-45.29,39.15c0.53-2.811,0.96-5.66,1.21-8.43c0.221-2.39-0.72-4.74-2.529-6.32
			c-1.801-1.581-4.25-2.2-6.591-1.68c-17.89,4.04-55.84,6.18-88.76,6.7c2.91-3.41,5.78-7.09,8.561-11.09
			c2.369-3.4,1.54-8.08-1.86-10.44c-3.4-2.37-8.08-1.54-10.44,1.86c-11.93,17.12-26.72,29.86-43.96,37.87
			c-2.939,1.36-5.689,2.45-8.199,3.34l15.609-15.62c2.29-2.28,2.851-5.77,1.41-8.649l-8-16c-1.03-2.07-2.96-3.54-5.229-4
			c-2.261-0.461-4.61,0.149-6.36,1.66l-36.061,30.91c-11.5,9.85-26.18,15.28-41.319,15.28h-47.76c8.71-3.06,20.26-6.28,35.409-9.13
			c27.54-5.18,54.2-23.17,79.99-40.56c29.96-20.22,58.271-39.31,86.62-39.31c41.34,0,69.73,7.65,70.01,7.73
			c0.65,0.18,1.32,0.27,1.99,0.27h40c7.26,0,16.62-3.6,27.45-7.76c2.39-0.92,4.85-1.86,7.31-2.77c0.84,5.96,4.88,11.01,11.01,13.66
			c0.971,0.42,1.98,0.62,2.98,0.62c2.9,0,5.66-1.69,6.88-4.52c1.65-3.81-0.1-8.22-3.899-9.86c-0.94-0.41-2.07-1.1-2.131-2.13
			c-0.05-0.78,0.431-1.93,1.591-2.73c1.739-0.32,3.369-0.51,4.81-0.51C414.122,167,429.362,177.721,442.561,189.58z"/>
		<path style="fill:#3D484A;" d="M460.802,186.201c1.71,1.7,2.49,4.12,2.101,6.5c-0.381,2.38-1.891,4.43-4.051,5.51l-16,8
			c-1.04,0.52-2.189,0.79-3.35,0.79h-24c-15.34,0-35.49,8.6-43.55,14.54c-0.99,0.72-2.53,1.97-4.48,3.58l13.75,68.75
			c0.25,1.23,1.34,2.13,2.601,2.13h7.68c4.14,0,7.5,3.36,7.5,7.5c0,4.14-3.36,7.5-7.5,7.5h-7.68c-8.38,0-15.66-5.97-17.31-14.19
			l-3.7-18.51l-25.21-27.23c-9.59,8.47-19.31,17.14-26.6,23.68v21.23l8.5,0.02c4.14,0,7.5,3.36,7.5,7.5c0,4.14-3.36,7.5-7.5,7.5
			h-8.48c-8.279,0-15.02-6.74-15.02-15.02V271.5c0-0.92,0.17-1.83,0.5-2.69c0.05-0.12,3.66-9.62,5.93-20.06
			c-14.17,2.09-33.449,3.51-53.43,4.35l-27.71,33.56l5.14,7.71c0.681,1.02,1.82,1.63,3.04,1.63h5.03c4.14,0,7.5,3.36,7.5,7.5
			c0,4.14-3.36,7.5-7.5,7.5h-5.03c-6.25,0-12.05-3.11-15.52-8.31l-12.69-19.03c-1.08-1.62-1.49-3.59-1.14-5.5l4.149-22.83
			c-18.289,14.83-35.909,20.43-45.27,22.49v16.541c0,0.91,0.73,1.64,1.64,1.64h6.86c4.14,0,7.5,3.36,7.5,7.5
			c0,4.14-3.36,7.5-7.5,7.5h-6.86c-9.18,0-16.64-7.46-16.64-16.64V263.5c0-1.99,0.79-3.9,2.2-5.3l20.17-20.18l-1.28-2.57
			l-28.77,24.65c-14.221,12.19-32.36,18.9-51.08,18.9H7.502c-2.91,0-5.56-1.69-6.8-4.33c-1.23-2.64-0.82-5.75,1.05-7.98
			c1.39-1.67,15.14-16.539,68.36-26.56c24.5-4.61,49.859-21.72,74.38-38.26c30.52-20.58,62.069-41.87,95.01-41.87
			c39.55,0,67.32,6.55,72.97,8h39.03c4.47,0,13.82-3.59,22.07-6.76c11.819-4.54,24.05-9.24,33.93-9.24
			C425.692,152,455.092,180.491,460.802,186.201z M437.732,192l4.829-2.42c-13.199-11.86-28.439-22.58-35.06-22.58
			c-1.44,0-3.07,0.19-4.81,0.51c-1.16,0.8-1.641,1.95-1.591,2.73c0.061,1.03,1.19,1.72,2.131,2.13c3.8,1.64,5.55,6.05,3.899,9.86
			c-1.22,2.83-3.979,4.52-6.88,4.52c-1,0-2.01-0.2-2.98-0.62c-6.13-2.65-10.17-7.7-11.01-13.66c-2.46,0.91-4.92,1.85-7.31,2.77
			c-10.83,4.16-20.19,7.76-27.45,7.76h-40c-0.67,0-1.34-0.09-1.99-0.27c-0.279-0.08-28.67-7.73-70.01-7.73
			c-28.35,0-56.66,19.09-86.62,39.31c-25.79,17.39-52.45,35.38-79.99,40.56c-15.149,2.85-26.699,6.07-35.409,9.13h47.76
			c15.14,0,29.819-5.43,41.319-15.28l36.061-30.91c1.75-1.51,4.1-2.12,6.36-1.66c2.27,0.46,4.199,1.93,5.229,4l8,16
			c1.44,2.879,0.88,6.37-1.41,8.649l-15.609,15.62c2.51-0.89,5.26-1.98,8.199-3.34c17.24-8.01,32.03-20.75,43.96-37.87
			c2.36-3.4,7.04-4.23,10.44-1.86c3.4,2.36,4.23,7.04,1.86,10.44c-2.78,4-5.65,7.68-8.561,11.09c32.92-0.52,70.87-2.66,88.76-6.7
			c2.341-0.52,4.79,0.1,6.591,1.68c1.81,1.579,2.75,3.93,2.529,6.32c-0.25,2.77-0.68,5.62-1.21,8.43
			c16.56-14.71,39.21-34.671,45.29-39.15c11.4-8.4,34.69-17.46,52.45-17.46H437.732z M357.181,250.14l-2.77-13.83
			c-1.78,1.55-3.641,3.17-5.55,4.85L357.181,250.14z M217.212,268.04l11.81-14.31c-3.109,0.07-6.189,0.13-9.239,0.17L217.212,268.04
			z"/>
	</g>
</g>
<g>
</g>
<g>
</g>
<g>
</g>
<g>
</g>
<g>
</g>
<g>
</g>
<g>
</g>
<g>
</g>
<g>
</g>
<g>
</g>
<g>
</g>
<g>
</g>
<g>
</g>
<g>
</g>
<g>
</g>
</svg>
